M48
;Layer_Color=9474304
;FILE_FORMAT=2:5
INCH,LZ
;TYPE=PLATED
T1F00S00C0.01400
T2F00S00C0.01402
T3F00S00C0.02800
T4F00S00C0.03346
T5F00S00C0.03543
T6F00S00C0.10827
T7F00S00C0.12598
%
T01
X038865Y0004827
X038815Y002648
Y0048134
Y0069787
Y0091441
Y0113094
Y0134748
X0359606
X036815Y0126094
X0359606Y0113094
X036815Y0104441
X0359606Y0091441
X036815Y0082787
X0359606Y0069787
X036815Y0061134
X0359606Y0048134
X036815Y003948
X0359606Y002648
X036815Y0017827
X0359606Y0004827
X0331063
X0316929Y0004725
X0311063Y0017827
Y003948
X0311024Y0061024
X0311063Y0082787
Y0104441
Y0126094
X0339606
X0331063Y0134748
Y0113094
X0339606Y0104441
X0331063Y0091441
X0339606Y0082787
X0331063Y0069787
X0339606Y0061134
X0331102Y0048031
X0339606Y003948
X0331063Y002648
X0339606Y0017827
X0272835Y0019685
X0273622Y001378
X0273228Y000748
X0245276
Y0019685
X0216535
Y000748
X021811Y0070276
X0246063Y0114764
X0211811Y0108858
X0198425
X0190945
X0193701Y008563
X0208661Y0073032
X0211811
X0166929Y0072244
X0143701Y0081299
X0133858Y0069488
X0136614Y0056496
Y0050197
X0133465Y0053346
X0130315Y0050197
Y0056496
X0114173Y005374
X0096457Y0063583
Y0072638
X0070866Y0076181
X0062205Y0052165
X0072835Y0019685
Y000748
X0102362
Y0019685
X0131102
Y000748
X0159449
X0159055Y0019685
X0187795
X0188189Y000748
X0173228Y0041535
X0149606Y0048622
X0135433Y0032087
X011811Y0088779
X0132283Y0110039
X0029921Y0097835
X0024016Y0090354
X0016535Y0019685
X0015748Y001378
X0016929Y000748
X0044488
X0044094Y0019685
X0036614Y0165945
X0021654Y0152165
X0180315Y0182087
X0311063Y0191055
Y0169402
Y0147748
X0339606
X0331063Y0156402
X0339606Y0169402
X0331063Y0178055
X0339606Y0191055
X036815
X0359606Y0178055
X036815Y0169402
X0359606Y0156402
X036815Y0147748
X038815Y0156402
Y0178055
T02
X0339764Y0010827
X0362205Y0010236
X0359449Y0185433
X0330906Y0185039
X0380709Y0190945
T03
X0388583Y0033071
X0388189Y0075984
Y0119685
X0359449
X0330669
X033937Y0140945
X036811
Y0097638
X033937
X0310591
X027437Y0100945
X0256693Y0095866
X0256299Y0112402
X0251575Y0137205
X0310591Y0140945
X0330669Y0075984
X0359449
X0368504Y0054331
X0339764
X0310984
X0331063Y0033071
X0359842
X0155512Y0051378
X0151181Y0056102
X0129527Y0036418
X011811Y0095866
X0112598Y0108858
X0107874Y0127756
X0117717
X0135827Y0128543
X0158661Y0136811
X0172047Y0138779
X0180709Y013563
X0196457Y0123425
X0207874
X0066339Y012126
X0090945Y0087992
X0085433Y0068701
X0037795Y0116732
X0017323Y0148228
X0061417Y0170669
X0072441Y0168701
X0143307Y0170276
X0167323Y0171063
X0194095Y0180512
X0234737Y0180181
X0249606Y0176181
X0226378Y0168307
X0331063Y0162992
X0359842
X0388583
T04
X0253504Y0170276
X0283504
T05
X0226772Y0070787
Y0080787
Y0105433
Y0115433
X0298819Y0116732
Y0106732
Y0130748
Y0140748
X0174409Y0113071
Y0103071
Y0079213
Y0069213
X0100079Y0033661
X0090079
X0080079
X0070079
X0056799Y0034161
X0062047Y0104134
X0072047
X0090945Y0102559
Y0112559
Y0122559
X0052047Y0104134
X0007874Y0107756
Y0097756
Y0087756
Y0077756
Y0067756
Y0057756
Y0047756
X0046799Y0034161
X0007874Y0117756
Y0127756
Y0137756
Y0147756
Y0157756
Y0167756
Y0177756
X0047756Y018563
X0057756
X0074303Y0181035
Y0191035
X0086114Y0191035
Y0181035
X0098425Y0181535
Y0191535
Y0171535
X0097874Y0157756
X0107874
X0117874
X0127874
X0137874
X0147874
X0157874
X0167874
X0177874
X0187874
X0197874
X0207874
Y0147756
X0197874
X0187874
X0177874
X0167874
X0157874
X0147874
X0137874
X0127874
X0117874
X0107874
X0097874
X0087874
Y0157756
X0077874
Y0147756
X0067874
Y0157756
X0057874
Y0147756
X0204724Y0175236
Y0185236
X0217008Y0191535
X0227008
X0237008
X0249134
X0259134
X0269134
X0279134
X0298819Y0164764
Y0154764
X0247874Y0157756
Y0147756
X0237874
Y0157756
X0227874
Y0147756
X0217874
Y0157756
T06
X0265866Y0059409
X003752
Y0149961
X0265866
T07
X0292126Y0040551
X0027244Y0040433
Y0185039
X0292047
M30
