G04 Layer_Color=32768*
%FSLAX23Y23*%
%MOIN*%
G70*
G01*
G75*
%ADD28C,0.010*%
%ADD104C,0.004*%
%ADD105C,0.002*%
D28*
X0Y1969D02*
X3937D01*
Y0D02*
Y1969D01*
X0Y0D02*
X3937D01*
X0D02*
Y1969D01*
D104*
X2425Y927D02*
X2465D01*
X2445Y907D02*
Y947D01*
X2482Y848D02*
Y1006D01*
X2407Y848D02*
Y1006D01*
X2482D01*
X2407Y848D02*
X2482D01*
X2524Y1191D02*
Y1230D01*
X2504Y1211D02*
X2543D01*
X2445Y1248D02*
X2602D01*
X2445Y1173D02*
X2602D01*
X2445D02*
Y1248D01*
X2602Y1173D02*
Y1248D01*
X2524Y1281D02*
Y1321D01*
X2504Y1301D02*
X2543D01*
X2445Y1339D02*
X2602D01*
X2445Y1264D02*
X2602D01*
X2445D02*
Y1339D01*
X2602Y1264D02*
Y1339D01*
X2791Y1372D02*
X2831D01*
X2811Y1352D02*
Y1392D01*
X2774Y1293D02*
Y1451D01*
X2848Y1293D02*
Y1451D01*
X2774D02*
X2848D01*
X2774Y1293D02*
X2848D01*
X2874Y1372D02*
X2913D01*
X2894Y1352D02*
Y1392D01*
X2931Y1293D02*
Y1451D01*
X2856Y1293D02*
Y1451D01*
Y1293D02*
X2931D01*
X2856Y1451D02*
X2931D01*
X2642Y1770D02*
X2681D01*
X2661Y1750D02*
Y1789D01*
X2624Y1691D02*
Y1848D01*
X2699Y1691D02*
Y1848D01*
X2624D02*
X2699D01*
X2624Y1691D02*
X2699D01*
X2728Y1770D02*
X2768D01*
X2748Y1750D02*
Y1789D01*
X2785Y1691D02*
Y1848D01*
X2711Y1691D02*
Y1848D01*
Y1691D02*
X2785D01*
X2711Y1848D02*
X2785D01*
X524Y423D02*
Y463D01*
X504Y443D02*
X543D01*
X469Y474D02*
X579D01*
X469Y411D02*
X579D01*
X469D02*
Y474D01*
X579Y411D02*
Y474D01*
X551Y1124D02*
Y1163D01*
X531Y1144D02*
X571D01*
X472Y1106D02*
X630D01*
X472Y1181D02*
X630D01*
Y1106D02*
Y1181D01*
X472Y1106D02*
Y1181D01*
X717Y1124D02*
Y1163D01*
X697Y1144D02*
X736D01*
X638Y1181D02*
X795D01*
X638Y1106D02*
X795D01*
X638D02*
Y1181D01*
X795Y1106D02*
Y1181D01*
X2173Y1781D02*
X2213D01*
X2193Y1762D02*
Y1801D01*
X2156Y1703D02*
Y1860D01*
X2230Y1703D02*
Y1860D01*
X2156D02*
X2230D01*
X2156Y1703D02*
X2230D01*
X1890Y1715D02*
Y1754D01*
X1870Y1734D02*
X1909D01*
X1811Y1772D02*
X1969D01*
X1811Y1697D02*
X1969D01*
Y1772D01*
X1811Y1697D02*
Y1772D01*
X528Y1758D02*
Y1797D01*
X508Y1778D02*
X547D01*
X472Y1809D02*
X583D01*
X472Y1746D02*
X583D01*
Y1809D01*
X472Y1746D02*
Y1809D01*
X291Y1703D02*
X331D01*
X311Y1683D02*
Y1722D01*
X280Y1648D02*
Y1758D01*
X343Y1648D02*
Y1758D01*
X280D02*
X343D01*
X280Y1648D02*
X343D01*
X201Y1561D02*
Y1600D01*
X181Y1581D02*
X220D01*
X146Y1549D02*
X256D01*
X146Y1612D02*
X256D01*
X146Y1549D02*
Y1612D01*
X256Y1549D02*
Y1612D01*
X1803Y758D02*
X1843D01*
X1823Y738D02*
Y778D01*
X1791Y703D02*
Y813D01*
X1854Y703D02*
Y813D01*
X1791Y703D02*
X1854D01*
X1791Y813D02*
X1854D01*
X1807Y1053D02*
X1846D01*
X1827Y1033D02*
Y1073D01*
X1795Y998D02*
Y1108D01*
X1858Y998D02*
Y1108D01*
X1795Y998D02*
X1858D01*
X1795Y1108D02*
X1858D01*
X2165Y1022D02*
X2205D01*
X2185Y1002D02*
Y1041D01*
X2217Y967D02*
Y1077D01*
X2154Y967D02*
Y1077D01*
X2217D01*
X2154Y967D02*
X2217D01*
X2161Y781D02*
X2201D01*
X2181Y762D02*
Y801D01*
X2150Y726D02*
Y837D01*
X2213Y726D02*
Y837D01*
X2150Y726D02*
X2213D01*
X2150Y837D02*
X2213D01*
X1665Y553D02*
Y593D01*
X1646Y573D02*
X1685D01*
X1587Y610D02*
X1744D01*
X1587Y535D02*
X1744D01*
X1587D02*
Y610D01*
X1744Y535D02*
Y610D01*
X1665Y470D02*
Y510D01*
X1646Y490D02*
X1685D01*
X1587Y528D02*
X1744D01*
X1587Y453D02*
X1744D01*
X1587D02*
Y528D01*
X1744Y453D02*
Y528D01*
X1642Y396D02*
Y435D01*
X1622Y415D02*
X1661D01*
X1587Y384D02*
X1697D01*
X1587Y447D02*
X1697D01*
Y384D02*
Y447D01*
X1587Y384D02*
Y447D01*
X1642Y628D02*
Y667D01*
X1622Y648D02*
X1661D01*
X1587Y616D02*
X1697D01*
X1587Y679D02*
X1697D01*
Y616D02*
Y679D01*
X1587Y616D02*
Y679D01*
X1524Y396D02*
Y435D01*
X1504Y415D02*
X1543D01*
X1469Y384D02*
X1579D01*
X1469Y447D02*
X1579D01*
Y384D02*
Y447D01*
X1469Y384D02*
Y447D01*
X1524Y628D02*
Y667D01*
X1504Y648D02*
X1543D01*
X1469Y616D02*
X1579D01*
X1469Y679D02*
X1579D01*
Y616D02*
Y679D01*
X1469Y616D02*
Y679D01*
X1921Y695D02*
Y734D01*
X1902Y715D02*
X1941D01*
X1866Y683D02*
X1976D01*
X1866Y746D02*
X1976D01*
Y683D02*
Y746D01*
X1866Y683D02*
Y746D01*
X1850Y624D02*
Y663D01*
X1831Y644D02*
X1870D01*
X1795Y612D02*
X1906D01*
X1795Y675D02*
X1906D01*
Y612D02*
Y675D01*
X1795Y612D02*
Y675D01*
X1335Y514D02*
Y553D01*
X1315Y533D02*
X1354D01*
X3783Y1665D02*
Y1705D01*
X3764Y1685D02*
X3803D01*
X3705Y1722D02*
X3862D01*
X3705Y1648D02*
X3862D01*
Y1722D01*
X3705Y1648D02*
Y1722D01*
X3787Y1768D02*
Y1807D01*
X3768Y1787D02*
X3807D01*
X3709Y1825D02*
X3866D01*
X3709Y1750D02*
X3866D01*
Y1825D01*
X3709Y1750D02*
Y1825D01*
X3787Y1449D02*
Y1488D01*
X3768Y1469D02*
X3807D01*
X3709Y1506D02*
X3866D01*
X3709Y1431D02*
X3866D01*
Y1506D01*
X3709Y1431D02*
Y1506D01*
X3134Y1659D02*
Y1734D01*
X3291Y1659D02*
Y1734D01*
X3134Y1659D02*
X3291D01*
X3134Y1734D02*
X3291D01*
X3193Y1697D02*
X3232D01*
X3213Y1677D02*
Y1717D01*
X3134Y1443D02*
Y1518D01*
X3291Y1443D02*
Y1518D01*
X3134Y1443D02*
X3291D01*
X3134Y1518D02*
X3291D01*
X3193Y1480D02*
X3232D01*
X3213Y1461D02*
Y1500D01*
X3421Y1006D02*
Y1081D01*
X3579Y1006D02*
Y1081D01*
X3421Y1006D02*
X3579D01*
X3421Y1081D02*
X3579D01*
X3480Y1043D02*
X3520D01*
X3500Y1024D02*
Y1063D01*
X3134Y1002D02*
Y1077D01*
X3291Y1002D02*
Y1077D01*
X3134Y1002D02*
X3291D01*
X3134Y1077D02*
X3291D01*
X3193Y1039D02*
X3232D01*
X3213Y1020D02*
Y1059D01*
X3421Y789D02*
Y864D01*
X3579Y789D02*
Y864D01*
X3421Y789D02*
X3579D01*
X3421Y864D02*
X3579D01*
X3480Y827D02*
X3520D01*
X3500Y807D02*
Y846D01*
X3709Y1002D02*
Y1077D01*
X3866Y1002D02*
Y1077D01*
X3709Y1002D02*
X3866D01*
X3709Y1077D02*
X3866D01*
X3768Y1039D02*
X3807D01*
X3787Y1020D02*
Y1059D01*
X3425Y1435D02*
Y1510D01*
X3583Y1435D02*
Y1510D01*
X3425Y1435D02*
X3583D01*
X3425Y1510D02*
X3583D01*
X3484Y1472D02*
X3524D01*
X3504Y1453D02*
Y1492D01*
X3429Y1222D02*
Y1297D01*
X3587Y1222D02*
Y1297D01*
X3429Y1222D02*
X3587D01*
X3429Y1297D02*
X3587D01*
X3488Y1260D02*
X3528D01*
X3508Y1240D02*
Y1280D01*
X3134Y1226D02*
Y1301D01*
X3291Y1226D02*
Y1301D01*
X3134Y1226D02*
X3291D01*
X3134Y1301D02*
X3291D01*
X3193Y1264D02*
X3232D01*
X3213Y1244D02*
Y1283D01*
X3134Y789D02*
Y864D01*
X3291Y789D02*
Y864D01*
X3134Y789D02*
X3291D01*
X3134Y864D02*
X3291D01*
X3193Y827D02*
X3232D01*
X3213Y807D02*
Y846D01*
X3429Y565D02*
Y640D01*
X3587Y565D02*
Y640D01*
X3429Y565D02*
X3587D01*
X3429Y640D02*
X3587D01*
X3488Y602D02*
X3528D01*
X3508Y583D02*
Y622D01*
X3417Y348D02*
Y423D01*
X3575Y348D02*
Y423D01*
X3417Y348D02*
X3575D01*
X3417Y423D02*
X3575D01*
X3476Y386D02*
X3516D01*
X3496Y366D02*
Y406D01*
X3134Y565D02*
Y640D01*
X3291Y565D02*
Y640D01*
X3134Y565D02*
X3291D01*
X3134Y640D02*
X3291D01*
X3193Y602D02*
X3232D01*
X3213Y583D02*
Y622D01*
X3134Y348D02*
Y423D01*
X3291Y348D02*
Y423D01*
X3134Y348D02*
X3291D01*
X3134Y423D02*
X3291D01*
X3193Y386D02*
X3232D01*
X3213Y366D02*
Y406D01*
X3417Y156D02*
Y230D01*
X3575Y156D02*
Y230D01*
X3417Y156D02*
X3575D01*
X3417Y230D02*
X3575D01*
X3476Y193D02*
X3516D01*
X3496Y173D02*
Y213D01*
X3134Y1770D02*
Y1844D01*
X3291Y1770D02*
Y1844D01*
X3134Y1770D02*
X3291D01*
X3134Y1844D02*
X3291D01*
X3193Y1807D02*
X3232D01*
X3213Y1787D02*
Y1827D01*
X3709Y1226D02*
Y1301D01*
X3866Y1226D02*
Y1301D01*
X3709Y1226D02*
X3866D01*
X3709Y1301D02*
X3866D01*
X3768Y1264D02*
X3807D01*
X3787Y1244D02*
Y1283D01*
X3709Y793D02*
Y868D01*
X3866Y793D02*
Y868D01*
X3709Y793D02*
X3866D01*
X3709Y868D02*
X3866D01*
X3768Y831D02*
X3807D01*
X3787Y811D02*
Y850D01*
X3709Y565D02*
Y640D01*
X3866Y565D02*
Y640D01*
X3709Y565D02*
X3866D01*
X3709Y640D02*
X3866D01*
X3768Y602D02*
X3807D01*
X3787Y583D02*
Y622D01*
X3713Y356D02*
Y431D01*
X3870Y356D02*
Y431D01*
X3713Y356D02*
X3870D01*
X3713Y431D02*
X3870D01*
X3772Y394D02*
X3811D01*
X3791Y374D02*
Y413D01*
X3713Y140D02*
Y215D01*
X3870Y140D02*
Y215D01*
X3713Y140D02*
X3870D01*
X3713Y215D02*
X3870D01*
X3772Y177D02*
X3811D01*
X3791Y157D02*
Y197D01*
X3425Y1750D02*
Y1825D01*
X3583Y1750D02*
Y1825D01*
X3425Y1750D02*
X3583D01*
X3425Y1825D02*
X3583D01*
X3484Y1787D02*
X3524D01*
X3504Y1768D02*
Y1807D01*
X3421Y1644D02*
Y1719D01*
X3579Y1644D02*
Y1719D01*
X3421Y1644D02*
X3579D01*
X3421Y1719D02*
X3579D01*
X3480Y1681D02*
X3520D01*
X3500Y1661D02*
Y1701D01*
X3134Y136D02*
Y211D01*
X3291Y136D02*
Y211D01*
X3134Y136D02*
X3291D01*
X3134Y211D02*
X3291D01*
X3193Y173D02*
X3232D01*
X3213Y154D02*
Y193D01*
X1778Y213D02*
X1852D01*
X1778Y55D02*
X1852D01*
X1778D02*
Y213D01*
X1852Y55D02*
Y213D01*
X1815Y114D02*
Y154D01*
X1795Y134D02*
X1835D01*
X2061Y213D02*
X2136D01*
X2061Y55D02*
X2136D01*
X2061D02*
Y213D01*
X2136Y55D02*
Y213D01*
X2098Y114D02*
Y154D01*
X2079Y134D02*
X2118D01*
X2356Y213D02*
X2431D01*
X2356Y55D02*
X2431D01*
X2356D02*
Y213D01*
X2431Y55D02*
Y213D01*
X2394Y114D02*
Y154D01*
X2374Y134D02*
X2413D01*
X2632Y220D02*
X2707D01*
X2632Y63D02*
X2707D01*
X2632D02*
Y220D01*
X2707Y63D02*
Y220D01*
X2669Y122D02*
Y161D01*
X2650Y142D02*
X2689D01*
X766Y220D02*
X841D01*
X766Y63D02*
X841D01*
X766D02*
Y220D01*
X841Y63D02*
Y220D01*
X803Y122D02*
Y161D01*
X783Y142D02*
X823D01*
X467Y220D02*
X541D01*
X467Y63D02*
X541D01*
X467D02*
Y220D01*
X541Y63D02*
Y220D01*
X504Y122D02*
Y161D01*
X484Y142D02*
X524D01*
X1053Y217D02*
X1128D01*
X1053Y59D02*
X1128D01*
X1053D02*
Y217D01*
X1128Y59D02*
Y217D01*
X1091Y118D02*
Y157D01*
X1071Y138D02*
X1110D01*
X207Y220D02*
X281D01*
X207Y63D02*
X281D01*
X207D02*
Y220D01*
X281Y63D02*
Y220D01*
X244Y122D02*
Y161D01*
X224Y142D02*
X264D01*
X1656Y217D02*
X1730D01*
X1656Y59D02*
X1730D01*
X1656D02*
Y217D01*
X1730Y59D02*
Y217D01*
X1693Y118D02*
Y157D01*
X1673Y138D02*
X1713D01*
X1171Y213D02*
X1246D01*
X1171Y55D02*
X1246D01*
X1171D02*
Y213D01*
X1246Y55D02*
Y213D01*
X1209Y114D02*
Y154D01*
X1189Y134D02*
X1228D01*
D105*
X1204Y664D02*
X1466D01*
X1204Y403D02*
X1466D01*
Y664D01*
X1204Y403D02*
Y664D01*
M02*
