G04 Layer_Physical_Order=1*
G04 Layer_Color=255*
%FSLAX23Y23*%
%MOIN*%
G70*
G01*
G75*
%ADD10R,0.067X0.043*%
%ADD11O,0.016X0.051*%
%ADD12R,0.016X0.051*%
G04:AMPARAMS|DCode=13|XSize=118mil|YSize=71mil|CornerRadius=18mil|HoleSize=0mil|Usage=FLASHONLY|Rotation=180.000|XOffset=0mil|YOffset=0mil|HoleType=Round|Shape=RoundedRectangle|*
%AMROUNDEDRECTD13*
21,1,0.118,0.035,0,0,180.0*
21,1,0.083,0.071,0,0,180.0*
1,1,0.035,-0.041,0.018*
1,1,0.035,0.041,0.018*
1,1,0.035,0.041,-0.018*
1,1,0.035,-0.041,-0.018*
%
%ADD13ROUNDEDRECTD13*%
%ADD14R,0.118X0.071*%
%ADD15R,0.039X0.024*%
G04:AMPARAMS|DCode=16|XSize=24mil|YSize=39mil|CornerRadius=6mil|HoleSize=0mil|Usage=FLASHONLY|Rotation=90.000|XOffset=0mil|YOffset=0mil|HoleType=Round|Shape=RoundedRectangle|*
%AMROUNDEDRECTD16*
21,1,0.024,0.028,0,0,90.0*
21,1,0.012,0.039,0,0,90.0*
1,1,0.012,0.014,0.006*
1,1,0.012,0.014,-0.006*
1,1,0.012,-0.014,-0.006*
1,1,0.012,-0.014,0.006*
%
%ADD16ROUNDEDRECTD16*%
%ADD17O,0.087X0.024*%
%ADD18R,0.087X0.024*%
%ADD19O,0.024X0.087*%
%ADD20R,0.024X0.087*%
%ADD21R,0.043X0.067*%
%ADD22R,0.043X0.055*%
%ADD23R,0.055X0.043*%
G04:AMPARAMS|DCode=24|XSize=12mil|YSize=51mil|CornerRadius=0mil|HoleSize=0mil|Usage=FLASHONLY|Rotation=0.000|XOffset=0mil|YOffset=0mil|HoleType=Round|Shape=Octagon|*
%AMOCTAGOND24*
4,1,8,-0.003,0.026,0.003,0.026,0.006,0.023,0.006,-0.023,0.003,-0.026,-0.003,-0.026,-0.006,-0.023,-0.006,0.023,-0.003,0.026,0.0*
%
%ADD24OCTAGOND24*%

%ADD25O,0.012X0.051*%
%ADD26O,0.051X0.012*%
%ADD27R,0.106X0.106*%
%ADD28C,0.010*%
%ADD29C,0.030*%
%ADD30C,0.015*%
%ADD31R,0.067X0.039*%
%ADD32R,0.067X0.039*%
G04:AMPARAMS|DCode=33|XSize=67mil|YSize=39mil|CornerRadius=10mil|HoleSize=0mil|Usage=FLASHONLY|Rotation=180.000|XOffset=0mil|YOffset=0mil|HoleType=Round|Shape=RoundedRectangle|*
%AMROUNDEDRECTD33*
21,1,0.067,0.020,0,0,180.0*
21,1,0.047,0.039,0,0,180.0*
1,1,0.020,-0.024,0.010*
1,1,0.020,0.024,0.010*
1,1,0.020,0.024,-0.010*
1,1,0.020,-0.024,-0.010*
%
%ADD33ROUNDEDRECTD33*%
%ADD34C,0.060*%
%ADD35C,0.050*%
%ADD36R,0.050X0.050*%
%ADD37C,0.060*%
%ADD38R,0.060X0.060*%
%ADD39R,0.060X0.060*%
%ADD40C,0.055*%
%ADD41R,0.059X0.059*%
%ADD42C,0.059*%
%ADD43R,0.059X0.059*%
%ADD44R,0.050X0.050*%
%ADD45C,0.025*%
%ADD46C,0.157*%
%ADD47C,0.236*%
G36*
X2878Y234D02*
X2797D01*
Y182D01*
X2768Y153D01*
X2753D01*
X2752Y154D01*
X2745Y159D01*
X2736Y161D01*
X2727Y159D01*
X2720Y154D01*
X2715Y147D01*
X2714Y142D01*
X2594D01*
X2568Y168D01*
Y174D01*
X2592D01*
X2596Y174D01*
X2601Y174D01*
X2635D01*
Y204D01*
Y234D01*
X2601D01*
X2597Y234D01*
X2592Y234D01*
X2509D01*
Y174D01*
X2537D01*
Y161D01*
X2539Y155D01*
X2542Y150D01*
X2546Y146D01*
X2544Y142D01*
X2307D01*
X2281Y168D01*
Y174D01*
X2304D01*
X2309Y174D01*
X2314Y174D01*
X2348D01*
Y204D01*
Y234D01*
X2314D01*
X2309Y234D01*
X2304Y234D01*
X2222D01*
Y174D01*
X2250D01*
Y161D01*
X2251Y155D01*
X2255Y150D01*
X2259Y146D01*
X2257Y142D01*
X2019D01*
X1993Y168D01*
Y174D01*
X2017D01*
X2021Y174D01*
X2026Y174D01*
X2060D01*
Y204D01*
Y234D01*
X2026D01*
X2022Y234D01*
X2017Y234D01*
X1934D01*
Y174D01*
X1963D01*
Y161D01*
X1964Y155D01*
X1967Y150D01*
X1971Y146D01*
X1969Y142D01*
X1732D01*
X1706Y168D01*
Y174D01*
X1729D01*
X1734Y174D01*
X1739Y174D01*
X1773D01*
Y204D01*
Y234D01*
X1739D01*
X1734Y234D01*
X1729Y234D01*
X1647D01*
Y174D01*
X1675D01*
Y161D01*
X1676Y155D01*
X1680Y150D01*
X1684Y146D01*
X1682Y142D01*
X1444D01*
X1418Y168D01*
Y174D01*
X1442D01*
X1447Y174D01*
X1452Y174D01*
X1486D01*
Y204D01*
Y234D01*
X1452D01*
X1447Y234D01*
X1442Y234D01*
X1360D01*
Y174D01*
X1388D01*
Y161D01*
X1389Y155D01*
X1392Y150D01*
X1396Y146D01*
X1395Y142D01*
X1157D01*
X1131Y168D01*
Y174D01*
X1155D01*
X1159Y174D01*
X1164Y174D01*
X1198D01*
Y204D01*
Y234D01*
X1164D01*
X1160Y234D01*
X1155Y234D01*
X1072D01*
Y174D01*
X1100D01*
Y161D01*
X1102Y155D01*
X1105Y150D01*
X1109Y146D01*
X1107Y142D01*
X870D01*
X844Y168D01*
Y174D01*
X867D01*
X872Y174D01*
X877Y174D01*
X911D01*
Y204D01*
Y234D01*
X877D01*
X872Y234D01*
X867Y234D01*
X785D01*
Y174D01*
X813D01*
Y161D01*
X814Y155D01*
X818Y150D01*
X822Y146D01*
X820Y142D01*
X582D01*
X556Y168D01*
Y174D01*
X580D01*
X584Y174D01*
X589Y174D01*
X623D01*
Y204D01*
Y234D01*
X589D01*
X585Y234D01*
X580Y234D01*
X497D01*
Y174D01*
X526D01*
Y161D01*
X527Y155D01*
X530Y150D01*
X534Y146D01*
X532Y142D01*
X295D01*
X269Y168D01*
Y174D01*
X292D01*
X297Y174D01*
X302Y174D01*
X336D01*
Y204D01*
Y234D01*
X302D01*
X297Y234D01*
X292Y234D01*
X210D01*
Y174D01*
X238D01*
Y161D01*
X239Y155D01*
X243Y150D01*
X247Y146D01*
X245Y142D01*
X180D01*
X179Y147D01*
X174Y154D01*
X166Y159D01*
X157Y161D01*
X149Y159D01*
X141Y154D01*
X136Y147D01*
X135Y142D01*
X15D01*
Y174D01*
X49D01*
Y204D01*
Y234D01*
X15D01*
Y260D01*
X2878D01*
Y234D01*
D02*
G37*
G36*
Y104D02*
X2873Y101D01*
X2872Y102D01*
X2864Y104D01*
X2845D01*
Y74D01*
Y44D01*
X2864D01*
X2872Y45D01*
X2873Y47D01*
X2878Y44D01*
Y15D01*
X15D01*
Y44D01*
X97D01*
Y59D01*
X99Y60D01*
X104Y63D01*
X156Y115D01*
X157Y115D01*
X166Y117D01*
X174Y122D01*
X179Y129D01*
X179Y132D01*
X180Y132D01*
X245D01*
X249Y132D01*
X251Y134D01*
X259D01*
X286Y107D01*
X283Y103D01*
X277Y104D01*
X259D01*
Y74D01*
Y44D01*
X277D01*
X285Y45D01*
X291Y50D01*
X292Y51D01*
X297Y50D01*
Y44D01*
X384D01*
Y104D01*
X333D01*
X310Y127D01*
X311Y132D01*
X532D01*
X536Y132D01*
X539Y134D01*
X547D01*
X573Y107D01*
X571Y103D01*
X565Y104D01*
X546D01*
Y74D01*
Y44D01*
X565D01*
X572Y45D01*
X579Y50D01*
X580Y51D01*
X585Y50D01*
Y44D01*
X672D01*
Y104D01*
X620D01*
X597Y127D01*
X599Y132D01*
X820D01*
X824Y132D01*
X826Y134D01*
X834D01*
X861Y107D01*
X858Y103D01*
X852Y104D01*
X833D01*
Y74D01*
Y44D01*
X852D01*
X860Y45D01*
X866Y50D01*
X867Y51D01*
X872Y50D01*
Y44D01*
X959D01*
Y104D01*
X908D01*
X884Y127D01*
X886Y132D01*
X1107D01*
X1111Y132D01*
X1113Y134D01*
X1122D01*
X1148Y107D01*
X1146Y103D01*
X1139Y104D01*
X1121D01*
Y74D01*
Y44D01*
X1139D01*
X1147Y45D01*
X1154Y50D01*
X1155Y51D01*
X1160Y50D01*
Y44D01*
X1247D01*
Y104D01*
X1195D01*
X1172Y127D01*
X1174Y132D01*
X1395D01*
X1398Y132D01*
X1401Y134D01*
X1409D01*
X1435Y107D01*
X1433Y103D01*
X1427Y104D01*
X1408D01*
Y74D01*
Y44D01*
X1427D01*
X1435Y45D01*
X1441Y50D01*
X1442Y51D01*
X1447Y50D01*
Y44D01*
X1534D01*
Y104D01*
X1482D01*
X1459Y127D01*
X1461Y132D01*
X1682D01*
X1686Y132D01*
X1688Y134D01*
X1696D01*
X1723Y107D01*
X1720Y103D01*
X1714Y104D01*
X1696D01*
Y74D01*
Y44D01*
X1714D01*
X1722Y45D01*
X1728Y50D01*
X1729Y51D01*
X1734Y50D01*
Y44D01*
X1821D01*
Y104D01*
X1770D01*
X1747Y127D01*
X1748Y132D01*
X1969D01*
X1973Y132D01*
X1976Y134D01*
X1984D01*
X2010Y107D01*
X2008Y103D01*
X2002Y104D01*
X1983D01*
Y74D01*
Y44D01*
X2002D01*
X2009Y45D01*
X2016Y50D01*
X2017Y51D01*
X2022Y50D01*
Y44D01*
X2109D01*
Y104D01*
X2057D01*
X2034Y127D01*
X2036Y132D01*
X2257D01*
X2261Y132D01*
X2263Y134D01*
X2271D01*
X2298Y107D01*
X2295Y103D01*
X2289Y104D01*
X2270D01*
Y74D01*
Y44D01*
X2289D01*
X2297Y45D01*
X2303Y50D01*
X2304Y51D01*
X2309Y50D01*
Y44D01*
X2396D01*
Y104D01*
X2345D01*
X2321Y127D01*
X2323Y132D01*
X2544D01*
X2548Y132D01*
X2550Y134D01*
X2559D01*
X2585Y107D01*
X2583Y103D01*
X2576Y104D01*
X2558D01*
Y74D01*
Y44D01*
X2576D01*
X2584Y45D01*
X2591Y50D01*
X2592Y51D01*
X2597Y50D01*
Y44D01*
X2684D01*
Y104D01*
X2632D01*
X2609Y127D01*
X2611Y132D01*
X2714D01*
X2715Y132D01*
X2715Y129D01*
X2720Y122D01*
X2727Y117D01*
X2736Y115D01*
X2745Y117D01*
X2752Y122D01*
X2753Y123D01*
X2774D01*
X2780Y124D01*
X2785Y127D01*
X2792Y134D01*
X2878D01*
Y104D01*
D02*
G37*
%LPC*%
G36*
X1306Y219D02*
X1302Y218D01*
X1295Y213D01*
X1290Y206D01*
X1289Y202D01*
X1306D01*
Y219D01*
D02*
G37*
G36*
X1029D02*
Y202D01*
X1046D01*
X1045Y206D01*
X1040Y213D01*
X1032Y218D01*
X1029Y219D01*
D02*
G37*
G36*
X1019D02*
X1015Y218D01*
X1007Y213D01*
X1002Y206D01*
X1002Y202D01*
X1019D01*
Y219D01*
D02*
G37*
G36*
X1316D02*
Y202D01*
X1333D01*
X1332Y206D01*
X1327Y213D01*
X1320Y218D01*
X1316Y219D01*
D02*
G37*
G36*
X1873D02*
X1869Y218D01*
X1862Y213D01*
X1857Y206D01*
X1856Y202D01*
X1873D01*
Y219D01*
D02*
G37*
G36*
X1596D02*
Y202D01*
X1612D01*
X1612Y206D01*
X1607Y213D01*
X1599Y218D01*
X1596Y219D01*
D02*
G37*
G36*
X1586D02*
X1582Y218D01*
X1574Y213D01*
X1569Y206D01*
X1569Y202D01*
X1586D01*
Y219D01*
D02*
G37*
G36*
X733D02*
Y202D01*
X750D01*
X750Y206D01*
X745Y213D01*
X737Y218D01*
X733Y219D01*
D02*
G37*
G36*
X160D02*
X157Y218D01*
X149Y213D01*
X144Y206D01*
X143Y202D01*
X160D01*
Y219D01*
D02*
G37*
G36*
X2750Y192D02*
X2733D01*
Y175D01*
X2737Y176D01*
X2745Y181D01*
X2750Y188D01*
X2750Y192D01*
D02*
G37*
G36*
X2723D02*
X2706D01*
X2707Y188D01*
X2712Y181D01*
X2720Y176D01*
X2723Y175D01*
Y192D01*
D02*
G37*
G36*
X170Y219D02*
Y202D01*
X187D01*
X187Y206D01*
X182Y213D01*
X174Y218D01*
X170Y219D01*
D02*
G37*
G36*
X723D02*
X720Y218D01*
X712Y213D01*
X707Y206D01*
X706Y202D01*
X723D01*
Y219D01*
D02*
G37*
G36*
X446D02*
Y202D01*
X463D01*
X462Y206D01*
X457Y213D01*
X450Y218D01*
X446Y219D01*
D02*
G37*
G36*
X436D02*
X432Y218D01*
X425Y213D01*
X420Y206D01*
X419Y202D01*
X436D01*
Y219D01*
D02*
G37*
G36*
X1208Y234D02*
Y209D01*
X1247D01*
Y234D01*
X1208D01*
D02*
G37*
G36*
X346D02*
Y209D01*
X384D01*
Y234D01*
X346D01*
D02*
G37*
G36*
X1496D02*
Y209D01*
X1534D01*
Y234D01*
X1496D01*
D02*
G37*
G36*
X97D02*
X59D01*
Y209D01*
X97D01*
Y234D01*
D02*
G37*
G36*
X2070D02*
Y209D01*
X2109D01*
Y234D01*
X2070D01*
D02*
G37*
G36*
X2358D02*
Y209D01*
X2396D01*
Y234D01*
X2358D01*
D02*
G37*
G36*
X921D02*
Y209D01*
X959D01*
Y234D01*
X921D01*
D02*
G37*
G36*
X633D02*
Y209D01*
X672D01*
Y234D01*
X633D01*
D02*
G37*
G36*
X2170Y219D02*
Y202D01*
X2187D01*
X2187Y206D01*
X2182Y213D01*
X2174Y218D01*
X2170Y219D01*
D02*
G37*
G36*
X2160D02*
X2157Y218D01*
X2149Y213D01*
X2144Y206D01*
X2143Y202D01*
X2160D01*
Y219D01*
D02*
G37*
G36*
X1883D02*
Y202D01*
X1900D01*
X1899Y206D01*
X1894Y213D01*
X1887Y218D01*
X1883Y219D01*
D02*
G37*
G36*
X2448D02*
X2444Y218D01*
X2437Y213D01*
X2432Y206D01*
X2431Y202D01*
X2448D01*
Y219D01*
D02*
G37*
G36*
X2733D02*
Y202D01*
X2750D01*
X2750Y206D01*
X2745Y213D01*
X2737Y218D01*
X2733Y219D01*
D02*
G37*
G36*
X2723D02*
X2720Y218D01*
X2712Y213D01*
X2707Y206D01*
X2706Y202D01*
X2723D01*
Y219D01*
D02*
G37*
G36*
X2458D02*
Y202D01*
X2475D01*
X2474Y206D01*
X2469Y213D01*
X2462Y218D01*
X2458Y219D01*
D02*
G37*
G36*
X2396Y199D02*
X2358D01*
Y174D01*
X2396D01*
Y199D01*
D02*
G37*
G36*
X2109D02*
X2070D01*
Y174D01*
X2109D01*
Y199D01*
D02*
G37*
G36*
X1821D02*
X1783D01*
Y174D01*
X1821D01*
Y199D01*
D02*
G37*
G36*
X2684D02*
X2645D01*
Y174D01*
X2684D01*
Y199D01*
D02*
G37*
G36*
X436Y192D02*
X419D01*
X420Y188D01*
X425Y181D01*
X432Y176D01*
X436Y175D01*
Y192D01*
D02*
G37*
G36*
X187D02*
X170D01*
Y175D01*
X174Y176D01*
X182Y181D01*
X187Y188D01*
X187Y192D01*
D02*
G37*
G36*
X160D02*
X143D01*
X144Y188D01*
X149Y181D01*
X157Y176D01*
X160Y175D01*
Y192D01*
D02*
G37*
G36*
X1534Y199D02*
X1496D01*
Y174D01*
X1534D01*
Y199D01*
D02*
G37*
G36*
X97D02*
X59D01*
Y174D01*
X97D01*
Y199D01*
D02*
G37*
G36*
X1783Y234D02*
Y209D01*
X1821D01*
Y234D01*
X1783D01*
D02*
G37*
G36*
X2645D02*
Y209D01*
X2684D01*
Y234D01*
X2645D01*
D02*
G37*
G36*
X384Y199D02*
X346D01*
Y174D01*
X384D01*
Y199D01*
D02*
G37*
G36*
X1247D02*
X1208D01*
Y174D01*
X1247D01*
Y199D01*
D02*
G37*
G36*
X959D02*
X921D01*
Y174D01*
X959D01*
Y199D01*
D02*
G37*
G36*
X672D02*
X633D01*
Y174D01*
X672D01*
Y199D01*
D02*
G37*
G36*
X1900Y192D02*
X1883D01*
Y175D01*
X1887Y176D01*
X1894Y181D01*
X1899Y188D01*
X1900Y192D01*
D02*
G37*
G36*
X1873D02*
X1856D01*
X1857Y188D01*
X1862Y181D01*
X1869Y176D01*
X1873Y175D01*
Y192D01*
D02*
G37*
G36*
X1612D02*
X1596D01*
Y175D01*
X1599Y176D01*
X1607Y181D01*
X1612Y188D01*
X1612Y192D01*
D02*
G37*
G36*
X2160D02*
X2143D01*
X2144Y188D01*
X2149Y181D01*
X2157Y176D01*
X2160Y175D01*
Y192D01*
D02*
G37*
G36*
X2475D02*
X2458D01*
Y175D01*
X2462Y176D01*
X2469Y181D01*
X2474Y188D01*
X2475Y192D01*
D02*
G37*
G36*
X2448D02*
X2431D01*
X2432Y188D01*
X2437Y181D01*
X2444Y176D01*
X2448Y175D01*
Y192D01*
D02*
G37*
G36*
X2187D02*
X2170D01*
Y175D01*
X2174Y176D01*
X2182Y181D01*
X2187Y188D01*
X2187Y192D01*
D02*
G37*
G36*
X1586D02*
X1569D01*
X1569Y188D01*
X1574Y181D01*
X1582Y176D01*
X1586Y175D01*
Y192D01*
D02*
G37*
G36*
X750D02*
X733D01*
Y175D01*
X737Y176D01*
X745Y181D01*
X750Y188D01*
X750Y192D01*
D02*
G37*
G36*
X723D02*
X706D01*
X707Y188D01*
X712Y181D01*
X720Y176D01*
X723Y175D01*
Y192D01*
D02*
G37*
G36*
X463D02*
X446D01*
Y175D01*
X450Y176D01*
X457Y181D01*
X462Y188D01*
X463Y192D01*
D02*
G37*
G36*
X1019D02*
X1002D01*
X1002Y188D01*
X1007Y181D01*
X1015Y176D01*
X1019Y175D01*
Y192D01*
D02*
G37*
G36*
X1333D02*
X1316D01*
Y175D01*
X1320Y176D01*
X1327Y181D01*
X1332Y188D01*
X1333Y192D01*
D02*
G37*
G36*
X1306D02*
X1289D01*
X1290Y188D01*
X1295Y181D01*
X1302Y176D01*
X1306Y175D01*
Y192D01*
D02*
G37*
G36*
X1046D02*
X1029D01*
Y175D01*
X1032Y176D01*
X1040Y181D01*
X1045Y188D01*
X1046Y192D01*
D02*
G37*
G36*
X164Y97D02*
X161Y96D01*
X153Y91D01*
X148Y84D01*
X147Y80D01*
X164D01*
Y97D01*
D02*
G37*
G36*
X1398Y104D02*
X1380D01*
X1372Y102D01*
X1365Y98D01*
X1361Y91D01*
X1359Y84D01*
Y79D01*
X1398D01*
Y104D01*
D02*
G37*
G36*
X536D02*
X517D01*
X510Y102D01*
X503Y98D01*
X499Y91D01*
X497Y84D01*
Y79D01*
X536D01*
Y104D01*
D02*
G37*
G36*
X174Y97D02*
Y80D01*
X191D01*
X190Y84D01*
X186Y91D01*
X178Y96D01*
X174Y97D01*
D02*
G37*
G36*
X723D02*
X720Y96D01*
X712Y91D01*
X707Y84D01*
X706Y80D01*
X723D01*
Y97D01*
D02*
G37*
G36*
X450D02*
Y80D01*
X467D01*
X466Y84D01*
X461Y91D01*
X454Y96D01*
X450Y97D01*
D02*
G37*
G36*
X440D02*
X436Y96D01*
X429Y91D01*
X424Y84D01*
X423Y80D01*
X440D01*
Y97D01*
D02*
G37*
G36*
X1686Y104D02*
X1667D01*
X1659Y102D01*
X1653Y98D01*
X1648Y91D01*
X1647Y84D01*
Y79D01*
X1686D01*
Y104D01*
D02*
G37*
G36*
X2835D02*
X2817D01*
X2809Y102D01*
X2802Y98D01*
X2798Y91D01*
X2796Y84D01*
Y79D01*
X2835D01*
Y104D01*
D02*
G37*
G36*
X1973D02*
X1954D01*
X1947Y102D01*
X1940Y98D01*
X1936Y91D01*
X1934Y84D01*
Y79D01*
X1973D01*
Y104D01*
D02*
G37*
G36*
X2548D02*
X2529D01*
X2521Y102D01*
X2515Y98D01*
X2510Y91D01*
X2509Y84D01*
Y79D01*
X2548D01*
Y104D01*
D02*
G37*
G36*
X2260D02*
X2242D01*
X2234Y102D01*
X2227Y98D01*
X2223Y91D01*
X2222Y84D01*
Y79D01*
X2260D01*
Y104D01*
D02*
G37*
G36*
X1111D02*
X1092D01*
X1084Y102D01*
X1078Y98D01*
X1073Y91D01*
X1072Y84D01*
Y79D01*
X1111D01*
Y104D01*
D02*
G37*
G36*
X823D02*
X805D01*
X797Y102D01*
X790Y98D01*
X786Y91D01*
X784Y84D01*
Y79D01*
X823D01*
Y104D01*
D02*
G37*
G36*
X249D02*
X230D01*
X222Y102D01*
X216Y98D01*
X211Y91D01*
X210Y84D01*
Y79D01*
X249D01*
Y104D01*
D02*
G37*
G36*
X2170Y97D02*
Y80D01*
X2187D01*
X2187Y84D01*
X2182Y91D01*
X2174Y96D01*
X2170Y97D01*
D02*
G37*
G36*
X2160D02*
X2157Y96D01*
X2149Y91D01*
X2144Y84D01*
X2143Y80D01*
X2160D01*
Y97D01*
D02*
G37*
G36*
X1887D02*
Y80D01*
X1904D01*
X1903Y84D01*
X1898Y91D01*
X1891Y96D01*
X1887Y97D01*
D02*
G37*
G36*
X2448D02*
X2444Y96D01*
X2437Y91D01*
X2432Y84D01*
X2431Y80D01*
X2448D01*
Y97D01*
D02*
G37*
G36*
X2737D02*
Y80D01*
X2754D01*
X2753Y84D01*
X2749Y91D01*
X2741Y96D01*
X2737Y97D01*
D02*
G37*
G36*
X2727D02*
X2724Y96D01*
X2716Y91D01*
X2711Y84D01*
X2710Y80D01*
X2727D01*
Y97D01*
D02*
G37*
G36*
X2458D02*
Y80D01*
X2475D01*
X2474Y84D01*
X2469Y91D01*
X2462Y96D01*
X2458Y97D01*
D02*
G37*
G36*
X1877D02*
X1873Y96D01*
X1866Y91D01*
X1861Y84D01*
X1860Y80D01*
X1877D01*
Y97D01*
D02*
G37*
G36*
X1029D02*
Y80D01*
X1046D01*
X1045Y84D01*
X1040Y91D01*
X1032Y96D01*
X1029Y97D01*
D02*
G37*
G36*
X1019D02*
X1015Y96D01*
X1007Y91D01*
X1002Y84D01*
X1002Y80D01*
X1019D01*
Y97D01*
D02*
G37*
G36*
X733D02*
Y80D01*
X750D01*
X750Y84D01*
X745Y91D01*
X737Y96D01*
X733Y97D01*
D02*
G37*
G36*
X1306D02*
X1302Y96D01*
X1295Y91D01*
X1290Y84D01*
X1289Y80D01*
X1306D01*
Y97D01*
D02*
G37*
G36*
X1599D02*
Y80D01*
X1616D01*
X1616Y84D01*
X1611Y91D01*
X1603Y96D01*
X1599Y97D01*
D02*
G37*
G36*
X1589D02*
X1586Y96D01*
X1578Y91D01*
X1573Y84D01*
X1573Y80D01*
X1589D01*
Y97D01*
D02*
G37*
G36*
X1316D02*
Y80D01*
X1333D01*
X1332Y84D01*
X1327Y91D01*
X1320Y96D01*
X1316Y97D01*
D02*
G37*
G36*
X164Y70D02*
X147D01*
X148Y66D01*
X153Y59D01*
X161Y54D01*
X164Y53D01*
Y70D01*
D02*
G37*
G36*
X2835Y69D02*
X2796D01*
Y64D01*
X2798Y56D01*
X2802Y50D01*
X2809Y45D01*
X2817Y44D01*
X2835D01*
Y69D01*
D02*
G37*
G36*
X2548D02*
X2509D01*
Y64D01*
X2510Y56D01*
X2515Y50D01*
X2521Y45D01*
X2529Y44D01*
X2548D01*
Y69D01*
D02*
G37*
G36*
X191Y70D02*
X174D01*
Y53D01*
X178Y54D01*
X186Y59D01*
X190Y66D01*
X191Y70D01*
D02*
G37*
G36*
X723D02*
X706D01*
X707Y66D01*
X712Y59D01*
X720Y54D01*
X723Y53D01*
Y70D01*
D02*
G37*
G36*
X467D02*
X450D01*
Y53D01*
X454Y54D01*
X461Y59D01*
X466Y66D01*
X467Y70D01*
D02*
G37*
G36*
X440D02*
X423D01*
X424Y66D01*
X429Y59D01*
X436Y54D01*
X440Y53D01*
Y70D01*
D02*
G37*
G36*
X2260Y69D02*
X2222D01*
Y64D01*
X2223Y56D01*
X2227Y50D01*
X2234Y45D01*
X2242Y44D01*
X2260D01*
Y69D01*
D02*
G37*
G36*
X823D02*
X784D01*
Y64D01*
X786Y56D01*
X790Y50D01*
X797Y45D01*
X805Y44D01*
X823D01*
Y69D01*
D02*
G37*
G36*
X536D02*
X497D01*
Y64D01*
X499Y56D01*
X503Y50D01*
X510Y45D01*
X517Y44D01*
X536D01*
Y69D01*
D02*
G37*
G36*
X249D02*
X210D01*
Y64D01*
X211Y56D01*
X216Y50D01*
X222Y45D01*
X230Y44D01*
X249D01*
Y69D01*
D02*
G37*
G36*
X1111D02*
X1072D01*
Y64D01*
X1073Y56D01*
X1078Y50D01*
X1084Y45D01*
X1092Y44D01*
X1111D01*
Y69D01*
D02*
G37*
G36*
X1973D02*
X1934D01*
Y64D01*
X1936Y56D01*
X1940Y50D01*
X1947Y45D01*
X1954Y44D01*
X1973D01*
Y69D01*
D02*
G37*
G36*
X1686D02*
X1647D01*
Y64D01*
X1648Y56D01*
X1653Y50D01*
X1659Y45D01*
X1667Y44D01*
X1686D01*
Y69D01*
D02*
G37*
G36*
X1398D02*
X1359D01*
Y64D01*
X1361Y56D01*
X1365Y50D01*
X1372Y45D01*
X1380Y44D01*
X1398D01*
Y69D01*
D02*
G37*
G36*
X2187Y70D02*
X2170D01*
Y53D01*
X2174Y54D01*
X2182Y59D01*
X2187Y66D01*
X2187Y70D01*
D02*
G37*
G36*
X2160D02*
X2143D01*
X2144Y66D01*
X2149Y59D01*
X2157Y54D01*
X2160Y53D01*
Y70D01*
D02*
G37*
G36*
X1904D02*
X1887D01*
Y53D01*
X1891Y54D01*
X1898Y59D01*
X1903Y66D01*
X1904Y70D01*
D02*
G37*
G36*
X2448D02*
X2431D01*
X2432Y66D01*
X2437Y59D01*
X2444Y54D01*
X2448Y53D01*
Y70D01*
D02*
G37*
G36*
X2754D02*
X2737D01*
Y53D01*
X2741Y54D01*
X2749Y59D01*
X2753Y66D01*
X2754Y70D01*
D02*
G37*
G36*
X2727D02*
X2710D01*
X2711Y66D01*
X2716Y59D01*
X2724Y54D01*
X2727Y53D01*
Y70D01*
D02*
G37*
G36*
X2475D02*
X2458D01*
Y53D01*
X2462Y54D01*
X2469Y59D01*
X2474Y66D01*
X2475Y70D01*
D02*
G37*
G36*
X1877D02*
X1860D01*
X1861Y66D01*
X1866Y59D01*
X1873Y54D01*
X1877Y53D01*
Y70D01*
D02*
G37*
G36*
X1046D02*
X1029D01*
Y53D01*
X1032Y54D01*
X1040Y59D01*
X1045Y66D01*
X1046Y70D01*
D02*
G37*
G36*
X1019D02*
X1002D01*
X1002Y66D01*
X1007Y59D01*
X1015Y54D01*
X1019Y53D01*
Y70D01*
D02*
G37*
G36*
X750D02*
X733D01*
Y53D01*
X737Y54D01*
X745Y59D01*
X750Y66D01*
X750Y70D01*
D02*
G37*
G36*
X1306D02*
X1289D01*
X1290Y66D01*
X1295Y59D01*
X1302Y54D01*
X1306Y53D01*
Y70D01*
D02*
G37*
G36*
X1616D02*
X1599D01*
Y53D01*
X1603Y54D01*
X1611Y59D01*
X1616Y66D01*
X1616Y70D01*
D02*
G37*
G36*
X1589D02*
X1573D01*
X1573Y66D01*
X1578Y59D01*
X1586Y54D01*
X1589Y53D01*
Y70D01*
D02*
G37*
G36*
X1333D02*
X1316D01*
Y53D01*
X1320Y54D01*
X1327Y59D01*
X1332Y66D01*
X1333Y70D01*
D02*
G37*
%LPD*%
G36*
X3023Y1691D02*
X3020Y1688D01*
X2993D01*
Y1648D01*
Y1608D01*
X3023D01*
X3023Y1576D01*
X3018Y1574D01*
X3017Y1576D01*
X3008Y1583D01*
X2999Y1587D01*
X2988Y1588D01*
X2978Y1587D01*
X2968Y1583D01*
X2960Y1576D01*
X2953Y1568D01*
X2949Y1558D01*
X2948Y1548D01*
X2949Y1537D01*
X2953Y1527D01*
X2960Y1519D01*
X2968Y1513D01*
X2978Y1509D01*
X2988Y1507D01*
X2999Y1509D01*
X3008Y1513D01*
X3017Y1519D01*
X3018Y1521D01*
X3023Y1520D01*
X3024Y1451D01*
X3020Y1447D01*
X2948D01*
Y1367D01*
X3024D01*
X3024Y1335D01*
X3019Y1334D01*
X3017Y1336D01*
X3008Y1342D01*
X2999Y1346D01*
X2988Y1348D01*
X2978Y1346D01*
X2968Y1342D01*
X2962Y1338D01*
X2952Y1347D01*
X2947Y1351D01*
X2941Y1352D01*
X2828D01*
X2822Y1351D01*
X2817Y1347D01*
X2801Y1331D01*
X2798Y1326D01*
X2796Y1321D01*
Y1251D01*
X2719Y1174D01*
X2713Y1174D01*
X2713Y1175D01*
X2705Y1180D01*
X2697Y1182D01*
X2634D01*
X2625Y1180D01*
X2618Y1175D01*
X2618Y1175D01*
X2608D01*
Y1200D01*
X2613Y1201D01*
X2613Y1201D01*
X2618Y1194D01*
X2625Y1189D01*
X2634Y1187D01*
X2660D01*
Y1209D01*
Y1232D01*
X2634D01*
X2625Y1230D01*
X2618Y1225D01*
X2613Y1218D01*
X2613Y1218D01*
X2608Y1219D01*
Y1244D01*
X2618D01*
X2618Y1244D01*
X2625Y1239D01*
X2634Y1237D01*
X2697D01*
X2705Y1239D01*
X2713Y1244D01*
X2717Y1251D01*
X2719Y1259D01*
X2717Y1268D01*
X2713Y1275D01*
X2705Y1280D01*
X2697Y1282D01*
X2634D01*
X2625Y1280D01*
X2618Y1275D01*
X2618Y1275D01*
X2608D01*
Y1300D01*
X2613Y1301D01*
X2613Y1301D01*
X2618Y1294D01*
X2625Y1289D01*
X2634Y1287D01*
X2697D01*
X2705Y1289D01*
X2713Y1294D01*
X2717Y1301D01*
X2719Y1309D01*
X2717Y1318D01*
X2713Y1325D01*
X2705Y1330D01*
X2697Y1332D01*
X2634D01*
X2625Y1330D01*
X2618Y1325D01*
X2613Y1318D01*
X2613Y1318D01*
X2608Y1319D01*
Y1345D01*
X2556D01*
X2546Y1355D01*
X2550Y1363D01*
X2551Y1372D01*
X2550Y1381D01*
X2546Y1390D01*
X2541Y1397D01*
X2533Y1403D01*
X2525Y1406D01*
X2516Y1407D01*
X2507Y1406D01*
X2498Y1403D01*
X2491Y1397D01*
X2491Y1397D01*
X2486Y1398D01*
Y1409D01*
X2485Y1415D01*
X2481Y1420D01*
X2468Y1434D01*
X2470Y1438D01*
X2474Y1438D01*
Y1473D01*
X2439D01*
X2440Y1469D01*
X2435Y1467D01*
X2418Y1483D01*
X2418Y1488D01*
X2414Y1498D01*
X2407Y1506D01*
X2403Y1509D01*
X2405Y1514D01*
X2431D01*
X2437Y1515D01*
X2442Y1519D01*
X2463Y1541D01*
X2468Y1539D01*
X2479Y1537D01*
X2489Y1539D01*
X2499Y1543D01*
X2507Y1549D01*
X2514Y1557D01*
X2518Y1567D01*
X2519Y1578D01*
X2518Y1588D01*
X2514Y1598D01*
X2507Y1606D01*
X2499Y1612D01*
X2489Y1617D01*
X2479Y1618D01*
X2468Y1617D01*
X2459Y1612D01*
X2450Y1606D01*
X2444Y1598D01*
X2440Y1588D01*
X2438Y1578D01*
X2440Y1567D01*
X2442Y1562D01*
X2424Y1545D01*
X2409D01*
X2408Y1550D01*
X2414Y1557D01*
X2418Y1567D01*
X2419Y1578D01*
X2418Y1588D01*
X2414Y1598D01*
X2407Y1606D01*
X2399Y1612D01*
X2389Y1617D01*
X2379Y1618D01*
X2368Y1617D01*
X2359Y1612D01*
X2350Y1606D01*
X2344Y1598D01*
X2340Y1588D01*
X2338Y1578D01*
X2340Y1567D01*
X2344Y1557D01*
X2350Y1549D01*
X2349Y1544D01*
X2348Y1544D01*
X2344Y1540D01*
X2316Y1513D01*
X2313Y1508D01*
X2313Y1507D01*
X2307Y1506D01*
X2299Y1512D01*
X2289Y1517D01*
X2279Y1518D01*
X2268Y1517D01*
X2259Y1512D01*
X2250Y1506D01*
X2244Y1498D01*
X2240Y1488D01*
X2238Y1478D01*
X2240Y1467D01*
X2242Y1462D01*
X2226Y1446D01*
X2212D01*
X2209Y1451D01*
X2214Y1457D01*
X2218Y1467D01*
X2219Y1478D01*
X2218Y1488D01*
X2216Y1493D01*
X2245Y1522D01*
X2248Y1527D01*
X2249Y1533D01*
Y1544D01*
X2254Y1546D01*
X2259Y1543D01*
X2268Y1539D01*
X2279Y1537D01*
X2289Y1539D01*
X2299Y1543D01*
X2307Y1549D01*
X2314Y1557D01*
X2318Y1567D01*
X2319Y1578D01*
X2318Y1588D01*
X2316Y1593D01*
X2368Y1645D01*
X2399D01*
X2405Y1646D01*
X2410Y1649D01*
X2488Y1728D01*
X2496Y1727D01*
X2500Y1727D01*
X2503Y1722D01*
X2502Y1722D01*
X2498Y1713D01*
X2497Y1703D01*
X2498Y1693D01*
X2502Y1684D01*
X2508Y1676D01*
X2516Y1670D01*
X2525Y1666D01*
X2535Y1665D01*
X2545Y1666D01*
X2554Y1670D01*
X2562Y1676D01*
X2568Y1684D01*
X2572Y1693D01*
X2573Y1703D01*
X2572Y1713D01*
X2568Y1722D01*
X2562Y1730D01*
X2554Y1736D01*
X2545Y1739D01*
X2535Y1741D01*
X2530Y1740D01*
X2528Y1743D01*
X2527Y1745D01*
X2530Y1753D01*
X2531Y1762D01*
X2530Y1771D01*
X2527Y1779D01*
X2521Y1787D01*
X2514Y1792D01*
X2505Y1796D01*
X2500Y1797D01*
X2499Y1802D01*
X2546Y1849D01*
X2640D01*
X2646Y1850D01*
X2651Y1853D01*
X2676Y1879D01*
X2681Y1877D01*
X2691Y1875D01*
X2702Y1877D01*
X2711Y1881D01*
X2720Y1887D01*
X2726Y1895D01*
X2730Y1905D01*
X2731Y1915D01*
X2730Y1926D01*
X2726Y1935D01*
X2720Y1944D01*
X2713Y1948D01*
X2715Y1953D01*
X2752D01*
Y1920D01*
X2791D01*
X2831D01*
Y1953D01*
X3023D01*
X3023Y1691D01*
D02*
G37*
G36*
X2469Y1948D02*
X2463Y1944D01*
X2457Y1935D01*
X2453Y1926D01*
X2451Y1915D01*
X2453Y1905D01*
X2457Y1895D01*
X2463Y1887D01*
X2471Y1881D01*
X2481Y1877D01*
X2491Y1876D01*
X2493Y1871D01*
X2399Y1777D01*
X2378D01*
X2376Y1782D01*
X2378Y1784D01*
X2381Y1793D01*
X2383Y1802D01*
X2381Y1811D01*
X2378Y1819D01*
X2372Y1827D01*
X2365Y1832D01*
X2357Y1836D01*
X2347Y1837D01*
X2338Y1836D01*
X2330Y1832D01*
X2322Y1827D01*
X2317Y1819D01*
X2316Y1818D01*
X2087D01*
Y1847D01*
X2047D01*
X2007D01*
Y1818D01*
X1973D01*
X1972Y1823D01*
X1966Y1830D01*
X1959Y1836D01*
X1950Y1839D01*
X1941Y1840D01*
X1932Y1839D01*
X1923Y1836D01*
X1916Y1830D01*
X1910Y1823D01*
X1907Y1814D01*
X1906Y1805D01*
X1907Y1796D01*
X1910Y1787D01*
X1916Y1780D01*
X1923Y1775D01*
X1932Y1771D01*
X1938Y1770D01*
Y1746D01*
X1937Y1746D01*
X1932Y1739D01*
X1931Y1730D01*
Y1685D01*
X1926Y1683D01*
X1925Y1683D01*
Y1730D01*
X1923Y1739D01*
X1919Y1746D01*
X1911Y1751D01*
X1903Y1753D01*
X1894Y1751D01*
X1887Y1746D01*
X1882Y1739D01*
X1881Y1730D01*
Y1667D01*
X1882Y1659D01*
X1887Y1652D01*
X1894Y1647D01*
X1903Y1645D01*
X1911Y1647D01*
X1913Y1648D01*
X1931Y1630D01*
X1936Y1626D01*
X1942Y1625D01*
X1964D01*
X1970Y1626D01*
X1975Y1630D01*
X2058Y1713D01*
X2059Y1714D01*
X2067Y1717D01*
X2076Y1724D01*
X2082Y1732D01*
X2086Y1742D01*
X2088Y1752D01*
X2086Y1763D01*
X2082Y1773D01*
X2076Y1781D01*
X2073Y1783D01*
X2075Y1788D01*
X2315D01*
X2317Y1784D01*
X2319Y1782D01*
X2317Y1777D01*
X2180D01*
X2175Y1776D01*
X2170Y1773D01*
X2013Y1616D01*
X2010Y1611D01*
X2010Y1611D01*
X2004Y1609D01*
X1999Y1612D01*
X1989Y1617D01*
X1984Y1617D01*
Y1578D01*
Y1538D01*
X1989Y1539D01*
X1999Y1543D01*
X2003Y1546D01*
X2008Y1544D01*
Y1528D01*
X1995Y1514D01*
X1989Y1517D01*
X1979Y1518D01*
X1968Y1517D01*
X1959Y1512D01*
X1950Y1506D01*
X1944Y1498D01*
X1940Y1488D01*
X1938Y1478D01*
X1940Y1467D01*
X1944Y1457D01*
X1950Y1449D01*
X1959Y1443D01*
X1968Y1439D01*
X1979Y1437D01*
X1989Y1439D01*
X1999Y1443D01*
X2007Y1449D01*
X2014Y1457D01*
X2018Y1467D01*
X2019Y1478D01*
X2018Y1488D01*
X2016Y1492D01*
X2035Y1511D01*
X2038Y1516D01*
X2039Y1522D01*
Y1555D01*
X2044Y1557D01*
X2044Y1557D01*
X2050Y1549D01*
X2059Y1543D01*
X2068Y1539D01*
X2079Y1537D01*
X2089Y1539D01*
X2099Y1543D01*
X2103Y1546D01*
X2108Y1544D01*
Y1522D01*
X2099Y1512D01*
X2099Y1512D01*
X2089Y1517D01*
X2079Y1518D01*
X2068Y1517D01*
X2059Y1512D01*
X2050Y1506D01*
X2044Y1498D01*
X2040Y1488D01*
X2038Y1478D01*
X2040Y1467D01*
X2044Y1457D01*
X2050Y1449D01*
X2059Y1443D01*
X2068Y1439D01*
X2079Y1437D01*
X2089Y1439D01*
X2099Y1443D01*
X2107Y1449D01*
X2114Y1457D01*
X2118Y1467D01*
X2119Y1478D01*
X2118Y1488D01*
X2135Y1505D01*
X2138Y1510D01*
X2139Y1515D01*
Y1555D01*
X2144Y1557D01*
X2144Y1557D01*
X2150Y1549D01*
X2159Y1543D01*
X2168Y1539D01*
X2174Y1538D01*
Y1578D01*
Y1617D01*
X2168Y1617D01*
X2159Y1612D01*
X2150Y1606D01*
X2144Y1598D01*
X2144Y1598D01*
X2139Y1601D01*
Y1671D01*
X2195Y1727D01*
X2417D01*
X2423Y1728D01*
X2428Y1731D01*
X2456Y1759D01*
X2461Y1757D01*
X2462Y1753D01*
X2464Y1747D01*
X2393Y1675D01*
X2361D01*
X2356Y1674D01*
X2351Y1671D01*
X2294Y1615D01*
X2289Y1617D01*
X2279Y1618D01*
X2268Y1617D01*
X2259Y1612D01*
X2254Y1609D01*
X2249Y1611D01*
Y1639D01*
X2259Y1648D01*
X2264Y1648D01*
X2273Y1649D01*
X2281Y1652D01*
X2289Y1658D01*
X2294Y1665D01*
X2298Y1674D01*
X2299Y1683D01*
X2298Y1692D01*
X2294Y1701D01*
X2289Y1708D01*
X2281Y1714D01*
X2273Y1717D01*
X2264Y1718D01*
X2255Y1717D01*
X2246Y1714D01*
X2239Y1708D01*
X2233Y1701D01*
X2230Y1692D01*
X2228Y1683D01*
X2230Y1674D01*
X2233Y1666D01*
X2223Y1656D01*
X2220Y1651D01*
X2218Y1645D01*
Y1601D01*
X2214Y1598D01*
X2213Y1598D01*
X2207Y1606D01*
X2199Y1612D01*
X2189Y1617D01*
X2184Y1617D01*
Y1578D01*
Y1538D01*
X2189Y1539D01*
X2199Y1543D01*
X2207Y1549D01*
X2213Y1557D01*
X2214Y1557D01*
X2218Y1555D01*
Y1539D01*
X2194Y1515D01*
X2189Y1517D01*
X2179Y1518D01*
X2168Y1517D01*
X2159Y1512D01*
X2150Y1506D01*
X2144Y1498D01*
X2140Y1488D01*
X2138Y1478D01*
X2140Y1467D01*
X2144Y1457D01*
X2148Y1451D01*
X2146Y1446D01*
X2117D01*
X2112Y1445D01*
X2107Y1442D01*
X2003Y1338D01*
X2000Y1333D01*
X1998Y1327D01*
Y1256D01*
X1993Y1254D01*
X1990Y1259D01*
X1982Y1265D01*
X1974Y1268D01*
X1965Y1270D01*
X1955Y1268D01*
X1947Y1265D01*
X1940Y1259D01*
X1934Y1252D01*
X1933Y1250D01*
X1376D01*
X1375Y1255D01*
X1376Y1255D01*
X1383Y1260D01*
X1389Y1268D01*
X1392Y1276D01*
X1394Y1285D01*
X1392Y1295D01*
X1389Y1303D01*
X1383Y1310D01*
X1376Y1316D01*
X1374Y1317D01*
Y1402D01*
X1374Y1403D01*
X1374Y1403D01*
X1374Y1403D01*
X1373Y1406D01*
X1373Y1409D01*
X1373Y1409D01*
X1373Y1409D01*
X1371Y1411D01*
X1369Y1414D01*
X1369Y1414D01*
X1369Y1414D01*
X1349Y1434D01*
Y1444D01*
X1354Y1446D01*
X1359Y1443D01*
X1368Y1439D01*
X1379Y1437D01*
X1389Y1439D01*
X1399Y1443D01*
X1407Y1449D01*
X1414Y1457D01*
X1418Y1467D01*
X1419Y1478D01*
X1418Y1488D01*
X1416Y1493D01*
X1444Y1521D01*
X1447Y1526D01*
X1448Y1532D01*
Y1544D01*
X1453Y1547D01*
X1459Y1543D01*
X1468Y1539D01*
X1474Y1538D01*
Y1578D01*
Y1617D01*
X1468Y1617D01*
X1459Y1612D01*
X1453Y1609D01*
X1448Y1611D01*
Y1671D01*
X1451Y1672D01*
X1458Y1678D01*
X1464Y1685D01*
X1467Y1694D01*
X1468Y1703D01*
X1467Y1712D01*
X1464Y1720D01*
X1458Y1728D01*
X1451Y1733D01*
X1442Y1737D01*
X1433Y1738D01*
X1424Y1737D01*
X1415Y1733D01*
X1408Y1728D01*
X1402Y1720D01*
X1399Y1712D01*
X1398Y1703D01*
X1399Y1694D01*
X1402Y1685D01*
X1408Y1678D01*
X1415Y1672D01*
X1418Y1671D01*
Y1600D01*
X1413Y1599D01*
X1407Y1606D01*
X1399Y1612D01*
X1389Y1617D01*
X1379Y1618D01*
X1368Y1617D01*
X1359Y1612D01*
X1350Y1606D01*
X1344Y1598D01*
X1340Y1588D01*
X1338Y1578D01*
X1340Y1567D01*
X1342Y1562D01*
X1323Y1543D01*
X1320Y1538D01*
X1318Y1533D01*
Y1501D01*
X1314Y1498D01*
X1313Y1498D01*
X1307Y1506D01*
X1299Y1512D01*
X1289Y1517D01*
X1279Y1518D01*
X1268Y1517D01*
X1259Y1512D01*
X1250Y1506D01*
X1244Y1498D01*
X1240Y1488D01*
X1238Y1478D01*
X1240Y1467D01*
X1244Y1457D01*
X1250Y1449D01*
X1259Y1443D01*
X1268Y1439D01*
X1279Y1437D01*
X1289Y1439D01*
X1299Y1443D01*
X1307Y1449D01*
X1313Y1457D01*
X1314Y1457D01*
X1318Y1455D01*
Y1428D01*
X1320Y1422D01*
X1323Y1417D01*
X1343Y1397D01*
Y1317D01*
X1341Y1316D01*
X1333Y1310D01*
X1328Y1303D01*
X1324Y1295D01*
X1323Y1285D01*
X1324Y1276D01*
X1328Y1268D01*
X1333Y1260D01*
X1341Y1255D01*
X1341Y1255D01*
X1340Y1250D01*
X1206D01*
X1204Y1255D01*
X1208Y1260D01*
X1211Y1268D01*
X1212Y1278D01*
X1211Y1287D01*
X1208Y1295D01*
X1202Y1303D01*
X1195Y1308D01*
X1194Y1308D01*
Y1441D01*
X1199Y1443D01*
X1207Y1449D01*
X1214Y1457D01*
X1218Y1467D01*
X1219Y1478D01*
X1218Y1488D01*
X1214Y1498D01*
X1207Y1506D01*
X1199Y1512D01*
X1189Y1517D01*
X1179Y1518D01*
X1168Y1517D01*
X1159Y1512D01*
X1150Y1506D01*
X1150Y1506D01*
X1145Y1507D01*
Y1526D01*
X1144Y1532D01*
X1141Y1537D01*
X1116Y1562D01*
X1118Y1567D01*
X1119Y1578D01*
X1118Y1588D01*
X1114Y1598D01*
X1107Y1606D01*
X1099Y1612D01*
X1089Y1617D01*
X1079Y1618D01*
X1068Y1617D01*
X1059Y1612D01*
X1050Y1606D01*
X1044Y1598D01*
X1040Y1588D01*
X1038Y1578D01*
X1040Y1567D01*
X1044Y1557D01*
X1050Y1549D01*
X1059Y1543D01*
X1068Y1539D01*
X1079Y1537D01*
X1089Y1539D01*
X1094Y1541D01*
X1115Y1520D01*
Y1505D01*
X1110Y1503D01*
X1107Y1506D01*
X1099Y1512D01*
X1089Y1517D01*
X1079Y1518D01*
X1068Y1517D01*
X1059Y1512D01*
X1050Y1506D01*
X1044Y1498D01*
X1040Y1488D01*
X1038Y1478D01*
X1040Y1467D01*
X1044Y1457D01*
X1050Y1449D01*
X1059Y1443D01*
X1063Y1441D01*
Y1309D01*
X1061Y1308D01*
X1054Y1303D01*
X1048Y1295D01*
X1045Y1287D01*
X1043Y1278D01*
X1045Y1268D01*
X1048Y1260D01*
X1054Y1253D01*
X1061Y1247D01*
X1070Y1243D01*
X1079Y1242D01*
X1088Y1243D01*
X1096Y1247D01*
X1104Y1253D01*
X1109Y1260D01*
X1110Y1261D01*
X1115Y1260D01*
Y1254D01*
X1116Y1248D01*
X1119Y1243D01*
X1139Y1223D01*
X1144Y1220D01*
X1150Y1219D01*
X1933D01*
X1934Y1217D01*
X1940Y1209D01*
X1947Y1204D01*
X1955Y1200D01*
X1965Y1199D01*
X1974Y1200D01*
X1982Y1204D01*
X1990Y1209D01*
X1993Y1214D01*
X1998Y1213D01*
Y1111D01*
X1994Y1109D01*
X1993Y1110D01*
X1989Y1111D01*
Y1089D01*
X1984D01*
Y1084D01*
X1962D01*
X1963Y1080D01*
X1968Y1072D01*
X1974Y1069D01*
X1974Y1063D01*
X1974Y1063D01*
X1973Y1062D01*
X1970Y1064D01*
X1963Y1065D01*
X1956Y1064D01*
X1950Y1060D01*
X1944Y1064D01*
X1937Y1065D01*
X1930Y1064D01*
X1924Y1060D01*
X1920Y1063D01*
X1920Y1063D01*
X1920Y1068D01*
X1920Y1069D01*
X1926Y1072D01*
X1931Y1080D01*
X1931Y1084D01*
X1888D01*
X1888Y1080D01*
X1893Y1072D01*
X1899Y1069D01*
X1899Y1063D01*
X1897Y1062D01*
X1893Y1064D01*
X1886Y1065D01*
X1879Y1064D01*
X1873Y1060D01*
X1872Y1059D01*
X1865Y1058D01*
X1864Y1058D01*
Y1078D01*
X1789D01*
Y1047D01*
X1775D01*
X1775Y1048D01*
X1769Y1056D01*
X1762Y1061D01*
X1753Y1065D01*
X1744Y1066D01*
X1735Y1065D01*
X1726Y1061D01*
X1719Y1056D01*
X1714Y1048D01*
X1710Y1040D01*
X1709Y1031D01*
X1710Y1022D01*
X1714Y1013D01*
X1719Y1006D01*
X1726Y1000D01*
X1735Y997D01*
X1744Y995D01*
X1753Y997D01*
X1762Y1000D01*
X1769Y1006D01*
X1774Y1012D01*
X1789D01*
Y992D01*
X1864D01*
Y1001D01*
X1865Y1001D01*
X1872Y1000D01*
X1873Y999D01*
X1879Y995D01*
X1886Y994D01*
X1893Y995D01*
X1899Y999D01*
X1904Y995D01*
X1906Y995D01*
Y1030D01*
X1916D01*
Y993D01*
X1919Y990D01*
Y990D01*
X1921Y983D01*
X1925Y977D01*
X1928Y974D01*
X1928Y974D01*
X1934Y970D01*
X1941Y969D01*
X2147D01*
Y960D01*
X2223D01*
Y984D01*
X2259Y1020D01*
X2268Y1019D01*
X2277Y1020D01*
X2285Y1024D01*
X2293Y1029D01*
X2298Y1037D01*
X2302Y1045D01*
X2303Y1054D01*
X2302Y1063D01*
X2298Y1072D01*
X2293Y1079D01*
X2285Y1085D01*
X2277Y1088D01*
X2268Y1090D01*
X2259Y1088D01*
X2250Y1085D01*
X2243Y1079D01*
X2237Y1072D01*
X2234Y1063D01*
X2232Y1054D01*
X2234Y1045D01*
X2227Y1039D01*
X2223Y1041D01*
Y1046D01*
X2185D01*
X2147D01*
Y1020D01*
Y1004D01*
X2138D01*
X2134Y1009D01*
X2134Y1012D01*
Y1025D01*
X2116D01*
Y1035D01*
X2134D01*
Y1047D01*
X2133Y1054D01*
X2129Y1060D01*
X2126Y1062D01*
X2127Y1067D01*
X2134Y1072D01*
X2139Y1080D01*
X2140Y1084D01*
X2096D01*
X2097Y1080D01*
X2102Y1072D01*
X2108Y1069D01*
X2108Y1068D01*
X2108Y1063D01*
X2108Y1063D01*
X2103Y1060D01*
X2098Y1064D01*
X2096Y1064D01*
Y1030D01*
X2086D01*
Y1064D01*
X2085Y1064D01*
X2080Y1067D01*
Y1199D01*
X2088Y1200D01*
X2096Y1204D01*
X2104Y1209D01*
X2109Y1217D01*
X2113Y1225D01*
X2114Y1234D01*
X2113Y1243D01*
X2109Y1252D01*
X2104Y1259D01*
X2096Y1265D01*
X2088Y1268D01*
X2079Y1270D01*
X2070Y1268D01*
X2061Y1265D01*
X2059Y1263D01*
X2054Y1265D01*
Y1318D01*
X2132Y1396D01*
X2241D01*
X2242Y1396D01*
X2283D01*
X2289Y1397D01*
X2294Y1401D01*
X2338Y1444D01*
X2341Y1449D01*
X2342Y1452D01*
X2347Y1453D01*
X2350Y1449D01*
X2359Y1443D01*
X2368Y1439D01*
X2379Y1437D01*
X2389Y1439D01*
X2399Y1443D01*
X2407Y1449D01*
X2409Y1449D01*
X2455Y1403D01*
Y1345D01*
X2439D01*
Y1258D01*
X2439D01*
Y1254D01*
X2439D01*
Y1167D01*
X2441D01*
X2443Y1162D01*
X2439Y1156D01*
X2439Y1153D01*
X2483D01*
X2482Y1156D01*
X2478Y1162D01*
X2480Y1167D01*
X2502D01*
Y1254D01*
X2502D01*
Y1258D01*
X2502D01*
Y1335D01*
X2505Y1338D01*
X2507Y1338D01*
X2516Y1337D01*
X2520Y1337D01*
X2545Y1313D01*
Y1259D01*
X2545Y1258D01*
X2545D01*
Y1254D01*
X2545D01*
Y1216D01*
X2577D01*
Y1206D01*
X2545D01*
Y1167D01*
X2578D01*
X2580Y1163D01*
X2574Y1157D01*
X2572Y1158D01*
X2563Y1159D01*
X2554Y1158D01*
X2545Y1155D01*
X2538Y1149D01*
X2532Y1142D01*
X2529Y1133D01*
X2528Y1124D01*
X2529Y1115D01*
X2532Y1106D01*
X2538Y1099D01*
X2545Y1093D01*
X2554Y1090D01*
X2563Y1089D01*
X2572Y1090D01*
X2581Y1093D01*
X2588Y1099D01*
X2594Y1106D01*
X2597Y1115D01*
X2598Y1124D01*
X2597Y1133D01*
X2596Y1136D01*
X2605Y1144D01*
X2618D01*
X2618Y1144D01*
X2625Y1139D01*
X2634Y1137D01*
X2697D01*
X2705Y1139D01*
X2708Y1141D01*
X2713Y1138D01*
Y1131D01*
X2708Y1128D01*
X2705Y1130D01*
X2697Y1132D01*
X2634D01*
X2625Y1130D01*
X2618Y1125D01*
X2613Y1118D01*
X2612Y1109D01*
X2613Y1101D01*
X2618Y1094D01*
X2625Y1089D01*
X2634Y1087D01*
X2697D01*
X2705Y1089D01*
X2713Y1094D01*
X2713Y1094D01*
X2722D01*
X2723Y1090D01*
X2710Y1077D01*
X2705Y1080D01*
X2697Y1082D01*
X2634D01*
X2625Y1080D01*
X2618Y1075D01*
X2613Y1068D01*
X2612Y1059D01*
X2613Y1051D01*
X2618Y1044D01*
X2625Y1039D01*
X2634Y1037D01*
X2697D01*
X2705Y1039D01*
X2713Y1044D01*
X2713Y1044D01*
X2715D01*
X2721Y1045D01*
X2726Y1049D01*
X2763Y1086D01*
X2763Y1087D01*
X2768Y1085D01*
Y1040D01*
X2764Y1038D01*
X2761Y1040D01*
X2753Y1044D01*
X2744Y1045D01*
X2735Y1044D01*
X2726Y1040D01*
X2719Y1034D01*
X2713Y1027D01*
X2711Y1026D01*
X2705Y1030D01*
X2697Y1032D01*
X2634D01*
X2625Y1030D01*
X2618Y1025D01*
X2618Y1025D01*
X2468D01*
X2462Y1024D01*
X2457Y1020D01*
X2449Y1012D01*
X2401D01*
Y964D01*
X2391Y954D01*
X1220D01*
X1216Y958D01*
X1216Y959D01*
X1215Y968D01*
X1212Y976D01*
X1206Y984D01*
X1199Y989D01*
X1190Y993D01*
X1181Y994D01*
X1172Y993D01*
X1163Y989D01*
X1156Y984D01*
X1151Y976D01*
X1147Y968D01*
X1146Y962D01*
X1141Y963D01*
Y1057D01*
X1144Y1058D01*
X1151Y1064D01*
X1157Y1071D01*
X1160Y1079D01*
X1161Y1089D01*
X1160Y1098D01*
X1157Y1106D01*
X1151Y1114D01*
X1144Y1119D01*
X1135Y1123D01*
X1126Y1124D01*
X1117Y1123D01*
X1108Y1119D01*
X1101Y1114D01*
X1095Y1106D01*
X1092Y1098D01*
X1091Y1089D01*
X1092Y1079D01*
X1095Y1071D01*
X1101Y1064D01*
X1108Y1058D01*
X1111Y1057D01*
Y951D01*
X1112Y945D01*
X1115Y940D01*
X1145Y910D01*
X1147Y908D01*
X1152Y905D01*
X1157Y903D01*
X1159D01*
X1162Y899D01*
X1160Y897D01*
X1159Y893D01*
X1203D01*
X1202Y897D01*
X1201Y899D01*
X1203Y903D01*
X2394D01*
X2401Y896D01*
Y842D01*
X2488D01*
Y896D01*
X2493Y900D01*
X2737D01*
X2743Y901D01*
X2748Y905D01*
X2819Y975D01*
X2822Y980D01*
X2823Y986D01*
Y988D01*
X2923D01*
Y994D01*
X2930D01*
X2936Y995D01*
X2941Y999D01*
X2973Y1030D01*
X2978Y1028D01*
X2988Y1027D01*
X2999Y1028D01*
X3008Y1032D01*
X3017Y1039D01*
X3019Y1041D01*
X3024Y1040D01*
X3024Y305D01*
X3021Y302D01*
X1375Y302D01*
X1372Y307D01*
X1376Y312D01*
X1376Y316D01*
X1332D01*
X1333Y312D01*
X1336Y307D01*
X1334Y302D01*
X1029Y302D01*
X1027Y307D01*
X1029Y308D01*
X1035Y317D01*
X1039Y326D01*
X1041Y337D01*
X1039Y347D01*
X1035Y357D01*
X1029Y365D01*
X1021Y371D01*
X1016Y373D01*
Y457D01*
X1022Y463D01*
X1234D01*
X1240Y464D01*
X1245Y468D01*
X1256Y478D01*
X1269D01*
X1271Y476D01*
Y470D01*
X1277D01*
X1279Y468D01*
Y428D01*
X1280Y424D01*
Y396D01*
X1278Y395D01*
X1270Y389D01*
X1265Y382D01*
X1261Y373D01*
X1260Y364D01*
X1261Y355D01*
X1265Y347D01*
X1270Y339D01*
X1278Y334D01*
X1286Y330D01*
X1295Y329D01*
X1304Y330D01*
X1313Y334D01*
X1320Y339D01*
X1326Y347D01*
X1329Y355D01*
X1331Y364D01*
X1329Y373D01*
X1329Y374D01*
X1331Y377D01*
X1332Y382D01*
X1345Y395D01*
X1349Y400D01*
X1350Y406D01*
Y409D01*
X1354Y412D01*
X1354Y412D01*
X1361Y413D01*
X1364Y416D01*
X1368Y413D01*
X1374Y412D01*
X1380Y413D01*
X1384Y416D01*
X1396Y405D01*
X1401Y401D01*
X1406Y400D01*
X1462D01*
Y378D01*
X1666D01*
Y415D01*
Y453D01*
X1644D01*
Y529D01*
Y610D01*
X1666D01*
Y648D01*
Y685D01*
X1462D01*
Y663D01*
X1404D01*
X1398Y662D01*
X1393Y658D01*
X1386Y651D01*
X1382Y655D01*
X1366D01*
X1363Y652D01*
X1361Y654D01*
X1359Y654D01*
Y648D01*
X1358Y647D01*
Y619D01*
X1349D01*
Y654D01*
X1348Y654D01*
X1344Y651D01*
X1341Y654D01*
X1335Y655D01*
X1334Y655D01*
X1330Y658D01*
Y667D01*
X1330Y669D01*
X1334Y672D01*
Y695D01*
Y717D01*
X1330Y716D01*
X1322Y711D01*
X1319Y706D01*
X1314Y705D01*
X1313Y705D01*
X1313Y705D01*
X1305Y711D01*
X1295Y712D01*
X988D01*
X985Y717D01*
X986Y718D01*
X987Y721D01*
X943D01*
X943Y718D01*
X944Y717D01*
X941Y712D01*
X879D01*
X872Y718D01*
X863Y721D01*
X854Y722D01*
X845Y721D01*
X837Y718D01*
X829Y712D01*
X824Y705D01*
X820Y696D01*
X819Y687D01*
X820Y678D01*
X824Y669D01*
X829Y662D01*
X837Y656D01*
X845Y653D01*
X854Y652D01*
X863Y653D01*
X872Y656D01*
X879Y662D01*
X954D01*
X955Y660D01*
X955Y657D01*
X948Y652D01*
X943Y645D01*
X943Y641D01*
X987D01*
X986Y645D01*
X981Y652D01*
X974Y657D01*
X974Y660D01*
X975Y662D01*
X1280D01*
Y643D01*
X1279Y639D01*
Y599D01*
X1277Y597D01*
X1271D01*
Y591D01*
X1269Y589D01*
X1254D01*
X1236Y607D01*
X1231Y611D01*
X1225Y612D01*
X978D01*
X977Y617D01*
X981Y620D01*
X986Y627D01*
X987Y631D01*
X943D01*
X943Y627D01*
X948Y620D01*
X953Y617D01*
X951Y612D01*
X768D01*
X762Y611D01*
X757Y607D01*
X690Y540D01*
X687Y535D01*
X685Y530D01*
Y376D01*
X661D01*
Y306D01*
X658Y303D01*
X591Y303D01*
X589Y308D01*
X597Y313D01*
X603Y321D01*
X607Y331D01*
X608Y342D01*
X607Y352D01*
X603Y362D01*
X597Y370D01*
X588Y376D01*
Y648D01*
X587Y657D01*
X581Y666D01*
X397Y850D01*
X399Y854D01*
X885D01*
X892Y849D01*
X900Y846D01*
X909Y845D01*
X919Y846D01*
X927Y849D01*
X934Y855D01*
X940Y862D01*
X944Y871D01*
X945Y880D01*
X944Y889D01*
X940Y898D01*
X934Y905D01*
X927Y910D01*
X919Y914D01*
X909Y915D01*
X900Y914D01*
X892Y910D01*
X885Y905D01*
X341D01*
X296Y951D01*
X298Y956D01*
X299Y955D01*
X308Y957D01*
X315Y962D01*
X320Y970D01*
X321Y973D01*
X299D01*
Y978D01*
X294D01*
Y1000D01*
X290Y1000D01*
X283Y995D01*
X278Y987D01*
X276Y978D01*
X276Y977D01*
X272Y975D01*
X199Y1048D01*
Y1458D01*
X204Y1465D01*
X207Y1473D01*
X209Y1482D01*
X207Y1491D01*
X205Y1496D01*
X206Y1497D01*
X209Y1500D01*
X212Y1500D01*
Y1517D01*
X195D01*
X195Y1516D01*
X192Y1514D01*
X190Y1513D01*
X182Y1516D01*
X173Y1518D01*
X164Y1516D01*
X156Y1513D01*
X148Y1507D01*
X143Y1500D01*
X139Y1491D01*
X138Y1482D01*
X139Y1473D01*
X143Y1465D01*
X148Y1458D01*
Y1037D01*
X150Y1028D01*
X155Y1019D01*
X244Y931D01*
X241Y926D01*
X240Y926D01*
X231Y925D01*
X224Y920D01*
X219Y912D01*
X218Y909D01*
X240D01*
Y904D01*
X245D01*
Y882D01*
X249Y882D01*
X256Y887D01*
X261Y895D01*
X263Y904D01*
X263Y905D01*
X267Y907D01*
X538Y637D01*
Y480D01*
X499D01*
Y443D01*
Y405D01*
X538D01*
Y368D01*
X533Y362D01*
X529Y352D01*
X528Y342D01*
X529Y331D01*
X533Y321D01*
X539Y313D01*
X547Y308D01*
X545Y303D01*
X508Y303D01*
Y337D01*
X428D01*
Y306D01*
X424Y303D01*
X15Y303D01*
Y950D01*
X20Y953D01*
X20Y953D01*
X23Y948D01*
X56Y916D01*
X55Y909D01*
X51Y906D01*
X44Y897D01*
X40Y888D01*
X39Y878D01*
X40Y867D01*
X44Y858D01*
X51Y849D01*
X59Y843D01*
X68Y839D01*
X79Y838D01*
X89Y839D01*
X99Y843D01*
X106Y848D01*
X111Y847D01*
Y808D01*
X106Y807D01*
X99Y812D01*
X89Y816D01*
X79Y817D01*
X68Y816D01*
X59Y812D01*
X51Y806D01*
X44Y797D01*
X40Y788D01*
X39Y778D01*
X40Y767D01*
X44Y758D01*
X51Y749D01*
X59Y743D01*
X68Y739D01*
X79Y738D01*
X89Y739D01*
X99Y743D01*
X106Y748D01*
X111Y747D01*
Y731D01*
X94Y714D01*
X89Y716D01*
X79Y717D01*
X68Y716D01*
X59Y712D01*
X51Y706D01*
X44Y697D01*
X40Y688D01*
X39Y678D01*
X40Y667D01*
X44Y658D01*
X51Y649D01*
X59Y643D01*
X68Y639D01*
X79Y638D01*
X89Y639D01*
X99Y643D01*
X107Y649D01*
X113Y658D01*
X117Y667D01*
X119Y678D01*
X117Y688D01*
X115Y693D01*
X137Y714D01*
X140Y719D01*
X141Y725D01*
Y1230D01*
X140Y1236D01*
X137Y1241D01*
X115Y1263D01*
X117Y1267D01*
X119Y1278D01*
X117Y1288D01*
X113Y1297D01*
X107Y1306D01*
X99Y1312D01*
X89Y1316D01*
X79Y1317D01*
X68Y1316D01*
X59Y1312D01*
X51Y1306D01*
X44Y1297D01*
X40Y1288D01*
X39Y1278D01*
X40Y1267D01*
X44Y1258D01*
X51Y1249D01*
X59Y1243D01*
X68Y1239D01*
X79Y1238D01*
X89Y1239D01*
X94Y1241D01*
X111Y1224D01*
Y1208D01*
X106Y1207D01*
X99Y1212D01*
X89Y1216D01*
X79Y1217D01*
X68Y1216D01*
X59Y1212D01*
X51Y1206D01*
X44Y1197D01*
X40Y1188D01*
X39Y1178D01*
X40Y1167D01*
X44Y1158D01*
X51Y1149D01*
X55Y1146D01*
X56Y1139D01*
X23Y1107D01*
X20Y1102D01*
X20Y1102D01*
X15Y1105D01*
Y1953D01*
X729D01*
X730Y1948D01*
X723Y1945D01*
X717Y1941D01*
X637D01*
X627Y1939D01*
X619Y1933D01*
X587Y1902D01*
X573D01*
X566Y1901D01*
X559Y1898D01*
X553Y1894D01*
X549Y1888D01*
X546Y1881D01*
X545Y1874D01*
Y1869D01*
X543Y1865D01*
X542Y1856D01*
X543Y1847D01*
X545Y1844D01*
Y1839D01*
X546Y1831D01*
X549Y1825D01*
X553Y1819D01*
X559Y1814D01*
X566Y1812D01*
X573Y1811D01*
X656D01*
X663Y1812D01*
X669Y1814D01*
X675Y1819D01*
X680Y1825D01*
X683Y1831D01*
X683Y1839D01*
Y1874D01*
X683Y1881D01*
X681Y1885D01*
X684Y1890D01*
X708D01*
X715Y1882D01*
X723Y1875D01*
X733Y1871D01*
X743Y1870D01*
X753Y1871D01*
X763Y1875D01*
X772Y1882D01*
X778Y1890D01*
X826D01*
X833Y1882D01*
X841Y1875D01*
X851Y1871D01*
X861Y1870D01*
X872Y1871D01*
X881Y1875D01*
X890Y1882D01*
X896Y1890D01*
X900Y1900D01*
X901Y1910D01*
X900Y1921D01*
X896Y1931D01*
X890Y1939D01*
X881Y1945D01*
X874Y1948D01*
X875Y1953D01*
X945D01*
Y1920D01*
X984D01*
X1024D01*
Y1953D01*
X1783D01*
X1786Y1948D01*
X1782Y1944D01*
X1781Y1935D01*
Y1909D01*
X1803D01*
X1825D01*
Y1935D01*
X1823Y1944D01*
X1820Y1948D01*
X1823Y1953D01*
X1833D01*
X1836Y1948D01*
X1832Y1944D01*
X1831Y1935D01*
Y1909D01*
X1853D01*
X1875D01*
Y1935D01*
X1873Y1944D01*
X1870Y1948D01*
X1873Y1953D01*
X1883D01*
X1886Y1948D01*
X1882Y1944D01*
X1881Y1935D01*
Y1909D01*
X1903D01*
X1925D01*
Y1935D01*
X1923Y1944D01*
X1920Y1948D01*
X1923Y1953D01*
X1931D01*
Y1909D01*
X1953D01*
X1975D01*
Y1953D01*
X2146D01*
X2148Y1948D01*
X2142Y1944D01*
X2136Y1935D01*
X2132Y1926D01*
X2130Y1915D01*
X2132Y1905D01*
X2136Y1895D01*
X2142Y1887D01*
X2150Y1881D01*
X2160Y1877D01*
X2170Y1875D01*
X2180Y1877D01*
X2190Y1881D01*
X2198Y1887D01*
X2205Y1895D01*
X2209Y1905D01*
X2210Y1915D01*
X2209Y1926D01*
X2205Y1935D01*
X2198Y1944D01*
X2192Y1948D01*
X2194Y1953D01*
X2246D01*
X2248Y1948D01*
X2242Y1944D01*
X2236Y1935D01*
X2232Y1926D01*
X2230Y1915D01*
X2232Y1905D01*
X2236Y1895D01*
X2242Y1887D01*
X2250Y1881D01*
X2260Y1877D01*
X2270Y1875D01*
X2280Y1877D01*
X2290Y1881D01*
X2298Y1887D01*
X2305Y1895D01*
X2309Y1905D01*
X2310Y1915D01*
X2309Y1926D01*
X2305Y1935D01*
X2298Y1944D01*
X2292Y1948D01*
X2294Y1953D01*
X2331D01*
Y1920D01*
X2370D01*
X2410D01*
Y1953D01*
X2468D01*
X2469Y1948D01*
D02*
G37*
G36*
X2948Y1308D02*
X2948Y1307D01*
X2949Y1297D01*
X2953Y1287D01*
X2960Y1279D01*
X2968Y1273D01*
X2978Y1269D01*
X2988Y1267D01*
X2999Y1269D01*
X3008Y1273D01*
X3017Y1279D01*
X3019Y1281D01*
X3024Y1280D01*
X3024Y1211D01*
X3020Y1207D01*
X2993D01*
Y1167D01*
Y1127D01*
X3024D01*
X3024Y1095D01*
X3019Y1093D01*
X3017Y1096D01*
X3008Y1102D01*
X2999Y1106D01*
X2988Y1108D01*
X2978Y1106D01*
X2968Y1102D01*
X2960Y1096D01*
X2953Y1087D01*
X2949Y1078D01*
X2948Y1067D01*
X2949Y1057D01*
X2951Y1052D01*
X2928Y1029D01*
X2923Y1031D01*
Y1031D01*
X2893D01*
X2889Y1036D01*
X2890Y1037D01*
X2902D01*
X2910Y1039D01*
X2917Y1044D01*
X2922Y1051D01*
X2924Y1059D01*
X2922Y1068D01*
X2917Y1075D01*
X2910Y1080D01*
X2902Y1082D01*
X2839D01*
X2830Y1080D01*
X2823Y1075D01*
X2818Y1068D01*
X2816Y1059D01*
X2818Y1051D01*
X2815Y1050D01*
X2810Y1047D01*
X2804Y1041D01*
X2799Y1043D01*
Y1130D01*
X2813Y1144D01*
X2823D01*
X2823Y1144D01*
X2830Y1139D01*
X2839Y1137D01*
X2902D01*
X2910Y1139D01*
X2917Y1144D01*
X2922Y1151D01*
X2924Y1159D01*
X2922Y1168D01*
X2917Y1175D01*
X2910Y1180D01*
X2902Y1182D01*
X2839D01*
X2830Y1180D01*
X2823Y1175D01*
X2823Y1175D01*
X2807D01*
X2801Y1174D01*
X2796Y1170D01*
X2775Y1149D01*
X2769Y1150D01*
X2769Y1152D01*
X2811Y1194D01*
X2823D01*
X2823Y1194D01*
X2830Y1189D01*
X2839Y1187D01*
X2902D01*
X2910Y1189D01*
X2917Y1194D01*
X2922Y1201D01*
X2924Y1209D01*
X2922Y1218D01*
X2917Y1225D01*
X2910Y1230D01*
X2902Y1232D01*
X2839D01*
X2830Y1230D01*
X2824Y1226D01*
X2822Y1227D01*
X2821Y1232D01*
X2821Y1232D01*
X2823Y1234D01*
X2826Y1239D01*
X2831Y1239D01*
X2839Y1237D01*
X2902D01*
X2910Y1239D01*
X2917Y1244D01*
X2922Y1251D01*
X2924Y1259D01*
X2922Y1268D01*
X2917Y1275D01*
X2910Y1280D01*
X2902Y1282D01*
X2839D01*
X2835Y1281D01*
X2831Y1284D01*
X2835Y1288D01*
X2839Y1287D01*
X2865D01*
Y1309D01*
X2870D01*
Y1314D01*
X2923D01*
X2922Y1316D01*
X2925Y1321D01*
X2935D01*
X2948Y1308D01*
D02*
G37*
G36*
X1129Y556D02*
X1126Y554D01*
X1121Y546D01*
X1120Y542D01*
X1142D01*
Y532D01*
X1120D01*
X1121Y529D01*
X1126Y521D01*
X1129Y519D01*
X1128Y514D01*
X922D01*
X916Y512D01*
X911Y509D01*
X890Y488D01*
X887Y483D01*
X885Y478D01*
Y373D01*
X881Y371D01*
X873Y365D01*
X866Y357D01*
X862Y347D01*
X861Y337D01*
X862Y326D01*
X866Y317D01*
X873Y308D01*
X874Y307D01*
X873Y302D01*
X829Y302D01*
X827Y307D01*
X829Y308D01*
X835Y317D01*
X839Y326D01*
X841Y337D01*
X839Y347D01*
X835Y357D01*
X829Y365D01*
X821Y371D01*
X816Y373D01*
Y509D01*
X869Y561D01*
X1128D01*
X1129Y556D01*
D02*
G37*
%LPC*%
G36*
X2915Y1939D02*
X2903Y1938D01*
X2886Y1933D01*
X2871Y1925D01*
X2857Y1913D01*
X2846Y1900D01*
X2838Y1885D01*
X2836Y1877D01*
X2831Y1878D01*
X2831Y1880D01*
X2831Y1880D01*
X2831Y1881D01*
Y1910D01*
X2796D01*
Y1876D01*
X2827D01*
X2830Y1876D01*
X2834Y1872D01*
X2834Y1872D01*
X2834Y1872D01*
X2833Y1868D01*
X2832Y1855D01*
X2915D01*
Y1939D01*
D02*
G37*
G36*
X2786Y1910D02*
X2752D01*
Y1876D01*
X2786D01*
Y1910D01*
D02*
G37*
G36*
X2925Y1939D02*
Y1855D01*
X3009D01*
X3008Y1868D01*
X3003Y1885D01*
X2995Y1900D01*
X2984Y1913D01*
X2970Y1925D01*
X2955Y1933D01*
X2938Y1938D01*
X2925Y1939D01*
D02*
G37*
G36*
X3009Y1845D02*
X2925D01*
Y1762D01*
X2938Y1763D01*
X2955Y1768D01*
X2970Y1776D01*
X2984Y1787D01*
X2995Y1801D01*
X3003Y1816D01*
X3008Y1833D01*
X3009Y1845D01*
D02*
G37*
G36*
X2915D02*
X2832D01*
X2833Y1833D01*
X2838Y1816D01*
X2846Y1801D01*
X2857Y1787D01*
X2871Y1776D01*
X2886Y1768D01*
X2903Y1763D01*
X2915Y1762D01*
Y1845D01*
D02*
G37*
G36*
X2835Y1741D02*
X2825Y1739D01*
X2816Y1736D01*
X2808Y1730D01*
X2802Y1722D01*
X2798Y1713D01*
X2797Y1703D01*
X2798Y1693D01*
X2802Y1684D01*
X2808Y1676D01*
X2816Y1670D01*
X2825Y1666D01*
X2835Y1665D01*
X2845Y1666D01*
X2854Y1670D01*
X2862Y1676D01*
X2868Y1684D01*
X2872Y1693D01*
X2873Y1703D01*
X2872Y1713D01*
X2868Y1722D01*
X2862Y1730D01*
X2854Y1736D01*
X2845Y1739D01*
X2835Y1741D01*
D02*
G37*
G36*
X2983Y1688D02*
X2948D01*
Y1653D01*
X2983D01*
Y1688D01*
D02*
G37*
G36*
Y1643D02*
X2948D01*
Y1608D01*
X2983D01*
Y1643D01*
D02*
G37*
G36*
X2664Y1628D02*
Y1505D01*
X2787D01*
X2786Y1520D01*
X2781Y1539D01*
X2773Y1558D01*
X2763Y1575D01*
X2750Y1590D01*
X2734Y1604D01*
X2717Y1614D01*
X2698Y1622D01*
X2679Y1627D01*
X2664Y1628D01*
D02*
G37*
G36*
X2654D02*
X2639Y1627D01*
X2619Y1622D01*
X2600Y1614D01*
X2583Y1604D01*
X2568Y1590D01*
X2555Y1575D01*
X2544Y1558D01*
X2536Y1539D01*
X2532Y1520D01*
X2531Y1505D01*
X2654D01*
Y1628D01*
D02*
G37*
G36*
X2484Y1517D02*
Y1483D01*
X2518D01*
X2518Y1488D01*
X2514Y1498D01*
X2507Y1506D01*
X2499Y1512D01*
X2489Y1517D01*
X2484Y1517D01*
D02*
G37*
G36*
X2474Y1517D02*
X2468Y1517D01*
X2459Y1512D01*
X2450Y1506D01*
X2444Y1498D01*
X2440Y1488D01*
X2439Y1483D01*
X2474D01*
Y1517D01*
D02*
G37*
G36*
X2518Y1473D02*
X2484D01*
Y1438D01*
X2489Y1439D01*
X2499Y1443D01*
X2507Y1449D01*
X2514Y1457D01*
X2518Y1467D01*
X2518Y1473D01*
D02*
G37*
G36*
X2787Y1495D02*
X2664D01*
Y1371D01*
X2679Y1373D01*
X2698Y1377D01*
X2717Y1385D01*
X2734Y1396D01*
X2750Y1409D01*
X2763Y1424D01*
X2773Y1441D01*
X2781Y1460D01*
X2786Y1480D01*
X2787Y1495D01*
D02*
G37*
G36*
X2654D02*
X2531D01*
X2532Y1480D01*
X2536Y1460D01*
X2544Y1441D01*
X2555Y1424D01*
X2568Y1409D01*
X2583Y1396D01*
X2600Y1385D01*
X2619Y1377D01*
X2639Y1373D01*
X2654Y1371D01*
Y1495D01*
D02*
G37*
G36*
X2761Y1282D02*
Y1265D01*
X2778D01*
X2777Y1269D01*
X2772Y1276D01*
X2765Y1281D01*
X2761Y1282D01*
D02*
G37*
G36*
X2751D02*
X2747Y1281D01*
X2740Y1276D01*
X2735Y1269D01*
X2734Y1265D01*
X2751D01*
Y1282D01*
D02*
G37*
G36*
X2778Y1255D02*
X2761D01*
Y1238D01*
X2765Y1239D01*
X2772Y1244D01*
X2777Y1251D01*
X2778Y1255D01*
D02*
G37*
G36*
X2751D02*
X2734D01*
X2735Y1251D01*
X2740Y1244D01*
X2747Y1239D01*
X2751Y1238D01*
Y1255D01*
D02*
G37*
G36*
X2697Y1232D02*
X2670D01*
Y1214D01*
X2718D01*
X2717Y1218D01*
X2713Y1225D01*
X2705Y1230D01*
X2697Y1232D01*
D02*
G37*
G36*
X2718Y1204D02*
X2670D01*
Y1187D01*
X2697D01*
X2705Y1189D01*
X2713Y1194D01*
X2717Y1201D01*
X2718Y1204D01*
D02*
G37*
G36*
X2410Y1910D02*
X2375D01*
Y1876D01*
X2410D01*
Y1910D01*
D02*
G37*
G36*
X2365D02*
X2331D01*
Y1876D01*
X2365D01*
Y1910D01*
D02*
G37*
G36*
X1024D02*
X989D01*
Y1876D01*
X1024D01*
Y1910D01*
D02*
G37*
G36*
X979D02*
X945D01*
Y1876D01*
X979D01*
Y1910D01*
D02*
G37*
G36*
X436Y1902D02*
X372D01*
Y1861D01*
X436D01*
Y1902D01*
D02*
G37*
G36*
X2087Y1892D02*
X2052D01*
Y1857D01*
X2087D01*
Y1892D01*
D02*
G37*
G36*
X2042D02*
X2007D01*
Y1857D01*
X2042D01*
Y1892D01*
D02*
G37*
G36*
X277Y1939D02*
Y1855D01*
X361D01*
X360Y1868D01*
X355Y1885D01*
X347Y1900D01*
X335Y1913D01*
X322Y1925D01*
X307Y1933D01*
X290Y1938D01*
X277Y1939D01*
D02*
G37*
G36*
X267D02*
X255Y1938D01*
X238Y1933D01*
X223Y1925D01*
X209Y1913D01*
X198Y1900D01*
X190Y1885D01*
X185Y1868D01*
X184Y1855D01*
X267D01*
Y1939D01*
D02*
G37*
G36*
X1925Y1899D02*
X1908D01*
Y1851D01*
X1911Y1852D01*
X1919Y1856D01*
X1923Y1864D01*
X1925Y1872D01*
Y1899D01*
D02*
G37*
G36*
X1875D02*
X1858D01*
Y1851D01*
X1861Y1852D01*
X1869Y1856D01*
X1873Y1864D01*
X1875Y1872D01*
Y1899D01*
D02*
G37*
G36*
X1825D02*
X1808D01*
Y1851D01*
X1811Y1852D01*
X1819Y1856D01*
X1823Y1864D01*
X1825Y1872D01*
Y1899D01*
D02*
G37*
G36*
X1898D02*
X1881D01*
Y1872D01*
X1882Y1864D01*
X1887Y1856D01*
X1894Y1852D01*
X1898Y1851D01*
Y1899D01*
D02*
G37*
G36*
X1848D02*
X1831D01*
Y1872D01*
X1832Y1864D01*
X1837Y1856D01*
X1844Y1852D01*
X1848Y1851D01*
Y1899D01*
D02*
G37*
G36*
X1798D02*
X1781D01*
Y1872D01*
X1782Y1864D01*
X1787Y1856D01*
X1794Y1852D01*
X1798Y1851D01*
Y1899D01*
D02*
G37*
G36*
X1975D02*
X1958D01*
Y1850D01*
X1975D01*
Y1899D01*
D02*
G37*
G36*
X1948D02*
X1931D01*
Y1850D01*
X1948D01*
Y1899D01*
D02*
G37*
G36*
X1808Y1843D02*
Y1826D01*
X1825D01*
X1824Y1830D01*
X1819Y1837D01*
X1812Y1842D01*
X1808Y1843D01*
D02*
G37*
G36*
X1798D02*
X1794Y1842D01*
X1787Y1837D01*
X1782Y1830D01*
X1781Y1826D01*
X1798D01*
Y1843D01*
D02*
G37*
G36*
X901Y1850D02*
X866D01*
Y1815D01*
X901D01*
Y1850D01*
D02*
G37*
G36*
X783Y1850D02*
X748D01*
Y1815D01*
X783D01*
Y1850D01*
D02*
G37*
G36*
X738D02*
X703D01*
Y1815D01*
X738D01*
Y1850D01*
D02*
G37*
G36*
X856Y1850D02*
X821D01*
Y1815D01*
X856D01*
Y1850D01*
D02*
G37*
G36*
X510Y1902D02*
X446D01*
Y1856D01*
Y1811D01*
X510D01*
Y1821D01*
X513D01*
Y1851D01*
X478D01*
Y1861D01*
X513D01*
Y1891D01*
X510D01*
Y1902D01*
D02*
G37*
G36*
X436Y1851D02*
X372D01*
Y1811D01*
X436D01*
Y1851D01*
D02*
G37*
G36*
X1825Y1816D02*
X1808D01*
Y1799D01*
X1812Y1800D01*
X1819Y1805D01*
X1824Y1812D01*
X1825Y1816D01*
D02*
G37*
G36*
X1798D02*
X1781D01*
X1782Y1812D01*
X1787Y1805D01*
X1794Y1800D01*
X1798Y1799D01*
Y1816D01*
D02*
G37*
G36*
X783Y1805D02*
X748D01*
Y1770D01*
X783D01*
Y1805D01*
D02*
G37*
G36*
X738D02*
X703D01*
Y1770D01*
X738D01*
Y1805D01*
D02*
G37*
G36*
X901D02*
X866D01*
Y1770D01*
X901D01*
Y1805D01*
D02*
G37*
G36*
X856D02*
X821D01*
Y1770D01*
X856D01*
Y1805D01*
D02*
G37*
G36*
X361Y1845D02*
X277D01*
Y1762D01*
X290Y1763D01*
X307Y1768D01*
X322Y1776D01*
X335Y1787D01*
X347Y1801D01*
X355Y1816D01*
X360Y1833D01*
X361Y1845D01*
D02*
G37*
G36*
X267D02*
X184D01*
X185Y1833D01*
X190Y1816D01*
X198Y1801D01*
X209Y1787D01*
X223Y1776D01*
X238Y1768D01*
X255Y1763D01*
X267Y1762D01*
Y1845D01*
D02*
G37*
G36*
X118Y1817D02*
X39D01*
Y1738D01*
X118D01*
Y1817D01*
D02*
G37*
G36*
X84Y1717D02*
Y1683D01*
X118D01*
X117Y1688D01*
X113Y1697D01*
X107Y1706D01*
X99Y1712D01*
X89Y1716D01*
X84Y1717D01*
D02*
G37*
G36*
X74D02*
X68Y1716D01*
X59Y1712D01*
X51Y1706D01*
X44Y1697D01*
X40Y1688D01*
X40Y1683D01*
X74D01*
Y1717D01*
D02*
G37*
G36*
X614Y1742D02*
X605Y1741D01*
X597Y1737D01*
X589Y1732D01*
X584Y1724D01*
X583Y1722D01*
X209D01*
X203Y1721D01*
X198Y1718D01*
X94Y1614D01*
X89Y1616D01*
X79Y1617D01*
X68Y1616D01*
X59Y1612D01*
X51Y1606D01*
X44Y1597D01*
X40Y1588D01*
X39Y1578D01*
X40Y1567D01*
X44Y1558D01*
X51Y1549D01*
X59Y1543D01*
X68Y1539D01*
X79Y1538D01*
X89Y1539D01*
X99Y1543D01*
X107Y1549D01*
X113Y1558D01*
X117Y1567D01*
X119Y1578D01*
X117Y1588D01*
X116Y1592D01*
X215Y1691D01*
X583D01*
X584Y1689D01*
X589Y1682D01*
X597Y1676D01*
X605Y1673D01*
X614Y1671D01*
X623Y1673D01*
X632Y1676D01*
X639Y1682D01*
X645Y1689D01*
X648Y1698D01*
X649Y1707D01*
X648Y1716D01*
X645Y1724D01*
X639Y1732D01*
X632Y1737D01*
X623Y1741D01*
X614Y1742D01*
D02*
G37*
G36*
X371Y1681D02*
Y1664D01*
X388D01*
X387Y1668D01*
X382Y1676D01*
X375Y1681D01*
X371Y1681D01*
D02*
G37*
G36*
X361D02*
X357Y1681D01*
X350Y1676D01*
X345Y1668D01*
X344Y1664D01*
X361D01*
Y1681D01*
D02*
G37*
G36*
X74Y1673D02*
X40D01*
X40Y1667D01*
X44Y1658D01*
X51Y1649D01*
X59Y1643D01*
X68Y1639D01*
X74Y1638D01*
Y1673D01*
D02*
G37*
G36*
X118D02*
X84D01*
Y1638D01*
X89Y1639D01*
X99Y1643D01*
X107Y1649D01*
X113Y1658D01*
X117Y1667D01*
X118Y1673D01*
D02*
G37*
G36*
X388Y1654D02*
X371D01*
Y1638D01*
X375Y1638D01*
X382Y1643D01*
X387Y1651D01*
X388Y1654D01*
D02*
G37*
G36*
X361D02*
X344D01*
X345Y1651D01*
X350Y1643D01*
X357Y1638D01*
X361Y1638D01*
Y1654D01*
D02*
G37*
G36*
X1853Y1753D02*
X1844Y1751D01*
X1837Y1746D01*
X1832Y1739D01*
X1831Y1730D01*
Y1667D01*
X1832Y1659D01*
X1837Y1652D01*
X1838Y1651D01*
Y1622D01*
X1833Y1620D01*
X1818Y1634D01*
Y1651D01*
X1819Y1652D01*
X1823Y1659D01*
X1825Y1667D01*
Y1730D01*
X1823Y1739D01*
X1819Y1746D01*
X1811Y1751D01*
X1803Y1753D01*
X1794Y1751D01*
X1787Y1746D01*
X1782Y1739D01*
X1781Y1730D01*
Y1667D01*
X1782Y1659D01*
X1787Y1652D01*
X1788Y1651D01*
Y1628D01*
X1789Y1622D01*
X1789Y1622D01*
X1786Y1617D01*
X1779Y1618D01*
X1768Y1617D01*
X1759Y1612D01*
X1750Y1606D01*
X1744Y1598D01*
X1740Y1588D01*
X1738Y1578D01*
X1740Y1567D01*
X1742Y1562D01*
X1713Y1533D01*
X1710Y1528D01*
X1708Y1523D01*
Y1511D01*
X1703Y1509D01*
X1699Y1512D01*
X1689Y1517D01*
X1679Y1518D01*
X1668Y1517D01*
X1659Y1512D01*
X1650Y1506D01*
X1650Y1506D01*
X1645Y1507D01*
Y1526D01*
X1644Y1532D01*
X1641Y1537D01*
X1616Y1562D01*
X1618Y1567D01*
X1619Y1578D01*
X1618Y1588D01*
X1614Y1598D01*
X1607Y1606D01*
X1599Y1612D01*
X1589Y1617D01*
X1579Y1618D01*
X1568Y1617D01*
X1559Y1612D01*
X1550Y1606D01*
X1544Y1598D01*
X1540Y1588D01*
X1538Y1578D01*
X1540Y1567D01*
X1544Y1557D01*
X1550Y1549D01*
X1559Y1543D01*
X1568Y1539D01*
X1579Y1537D01*
X1589Y1539D01*
X1594Y1541D01*
X1615Y1520D01*
Y1505D01*
X1610Y1503D01*
X1607Y1506D01*
X1599Y1512D01*
X1589Y1517D01*
X1579Y1518D01*
X1568Y1517D01*
X1559Y1512D01*
X1550Y1506D01*
X1544Y1498D01*
X1540Y1488D01*
X1538Y1478D01*
X1540Y1467D01*
X1544Y1457D01*
X1550Y1449D01*
X1559Y1443D01*
X1568Y1439D01*
X1571Y1438D01*
Y1400D01*
X1569Y1399D01*
X1562Y1393D01*
X1556Y1386D01*
X1553Y1377D01*
X1551Y1368D01*
X1553Y1359D01*
X1556Y1350D01*
X1562Y1343D01*
X1569Y1338D01*
X1577Y1334D01*
X1587Y1333D01*
X1596Y1334D01*
X1604Y1338D01*
X1612Y1343D01*
X1617Y1350D01*
X1621Y1359D01*
X1622Y1368D01*
X1621Y1377D01*
X1617Y1386D01*
X1612Y1393D01*
X1604Y1399D01*
X1602Y1400D01*
Y1445D01*
X1607Y1449D01*
X1610Y1452D01*
X1615Y1450D01*
Y1406D01*
X1616Y1400D01*
X1619Y1395D01*
X1677Y1337D01*
X1682Y1334D01*
X1688Y1333D01*
X1781D01*
X1782Y1331D01*
X1789Y1326D01*
X1798Y1322D01*
X1807Y1321D01*
X1816Y1322D01*
X1825Y1326D01*
X1832Y1331D01*
X1838Y1339D01*
X1841Y1347D01*
X1842Y1356D01*
X1841Y1365D01*
X1838Y1374D01*
X1832Y1381D01*
X1825Y1387D01*
X1816Y1390D01*
X1807Y1392D01*
X1798Y1390D01*
X1789Y1387D01*
X1782Y1381D01*
X1777Y1374D01*
X1773Y1365D01*
X1773Y1363D01*
X1751D01*
X1749Y1368D01*
X1751Y1370D01*
X1755Y1379D01*
X1756Y1388D01*
X1755Y1397D01*
X1751Y1405D01*
X1745Y1413D01*
X1739Y1418D01*
Y1455D01*
X1744Y1457D01*
X1744Y1457D01*
X1750Y1449D01*
X1759Y1443D01*
X1768Y1439D01*
X1774Y1438D01*
Y1478D01*
Y1517D01*
X1768Y1517D01*
X1759Y1512D01*
X1750Y1506D01*
X1744Y1498D01*
X1744Y1498D01*
X1739Y1501D01*
Y1516D01*
X1763Y1541D01*
X1768Y1539D01*
X1779Y1537D01*
X1789Y1539D01*
X1799Y1543D01*
X1807Y1549D01*
X1810Y1553D01*
X1815Y1551D01*
Y1526D01*
X1817Y1520D01*
X1820Y1515D01*
X1842Y1493D01*
X1840Y1488D01*
X1838Y1478D01*
X1840Y1467D01*
X1844Y1457D01*
X1850Y1449D01*
X1859Y1443D01*
X1868Y1439D01*
X1879Y1437D01*
X1889Y1439D01*
X1899Y1443D01*
X1907Y1449D01*
X1914Y1457D01*
X1918Y1467D01*
X1919Y1478D01*
X1918Y1488D01*
X1914Y1498D01*
X1907Y1506D01*
X1899Y1512D01*
X1889Y1517D01*
X1879Y1518D01*
X1868Y1517D01*
X1863Y1515D01*
X1846Y1532D01*
Y1547D01*
X1851Y1548D01*
X1859Y1543D01*
X1868Y1539D01*
X1879Y1537D01*
X1889Y1539D01*
X1899Y1543D01*
X1907Y1549D01*
X1914Y1557D01*
X1918Y1567D01*
X1919Y1578D01*
X1918Y1588D01*
X1914Y1598D01*
X1907Y1606D01*
X1899Y1612D01*
X1889Y1617D01*
X1879Y1618D01*
X1873Y1617D01*
X1868Y1622D01*
Y1651D01*
X1869Y1652D01*
X1873Y1659D01*
X1875Y1667D01*
Y1730D01*
X1873Y1739D01*
X1869Y1746D01*
X1861Y1751D01*
X1853Y1753D01*
D02*
G37*
G36*
X984Y1855D02*
X974Y1854D01*
X964Y1850D01*
X956Y1844D01*
X950Y1835D01*
X946Y1826D01*
X944Y1815D01*
X946Y1805D01*
X950Y1795D01*
X956Y1787D01*
X964Y1781D01*
X969Y1779D01*
Y1778D01*
X970Y1772D01*
X973Y1768D01*
X981Y1760D01*
X979Y1755D01*
X974Y1754D01*
X964Y1750D01*
X956Y1744D01*
X950Y1735D01*
X946Y1726D01*
X944Y1715D01*
X946Y1705D01*
X950Y1695D01*
X956Y1687D01*
X959Y1685D01*
X959Y1680D01*
X894Y1615D01*
X889Y1617D01*
X879Y1618D01*
X868Y1617D01*
X859Y1612D01*
X850Y1606D01*
X844Y1598D01*
X840Y1588D01*
X838Y1578D01*
X840Y1567D01*
X844Y1557D01*
X850Y1549D01*
X859Y1543D01*
X868Y1539D01*
X879Y1537D01*
X889Y1539D01*
X899Y1543D01*
X907Y1549D01*
X914Y1557D01*
X918Y1567D01*
X919Y1578D01*
X918Y1588D01*
X916Y1593D01*
X995Y1672D01*
X998Y1677D01*
X999Y1679D01*
X1004Y1681D01*
X1008Y1684D01*
X1013Y1682D01*
Y1634D01*
X994Y1615D01*
X989Y1617D01*
X979Y1618D01*
X968Y1617D01*
X959Y1612D01*
X950Y1606D01*
X944Y1598D01*
X940Y1588D01*
X938Y1578D01*
X940Y1567D01*
X944Y1557D01*
X950Y1549D01*
X959Y1543D01*
X968Y1539D01*
X979Y1537D01*
X989Y1539D01*
X999Y1543D01*
X1007Y1549D01*
X1014Y1557D01*
X1018Y1567D01*
X1019Y1578D01*
X1018Y1588D01*
X1016Y1593D01*
X1040Y1617D01*
X1043Y1622D01*
X1044Y1628D01*
Y1734D01*
X1043Y1740D01*
X1040Y1745D01*
X1007Y1777D01*
X1008Y1784D01*
X1012Y1787D01*
X1019Y1795D01*
X1023Y1805D01*
X1024Y1815D01*
X1023Y1826D01*
X1019Y1835D01*
X1012Y1844D01*
X1004Y1850D01*
X995Y1854D01*
X984Y1855D01*
D02*
G37*
G36*
X724Y1722D02*
X715Y1721D01*
X707Y1718D01*
X699Y1712D01*
X694Y1705D01*
X690Y1696D01*
X689Y1687D01*
X690Y1678D01*
X694Y1669D01*
X699Y1662D01*
X707Y1656D01*
X709Y1655D01*
Y1611D01*
X704Y1609D01*
X699Y1612D01*
X689Y1617D01*
X679Y1618D01*
X668Y1617D01*
X659Y1612D01*
X650Y1606D01*
X648Y1603D01*
X610D01*
X607Y1606D01*
X599Y1612D01*
X589Y1617D01*
X579Y1618D01*
X568Y1617D01*
X559Y1612D01*
X550Y1606D01*
X544Y1598D01*
X540Y1588D01*
X538Y1578D01*
X539Y1574D01*
X506Y1541D01*
X503Y1537D01*
X498Y1538D01*
X497Y1539D01*
X490Y1558D01*
X479Y1575D01*
X466Y1590D01*
X451Y1604D01*
X434Y1614D01*
X415Y1622D01*
X395Y1627D01*
X380Y1628D01*
Y1500D01*
Y1371D01*
X395Y1373D01*
X415Y1377D01*
X434Y1385D01*
X447Y1393D01*
X450Y1389D01*
X360Y1299D01*
X354Y1291D01*
X352Y1281D01*
Y1192D01*
X347Y1185D01*
X344Y1176D01*
X343Y1167D01*
X344Y1158D01*
X347Y1150D01*
X353Y1142D01*
X360Y1137D01*
X369Y1133D01*
X378Y1132D01*
X387Y1133D01*
X396Y1137D01*
X403Y1142D01*
X409Y1150D01*
X412Y1158D01*
X413Y1167D01*
X412Y1176D01*
X409Y1185D01*
X403Y1192D01*
Y1271D01*
X531Y1398D01*
X540Y1389D01*
Y1314D01*
X535Y1313D01*
X535Y1313D01*
X476D01*
Y1269D01*
X490D01*
Y1187D01*
X466D01*
Y1100D01*
X483D01*
Y1068D01*
X484Y1062D01*
X485Y1060D01*
X482Y1052D01*
X481Y1041D01*
X482Y1031D01*
X486Y1021D01*
X492Y1013D01*
X501Y1007D01*
X510Y1003D01*
X520Y1001D01*
X531Y1003D01*
X540Y1007D01*
X549Y1013D01*
X555Y1021D01*
X559Y1031D01*
X560Y1041D01*
X559Y1052D01*
X555Y1061D01*
X549Y1070D01*
X540Y1076D01*
X531Y1080D01*
X520Y1081D01*
X517Y1081D01*
X513Y1084D01*
Y1100D01*
X530D01*
Y1187D01*
X521D01*
Y1269D01*
X535D01*
X535Y1269D01*
X540Y1268D01*
Y1226D01*
X541Y1221D01*
X544Y1216D01*
X569Y1190D01*
X573Y1187D01*
X573D01*
X573Y1187D01*
Y1100D01*
X647D01*
X649Y1095D01*
X633Y1079D01*
X631Y1080D01*
X620Y1081D01*
X610Y1080D01*
X601Y1076D01*
X592Y1070D01*
X586Y1061D01*
X582Y1052D01*
X581Y1041D01*
X582Y1031D01*
X586Y1021D01*
X592Y1013D01*
X601Y1007D01*
X610Y1003D01*
X620Y1001D01*
X631Y1003D01*
X640Y1007D01*
X649Y1013D01*
X655Y1021D01*
X659Y1031D01*
X660Y1041D01*
X659Y1052D01*
X656Y1059D01*
X670Y1073D01*
X681D01*
Y1046D01*
X720D01*
X760D01*
Y1081D01*
X745D01*
X743Y1085D01*
X758Y1100D01*
X801D01*
Y1187D01*
X775D01*
X706Y1257D01*
Y1269D01*
X712D01*
X714Y1266D01*
X738Y1243D01*
X743Y1239D01*
X749Y1238D01*
X770D01*
X771Y1236D01*
X777Y1232D01*
X783Y1231D01*
X810D01*
X817Y1232D01*
X822Y1236D01*
X825Y1241D01*
X827Y1247D01*
Y1259D01*
X825Y1265D01*
X822Y1271D01*
X817Y1274D01*
X810Y1275D01*
X783D01*
X777Y1274D01*
X771Y1271D01*
X770Y1269D01*
X755D01*
X740Y1283D01*
Y1305D01*
X745Y1307D01*
X748Y1304D01*
X751Y1299D01*
X760Y1291D01*
X765Y1287D01*
X771Y1286D01*
X827D01*
X873Y1241D01*
X871Y1236D01*
X870Y1226D01*
X871Y1215D01*
X875Y1206D01*
X881Y1197D01*
X890Y1191D01*
X899Y1187D01*
X909Y1186D01*
X920Y1187D01*
X929Y1191D01*
X934Y1194D01*
X939Y1192D01*
Y1176D01*
X924Y1162D01*
X920Y1164D01*
X909Y1165D01*
X899Y1164D01*
X890Y1160D01*
X881Y1154D01*
X875Y1146D01*
X871Y1136D01*
X870Y1126D01*
X871Y1115D01*
X875Y1106D01*
X881Y1097D01*
X890Y1091D01*
X899Y1087D01*
X909Y1086D01*
X920Y1087D01*
X929Y1091D01*
X938Y1097D01*
X944Y1106D01*
X948Y1115D01*
X949Y1126D01*
X948Y1136D01*
X946Y1141D01*
X968Y1162D01*
X971Y1167D01*
X972Y1173D01*
X971Y1179D01*
X969Y1181D01*
Y1244D01*
X968Y1250D01*
X965Y1255D01*
X887Y1332D01*
X883Y1335D01*
X877Y1337D01*
X826D01*
Y1350D01*
X796D01*
X794Y1352D01*
Y1441D01*
X799Y1443D01*
X807Y1449D01*
X814Y1457D01*
X818Y1467D01*
X819Y1478D01*
X818Y1488D01*
X814Y1498D01*
X807Y1506D01*
X799Y1512D01*
X789Y1517D01*
X779Y1518D01*
X768Y1517D01*
X759Y1512D01*
X750Y1506D01*
X744Y1498D01*
X740Y1488D01*
X738Y1478D01*
X740Y1467D01*
X744Y1457D01*
X750Y1449D01*
X759Y1443D01*
X763Y1441D01*
Y1346D01*
X765Y1340D01*
X765Y1340D01*
X765Y1338D01*
X759Y1336D01*
X694Y1401D01*
Y1441D01*
X699Y1443D01*
X707Y1449D01*
X714Y1457D01*
X718Y1467D01*
X719Y1478D01*
X718Y1488D01*
X714Y1498D01*
X707Y1506D01*
X699Y1512D01*
X699Y1513D01*
X699Y1518D01*
X703Y1518D01*
X708Y1522D01*
X735Y1549D01*
X739Y1554D01*
X739Y1556D01*
X742Y1557D01*
X744Y1557D01*
X750Y1549D01*
X759Y1543D01*
X768Y1539D01*
X774Y1538D01*
Y1578D01*
Y1617D01*
X768Y1617D01*
X759Y1612D01*
X750Y1606D01*
X745Y1599D01*
X740Y1600D01*
Y1655D01*
X742Y1656D01*
X749Y1662D01*
X755Y1669D01*
X759Y1678D01*
X760Y1687D01*
X759Y1696D01*
X755Y1705D01*
X749Y1712D01*
X742Y1718D01*
X734Y1721D01*
X724Y1722D01*
D02*
G37*
G36*
X1484Y1617D02*
Y1583D01*
X1518D01*
X1518Y1588D01*
X1514Y1598D01*
X1507Y1606D01*
X1499Y1612D01*
X1489Y1617D01*
X1484Y1617D01*
D02*
G37*
G36*
X1184D02*
Y1583D01*
X1218D01*
X1218Y1588D01*
X1214Y1598D01*
X1207Y1606D01*
X1199Y1612D01*
X1189Y1617D01*
X1184Y1617D01*
D02*
G37*
G36*
X784D02*
Y1583D01*
X818D01*
X818Y1588D01*
X814Y1598D01*
X807Y1606D01*
X799Y1612D01*
X789Y1617D01*
X784Y1617D01*
D02*
G37*
G36*
X1974Y1617D02*
X1968Y1617D01*
X1959Y1612D01*
X1950Y1606D01*
X1944Y1598D01*
X1940Y1588D01*
X1939Y1583D01*
X1974D01*
Y1617D01*
D02*
G37*
G36*
X1174D02*
X1168Y1617D01*
X1159Y1612D01*
X1150Y1606D01*
X1144Y1598D01*
X1140Y1588D01*
X1139Y1583D01*
X1174D01*
Y1617D01*
D02*
G37*
G36*
X1518Y1573D02*
X1484D01*
Y1538D01*
X1489Y1539D01*
X1499Y1543D01*
X1507Y1549D01*
X1514Y1557D01*
X1518Y1567D01*
X1518Y1573D01*
D02*
G37*
G36*
X1218D02*
X1184D01*
Y1538D01*
X1189Y1539D01*
X1199Y1543D01*
X1207Y1549D01*
X1214Y1557D01*
X1218Y1567D01*
X1218Y1573D01*
D02*
G37*
G36*
X818D02*
X784D01*
Y1538D01*
X789Y1539D01*
X799Y1543D01*
X807Y1549D01*
X814Y1557D01*
X818Y1567D01*
X818Y1573D01*
D02*
G37*
G36*
X1974D02*
X1939D01*
X1940Y1567D01*
X1944Y1557D01*
X1950Y1549D01*
X1959Y1543D01*
X1968Y1539D01*
X1974Y1538D01*
Y1573D01*
D02*
G37*
G36*
X1174D02*
X1139D01*
X1140Y1567D01*
X1144Y1557D01*
X1150Y1549D01*
X1159Y1543D01*
X1168Y1539D01*
X1174Y1538D01*
Y1573D01*
D02*
G37*
G36*
X1673Y1746D02*
X1664Y1745D01*
X1656Y1741D01*
X1648Y1736D01*
X1643Y1728D01*
X1639Y1720D01*
X1638Y1711D01*
X1639Y1701D01*
X1643Y1693D01*
X1648Y1686D01*
X1656Y1680D01*
X1658Y1679D01*
Y1612D01*
X1650Y1606D01*
X1644Y1598D01*
X1640Y1588D01*
X1638Y1578D01*
X1640Y1567D01*
X1644Y1557D01*
X1650Y1549D01*
X1659Y1543D01*
X1668Y1539D01*
X1679Y1537D01*
X1689Y1539D01*
X1699Y1543D01*
X1707Y1549D01*
X1714Y1557D01*
X1718Y1567D01*
X1719Y1578D01*
X1718Y1588D01*
X1714Y1598D01*
X1707Y1606D01*
X1699Y1612D01*
X1689Y1617D01*
X1689Y1617D01*
Y1679D01*
X1691Y1680D01*
X1698Y1686D01*
X1704Y1693D01*
X1707Y1701D01*
X1709Y1711D01*
X1707Y1720D01*
X1704Y1728D01*
X1698Y1736D01*
X1691Y1741D01*
X1682Y1745D01*
X1673Y1746D01*
D02*
G37*
G36*
X1279Y1618D02*
X1268Y1617D01*
X1259Y1612D01*
X1250Y1606D01*
X1244Y1598D01*
X1240Y1588D01*
X1238Y1578D01*
X1240Y1567D01*
X1244Y1557D01*
X1250Y1549D01*
X1259Y1543D01*
X1268Y1539D01*
X1279Y1537D01*
X1289Y1539D01*
X1299Y1543D01*
X1307Y1549D01*
X1314Y1557D01*
X1318Y1567D01*
X1319Y1578D01*
X1318Y1588D01*
X1314Y1598D01*
X1307Y1606D01*
X1299Y1612D01*
X1289Y1617D01*
X1279Y1618D01*
D02*
G37*
G36*
X222Y1544D02*
Y1527D01*
X238D01*
X238Y1530D01*
X233Y1538D01*
X225Y1543D01*
X222Y1544D01*
D02*
G37*
G36*
X212D02*
X208Y1543D01*
X200Y1538D01*
X195Y1530D01*
X195Y1527D01*
X212D01*
Y1544D01*
D02*
G37*
G36*
X370Y1628D02*
X355Y1627D01*
X335Y1622D01*
X317Y1614D01*
X300Y1604D01*
X284Y1590D01*
X271Y1575D01*
X261Y1558D01*
X253Y1539D01*
X248Y1520D01*
X247Y1505D01*
X370D01*
Y1628D01*
D02*
G37*
G36*
X238Y1517D02*
X222D01*
Y1500D01*
X225Y1500D01*
X233Y1505D01*
X238Y1513D01*
X238Y1517D01*
D02*
G37*
G36*
X1784Y1517D02*
Y1483D01*
X1818D01*
X1818Y1488D01*
X1814Y1498D01*
X1807Y1506D01*
X1799Y1512D01*
X1789Y1517D01*
X1784Y1517D01*
D02*
G37*
G36*
X984D02*
Y1483D01*
X1018D01*
X1018Y1488D01*
X1014Y1498D01*
X1007Y1506D01*
X999Y1512D01*
X989Y1517D01*
X984Y1517D01*
D02*
G37*
G36*
X974Y1517D02*
X968Y1517D01*
X959Y1512D01*
X950Y1506D01*
X944Y1498D01*
X940Y1488D01*
X939Y1483D01*
X974D01*
Y1517D01*
D02*
G37*
G36*
X1018Y1473D02*
X984D01*
Y1438D01*
X989Y1439D01*
X999Y1443D01*
X1007Y1449D01*
X1014Y1457D01*
X1018Y1467D01*
X1018Y1473D01*
D02*
G37*
G36*
X1818D02*
X1784D01*
Y1438D01*
X1789Y1439D01*
X1799Y1443D01*
X1807Y1449D01*
X1814Y1457D01*
X1818Y1467D01*
X1818Y1473D01*
D02*
G37*
G36*
X974D02*
X939D01*
X940Y1467D01*
X944Y1457D01*
X950Y1449D01*
X959Y1443D01*
X968Y1439D01*
X974Y1438D01*
Y1473D01*
D02*
G37*
G36*
X79Y1517D02*
X68Y1516D01*
X59Y1512D01*
X51Y1506D01*
X44Y1497D01*
X40Y1488D01*
X39Y1478D01*
X40Y1467D01*
X44Y1458D01*
X51Y1449D01*
X59Y1443D01*
X68Y1439D01*
X79Y1438D01*
X89Y1439D01*
X99Y1443D01*
X107Y1449D01*
X113Y1458D01*
X117Y1467D01*
X119Y1478D01*
X117Y1488D01*
X113Y1497D01*
X107Y1506D01*
X99Y1512D01*
X89Y1516D01*
X79Y1517D01*
D02*
G37*
G36*
X1479Y1518D02*
X1468Y1517D01*
X1459Y1512D01*
X1450Y1506D01*
X1444Y1498D01*
X1440Y1488D01*
X1438Y1478D01*
X1440Y1467D01*
X1444Y1457D01*
X1450Y1449D01*
X1459Y1443D01*
X1468Y1439D01*
X1479Y1437D01*
X1489Y1439D01*
X1499Y1443D01*
X1507Y1449D01*
X1514Y1457D01*
X1518Y1467D01*
X1519Y1478D01*
X1518Y1488D01*
X1514Y1498D01*
X1507Y1506D01*
X1499Y1512D01*
X1489Y1517D01*
X1479Y1518D01*
D02*
G37*
G36*
X879D02*
X868Y1517D01*
X859Y1512D01*
X850Y1506D01*
X844Y1498D01*
X840Y1488D01*
X838Y1478D01*
X840Y1467D01*
X844Y1457D01*
X850Y1449D01*
X859Y1443D01*
X868Y1439D01*
X879Y1437D01*
X889Y1439D01*
X899Y1443D01*
X907Y1449D01*
X914Y1457D01*
X918Y1467D01*
X919Y1478D01*
X918Y1488D01*
X914Y1498D01*
X907Y1506D01*
X899Y1512D01*
X889Y1517D01*
X879Y1518D01*
D02*
G37*
G36*
X370Y1495D02*
X247D01*
X248Y1480D01*
X253Y1460D01*
X261Y1441D01*
X271Y1424D01*
X284Y1409D01*
X300Y1396D01*
X317Y1385D01*
X335Y1377D01*
X355Y1373D01*
X370Y1371D01*
Y1495D01*
D02*
G37*
G36*
X79Y1417D02*
X68Y1416D01*
X59Y1412D01*
X51Y1406D01*
X44Y1397D01*
X40Y1388D01*
X39Y1378D01*
X40Y1367D01*
X44Y1358D01*
X51Y1349D01*
X59Y1343D01*
X68Y1339D01*
X79Y1338D01*
X89Y1339D01*
X99Y1343D01*
X107Y1349D01*
X113Y1358D01*
X117Y1367D01*
X119Y1378D01*
X117Y1388D01*
X113Y1397D01*
X107Y1406D01*
X99Y1412D01*
X89Y1416D01*
X79Y1417D01*
D02*
G37*
G36*
X2303Y1189D02*
X2273D01*
Y1159D01*
X2303D01*
Y1189D01*
D02*
G37*
G36*
X2263D02*
X2233D01*
Y1159D01*
X2263D01*
Y1189D01*
D02*
G37*
G36*
X1779Y1166D02*
X1749D01*
Y1136D01*
X1779D01*
Y1166D01*
D02*
G37*
G36*
X1739D02*
X1709D01*
Y1136D01*
X1739D01*
Y1166D01*
D02*
G37*
G36*
X2483Y1143D02*
X2466D01*
Y1126D01*
X2469Y1126D01*
X2477Y1131D01*
X2482Y1139D01*
X2483Y1143D01*
D02*
G37*
G36*
X2456D02*
X2439D01*
X2439Y1139D01*
X2444Y1131D01*
X2452Y1126D01*
X2456Y1126D01*
Y1143D01*
D02*
G37*
G36*
X2303Y1149D02*
X2273D01*
Y1119D01*
X2303D01*
Y1149D01*
D02*
G37*
G36*
X2263D02*
X2233D01*
Y1119D01*
X2263D01*
Y1149D01*
D02*
G37*
G36*
X1328Y1122D02*
Y1105D01*
X1345D01*
X1344Y1109D01*
X1339Y1117D01*
X1332Y1122D01*
X1328Y1122D01*
D02*
G37*
G36*
X1318D02*
X1314Y1122D01*
X1307Y1117D01*
X1302Y1109D01*
X1301Y1105D01*
X1318D01*
Y1122D01*
D02*
G37*
G36*
X1779Y1126D02*
X1749D01*
Y1096D01*
X1779D01*
Y1126D01*
D02*
G37*
G36*
X1739D02*
X1709D01*
Y1096D01*
X1739D01*
Y1126D01*
D02*
G37*
G36*
X2123Y1111D02*
Y1094D01*
X2140D01*
X2139Y1097D01*
X2134Y1105D01*
X2127Y1110D01*
X2123Y1111D01*
D02*
G37*
G36*
X2113D02*
X2109Y1110D01*
X2102Y1105D01*
X2097Y1097D01*
X2096Y1094D01*
X2113D01*
Y1111D01*
D02*
G37*
G36*
X1979D02*
X1975Y1110D01*
X1968Y1105D01*
X1963Y1097D01*
X1962Y1094D01*
X1979D01*
Y1111D01*
D02*
G37*
G36*
X1914D02*
Y1094D01*
X1931D01*
X1931Y1097D01*
X1926Y1105D01*
X1918Y1110D01*
X1914Y1111D01*
D02*
G37*
G36*
X1904D02*
X1901Y1110D01*
X1893Y1105D01*
X1888Y1097D01*
X1888Y1094D01*
X1904D01*
Y1111D01*
D02*
G37*
G36*
X1864Y1114D02*
X1832D01*
Y1088D01*
X1864D01*
Y1114D01*
D02*
G37*
G36*
X1822D02*
X1789D01*
Y1088D01*
X1822D01*
Y1114D01*
D02*
G37*
G36*
X1345Y1095D02*
X1328D01*
Y1078D01*
X1332Y1079D01*
X1339Y1084D01*
X1344Y1092D01*
X1345Y1095D01*
D02*
G37*
G36*
X1318D02*
X1301D01*
X1302Y1092D01*
X1307Y1084D01*
X1314Y1079D01*
X1318Y1078D01*
Y1095D01*
D02*
G37*
G36*
X2223Y1083D02*
X2190D01*
Y1056D01*
X2223D01*
Y1083D01*
D02*
G37*
G36*
X2180D02*
X2147D01*
Y1056D01*
X2180D01*
Y1083D01*
D02*
G37*
G36*
X949Y1065D02*
X914D01*
Y1031D01*
X949D01*
Y1065D01*
D02*
G37*
G36*
X904D02*
X870D01*
Y1031D01*
X904D01*
Y1065D01*
D02*
G37*
G36*
X760Y1036D02*
X725D01*
Y1002D01*
X760D01*
Y1036D01*
D02*
G37*
G36*
X715D02*
X681D01*
Y1002D01*
X715D01*
Y1036D01*
D02*
G37*
G36*
X949Y1021D02*
X914D01*
Y986D01*
X949D01*
Y1021D01*
D02*
G37*
G36*
X904D02*
X870D01*
Y986D01*
X904D01*
Y1021D01*
D02*
G37*
G36*
X304Y1000D02*
Y983D01*
X321D01*
X320Y987D01*
X315Y995D01*
X308Y1000D01*
X304Y1000D01*
D02*
G37*
G36*
X235Y899D02*
X218D01*
X219Y895D01*
X224Y887D01*
X231Y882D01*
X235Y882D01*
Y899D01*
D02*
G37*
G36*
X1203Y883D02*
X1186D01*
Y866D01*
X1190Y867D01*
X1197Y872D01*
X1202Y879D01*
X1203Y883D01*
D02*
G37*
G36*
X1176D02*
X1159D01*
X1160Y879D01*
X1165Y872D01*
X1172Y867D01*
X1176Y866D01*
Y883D01*
D02*
G37*
G36*
X1942Y878D02*
Y861D01*
X1959D01*
X1958Y865D01*
X1953Y873D01*
X1946Y877D01*
X1942Y878D01*
D02*
G37*
G36*
X1932D02*
X1928Y877D01*
X1921Y873D01*
X1916Y865D01*
X1915Y861D01*
X1932D01*
Y878D01*
D02*
G37*
G36*
X1959Y851D02*
X1942D01*
Y834D01*
X1946Y835D01*
X1953Y840D01*
X1958Y848D01*
X1959Y851D01*
D02*
G37*
G36*
X1932D02*
X1915D01*
X1916Y848D01*
X1921Y840D01*
X1928Y835D01*
X1932Y834D01*
Y851D01*
D02*
G37*
G36*
X2092Y862D02*
X2085Y861D01*
X2079Y857D01*
X2053Y830D01*
X2049Y824D01*
X2047Y824D01*
X2046Y824D01*
X2039Y825D01*
X2032Y824D01*
X2027Y820D01*
X2021Y824D01*
X2014Y825D01*
X2007Y824D01*
X2001Y820D01*
X1995Y824D01*
X1988Y825D01*
X1981Y824D01*
X1975Y820D01*
X1970Y824D01*
X1963Y825D01*
X1956Y824D01*
X1950Y820D01*
X1944Y824D01*
X1942Y824D01*
Y789D01*
X1932D01*
Y824D01*
X1930Y824D01*
X1924Y820D01*
X1918Y824D01*
X1911Y825D01*
X1909Y825D01*
X1904Y825D01*
X1904Y825D01*
X1904Y825D01*
X1868D01*
Y807D01*
X1860D01*
Y819D01*
X1785D01*
Y807D01*
X1776D01*
X1775Y810D01*
X1769Y817D01*
X1762Y823D01*
X1753Y826D01*
X1744Y827D01*
X1735Y826D01*
X1726Y823D01*
X1719Y817D01*
X1714Y810D01*
X1710Y801D01*
X1709Y792D01*
X1710Y783D01*
X1714Y774D01*
X1719Y767D01*
X1726Y762D01*
X1735Y758D01*
X1744Y757D01*
X1753Y758D01*
X1762Y762D01*
X1769Y767D01*
X1772Y772D01*
X1785D01*
Y756D01*
Y733D01*
X1823D01*
Y728D01*
X1828D01*
Y697D01*
X1860D01*
Y681D01*
X1826D01*
Y644D01*
Y606D01*
X1912D01*
Y640D01*
X1962D01*
X1968Y641D01*
X1973Y645D01*
X1990Y662D01*
X1996Y660D01*
X1996Y659D01*
X1925Y588D01*
X1773D01*
X1772Y588D01*
X1750D01*
Y616D01*
X1703D01*
Y643D01*
X1676D01*
Y610D01*
X1687D01*
Y529D01*
Y453D01*
X1676D01*
Y420D01*
X1703D01*
Y447D01*
X1750D01*
Y500D01*
X1788Y538D01*
X1940D01*
X1946Y539D01*
X1951Y542D01*
X2050Y642D01*
X2053Y647D01*
X2055Y653D01*
Y751D01*
X2060Y754D01*
X2065Y753D01*
X2072Y755D01*
X2075Y757D01*
X2076Y756D01*
X2076Y756D01*
X2076Y750D01*
X2070Y747D01*
X2065Y739D01*
X2065Y735D01*
X2087D01*
Y730D01*
X2092D01*
Y708D01*
X2095Y709D01*
X2102Y714D01*
X2109Y709D01*
X2113Y708D01*
Y730D01*
X2123D01*
Y708D01*
X2127Y709D01*
X2134Y714D01*
X2139Y720D01*
X2144Y720D01*
X2144Y720D01*
X2160D01*
X2162Y715D01*
X2160Y712D01*
X2159Y708D01*
X2203D01*
X2202Y712D01*
X2200Y715D01*
X2202Y720D01*
X2219D01*
Y747D01*
X2181D01*
Y757D01*
X2219D01*
Y779D01*
Y790D01*
X2237D01*
X2243Y783D01*
X2250Y777D01*
X2259Y774D01*
X2268Y773D01*
X2277Y774D01*
X2285Y777D01*
X2293Y783D01*
X2298Y790D01*
X2302Y799D01*
X2303Y808D01*
X2302Y817D01*
X2298Y826D01*
X2293Y833D01*
X2285Y838D01*
X2277Y842D01*
X2268Y843D01*
X2259Y842D01*
X2250Y838D01*
X2243Y833D01*
X2237Y826D01*
X2219D01*
Y843D01*
X2175D01*
X2160Y857D01*
X2154Y861D01*
X2148Y862D01*
X2092D01*
X2092Y862D01*
D02*
G37*
G36*
X1442Y835D02*
Y818D01*
X1459D01*
X1458Y822D01*
X1453Y829D01*
X1446Y834D01*
X1442Y835D01*
D02*
G37*
G36*
X1432D02*
X1428Y834D01*
X1421Y829D01*
X1416Y822D01*
X1415Y818D01*
X1432D01*
Y835D01*
D02*
G37*
G36*
X1459Y808D02*
X1442D01*
Y791D01*
X1446Y792D01*
X1453Y797D01*
X1458Y804D01*
X1459Y808D01*
D02*
G37*
G36*
X1432D02*
X1415D01*
X1416Y804D01*
X1421Y797D01*
X1428Y792D01*
X1432Y791D01*
Y808D01*
D02*
G37*
G36*
X714Y784D02*
Y767D01*
X731D01*
X730Y771D01*
X725Y778D01*
X717Y783D01*
X714Y784D01*
D02*
G37*
G36*
X704D02*
X700Y783D01*
X692Y778D01*
X687Y771D01*
X687Y767D01*
X704D01*
Y784D01*
D02*
G37*
G36*
X731Y757D02*
X714D01*
Y740D01*
X717Y741D01*
X725Y746D01*
X730Y753D01*
X731Y757D01*
D02*
G37*
G36*
X704D02*
X687D01*
X687Y753D01*
X692Y746D01*
X700Y741D01*
X704Y740D01*
Y757D01*
D02*
G37*
G36*
X970Y748D02*
Y731D01*
X987D01*
X986Y735D01*
X981Y743D01*
X973Y748D01*
X970Y748D01*
D02*
G37*
G36*
X960D02*
X956Y748D01*
X948Y743D01*
X943Y735D01*
X943Y731D01*
X960D01*
Y748D01*
D02*
G37*
G36*
X1674Y744D02*
Y727D01*
X1691D01*
X1690Y731D01*
X1686Y739D01*
X1678Y744D01*
X1674Y744D01*
D02*
G37*
G36*
X1664D02*
X1661Y744D01*
X1653Y739D01*
X1648Y731D01*
X1647Y727D01*
X1664D01*
Y744D01*
D02*
G37*
G36*
X2303Y743D02*
X2273D01*
Y713D01*
X2303D01*
Y743D01*
D02*
G37*
G36*
X2263D02*
X2233D01*
Y713D01*
X2263D01*
Y743D01*
D02*
G37*
G36*
X2082Y725D02*
X2065D01*
X2065Y722D01*
X2070Y714D01*
X2078Y709D01*
X2082Y708D01*
Y725D01*
D02*
G37*
G36*
X1691Y717D02*
X1674D01*
Y700D01*
X1678Y701D01*
X1686Y706D01*
X1690Y714D01*
X1691Y717D01*
D02*
G37*
G36*
X1664D02*
X1647D01*
X1648Y714D01*
X1653Y706D01*
X1661Y701D01*
X1664Y700D01*
Y717D01*
D02*
G37*
G36*
X1344Y717D02*
Y700D01*
X1361D01*
X1360Y704D01*
X1355Y711D01*
X1347Y716D01*
X1344Y717D01*
D02*
G37*
G36*
X1779Y727D02*
X1749D01*
Y697D01*
X1779D01*
Y727D01*
D02*
G37*
G36*
X1739D02*
X1709D01*
Y697D01*
X1739D01*
Y727D01*
D02*
G37*
G36*
X1818Y723D02*
X1785D01*
Y697D01*
X1818D01*
Y723D01*
D02*
G37*
G36*
X2203Y698D02*
X2186D01*
Y681D01*
X2190Y682D01*
X2197Y687D01*
X2202Y694D01*
X2203Y698D01*
D02*
G37*
G36*
X2176D02*
X2159D01*
X2160Y694D01*
X2165Y687D01*
X2172Y682D01*
X2176Y681D01*
Y698D01*
D02*
G37*
G36*
X1361Y690D02*
X1344D01*
Y673D01*
X1347Y674D01*
X1355Y679D01*
X1360Y686D01*
X1361Y690D01*
D02*
G37*
G36*
X2303Y703D02*
X2273D01*
Y673D01*
X2303D01*
Y703D01*
D02*
G37*
G36*
X2263D02*
X2233D01*
Y673D01*
X2263D01*
Y703D01*
D02*
G37*
G36*
X1779Y687D02*
X1749D01*
Y657D01*
X1779D01*
Y687D01*
D02*
G37*
G36*
X1739D02*
X1709D01*
Y657D01*
X1739D01*
Y687D01*
D02*
G37*
G36*
X1703Y685D02*
X1676D01*
Y653D01*
X1703D01*
Y685D01*
D02*
G37*
G36*
X1816Y681D02*
X1789D01*
Y649D01*
X1816D01*
Y681D01*
D02*
G37*
G36*
Y639D02*
X1789D01*
Y606D01*
X1816D01*
Y639D01*
D02*
G37*
G36*
X2664Y722D02*
Y599D01*
X2787D01*
X2786Y614D01*
X2781Y634D01*
X2773Y652D01*
X2763Y670D01*
X2750Y685D01*
X2734Y698D01*
X2717Y709D01*
X2698Y716D01*
X2679Y721D01*
X2664Y722D01*
D02*
G37*
G36*
X2654D02*
X2639Y721D01*
X2619Y716D01*
X2600Y709D01*
X2583Y698D01*
X2568Y685D01*
X2555Y670D01*
X2544Y652D01*
X2536Y634D01*
X2532Y614D01*
X2531Y599D01*
X2654D01*
Y722D01*
D02*
G37*
G36*
X380D02*
Y599D01*
X503D01*
X502Y614D01*
X497Y634D01*
X490Y652D01*
X479Y670D01*
X466Y685D01*
X451Y698D01*
X434Y709D01*
X415Y716D01*
X395Y721D01*
X380Y722D01*
D02*
G37*
G36*
X370D02*
X355Y721D01*
X335Y716D01*
X317Y709D01*
X300Y698D01*
X284Y685D01*
X271Y670D01*
X261Y652D01*
X253Y634D01*
X248Y614D01*
X247Y599D01*
X370D01*
Y722D01*
D02*
G37*
G36*
X79Y617D02*
X68Y616D01*
X59Y612D01*
X51Y606D01*
X44Y597D01*
X40Y588D01*
X39Y578D01*
X40Y567D01*
X44Y558D01*
X51Y549D01*
X59Y543D01*
X68Y539D01*
X79Y538D01*
X89Y539D01*
X99Y543D01*
X107Y549D01*
X113Y558D01*
X117Y567D01*
X119Y578D01*
X117Y588D01*
X113Y597D01*
X107Y606D01*
X99Y612D01*
X89Y616D01*
X79Y617D01*
D02*
G37*
G36*
X627Y544D02*
Y527D01*
X644D01*
X643Y530D01*
X638Y538D01*
X631Y543D01*
X627Y544D01*
D02*
G37*
G36*
X617D02*
X613Y543D01*
X606Y538D01*
X601Y530D01*
X600Y527D01*
X617D01*
Y544D01*
D02*
G37*
G36*
X644Y517D02*
X627D01*
Y500D01*
X631Y500D01*
X638Y505D01*
X643Y513D01*
X644Y517D01*
D02*
G37*
G36*
X617D02*
X600D01*
X601Y513D01*
X606Y505D01*
X613Y500D01*
X617Y500D01*
Y517D01*
D02*
G37*
G36*
X370Y589D02*
X247D01*
X248Y574D01*
X253Y554D01*
X261Y536D01*
X271Y519D01*
X284Y503D01*
X293Y496D01*
X290Y492D01*
X290Y492D01*
X277Y493D01*
Y409D01*
X361D01*
X360Y422D01*
X355Y438D01*
X347Y454D01*
X336Y467D01*
X337Y469D01*
X339Y471D01*
X355Y467D01*
X370Y466D01*
Y589D01*
D02*
G37*
G36*
X2787D02*
X2664D01*
Y466D01*
X2679Y467D01*
X2698Y472D01*
X2717Y480D01*
X2734Y490D01*
X2750Y503D01*
X2763Y519D01*
X2773Y536D01*
X2781Y554D01*
X2786Y574D01*
X2787Y589D01*
D02*
G37*
G36*
X2654D02*
X2531D01*
X2532Y574D01*
X2536Y554D01*
X2544Y536D01*
X2555Y519D01*
X2568Y503D01*
X2583Y490D01*
X2600Y480D01*
X2619Y472D01*
X2639Y467D01*
X2654Y466D01*
Y589D01*
D02*
G37*
G36*
X503D02*
X380D01*
Y466D01*
X395Y467D01*
X415Y472D01*
X434Y480D01*
X451Y490D01*
X466Y503D01*
X479Y519D01*
X490Y536D01*
X497Y554D01*
X502Y574D01*
X503Y589D01*
D02*
G37*
G36*
X489Y480D02*
X462D01*
Y448D01*
X489D01*
Y480D01*
D02*
G37*
G36*
X79Y517D02*
X68Y516D01*
X59Y512D01*
X51Y506D01*
X44Y497D01*
X40Y488D01*
X39Y478D01*
X40Y467D01*
X44Y458D01*
X51Y449D01*
X59Y443D01*
X68Y439D01*
X79Y438D01*
X89Y439D01*
X99Y443D01*
X107Y449D01*
X113Y458D01*
X117Y467D01*
X119Y478D01*
X117Y488D01*
X113Y497D01*
X107Y506D01*
X99Y512D01*
X89Y516D01*
X79Y517D01*
D02*
G37*
G36*
X1737Y437D02*
Y420D01*
X1754D01*
X1753Y424D01*
X1749Y432D01*
X1741Y437D01*
X1737Y437D01*
D02*
G37*
G36*
X1727D02*
X1724Y437D01*
X1716Y432D01*
X1711Y424D01*
X1710Y420D01*
X1727D01*
Y437D01*
D02*
G37*
G36*
X2926Y494D02*
Y411D01*
X3010D01*
X3009Y423D01*
X3004Y440D01*
X2995Y455D01*
X2984Y469D01*
X2971Y480D01*
X2955Y488D01*
X2939Y493D01*
X2926Y494D01*
D02*
G37*
G36*
X2916D02*
X2904Y493D01*
X2887Y488D01*
X2872Y480D01*
X2858Y469D01*
X2847Y455D01*
X2839Y440D01*
X2834Y423D01*
X2833Y411D01*
X2916D01*
Y494D01*
D02*
G37*
G36*
X267Y493D02*
X255Y492D01*
X238Y487D01*
X223Y478D01*
X209Y467D01*
X198Y454D01*
X190Y438D01*
X185Y422D01*
X184Y409D01*
X267D01*
Y493D01*
D02*
G37*
G36*
X489Y438D02*
X462D01*
Y405D01*
X489D01*
Y438D01*
D02*
G37*
G36*
X1754Y410D02*
X1737D01*
Y393D01*
X1741Y394D01*
X1749Y399D01*
X1753Y407D01*
X1754Y410D01*
D02*
G37*
G36*
X1727D02*
X1710D01*
X1711Y407D01*
X1716Y399D01*
X1724Y394D01*
X1727Y393D01*
Y410D01*
D02*
G37*
G36*
X1703Y410D02*
X1676D01*
Y378D01*
X1703D01*
Y410D01*
D02*
G37*
G36*
X508Y382D02*
X473D01*
Y347D01*
X508D01*
Y382D01*
D02*
G37*
G36*
X463D02*
X428D01*
Y347D01*
X463D01*
Y382D01*
D02*
G37*
G36*
X1359Y343D02*
Y326D01*
X1376D01*
X1376Y330D01*
X1371Y337D01*
X1363Y342D01*
X1359Y343D01*
D02*
G37*
G36*
X1349D02*
X1346Y342D01*
X1338Y337D01*
X1333Y330D01*
X1332Y326D01*
X1349D01*
Y343D01*
D02*
G37*
G36*
X3010Y401D02*
X2926D01*
Y317D01*
X2939Y318D01*
X2955Y323D01*
X2971Y331D01*
X2984Y342D01*
X2995Y356D01*
X3004Y371D01*
X3009Y388D01*
X3010Y401D01*
D02*
G37*
G36*
X2916D02*
X2833D01*
X2834Y388D01*
X2839Y371D01*
X2847Y356D01*
X2858Y342D01*
X2872Y331D01*
X2887Y323D01*
X2904Y318D01*
X2916Y317D01*
Y401D01*
D02*
G37*
G36*
X361Y399D02*
X277D01*
Y316D01*
X290Y317D01*
X307Y322D01*
X322Y330D01*
X335Y341D01*
X347Y355D01*
X355Y370D01*
X360Y387D01*
X361Y399D01*
D02*
G37*
G36*
X267D02*
X184D01*
X185Y387D01*
X190Y370D01*
X198Y355D01*
X209Y341D01*
X223Y330D01*
X238Y322D01*
X255Y317D01*
X267Y316D01*
Y399D01*
D02*
G37*
G36*
X2923Y1304D02*
X2875D01*
Y1287D01*
X2902D01*
X2910Y1289D01*
X2917Y1294D01*
X2922Y1301D01*
X2923Y1304D01*
D02*
G37*
G36*
X2983Y1207D02*
X2948D01*
Y1172D01*
X2983D01*
Y1207D01*
D02*
G37*
G36*
Y1162D02*
X2948D01*
Y1127D01*
X2983D01*
Y1162D01*
D02*
G37*
G36*
X2902Y1132D02*
X2875D01*
Y1114D01*
X2923D01*
X2922Y1118D01*
X2917Y1125D01*
X2910Y1130D01*
X2902Y1132D01*
D02*
G37*
G36*
X2865D02*
X2839D01*
X2830Y1130D01*
X2823Y1125D01*
X2818Y1118D01*
X2817Y1114D01*
X2865D01*
Y1132D01*
D02*
G37*
G36*
X2923Y1104D02*
X2875D01*
Y1087D01*
X2902D01*
X2910Y1089D01*
X2917Y1094D01*
X2922Y1101D01*
X2923Y1104D01*
D02*
G37*
G36*
X2865D02*
X2817D01*
X2818Y1101D01*
X2823Y1094D01*
X2830Y1089D01*
X2839Y1087D01*
X2865D01*
Y1104D01*
D02*
G37*
%LPD*%
D10*
X2445Y980D02*
D03*
Y874D02*
D03*
D11*
X2116Y1030D02*
D03*
X2091D02*
D03*
X2065D02*
D03*
X2039D02*
D03*
X2014D02*
D03*
X1988D02*
D03*
X1963D02*
D03*
X1937D02*
D03*
X1911D02*
D03*
X1886D02*
D03*
X2116Y789D02*
D03*
X2091D02*
D03*
X2065D02*
D03*
X2039D02*
D03*
X2014D02*
D03*
X1988D02*
D03*
X1963D02*
D03*
X1937D02*
D03*
X1911D02*
D03*
D12*
X1886D02*
D03*
D13*
X614Y1856D02*
D03*
D14*
X441D02*
D03*
D15*
X506Y1291D02*
D03*
X612Y1328D02*
D03*
X690Y1291D02*
D03*
X797Y1328D02*
D03*
D16*
X612Y1253D02*
D03*
X797D02*
D03*
D17*
X2665Y1309D02*
D03*
Y1259D02*
D03*
Y1209D02*
D03*
Y1159D02*
D03*
Y1109D02*
D03*
Y1059D02*
D03*
Y1009D02*
D03*
X2870Y1309D02*
D03*
Y1259D02*
D03*
Y1209D02*
D03*
Y1159D02*
D03*
Y1109D02*
D03*
Y1059D02*
D03*
D18*
Y1009D02*
D03*
D19*
X1803Y1699D02*
D03*
X1853D02*
D03*
X1903D02*
D03*
X1953D02*
D03*
X1803Y1904D02*
D03*
X1853D02*
D03*
X1903D02*
D03*
D20*
X1953D02*
D03*
D21*
X2470Y1211D02*
D03*
X2577D02*
D03*
X2470Y1301D02*
D03*
X2577D02*
D03*
X604Y1144D02*
D03*
X498D02*
D03*
X663D02*
D03*
X770D02*
D03*
X1612Y573D02*
D03*
X1719D02*
D03*
X1612Y490D02*
D03*
X1719D02*
D03*
D22*
X494Y443D02*
D03*
X553D02*
D03*
X1671Y415D02*
D03*
X1612D02*
D03*
X1671Y648D02*
D03*
X1612D02*
D03*
X1553Y415D02*
D03*
X1494D02*
D03*
X1553Y648D02*
D03*
X1494D02*
D03*
X1951Y715D02*
D03*
X1892D02*
D03*
X1880Y644D02*
D03*
X1821D02*
D03*
D23*
X1823Y728D02*
D03*
Y787D02*
D03*
X1827Y1024D02*
D03*
Y1083D02*
D03*
X2185Y1051D02*
D03*
Y992D02*
D03*
X2181Y752D02*
D03*
Y811D02*
D03*
D24*
X1374Y619D02*
D03*
D25*
X1354D02*
D03*
X1335D02*
D03*
X1315D02*
D03*
X1295D02*
D03*
Y448D02*
D03*
X1315D02*
D03*
X1335D02*
D03*
X1354D02*
D03*
X1374D02*
D03*
D26*
X1249Y573D02*
D03*
Y553D02*
D03*
Y533D02*
D03*
Y514D02*
D03*
Y494D02*
D03*
X1420D02*
D03*
Y514D02*
D03*
Y533D02*
D03*
Y553D02*
D03*
Y573D02*
D03*
D27*
X1335Y533D02*
D03*
D28*
X2828Y1337D02*
X2941D01*
X2812Y1321D02*
X2828Y1337D01*
X2812Y1245D02*
Y1321D01*
X2728Y1161D02*
X2812Y1245D01*
X2805Y1209D02*
X2870D01*
X2752Y1157D02*
X2805Y1209D01*
X2752Y1096D02*
Y1157D01*
X2728Y1109D02*
Y1161D01*
X2087Y730D02*
X2118D01*
X2091Y734D02*
Y789D01*
X2116Y732D02*
Y789D01*
X1937D02*
Y856D01*
X1909Y1031D02*
Y1089D01*
X2116Y1030D02*
Y1087D01*
X1984Y1089D02*
X1988Y1085D01*
Y1030D02*
Y1085D01*
X2468Y1009D02*
X2665D01*
X2398Y939D02*
X2468Y1009D01*
X1201Y939D02*
X2398D01*
X1157Y919D02*
X2400D01*
X2445Y874D01*
X2567Y959D02*
Y961D01*
X2576Y969D01*
X2760D01*
X604Y1148D02*
X663D01*
Y1213D01*
X664Y1089D02*
X724D01*
X770Y1134D02*
Y1148D01*
X724Y1089D02*
X770Y1134D01*
X604Y1148D02*
Y1154D01*
X555Y1226D02*
X608Y1173D01*
X555Y1226D02*
Y1396D01*
X620Y1045D02*
X664Y1089D01*
X2821Y1036D02*
X2870D01*
Y1059D01*
X1799Y1348D02*
X1807Y1356D01*
X1688Y1348D02*
X1799D01*
X1630Y1406D02*
X1688Y1348D01*
X1724Y1523D02*
X1779Y1578D01*
X1630Y1406D02*
Y1526D01*
X1724Y1391D02*
Y1523D01*
X1720Y1388D02*
X1724Y1391D01*
X1579Y1478D02*
X1587Y1470D01*
Y1368D02*
Y1470D01*
X1358Y1403D02*
X1359Y1403D01*
X1334Y1428D02*
X1359Y1403D01*
X1334Y1428D02*
Y1533D01*
X1358Y1285D02*
Y1403D01*
X1334Y1533D02*
X1379Y1578D01*
X2760Y969D02*
X2784Y993D01*
Y1136D01*
X2807Y1159D01*
X2870D01*
X2715Y1059D02*
X2752Y1096D01*
X2665Y1109D02*
X2728D01*
X2470Y1199D02*
Y1409D01*
X2402Y1478D02*
X2470Y1409D01*
X2379Y1478D02*
X2402D01*
X2516Y1364D02*
X2577Y1303D01*
X2516Y1364D02*
Y1372D01*
X2665Y1009D02*
X2744D01*
X2665Y1059D02*
X2715D01*
X2941Y1337D02*
X2970Y1307D01*
X2988D01*
X2930Y1009D02*
X2988Y1067D01*
X2870Y1009D02*
X2930D01*
X2598Y1159D02*
X2665D01*
X2563Y1124D02*
X2598Y1159D01*
X2665D02*
X2701D01*
X1579Y1578D02*
X1630Y1526D01*
X2577Y1281D02*
X2599Y1259D01*
X2665D01*
X1803Y1628D02*
X1831Y1600D01*
Y1526D02*
Y1600D01*
Y1526D02*
X1879Y1478D01*
X1803Y1628D02*
Y1699D01*
X1673Y1583D02*
Y1719D01*
Y1583D02*
X1679Y1578D01*
X724Y1560D02*
Y1687D01*
X697Y1533D02*
X724Y1560D01*
X1177Y1278D02*
X1179Y1279D01*
Y1478D01*
X2539Y1864D02*
X2640D01*
X2417Y1742D02*
X2539Y1864D01*
X2189Y1742D02*
X2417D01*
X2406Y1762D02*
X2559Y1915D01*
X2180Y1762D02*
X2406D01*
X2559Y1915D02*
X2591D01*
X2399Y1660D02*
X2493Y1754D01*
X2361Y1660D02*
X2399D01*
X2279Y1578D02*
X2361Y1660D01*
X634Y1533D02*
X697D01*
X579Y1478D02*
X634Y1533D01*
X797Y1328D02*
X803Y1321D01*
X877D01*
X954Y1244D01*
Y1176D02*
Y1244D01*
Y1176D02*
X957Y1173D01*
X909Y1126D02*
X957Y1173D01*
X679Y1395D02*
X762Y1312D01*
Y1310D02*
Y1312D01*
Y1310D02*
X771Y1301D01*
X834D01*
X909Y1226D01*
X690Y1251D02*
Y1291D01*
Y1251D02*
X774Y1167D01*
X725Y1277D02*
Y1309D01*
Y1277D02*
X749Y1253D01*
X797D01*
X620Y1045D02*
X622D01*
X498Y1068D02*
X520Y1045D01*
X498Y1068D02*
Y1148D01*
X79Y1578D02*
X80D01*
X79Y1141D02*
Y1178D01*
X34Y1096D02*
X79Y1141D01*
X34Y959D02*
Y1096D01*
Y959D02*
X79Y915D01*
Y878D02*
Y915D01*
Y1278D02*
X126Y1230D01*
Y725D02*
Y1230D01*
X79Y678D02*
X126Y725D01*
X1079Y1278D02*
Y1478D01*
X577Y1310D02*
X586Y1301D01*
X577Y1310D02*
Y1476D01*
X612Y1276D02*
X654Y1318D01*
X612Y1276D02*
X612Y1276D01*
X654Y1318D02*
X716D01*
X725Y1309D01*
X506Y1171D02*
Y1291D01*
X612Y1253D02*
X612Y1276D01*
X586Y1301D02*
X612Y1276D01*
X586Y1301D02*
X586D01*
X612Y1253D02*
Y1276D01*
X577Y1476D02*
X579Y1478D01*
X679Y1395D02*
Y1478D01*
X612Y1328D02*
X679Y1395D01*
X779Y1346D02*
X797Y1328D01*
X779Y1346D02*
Y1478D01*
X1941Y1805D02*
X1943Y1803D01*
X2339D01*
X2640Y1864D02*
X2691Y1915D01*
X2124Y1515D02*
Y1677D01*
X2086Y1478D02*
X2124Y1515D01*
X2079Y1478D02*
X2086D01*
X2024Y1522D02*
Y1605D01*
X1980Y1478D02*
X2024Y1522D01*
X1979Y1478D02*
X1980D01*
X2024Y1605D02*
X2180Y1762D01*
X2124Y1677D02*
X2189Y1742D01*
X2179Y1478D02*
X2234Y1533D01*
X1941Y1797D02*
Y1805D01*
Y1797D02*
X1953Y1785D01*
X1433Y1703D02*
X1433Y1703D01*
Y1532D02*
Y1703D01*
X1379Y1478D02*
X1433Y1532D01*
X2047Y1724D02*
Y1752D01*
X1964Y1641D02*
X2047Y1724D01*
X1942Y1641D02*
X1964D01*
X1903Y1679D02*
X1942Y1641D01*
X1903Y1679D02*
Y1699D01*
X1953D02*
Y1785D01*
X2042Y1757D02*
X2047Y1752D01*
X1853Y1603D02*
X1879Y1578D01*
X1853Y1603D02*
Y1699D01*
X979Y1578D02*
X1029Y1628D01*
Y1734D01*
X984Y1778D02*
X1029Y1734D01*
X984Y1778D02*
Y1815D01*
X879Y1578D02*
X984Y1683D01*
Y1715D01*
X1181Y959D02*
X1201Y939D01*
X1126Y951D02*
Y1089D01*
Y951D02*
X1157Y919D01*
Y919D02*
Y919D01*
X2431Y1530D02*
X2479Y1578D01*
X2327Y1502D02*
X2354Y1530D01*
X2431D01*
X2327Y1455D02*
Y1502D01*
X1079Y1578D02*
X1130Y1526D01*
Y1254D02*
Y1526D01*
X2117Y1431D02*
X2232D01*
X2279Y1478D01*
X2126Y1411D02*
X2241D01*
X2241Y1411D01*
X2283D01*
X2327Y1455D01*
X2065Y1030D02*
Y1232D01*
X2014Y1327D02*
X2117Y1431D01*
X2065Y1232D02*
X2067Y1234D01*
X2079D01*
X2039Y1030D02*
X2039Y1030D01*
X2039Y1324D02*
X2126Y1411D01*
X2039Y1030D02*
Y1324D01*
X1130Y1254D02*
X1150Y1234D01*
X2014Y1030D02*
Y1327D01*
X1150Y1234D02*
X1965D01*
X1553Y648D02*
X1612D01*
Y573D02*
Y648D01*
Y415D02*
Y490D01*
X1553Y415D02*
X1612D01*
X2014Y656D02*
Y789D01*
X2039Y653D02*
Y789D01*
X1404Y648D02*
X1494D01*
X1375Y619D02*
X1404Y648D01*
X1374Y448D02*
X1406Y415D01*
X1494D01*
X1719Y573D02*
X1719Y573D01*
X1719Y490D02*
X1781Y553D01*
X1940D02*
X2039Y653D01*
X1719Y573D02*
X1773D01*
X1931Y573D02*
X2014Y656D01*
X1951Y715D02*
X1963Y726D01*
Y789D01*
X1911Y734D02*
Y789D01*
X1892Y715D02*
X1911Y734D01*
X1988Y682D02*
Y789D01*
X1880Y632D02*
X1904Y656D01*
X1962D01*
X1988Y682D01*
X1420Y514D02*
X1555D01*
X1512Y553D02*
Y561D01*
X1420Y553D02*
X1512D01*
X80Y1578D02*
X209Y1707D01*
X614D01*
X1773Y573D02*
X1931D01*
X1773Y573D02*
X1773Y573D01*
X1781Y553D02*
X1940D01*
X701Y337D02*
Y530D01*
X801Y337D02*
Y515D01*
X901Y337D02*
Y478D01*
X1001Y337D02*
Y463D01*
X1016Y478D01*
X1234D02*
X1249Y493D01*
X901Y478D02*
X922Y498D01*
X1197Y514D02*
X1249D01*
X1181Y498D02*
X1197Y514D01*
X1016Y478D02*
X1234D01*
X922Y498D02*
X1181D01*
X1225Y596D02*
X1249Y573D01*
X768Y596D02*
X1225D01*
X701Y530D02*
X768Y596D01*
X801Y515D02*
X862Y576D01*
X1177D01*
X1201Y553D01*
X1249D01*
X2577Y1211D02*
X2664D01*
X2665Y1209D01*
X1315Y619D02*
Y667D01*
X1295Y687D02*
X1315Y667D01*
X1295Y619D02*
Y687D01*
X1315Y386D02*
Y448D01*
X1335Y619D02*
Y691D01*
X1339Y695D01*
X1146Y533D02*
X1249D01*
X1142Y537D02*
X1146Y533D01*
X524Y1427D02*
X555Y1396D01*
X2808Y986D02*
Y1023D01*
X2821Y1036D01*
X1420Y494D02*
X1488D01*
X1354Y321D02*
Y448D01*
X1295Y380D02*
Y448D01*
X1339Y695D02*
X1353Y680D01*
Y619D02*
Y680D01*
X1335Y406D02*
Y448D01*
X1315Y384D02*
Y386D01*
X1335Y406D01*
X1488Y494D02*
X1496Y486D01*
X2445Y874D02*
X2486Y915D01*
X2737D01*
X2808Y986D01*
X2234Y1533D02*
Y1645D01*
X2264Y1675D01*
X2340Y1802D02*
X2347D01*
X3111Y48D02*
X3168D01*
X3169Y47D01*
X3622Y102D02*
X3631D01*
X3594Y1912D02*
X3596Y1911D01*
X3594Y1854D02*
Y1912D01*
X3309Y1850D02*
Y1909D01*
X3808Y1911D02*
X3881D01*
X3807Y1909D02*
X3808Y1911D01*
X3309Y1909D02*
X3311Y1911D01*
X3631Y102D02*
X3683Y50D01*
X3197Y178D02*
X3311D01*
X3111Y265D02*
X3197Y178D01*
Y395D02*
X3311D01*
X3111Y481D02*
X3197Y395D01*
X3197Y611D02*
X3311D01*
X3111Y698D02*
X3197Y611D01*
X3197Y828D02*
X3311D01*
X3111Y914D02*
X3197Y828D01*
Y1044D02*
X3311D01*
X3111Y1131D02*
X3197Y1044D01*
X3197Y1261D02*
X3311D01*
X3111Y1347D02*
X3197Y1261D01*
X3197Y1477D02*
X3311D01*
X3111Y1564D02*
X3197Y1477D01*
Y1694D02*
X3311D01*
X3111Y1781D02*
X3197Y1694D01*
X3398Y50D02*
Y108D01*
X3483Y178D02*
X3596D01*
X3396Y265D02*
X3483Y178D01*
Y395D02*
X3596D01*
X3396Y481D02*
X3483Y395D01*
X3483Y611D02*
X3596D01*
X3396Y698D02*
X3483Y611D01*
X3483Y828D02*
X3596D01*
X3396Y914D02*
X3483Y828D01*
Y1044D02*
X3596D01*
X3396Y1131D02*
X3483Y1044D01*
X3483Y1261D02*
X3596D01*
X3396Y1347D02*
X3483Y1261D01*
X3483Y1477D02*
X3596D01*
X3396Y1564D02*
X3483Y1477D01*
Y1694D02*
X3596D01*
X3396Y1781D02*
X3483Y1694D01*
X3768Y178D02*
X3881D01*
X3681Y265D02*
X3768Y178D01*
Y395D02*
X3881D01*
X3681Y481D02*
X3768Y395D01*
X3768Y611D02*
X3881D01*
X3681Y698D02*
X3768Y611D01*
X3768Y828D02*
X3881D01*
X3681Y914D02*
X3768Y828D01*
Y1044D02*
X3881D01*
X3681Y1131D02*
X3768Y1044D01*
X3768Y1261D02*
X3881D01*
X3681Y1347D02*
X3768Y1261D01*
X3768Y1477D02*
X3881D01*
X3681Y1564D02*
X3768Y1477D01*
Y1694D02*
X3881D01*
X3681Y1781D02*
X3768Y1694D01*
X254Y161D02*
Y204D01*
Y161D02*
X341Y74D01*
X541Y161D02*
Y204D01*
Y161D02*
X628Y74D01*
X828Y161D02*
Y204D01*
Y161D02*
X916Y74D01*
X1116Y161D02*
Y204D01*
Y161D02*
X1203Y74D01*
X1403Y161D02*
Y204D01*
Y161D02*
X1491Y74D01*
X1691Y161D02*
Y204D01*
Y161D02*
X1778Y74D01*
X1978Y161D02*
Y204D01*
Y161D02*
X2065Y74D01*
X2553Y161D02*
Y204D01*
Y161D02*
X2640Y74D01*
X2265Y161D02*
Y204D01*
Y161D02*
X2353Y74D01*
X2774Y138D02*
X2840Y204D01*
X2736Y138D02*
X2774D01*
X54Y74D02*
X94D01*
X157Y138D01*
D29*
X637Y1915D02*
X866D01*
X578Y1856D02*
X637Y1915D01*
X579Y1578D02*
X679D01*
X854Y687D02*
X1295D01*
X524Y1427D02*
Y1523D01*
X579Y1578D01*
X378Y1167D02*
Y1281D01*
X524Y1427D01*
X173Y1037D02*
Y1482D01*
X331Y880D02*
X909D01*
X173Y1037D02*
X563Y648D01*
Y337D02*
Y648D01*
D30*
X1744Y1031D02*
X1745Y1030D01*
X1937D02*
X1937D01*
Y990D02*
X1941Y986D01*
X2200D01*
X2268Y1054D01*
X1744Y792D02*
X1747Y789D01*
X2184Y808D02*
X2268D01*
X2092Y844D02*
X2148D01*
X2065Y818D02*
X2092Y844D01*
X2065Y790D02*
Y818D01*
X2065Y789D02*
X2065Y790D01*
X2148Y844D02*
X2181Y811D01*
X2184Y808D01*
X1937Y990D02*
Y1030D01*
X1747Y789D02*
X1886D01*
X1745Y1030D02*
X1886D01*
X1295Y364D02*
X1315Y384D01*
D31*
X3681Y1261D02*
D03*
X3881D02*
D03*
X3681Y1044D02*
D03*
X3881D02*
D03*
X3681Y828D02*
D03*
X3881D02*
D03*
X3681Y611D02*
D03*
X3881D02*
D03*
X3681Y395D02*
D03*
X3881D02*
D03*
X3681Y178D02*
D03*
X3881D02*
D03*
X3396Y1911D02*
D03*
X3596D02*
D03*
X3396Y1694D02*
D03*
X3596D02*
D03*
X3396Y1477D02*
D03*
X3596D02*
D03*
X3396Y1261D02*
D03*
X3596D02*
D03*
X3396Y1044D02*
D03*
X3596D02*
D03*
X3396Y828D02*
D03*
X3596D02*
D03*
X3396Y611D02*
D03*
X3596D02*
D03*
X3396Y395D02*
D03*
X3596D02*
D03*
X3396Y178D02*
D03*
X3596D02*
D03*
X3111Y1911D02*
D03*
X3311D02*
D03*
X3111Y1694D02*
D03*
X3311D02*
D03*
X3111Y1477D02*
D03*
X3311D02*
D03*
X3111Y1261D02*
D03*
X3311D02*
D03*
X3111Y1044D02*
D03*
X3311D02*
D03*
X3111Y828D02*
D03*
X3311D02*
D03*
X3111Y611D02*
D03*
X3311D02*
D03*
X3111Y395D02*
D03*
X3311D02*
D03*
X3111Y178D02*
D03*
X3311D02*
D03*
X3681Y1911D02*
D03*
X3881D02*
D03*
X3681Y1694D02*
D03*
X3881D02*
D03*
X3681Y1477D02*
D03*
X3881D02*
D03*
X2640Y204D02*
D03*
X2840D02*
D03*
X2353D02*
D03*
X2553D02*
D03*
X2065D02*
D03*
X2265D02*
D03*
X1778D02*
D03*
X1978D02*
D03*
X1491D02*
D03*
X1691D02*
D03*
X1203D02*
D03*
X1403D02*
D03*
X916D02*
D03*
X1116D02*
D03*
X628D02*
D03*
X828D02*
D03*
X341D02*
D03*
X541D02*
D03*
X54D02*
D03*
X254D02*
D03*
D32*
X3681Y1131D02*
D03*
Y914D02*
D03*
Y698D02*
D03*
Y481D02*
D03*
Y265D02*
D03*
Y48D02*
D03*
X3396Y1781D02*
D03*
Y1564D02*
D03*
Y1347D02*
D03*
Y1131D02*
D03*
Y914D02*
D03*
Y698D02*
D03*
Y481D02*
D03*
Y265D02*
D03*
Y48D02*
D03*
X3111Y1781D02*
D03*
Y1564D02*
D03*
Y1347D02*
D03*
Y1131D02*
D03*
Y914D02*
D03*
Y698D02*
D03*
Y481D02*
D03*
Y265D02*
D03*
Y48D02*
D03*
X3681Y1781D02*
D03*
Y1564D02*
D03*
Y1347D02*
D03*
X2640Y74D02*
D03*
X2353D02*
D03*
X2065D02*
D03*
X1778D02*
D03*
X1491D02*
D03*
X1203D02*
D03*
X916D02*
D03*
X628D02*
D03*
X341D02*
D03*
X54D02*
D03*
D33*
X3881Y1131D02*
D03*
Y914D02*
D03*
Y698D02*
D03*
Y481D02*
D03*
Y265D02*
D03*
Y48D02*
D03*
X3596Y1781D02*
D03*
Y1564D02*
D03*
Y1347D02*
D03*
Y1131D02*
D03*
Y914D02*
D03*
Y698D02*
D03*
Y481D02*
D03*
Y265D02*
D03*
Y48D02*
D03*
X3311Y1781D02*
D03*
Y1564D02*
D03*
Y1347D02*
D03*
Y1131D02*
D03*
Y914D02*
D03*
Y698D02*
D03*
Y481D02*
D03*
Y265D02*
D03*
Y48D02*
D03*
X3881Y1781D02*
D03*
Y1564D02*
D03*
Y1347D02*
D03*
X2840Y74D02*
D03*
X2553D02*
D03*
X2265D02*
D03*
X1978D02*
D03*
X1691D02*
D03*
X1403D02*
D03*
X1116D02*
D03*
X828D02*
D03*
X541D02*
D03*
X254D02*
D03*
D34*
X3311Y331D02*
X3598D01*
X3886D01*
X3110Y543D02*
X3398D01*
X3685D01*
X3307Y760D02*
X3594D01*
X3882D01*
X3106Y976D02*
X3394D01*
X3681D01*
X3307Y1197D02*
X3594D01*
X3882D01*
X3106Y1409D02*
X3394D01*
X3681D01*
X3598Y1630D02*
X3886D01*
X3311D02*
X3598D01*
D35*
X578Y1856D02*
D03*
X1744Y1031D02*
D03*
X2268Y1054D02*
D03*
Y808D02*
D03*
X1744Y792D02*
D03*
X2567Y959D02*
D03*
X663Y1213D02*
D03*
X1807Y1356D02*
D03*
X1720Y1388D02*
D03*
X1587Y1368D02*
D03*
X1358Y1285D02*
D03*
X2516Y1372D02*
D03*
X2744Y1009D02*
D03*
X2563Y1124D02*
D03*
X724Y1687D02*
D03*
X1673Y1711D02*
D03*
X1177Y1278D02*
D03*
X2496Y1762D02*
D03*
X173Y1482D02*
D03*
X614Y1707D02*
D03*
X1079Y1278D02*
D03*
X1941Y1805D02*
D03*
X1433Y1703D02*
D03*
X1181Y959D02*
D03*
X1126Y1089D02*
D03*
X2079Y1234D02*
D03*
X1965D02*
D03*
X1555Y514D02*
D03*
X1512Y561D02*
D03*
X909Y880D02*
D03*
X854Y687D02*
D03*
X378Y1167D02*
D03*
X1295Y364D02*
D03*
X2264Y1683D02*
D03*
X2347Y1802D02*
D03*
X3311Y331D02*
D03*
X3598D02*
D03*
X3886D02*
D03*
X3110Y543D02*
D03*
X3398D02*
D03*
X3685D02*
D03*
X3307Y760D02*
D03*
X3594D02*
D03*
X3882D02*
D03*
X3106Y976D02*
D03*
X3394D02*
D03*
X3681D02*
D03*
X3307Y1197D02*
D03*
X3594D02*
D03*
X3882D02*
D03*
X3106Y1409D02*
D03*
X3394D02*
D03*
X3681D02*
D03*
X3886Y1630D02*
D03*
X3598D02*
D03*
X3311D02*
D03*
D36*
X478Y1856D02*
D03*
D37*
X2479Y1578D02*
D03*
Y1478D02*
D03*
X2379Y1578D02*
D03*
Y1478D02*
D03*
X2279Y1578D02*
D03*
Y1478D02*
D03*
X2179Y1578D02*
D03*
Y1478D02*
D03*
X2079Y1578D02*
D03*
Y1478D02*
D03*
X1979Y1578D02*
D03*
Y1478D02*
D03*
X1879Y1578D02*
D03*
Y1478D02*
D03*
X1779Y1578D02*
D03*
Y1478D02*
D03*
X1679Y1578D02*
D03*
Y1478D02*
D03*
X1579Y1578D02*
D03*
Y1478D02*
D03*
X1479Y1578D02*
D03*
Y1478D02*
D03*
X1379Y1578D02*
D03*
Y1478D02*
D03*
X1279Y1578D02*
D03*
Y1478D02*
D03*
X1179Y1578D02*
D03*
Y1478D02*
D03*
X1079Y1578D02*
D03*
Y1478D02*
D03*
X979Y1578D02*
D03*
Y1478D02*
D03*
X879Y1578D02*
D03*
Y1478D02*
D03*
X779Y1578D02*
D03*
Y1478D02*
D03*
X679Y1578D02*
D03*
Y1478D02*
D03*
X579Y1578D02*
D03*
X568Y342D02*
D03*
X861Y1910D02*
D03*
X2988Y1067D02*
D03*
X2988Y1548D02*
D03*
X743Y1910D02*
D03*
X2988Y1307D02*
D03*
X2047Y1752D02*
D03*
D38*
X579Y1478D02*
D03*
X861Y1810D02*
D03*
X2988Y1167D02*
D03*
X2988Y1648D02*
D03*
X743Y1810D02*
D03*
X2988Y1407D02*
D03*
X2047Y1852D02*
D03*
D39*
X468Y342D02*
D03*
D40*
X2835Y1703D02*
D03*
X2535D02*
D03*
D41*
X720Y1041D02*
D03*
X2370Y1915D02*
D03*
X2791D02*
D03*
X701Y337D02*
D03*
D42*
X620Y1041D02*
D03*
X520D02*
D03*
X909Y1126D02*
D03*
Y1226D02*
D03*
X2270Y1915D02*
D03*
X2170D02*
D03*
X2491D02*
D03*
X2591D02*
D03*
X2691D02*
D03*
X79Y478D02*
D03*
Y578D02*
D03*
Y678D02*
D03*
Y778D02*
D03*
Y878D02*
D03*
Y978D02*
D03*
Y1078D02*
D03*
Y1178D02*
D03*
Y1278D02*
D03*
Y1378D02*
D03*
Y1478D02*
D03*
Y1578D02*
D03*
Y1678D02*
D03*
X984Y1815D02*
D03*
Y1715D02*
D03*
X801Y337D02*
D03*
X901D02*
D03*
X1001D02*
D03*
D43*
X909Y1026D02*
D03*
X79Y1778D02*
D03*
X984Y1915D02*
D03*
D44*
X1744Y1131D02*
D03*
X2268Y1154D02*
D03*
Y708D02*
D03*
X1744Y692D02*
D03*
D45*
X2756Y1260D02*
D03*
X1335Y533D02*
D03*
X1303Y565D02*
D03*
X1366D02*
D03*
Y502D02*
D03*
X1303D02*
D03*
X1142Y537D02*
D03*
X1339Y695D02*
D03*
X1732Y415D02*
D03*
X1669Y722D02*
D03*
X1937Y856D02*
D03*
X2118Y730D02*
D03*
X2181Y703D02*
D03*
X2118Y1089D02*
D03*
X1909D02*
D03*
X1984D02*
D03*
X2087Y730D02*
D03*
X2461Y1148D02*
D03*
X1803Y1821D02*
D03*
X366Y1659D02*
D03*
X217Y1522D02*
D03*
X965Y636D02*
D03*
X622Y522D02*
D03*
X709Y762D02*
D03*
X965Y726D02*
D03*
X299Y978D02*
D03*
X240Y904D02*
D03*
X1437Y813D02*
D03*
X1181Y888D02*
D03*
X1323Y1100D02*
D03*
X1496Y486D02*
D03*
X1354Y321D02*
D03*
X3169Y47D02*
D03*
X3886Y48D02*
D03*
X3622Y102D02*
D03*
X3594Y1854D02*
D03*
X3309Y1850D02*
D03*
X3311Y480D02*
D03*
X3110Y610D02*
D03*
X3311Y1781D02*
D03*
X3596D02*
D03*
X3881D02*
D03*
Y1564D02*
D03*
X3596D02*
D03*
X3311D02*
D03*
Y1347D02*
D03*
X3596D02*
D03*
X3881D02*
D03*
Y1131D02*
D03*
X3596D02*
D03*
X3311D02*
D03*
Y914D02*
D03*
X3596D02*
D03*
X3881D02*
D03*
Y698D02*
D03*
X3596D02*
D03*
X3311D02*
D03*
X3596Y481D02*
D03*
X3881D02*
D03*
Y265D02*
D03*
X3596D02*
D03*
X3311D02*
D03*
X3596Y48D02*
D03*
X3311D02*
D03*
X3396Y178D02*
D03*
X3111D02*
D03*
Y395D02*
D03*
X3396D02*
D03*
X3681Y178D02*
D03*
Y395D02*
D03*
Y611D02*
D03*
X3396D02*
D03*
X3111Y828D02*
D03*
X3396D02*
D03*
X3681D02*
D03*
Y1044D02*
D03*
X3396D02*
D03*
X3111D02*
D03*
Y1261D02*
D03*
X3396D02*
D03*
X3681D02*
D03*
Y1477D02*
D03*
X3396D02*
D03*
X3111D02*
D03*
Y1694D02*
D03*
X3396D02*
D03*
X3681D02*
D03*
Y1911D02*
D03*
X3396D02*
D03*
X3111D02*
D03*
X3807Y1909D02*
D03*
X3398Y108D02*
D03*
X169Y75D02*
D03*
X445D02*
D03*
X728D02*
D03*
X1024D02*
D03*
X1311D02*
D03*
X1594D02*
D03*
X1882D02*
D03*
X2165D02*
D03*
X2453D02*
D03*
X2732D02*
D03*
X2728Y197D02*
D03*
X2453D02*
D03*
X2165D02*
D03*
X1878D02*
D03*
X1591D02*
D03*
X1311D02*
D03*
X1024D02*
D03*
X441D02*
D03*
X165D02*
D03*
X728D02*
D03*
X2736Y138D02*
D03*
X157D02*
D03*
D46*
X272Y404D02*
D03*
Y1850D02*
D03*
X2921Y406D02*
D03*
X2920Y1850D02*
D03*
D47*
X375Y1500D02*
D03*
Y594D02*
D03*
X2659D02*
D03*
Y1500D02*
D03*
M02*
