G04 Layer_Color=2752767*
%FSLAX23Y23*%
%MOIN*%
G70*
G01*
G75*
%ADD106C,0.002*%
%ADD107C,0.003*%
D106*
X570Y1848D02*
Y1864D01*
X586D01*
Y1848D01*
X570D01*
X470D02*
Y1864D01*
X486D01*
Y1848D01*
X470D01*
X2471Y1570D02*
Y1586D01*
X2487D01*
Y1570D01*
X2471D01*
Y1470D02*
Y1486D01*
X2487D01*
Y1470D01*
X2471D01*
X2371Y1570D02*
Y1586D01*
X2387D01*
Y1570D01*
X2371D01*
Y1470D02*
Y1486D01*
X2387D01*
Y1470D01*
X2371D01*
X2271Y1570D02*
Y1586D01*
X2287D01*
Y1570D01*
X2271D01*
Y1470D02*
Y1486D01*
X2287D01*
Y1470D01*
X2271D01*
X2171Y1570D02*
Y1586D01*
X2187D01*
Y1570D01*
X2171D01*
Y1470D02*
Y1486D01*
X2187D01*
Y1470D01*
X2171D01*
X2071Y1570D02*
Y1586D01*
X2087D01*
Y1570D01*
X2071D01*
Y1470D02*
Y1486D01*
X2087D01*
Y1470D01*
X2071D01*
X1971Y1570D02*
Y1586D01*
X1987D01*
Y1570D01*
X1971D01*
Y1470D02*
Y1486D01*
X1987D01*
Y1470D01*
X1971D01*
X1871Y1570D02*
Y1586D01*
X1887D01*
Y1570D01*
X1871D01*
Y1470D02*
Y1486D01*
X1887D01*
Y1470D01*
X1871D01*
X1771Y1570D02*
Y1586D01*
X1787D01*
Y1570D01*
X1771D01*
Y1470D02*
Y1486D01*
X1787D01*
Y1470D01*
X1771D01*
X1671Y1570D02*
Y1586D01*
X1687D01*
Y1570D01*
X1671D01*
Y1470D02*
Y1486D01*
X1687D01*
Y1470D01*
X1671D01*
X1571Y1570D02*
Y1586D01*
X1587D01*
Y1570D01*
X1571D01*
Y1470D02*
Y1486D01*
X1587D01*
Y1470D01*
X1571D01*
X1471Y1570D02*
Y1586D01*
X1487D01*
Y1570D01*
X1471D01*
Y1470D02*
Y1486D01*
X1487D01*
Y1470D01*
X1471D01*
X1371Y1570D02*
Y1586D01*
X1387D01*
Y1570D01*
X1371D01*
Y1470D02*
Y1486D01*
X1387D01*
Y1470D01*
X1371D01*
X1271Y1570D02*
Y1586D01*
X1287D01*
Y1570D01*
X1271D01*
Y1470D02*
Y1486D01*
X1287D01*
Y1470D01*
X1271D01*
X1171Y1570D02*
Y1586D01*
X1187D01*
Y1570D01*
X1171D01*
Y1470D02*
Y1486D01*
X1187D01*
Y1470D01*
X1171D01*
X1071Y1570D02*
Y1586D01*
X1087D01*
Y1570D01*
X1071D01*
Y1470D02*
Y1486D01*
X1087D01*
Y1470D01*
X1071D01*
X971Y1570D02*
Y1586D01*
X987D01*
Y1570D01*
X971D01*
Y1470D02*
Y1486D01*
X987D01*
Y1470D01*
X971D01*
X871Y1570D02*
Y1586D01*
X887D01*
Y1570D01*
X871D01*
Y1470D02*
Y1486D01*
X887D01*
Y1470D01*
X871D01*
X771Y1570D02*
Y1586D01*
X787D01*
Y1570D01*
X771D01*
Y1470D02*
Y1486D01*
X787D01*
Y1470D01*
X771D01*
X671Y1570D02*
Y1586D01*
X687D01*
Y1570D01*
X671D01*
Y1470D02*
Y1486D01*
X687D01*
Y1470D01*
X671D01*
X571Y1570D02*
Y1586D01*
X587D01*
Y1570D01*
X571D01*
Y1470D02*
Y1486D01*
X587D01*
Y1470D01*
X571D01*
X460Y334D02*
Y350D01*
X476D01*
Y334D01*
X460D01*
X560D02*
Y350D01*
X576D01*
Y334D01*
X560D01*
X853Y1802D02*
Y1818D01*
X869D01*
Y1802D01*
X853D01*
Y1902D02*
Y1918D01*
X869D01*
Y1902D01*
X853D01*
X2980Y1159D02*
Y1175D01*
X2996D01*
Y1159D01*
X2980D01*
Y1059D02*
Y1075D01*
X2996D01*
Y1059D01*
X2980D01*
X2980Y1640D02*
Y1656D01*
X2996D01*
Y1640D01*
X2980D01*
Y1540D02*
Y1556D01*
X2996D01*
Y1540D01*
X2980D01*
X735Y1802D02*
Y1818D01*
X751D01*
Y1802D01*
X735D01*
Y1902D02*
Y1918D01*
X751D01*
Y1902D01*
X735D01*
X2980Y1399D02*
Y1415D01*
X2996D01*
Y1399D01*
X2980D01*
Y1299D02*
Y1315D01*
X2996D01*
Y1299D01*
X2980D01*
X2039Y1844D02*
Y1860D01*
X2055D01*
Y1844D01*
X2039D01*
Y1744D02*
Y1760D01*
X2055D01*
Y1744D01*
X2039D01*
X712Y1033D02*
Y1049D01*
X728D01*
Y1033D01*
X712D01*
X612D02*
Y1049D01*
X628D01*
Y1033D01*
X612D01*
X512D02*
Y1049D01*
X528D01*
Y1033D01*
X512D01*
X901Y1018D02*
Y1034D01*
X917D01*
Y1018D01*
X901D01*
Y1118D02*
Y1134D01*
X917D01*
Y1118D01*
X901D01*
Y1218D02*
Y1234D01*
X917D01*
Y1218D01*
X901D01*
X2362Y1907D02*
Y1923D01*
X2378D01*
Y1907D01*
X2362D01*
X2262D02*
Y1923D01*
X2278D01*
Y1907D01*
X2262D01*
X2162D02*
Y1923D01*
X2178D01*
Y1907D01*
X2162D01*
X2483D02*
Y1923D01*
X2499D01*
Y1907D01*
X2483D01*
X2583D02*
Y1923D01*
X2599D01*
Y1907D01*
X2583D01*
X2683D02*
Y1923D01*
X2699D01*
Y1907D01*
X2683D01*
X2783D02*
Y1923D01*
X2799D01*
Y1907D01*
X2783D01*
X71Y470D02*
Y486D01*
X87D01*
Y470D01*
X71D01*
Y570D02*
Y586D01*
X87D01*
Y570D01*
X71D01*
Y670D02*
Y686D01*
X87D01*
Y670D01*
X71D01*
Y770D02*
Y786D01*
X87D01*
Y770D01*
X71D01*
Y870D02*
Y886D01*
X87D01*
Y870D01*
X71D01*
Y970D02*
Y986D01*
X87D01*
Y970D01*
X71D01*
Y1070D02*
Y1086D01*
X87D01*
Y1070D01*
X71D01*
Y1170D02*
Y1186D01*
X87D01*
Y1170D01*
X71D01*
Y1270D02*
Y1286D01*
X87D01*
Y1270D01*
X71D01*
Y1370D02*
Y1386D01*
X87D01*
Y1370D01*
X71D01*
Y1470D02*
Y1486D01*
X87D01*
Y1470D01*
X71D01*
Y1570D02*
Y1586D01*
X87D01*
Y1570D01*
X71D01*
Y1670D02*
Y1686D01*
X87D01*
Y1670D01*
X71D01*
Y1770D02*
Y1786D01*
X87D01*
Y1770D01*
X71D01*
X976Y1907D02*
Y1923D01*
X992D01*
Y1907D01*
X976D01*
Y1807D02*
Y1823D01*
X992D01*
Y1807D01*
X976D01*
Y1707D02*
Y1723D01*
X992D01*
Y1707D01*
X976D01*
X1736Y1023D02*
Y1039D01*
X1752D01*
Y1023D01*
X1736D01*
Y1123D02*
Y1139D01*
X1752D01*
Y1123D01*
X1736D01*
X2260Y1046D02*
Y1062D01*
X2276D01*
Y1046D01*
X2260D01*
Y1146D02*
Y1162D01*
X2276D01*
Y1146D01*
X2260D01*
Y800D02*
Y816D01*
X2276D01*
Y800D01*
X2260D01*
Y700D02*
Y716D01*
X2276D01*
Y700D01*
X2260D01*
X1736Y784D02*
Y800D01*
X1752D01*
Y784D01*
X1736D01*
Y684D02*
Y700D01*
X1752D01*
Y684D01*
X1736D01*
X693Y329D02*
Y345D01*
X709D01*
Y329D01*
X693D01*
X793D02*
Y345D01*
X809D01*
Y329D01*
X793D01*
X893D02*
Y345D01*
X909D01*
Y329D01*
X893D01*
X993D02*
Y345D01*
X1009D01*
Y329D01*
X993D01*
X2756Y1252D02*
X2748Y1268D01*
X2764D01*
X2756Y1252D01*
X2567Y951D02*
X2571Y955D01*
X2575D01*
X2571Y959D01*
X2575Y963D01*
X2571D01*
X2567Y967D01*
X2563Y963D01*
X2559D01*
X2563Y959D01*
X2559Y955D01*
X2563D01*
X2567Y951D01*
X663Y1205D02*
X667Y1209D01*
X671D01*
X667Y1213D01*
X671Y1217D01*
X667D01*
X663Y1221D01*
X659Y1217D01*
X655D01*
X659Y1213D01*
X655Y1209D01*
X659D01*
X663Y1205D01*
X1807Y1348D02*
X1811Y1352D01*
X1815D01*
X1811Y1356D01*
X1815Y1360D01*
X1811D01*
X1807Y1364D01*
X1803Y1360D01*
X1799D01*
X1803Y1356D01*
X1799Y1352D01*
X1803D01*
X1807Y1348D01*
X1720Y1380D02*
X1724Y1384D01*
X1728D01*
X1724Y1388D01*
X1728Y1392D01*
X1724D01*
X1720Y1396D01*
X1716Y1392D01*
X1712D01*
X1716Y1388D01*
X1712Y1384D01*
X1716D01*
X1720Y1380D01*
X1587Y1360D02*
X1591Y1364D01*
X1595D01*
X1591Y1368D01*
X1595Y1372D01*
X1591D01*
X1587Y1376D01*
X1583Y1372D01*
X1579D01*
X1583Y1368D01*
X1579Y1364D01*
X1583D01*
X1587Y1360D01*
X1358Y1277D02*
X1362Y1281D01*
X1366D01*
X1362Y1285D01*
X1366Y1289D01*
X1362D01*
X1358Y1293D01*
X1354Y1289D01*
X1350D01*
X1354Y1285D01*
X1350Y1281D01*
X1354D01*
X1358Y1277D01*
X2516Y1364D02*
X2520Y1368D01*
X2524D01*
X2520Y1372D01*
X2524Y1376D01*
X2520D01*
X2516Y1380D01*
X2512Y1376D01*
X2508D01*
X2512Y1372D01*
X2508Y1368D01*
X2512D01*
X2516Y1364D01*
X2744Y1001D02*
X2748Y1005D01*
X2752D01*
X2748Y1009D01*
X2752Y1013D01*
X2748D01*
X2744Y1017D01*
X2740Y1013D01*
X2736D01*
X2740Y1009D01*
X2736Y1005D01*
X2740D01*
X2744Y1001D01*
X2563Y1116D02*
X2567Y1120D01*
X2571D01*
X2567Y1124D01*
X2571Y1128D01*
X2567D01*
X2563Y1132D01*
X2559Y1128D01*
X2555D01*
X2559Y1124D01*
X2555Y1120D01*
X2559D01*
X2563Y1116D01*
X724Y1679D02*
X728Y1683D01*
X732D01*
X728Y1687D01*
X732Y1691D01*
X728D01*
X724Y1695D01*
X720Y1691D01*
X716D01*
X720Y1687D01*
X716Y1683D01*
X720D01*
X724Y1679D01*
X1673Y1703D02*
X1677Y1707D01*
X1681D01*
X1677Y1711D01*
X1681Y1715D01*
X1677D01*
X1673Y1719D01*
X1669Y1715D01*
X1665D01*
X1669Y1711D01*
X1665Y1707D01*
X1669D01*
X1673Y1703D01*
X1177Y1270D02*
X1181Y1274D01*
X1185D01*
X1181Y1278D01*
X1185Y1282D01*
X1181D01*
X1177Y1286D01*
X1173Y1282D01*
X1169D01*
X1173Y1278D01*
X1169Y1274D01*
X1173D01*
X1177Y1270D01*
X2496Y1754D02*
X2500Y1758D01*
X2504D01*
X2500Y1762D01*
X2504Y1766D01*
X2500D01*
X2496Y1770D01*
X2492Y1766D01*
X2488D01*
X2492Y1762D01*
X2488Y1758D01*
X2492D01*
X2496Y1754D01*
X173Y1474D02*
X177Y1478D01*
X181D01*
X177Y1482D01*
X181Y1486D01*
X177D01*
X173Y1490D01*
X169Y1486D01*
X165D01*
X169Y1482D01*
X165Y1478D01*
X169D01*
X173Y1474D01*
X614Y1699D02*
X618Y1703D01*
X622D01*
X618Y1707D01*
X622Y1711D01*
X618D01*
X614Y1715D01*
X610Y1711D01*
X606D01*
X610Y1707D01*
X606Y1703D01*
X610D01*
X614Y1699D01*
X1079Y1270D02*
X1083Y1274D01*
X1087D01*
X1083Y1278D01*
X1087Y1282D01*
X1083D01*
X1079Y1286D01*
X1075Y1282D01*
X1071D01*
X1075Y1278D01*
X1071Y1274D01*
X1075D01*
X1079Y1270D01*
X1941Y1797D02*
X1945Y1801D01*
X1949D01*
X1945Y1805D01*
X1949Y1809D01*
X1945D01*
X1941Y1813D01*
X1937Y1809D01*
X1933D01*
X1937Y1805D01*
X1933Y1801D01*
X1937D01*
X1941Y1797D01*
X1433Y1695D02*
X1437Y1699D01*
X1441D01*
X1437Y1703D01*
X1441Y1707D01*
X1437D01*
X1433Y1711D01*
X1429Y1707D01*
X1425D01*
X1429Y1703D01*
X1425Y1699D01*
X1429D01*
X1433Y1695D01*
X264Y396D02*
X268Y404D01*
X264Y412D01*
X272Y408D01*
X280Y412D01*
X276Y404D01*
X280Y396D01*
X272Y400D01*
X264Y396D01*
X371Y1496D02*
Y1492D01*
X379D01*
Y1496D01*
X383D01*
Y1504D01*
X379D01*
Y1508D01*
X371D01*
Y1504D01*
X367D01*
Y1496D01*
X371D01*
Y590D02*
Y586D01*
X379D01*
Y590D01*
X383D01*
Y598D01*
X379D01*
Y602D01*
X371D01*
Y598D01*
X367D01*
Y590D01*
X371D01*
X2655D02*
Y586D01*
X2663D01*
Y590D01*
X2667D01*
Y598D01*
X2663D01*
Y602D01*
X2655D01*
Y598D01*
X2651D01*
Y590D01*
X2655D01*
Y1496D02*
Y1492D01*
X2663D01*
Y1496D01*
X2667D01*
Y1504D01*
X2663D01*
Y1508D01*
X2655D01*
Y1504D01*
X2651D01*
Y1496D01*
X2655D01*
X264Y1842D02*
X268Y1850D01*
X264Y1858D01*
X272Y1854D01*
X280Y1858D01*
X276Y1850D01*
X280Y1842D01*
X272Y1846D01*
X264Y1842D01*
X2913Y398D02*
X2917Y406D01*
X2913Y414D01*
X2921Y410D01*
X2929Y414D01*
X2925Y406D01*
X2929Y398D01*
X2921Y402D01*
X2913Y398D01*
X2912Y1842D02*
X2916Y1850D01*
X2912Y1858D01*
X2920Y1854D01*
X2928Y1858D01*
X2924Y1850D01*
X2928Y1842D01*
X2920Y1846D01*
X2912Y1842D01*
X1181Y951D02*
X1185Y955D01*
X1189D01*
X1185Y959D01*
X1189Y963D01*
X1185D01*
X1181Y967D01*
X1177Y963D01*
X1173D01*
X1177Y959D01*
X1173Y955D01*
X1177D01*
X1181Y951D01*
X1126Y1081D02*
X1130Y1085D01*
X1134D01*
X1130Y1089D01*
X1134Y1093D01*
X1130D01*
X1126Y1097D01*
X1122Y1093D01*
X1118D01*
X1122Y1089D01*
X1118Y1085D01*
X1122D01*
X1126Y1081D01*
X2079Y1226D02*
X2083Y1230D01*
X2087D01*
X2083Y1234D01*
X2087Y1238D01*
X2083D01*
X2079Y1242D01*
X2075Y1238D01*
X2071D01*
X2075Y1234D01*
X2071Y1230D01*
X2075D01*
X2079Y1226D01*
X1965D02*
X1969Y1230D01*
X1973D01*
X1969Y1234D01*
X1973Y1238D01*
X1969D01*
X1965Y1242D01*
X1961Y1238D01*
X1957D01*
X1961Y1234D01*
X1957Y1230D01*
X1961D01*
X1965Y1226D01*
X1555Y506D02*
X1559Y510D01*
X1563D01*
X1559Y514D01*
X1563Y518D01*
X1559D01*
X1555Y522D01*
X1551Y518D01*
X1547D01*
X1551Y514D01*
X1547Y510D01*
X1551D01*
X1555Y506D01*
X1512Y553D02*
X1516Y557D01*
X1520D01*
X1516Y561D01*
X1520Y565D01*
X1516D01*
X1512Y569D01*
X1508Y565D01*
X1504D01*
X1508Y561D01*
X1504Y557D01*
X1508D01*
X1512Y553D01*
X1335Y525D02*
X1327Y541D01*
X1343D01*
X1335Y525D01*
X1303Y557D02*
X1295Y573D01*
X1311D01*
X1303Y557D01*
X1366D02*
X1358Y573D01*
X1374D01*
X1366Y557D01*
Y494D02*
X1358Y510D01*
X1374D01*
X1366Y494D01*
X1303D02*
X1295Y510D01*
X1311D01*
X1303Y494D01*
X909Y872D02*
X913Y876D01*
X917D01*
X913Y880D01*
X917Y884D01*
X913D01*
X909Y888D01*
X905Y884D01*
X901D01*
X905Y880D01*
X901Y876D01*
X905D01*
X909Y872D01*
X1142Y529D02*
X1134Y545D01*
X1150D01*
X1142Y529D01*
X1339Y687D02*
X1331Y703D01*
X1347D01*
X1339Y687D01*
X1732Y407D02*
X1724Y423D01*
X1740D01*
X1732Y407D01*
X1669Y714D02*
X1661Y730D01*
X1677D01*
X1669Y714D01*
X1937Y848D02*
X1929Y864D01*
X1945D01*
X1937Y848D01*
X2118Y722D02*
X2110Y738D01*
X2126D01*
X2118Y722D01*
X2181Y695D02*
X2173Y711D01*
X2189D01*
X2181Y695D01*
X2118Y1081D02*
X2110Y1097D01*
X2126D01*
X2118Y1081D01*
X1909D02*
X1901Y1097D01*
X1917D01*
X1909Y1081D01*
X1984D02*
X1976Y1097D01*
X1992D01*
X1984Y1081D01*
X2087Y722D02*
X2079Y738D01*
X2095D01*
X2087Y722D01*
X2461Y1140D02*
X2453Y1156D01*
X2469D01*
X2461Y1140D01*
X1803Y1813D02*
X1795Y1829D01*
X1811D01*
X1803Y1813D01*
X366Y1651D02*
X358Y1667D01*
X374D01*
X366Y1651D01*
X217Y1514D02*
X209Y1530D01*
X225D01*
X217Y1514D01*
X854Y679D02*
X858Y683D01*
X862D01*
X858Y687D01*
X862Y691D01*
X858D01*
X854Y695D01*
X850Y691D01*
X846D01*
X850Y687D01*
X846Y683D01*
X850D01*
X854Y679D01*
X378Y1159D02*
X382Y1163D01*
X386D01*
X382Y1167D01*
X386Y1171D01*
X382D01*
X378Y1175D01*
X374Y1171D01*
X370D01*
X374Y1167D01*
X370Y1163D01*
X374D01*
X378Y1159D01*
X965Y628D02*
X957Y644D01*
X973D01*
X965Y628D01*
X622Y514D02*
X614Y530D01*
X630D01*
X622Y514D01*
X709Y754D02*
X701Y770D01*
X717D01*
X709Y754D01*
X965Y718D02*
X957Y734D01*
X973D01*
X965Y718D01*
X299Y970D02*
X291Y986D01*
X307D01*
X299Y970D01*
X240Y896D02*
X232Y912D01*
X248D01*
X240Y896D01*
X1437Y805D02*
X1429Y821D01*
X1445D01*
X1437Y805D01*
X1181Y880D02*
X1173Y896D01*
X1189D01*
X1181Y880D01*
X1323Y1092D02*
X1315Y1108D01*
X1331D01*
X1323Y1092D01*
X1496Y478D02*
X1488Y494D01*
X1504D01*
X1496Y478D01*
X1354Y313D02*
X1346Y329D01*
X1362D01*
X1354Y313D01*
X1295Y356D02*
X1299Y360D01*
X1303D01*
X1299Y364D01*
X1303Y368D01*
X1299D01*
X1295Y372D01*
X1291Y368D01*
X1287D01*
X1291Y364D01*
X1287Y360D01*
X1291D01*
X1295Y356D01*
X2264Y1675D02*
X2268Y1679D01*
X2272D01*
X2268Y1683D01*
X2272Y1687D01*
X2268D01*
X2264Y1691D01*
X2260Y1687D01*
X2256D01*
X2260Y1683D01*
X2256Y1679D01*
X2260D01*
X2264Y1675D01*
X2347Y1794D02*
X2351Y1798D01*
X2355D01*
X2351Y1802D01*
X2355Y1806D01*
X2351D01*
X2347Y1810D01*
X2343Y1806D01*
X2339D01*
X2343Y1802D01*
X2339Y1798D01*
X2343D01*
X2347Y1794D01*
X3169Y39D02*
X3161Y55D01*
X3177D01*
X3169Y39D01*
X3886Y40D02*
X3878Y56D01*
X3894D01*
X3886Y40D01*
X3614Y94D02*
X3618D01*
X3622Y98D01*
X3626Y94D01*
X3630D01*
Y98D01*
X3626Y102D01*
X3630Y106D01*
Y110D01*
X3626D01*
X3622Y106D01*
X3618Y110D01*
X3614D01*
Y106D01*
X3618Y102D01*
X3614Y98D01*
Y94D01*
X3311Y323D02*
X3315Y327D01*
X3319D01*
X3315Y331D01*
X3319Y335D01*
X3315D01*
X3311Y339D01*
X3307Y335D01*
X3303D01*
X3307Y331D01*
X3303Y327D01*
X3307D01*
X3311Y323D01*
X3598D02*
X3602Y327D01*
X3606D01*
X3602Y331D01*
X3606Y335D01*
X3602D01*
X3598Y339D01*
X3594Y335D01*
X3590D01*
X3594Y331D01*
X3590Y327D01*
X3594D01*
X3598Y323D01*
X3886D02*
X3890Y327D01*
X3894D01*
X3890Y331D01*
X3894Y335D01*
X3890D01*
X3886Y339D01*
X3882Y335D01*
X3878D01*
X3882Y331D01*
X3878Y327D01*
X3882D01*
X3886Y323D01*
X3110Y535D02*
X3114Y539D01*
X3118D01*
X3114Y543D01*
X3118Y547D01*
X3114D01*
X3110Y551D01*
X3106Y547D01*
X3102D01*
X3106Y543D01*
X3102Y539D01*
X3106D01*
X3110Y535D01*
X3398D02*
X3402Y539D01*
X3406D01*
X3402Y543D01*
X3406Y547D01*
X3402D01*
X3398Y551D01*
X3394Y547D01*
X3390D01*
X3394Y543D01*
X3390Y539D01*
X3394D01*
X3398Y535D01*
X3685D02*
X3689Y539D01*
X3693D01*
X3689Y543D01*
X3693Y547D01*
X3689D01*
X3685Y551D01*
X3681Y547D01*
X3677D01*
X3681Y543D01*
X3677Y539D01*
X3681D01*
X3685Y535D01*
X3307Y752D02*
X3311Y756D01*
X3315D01*
X3311Y760D01*
X3315Y764D01*
X3311D01*
X3307Y768D01*
X3303Y764D01*
X3299D01*
X3303Y760D01*
X3299Y756D01*
X3303D01*
X3307Y752D01*
X3594D02*
X3598Y756D01*
X3602D01*
X3598Y760D01*
X3602Y764D01*
X3598D01*
X3594Y768D01*
X3590Y764D01*
X3586D01*
X3590Y760D01*
X3586Y756D01*
X3590D01*
X3594Y752D01*
X3882D02*
X3886Y756D01*
X3890D01*
X3886Y760D01*
X3890Y764D01*
X3886D01*
X3882Y768D01*
X3878Y764D01*
X3874D01*
X3878Y760D01*
X3874Y756D01*
X3878D01*
X3882Y752D01*
X3106Y968D02*
X3110Y972D01*
X3114D01*
X3110Y976D01*
X3114Y980D01*
X3110D01*
X3106Y984D01*
X3102Y980D01*
X3098D01*
X3102Y976D01*
X3098Y972D01*
X3102D01*
X3106Y968D01*
X3394D02*
X3398Y972D01*
X3402D01*
X3398Y976D01*
X3402Y980D01*
X3398D01*
X3394Y984D01*
X3390Y980D01*
X3386D01*
X3390Y976D01*
X3386Y972D01*
X3390D01*
X3394Y968D01*
X3681D02*
X3685Y972D01*
X3689D01*
X3685Y976D01*
X3689Y980D01*
X3685D01*
X3681Y984D01*
X3677Y980D01*
X3673D01*
X3677Y976D01*
X3673Y972D01*
X3677D01*
X3681Y968D01*
X3307Y1189D02*
X3311Y1193D01*
X3315D01*
X3311Y1197D01*
X3315Y1201D01*
X3311D01*
X3307Y1205D01*
X3303Y1201D01*
X3299D01*
X3303Y1197D01*
X3299Y1193D01*
X3303D01*
X3307Y1189D01*
X3594D02*
X3598Y1193D01*
X3602D01*
X3598Y1197D01*
X3602Y1201D01*
X3598D01*
X3594Y1205D01*
X3590Y1201D01*
X3586D01*
X3590Y1197D01*
X3586Y1193D01*
X3590D01*
X3594Y1189D01*
X3882D02*
X3886Y1193D01*
X3890D01*
X3886Y1197D01*
X3890Y1201D01*
X3886D01*
X3882Y1205D01*
X3878Y1201D01*
X3874D01*
X3878Y1197D01*
X3874Y1193D01*
X3878D01*
X3882Y1189D01*
X3106Y1401D02*
X3110Y1405D01*
X3114D01*
X3110Y1409D01*
X3114Y1413D01*
X3110D01*
X3106Y1417D01*
X3102Y1413D01*
X3098D01*
X3102Y1409D01*
X3098Y1405D01*
X3102D01*
X3106Y1401D01*
X3394D02*
X3398Y1405D01*
X3402D01*
X3398Y1409D01*
X3402Y1413D01*
X3398D01*
X3394Y1417D01*
X3390Y1413D01*
X3386D01*
X3390Y1409D01*
X3386Y1405D01*
X3390D01*
X3394Y1401D01*
X3681D02*
X3685Y1405D01*
X3689D01*
X3685Y1409D01*
X3689Y1413D01*
X3685D01*
X3681Y1417D01*
X3677Y1413D01*
X3673D01*
X3677Y1409D01*
X3673Y1405D01*
X3677D01*
X3681Y1401D01*
X3886Y1622D02*
X3890Y1626D01*
X3894D01*
X3890Y1630D01*
X3894Y1634D01*
X3890D01*
X3886Y1638D01*
X3882Y1634D01*
X3878D01*
X3882Y1630D01*
X3878Y1626D01*
X3882D01*
X3886Y1622D01*
X3598D02*
X3602Y1626D01*
X3606D01*
X3602Y1630D01*
X3606Y1634D01*
X3602D01*
X3598Y1638D01*
X3594Y1634D01*
X3590D01*
X3594Y1630D01*
X3590Y1626D01*
X3594D01*
X3598Y1622D01*
X3311D02*
X3315Y1626D01*
X3319D01*
X3315Y1630D01*
X3319Y1634D01*
X3315D01*
X3311Y1638D01*
X3307Y1634D01*
X3303D01*
X3307Y1630D01*
X3303Y1626D01*
X3307D01*
X3311Y1622D01*
X3586Y1846D02*
X3590D01*
X3594Y1850D01*
X3598Y1846D01*
X3602D01*
Y1850D01*
X3598Y1854D01*
X3602Y1858D01*
Y1862D01*
X3598D01*
X3594Y1858D01*
X3590Y1862D01*
X3586D01*
Y1858D01*
X3590Y1854D01*
X3586Y1850D01*
Y1846D01*
X3301Y1842D02*
X3305D01*
X3309Y1846D01*
X3313Y1842D01*
X3317D01*
Y1846D01*
X3313Y1850D01*
X3317Y1854D01*
Y1858D01*
X3313D01*
X3309Y1854D01*
X3305Y1858D01*
X3301D01*
Y1854D01*
X3305Y1850D01*
X3301Y1846D01*
Y1842D01*
X3311Y472D02*
X3303Y488D01*
X3319D01*
X3311Y472D01*
X3110Y602D02*
X3102Y618D01*
X3118D01*
X3110Y602D01*
X3311Y1773D02*
X3303Y1789D01*
X3319D01*
X3311Y1773D01*
X3596D02*
X3588Y1789D01*
X3604D01*
X3596Y1773D01*
X3881D02*
X3873Y1789D01*
X3889D01*
X3881Y1773D01*
Y1556D02*
X3873Y1572D01*
X3889D01*
X3881Y1556D01*
X3596D02*
X3588Y1572D01*
X3604D01*
X3596Y1556D01*
X3311D02*
X3303Y1572D01*
X3319D01*
X3311Y1556D01*
Y1339D02*
X3303Y1355D01*
X3319D01*
X3311Y1339D01*
X3596D02*
X3588Y1355D01*
X3604D01*
X3596Y1339D01*
X3881D02*
X3873Y1355D01*
X3889D01*
X3881Y1339D01*
Y1123D02*
X3873Y1139D01*
X3889D01*
X3881Y1123D01*
X3596D02*
X3588Y1139D01*
X3604D01*
X3596Y1123D01*
X3311D02*
X3303Y1139D01*
X3319D01*
X3311Y1123D01*
Y906D02*
X3303Y922D01*
X3319D01*
X3311Y906D01*
X3596D02*
X3588Y922D01*
X3604D01*
X3596Y906D01*
X3881D02*
X3873Y922D01*
X3889D01*
X3881Y906D01*
Y690D02*
X3873Y706D01*
X3889D01*
X3881Y690D01*
X3596D02*
X3588Y706D01*
X3604D01*
X3596Y690D01*
X3311D02*
X3303Y706D01*
X3319D01*
X3311Y690D01*
X3596Y473D02*
X3588Y489D01*
X3604D01*
X3596Y473D01*
X3881D02*
X3873Y489D01*
X3889D01*
X3881Y473D01*
Y257D02*
X3873Y273D01*
X3889D01*
X3881Y257D01*
X3596D02*
X3588Y273D01*
X3604D01*
X3596Y257D01*
X3311D02*
X3303Y273D01*
X3319D01*
X3311Y257D01*
X3596Y40D02*
X3588Y56D01*
X3604D01*
X3596Y40D01*
X3311D02*
X3303Y56D01*
X3319D01*
X3311Y40D01*
X3396Y170D02*
X3388Y186D01*
X3404D01*
X3396Y170D01*
X3111D02*
X3103Y186D01*
X3119D01*
X3111Y170D01*
Y387D02*
X3103Y403D01*
X3119D01*
X3111Y387D01*
X3396D02*
X3388Y403D01*
X3404D01*
X3396Y387D01*
X3681Y170D02*
X3673Y186D01*
X3689D01*
X3681Y170D01*
Y387D02*
X3673Y403D01*
X3689D01*
X3681Y387D01*
Y603D02*
X3673Y619D01*
X3689D01*
X3681Y603D01*
X3396D02*
X3388Y619D01*
X3404D01*
X3396Y603D01*
X3111Y820D02*
X3103Y836D01*
X3119D01*
X3111Y820D01*
X3396D02*
X3388Y836D01*
X3404D01*
X3396Y820D01*
X3681D02*
X3673Y836D01*
X3689D01*
X3681Y820D01*
Y1036D02*
X3673Y1052D01*
X3689D01*
X3681Y1036D01*
X3396D02*
X3388Y1052D01*
X3404D01*
X3396Y1036D01*
X3111D02*
X3103Y1052D01*
X3119D01*
X3111Y1036D01*
Y1253D02*
X3103Y1269D01*
X3119D01*
X3111Y1253D01*
X3396D02*
X3388Y1269D01*
X3404D01*
X3396Y1253D01*
X3681D02*
X3673Y1269D01*
X3689D01*
X3681Y1253D01*
Y1469D02*
X3673Y1485D01*
X3689D01*
X3681Y1469D01*
X3396D02*
X3388Y1485D01*
X3404D01*
X3396Y1469D01*
X3111D02*
X3103Y1485D01*
X3119D01*
X3111Y1469D01*
Y1686D02*
X3103Y1702D01*
X3119D01*
X3111Y1686D01*
X3396D02*
X3388Y1702D01*
X3404D01*
X3396Y1686D01*
X3681D02*
X3673Y1702D01*
X3689D01*
X3681Y1686D01*
Y1903D02*
X3673Y1919D01*
X3689D01*
X3681Y1903D01*
X3396D02*
X3388Y1919D01*
X3404D01*
X3396Y1903D01*
X3111D02*
X3103Y1919D01*
X3119D01*
X3111Y1903D01*
X3799Y1901D02*
X3803D01*
X3807Y1905D01*
X3811Y1901D01*
X3815D01*
Y1905D01*
X3811Y1909D01*
X3815Y1913D01*
Y1917D01*
X3811D01*
X3807Y1913D01*
X3803Y1917D01*
X3799D01*
Y1913D01*
X3803Y1909D01*
X3799Y1905D01*
Y1901D01*
X3390Y100D02*
X3394D01*
X3398Y104D01*
X3402Y100D01*
X3406D01*
Y104D01*
X3402Y108D01*
X3406Y112D01*
Y116D01*
X3402D01*
X3398Y112D01*
X3394Y116D01*
X3390D01*
Y112D01*
X3394Y108D01*
X3390Y104D01*
Y100D01*
X169Y67D02*
X161Y83D01*
X177D01*
X169Y67D01*
X445D02*
X437Y83D01*
X453D01*
X445Y67D01*
X728D02*
X720Y83D01*
X736D01*
X728Y67D01*
X1024D02*
X1016Y83D01*
X1032D01*
X1024Y67D01*
X1311D02*
X1303Y83D01*
X1319D01*
X1311Y67D01*
X1594D02*
X1586Y83D01*
X1602D01*
X1594Y67D01*
X1882D02*
X1874Y83D01*
X1890D01*
X1882Y67D01*
X2165D02*
X2157Y83D01*
X2173D01*
X2165Y67D01*
X2453D02*
X2445Y83D01*
X2461D01*
X2453Y67D01*
X2732D02*
X2724Y83D01*
X2740D01*
X2732Y67D01*
X2728Y189D02*
X2720Y205D01*
X2736D01*
X2728Y189D01*
X2453D02*
X2445Y205D01*
X2461D01*
X2453Y189D01*
X2165D02*
X2157Y205D01*
X2173D01*
X2165Y189D01*
X1878D02*
X1870Y205D01*
X1886D01*
X1878Y189D01*
X1591D02*
X1583Y205D01*
X1599D01*
X1591Y189D01*
X1311D02*
X1303Y205D01*
X1319D01*
X1311Y189D01*
X1024D02*
X1016Y205D01*
X1032D01*
X1024Y189D01*
X441D02*
X433Y205D01*
X449D01*
X441Y189D01*
X165D02*
X157Y205D01*
X173D01*
X165Y189D01*
X728D02*
X720Y205D01*
X736D01*
X728Y189D01*
X2736Y130D02*
X2728Y146D01*
X2744D01*
X2736Y130D01*
X157D02*
X149Y146D01*
X165D01*
X157Y130D01*
D107*
X2843Y1703D02*
G03*
X2843Y1703I-8J0D01*
G01*
X2543D02*
G03*
X2543Y1703I-8J0D01*
G01*
M02*
