G04 Layer_Color=128*
%FSLAX23Y23*%
%MOIN*%
G70*
G01*
G75*
%ADD106C,0.002*%
D106*
X560Y1856D02*
X595D01*
X578Y1839D02*
Y1874D01*
X460Y1856D02*
X495D01*
X478Y1839D02*
Y1874D01*
X2461Y1578D02*
X2496D01*
X2479Y1560D02*
Y1595D01*
X2461Y1478D02*
X2496D01*
X2479Y1460D02*
Y1495D01*
X2361Y1578D02*
X2396D01*
X2379Y1560D02*
Y1595D01*
X2361Y1478D02*
X2396D01*
X2379Y1460D02*
Y1495D01*
X2261Y1578D02*
X2296D01*
X2279Y1560D02*
Y1595D01*
X2261Y1478D02*
X2296D01*
X2279Y1460D02*
Y1495D01*
X2161Y1578D02*
X2196D01*
X2179Y1560D02*
Y1595D01*
X2161Y1478D02*
X2196D01*
X2179Y1460D02*
Y1495D01*
X2061Y1578D02*
X2096D01*
X2079Y1560D02*
Y1595D01*
X2061Y1478D02*
X2096D01*
X2079Y1460D02*
Y1495D01*
X1961Y1578D02*
X1996D01*
X1979Y1560D02*
Y1595D01*
X1961Y1478D02*
X1996D01*
X1979Y1460D02*
Y1495D01*
X1861Y1578D02*
X1896D01*
X1879Y1560D02*
Y1595D01*
X1861Y1478D02*
X1896D01*
X1879Y1460D02*
Y1495D01*
X1761Y1578D02*
X1796D01*
X1779Y1560D02*
Y1595D01*
X1761Y1478D02*
X1796D01*
X1779Y1460D02*
Y1495D01*
X1661Y1578D02*
X1696D01*
X1679Y1560D02*
Y1595D01*
X1661Y1478D02*
X1696D01*
X1679Y1460D02*
Y1495D01*
X1561Y1578D02*
X1596D01*
X1579Y1560D02*
Y1595D01*
X1561Y1478D02*
X1596D01*
X1579Y1460D02*
Y1495D01*
X1461Y1578D02*
X1496D01*
X1479Y1560D02*
Y1595D01*
X1461Y1478D02*
X1496D01*
X1479Y1460D02*
Y1495D01*
X1361Y1578D02*
X1396D01*
X1379Y1560D02*
Y1595D01*
X1361Y1478D02*
X1396D01*
X1379Y1460D02*
Y1495D01*
X1261Y1578D02*
X1296D01*
X1279Y1560D02*
Y1595D01*
X1261Y1478D02*
X1296D01*
X1279Y1460D02*
Y1495D01*
X1161Y1578D02*
X1196D01*
X1179Y1560D02*
Y1595D01*
X1161Y1478D02*
X1196D01*
X1179Y1460D02*
Y1495D01*
X1061Y1578D02*
X1096D01*
X1079Y1560D02*
Y1595D01*
X1061Y1478D02*
X1096D01*
X1079Y1460D02*
Y1495D01*
X961Y1578D02*
X996D01*
X979Y1560D02*
Y1595D01*
X961Y1478D02*
X996D01*
X979Y1460D02*
Y1495D01*
X861Y1578D02*
X896D01*
X879Y1560D02*
Y1595D01*
X861Y1478D02*
X896D01*
X879Y1460D02*
Y1495D01*
X761Y1578D02*
X796D01*
X779Y1560D02*
Y1595D01*
X761Y1478D02*
X796D01*
X779Y1460D02*
Y1495D01*
X661Y1578D02*
X696D01*
X679Y1560D02*
Y1595D01*
X661Y1478D02*
X696D01*
X679Y1460D02*
Y1495D01*
X561Y1578D02*
X596D01*
X579Y1560D02*
Y1595D01*
X561Y1478D02*
X596D01*
X579Y1460D02*
Y1495D01*
X450Y342D02*
X486D01*
X468Y324D02*
Y359D01*
X550Y342D02*
X586D01*
X568Y324D02*
Y359D01*
X843Y1810D02*
X879D01*
X861Y1793D02*
Y1828D01*
X843Y1910D02*
X879D01*
X861Y1893D02*
Y1928D01*
X2970Y1167D02*
X3006D01*
X2988Y1150D02*
Y1185D01*
X2970Y1067D02*
X3006D01*
X2988Y1050D02*
Y1085D01*
X2970Y1648D02*
X3006D01*
X2988Y1630D02*
Y1665D01*
X2970Y1548D02*
X3006D01*
X2988Y1530D02*
Y1565D01*
X725Y1810D02*
X761D01*
X743Y1793D02*
Y1828D01*
X725Y1910D02*
X761D01*
X743Y1893D02*
Y1928D01*
X2970Y1407D02*
X3006D01*
X2988Y1390D02*
Y1425D01*
X2970Y1307D02*
X3006D01*
X2988Y1290D02*
Y1325D01*
X2030Y1852D02*
X2065D01*
X2047Y1835D02*
Y1870D01*
X2030Y1752D02*
X2065D01*
X2047Y1735D02*
Y1770D01*
X2818Y1703D02*
X2852D01*
X2835Y1686D02*
Y1719D01*
X2518Y1703D02*
X2552D01*
X2535Y1686D02*
Y1719D01*
X703Y1041D02*
X738D01*
X720Y1024D02*
Y1059D01*
X603Y1041D02*
X638D01*
X620Y1024D02*
Y1059D01*
X503Y1041D02*
X538D01*
X520Y1024D02*
Y1059D01*
X892Y1026D02*
X927D01*
X909Y1008D02*
Y1043D01*
X892Y1126D02*
X927D01*
X909Y1108D02*
Y1143D01*
X892Y1226D02*
X927D01*
X909Y1208D02*
Y1243D01*
X2352Y1915D02*
X2388D01*
X2370Y1898D02*
Y1933D01*
X2252Y1915D02*
X2288D01*
X2270Y1898D02*
Y1933D01*
X2152Y1915D02*
X2188D01*
X2170Y1898D02*
Y1933D01*
X2474Y1915D02*
X2509D01*
X2491Y1898D02*
Y1933D01*
X2574Y1915D02*
X2609D01*
X2591Y1898D02*
Y1933D01*
X2674Y1915D02*
X2709D01*
X2691Y1898D02*
Y1933D01*
X2774Y1915D02*
X2809D01*
X2791Y1898D02*
Y1933D01*
X61Y478D02*
X96D01*
X79Y460D02*
Y495D01*
X61Y578D02*
X96D01*
X79Y560D02*
Y595D01*
X61Y678D02*
X96D01*
X79Y660D02*
Y695D01*
X61Y778D02*
X96D01*
X79Y760D02*
Y795D01*
X61Y878D02*
X96D01*
X79Y860D02*
Y895D01*
X61Y978D02*
X96D01*
X79Y960D02*
Y995D01*
X61Y1078D02*
X96D01*
X79Y1060D02*
Y1095D01*
X61Y1178D02*
X96D01*
X79Y1160D02*
Y1195D01*
X61Y1278D02*
X96D01*
X79Y1260D02*
Y1295D01*
X61Y1378D02*
X96D01*
X79Y1360D02*
Y1395D01*
X61Y1478D02*
X96D01*
X79Y1460D02*
Y1495D01*
X61Y1578D02*
X96D01*
X79Y1560D02*
Y1595D01*
X61Y1678D02*
X96D01*
X79Y1660D02*
Y1695D01*
X61Y1778D02*
X96D01*
X79Y1760D02*
Y1795D01*
X967Y1915D02*
X1002D01*
X984Y1898D02*
Y1933D01*
X967Y1815D02*
X1002D01*
X984Y1798D02*
Y1833D01*
X967Y1715D02*
X1002D01*
X984Y1698D02*
Y1733D01*
X1726Y1031D02*
X1762D01*
X1744Y1013D02*
Y1048D01*
X1726Y1131D02*
X1762D01*
X1744Y1113D02*
Y1148D01*
X2250Y1054D02*
X2285D01*
X2268Y1037D02*
Y1072D01*
X2250Y1154D02*
X2285D01*
X2268Y1137D02*
Y1172D01*
X2250Y808D02*
X2285D01*
X2268Y790D02*
Y826D01*
X2250Y708D02*
X2285D01*
X2268Y690D02*
Y726D01*
X1726Y792D02*
X1762D01*
X1744Y774D02*
Y810D01*
X1726Y692D02*
X1762D01*
X1744Y674D02*
Y710D01*
X683Y337D02*
X719D01*
X701Y319D02*
Y354D01*
X783Y337D02*
X819D01*
X801Y319D02*
Y354D01*
X883Y337D02*
X919D01*
X901Y319D02*
Y354D01*
X983Y337D02*
X1019D01*
X1001Y319D02*
Y354D01*
X2749Y1260D02*
X2763D01*
X2756Y1253D02*
Y1267D01*
X2553Y959D02*
X2581D01*
X2567Y945D02*
Y973D01*
X649Y1213D02*
X677D01*
X663Y1199D02*
Y1227D01*
X1793Y1356D02*
X1821D01*
X1807Y1342D02*
Y1370D01*
X1706Y1388D02*
X1734D01*
X1720Y1374D02*
Y1402D01*
X1573Y1368D02*
X1601D01*
X1587Y1354D02*
Y1382D01*
X1344Y1285D02*
X1372D01*
X1358Y1271D02*
Y1299D01*
X2502Y1372D02*
X2530D01*
X2516Y1358D02*
Y1386D01*
X2730Y1009D02*
X2758D01*
X2744Y995D02*
Y1023D01*
X2549Y1124D02*
X2577D01*
X2563Y1110D02*
Y1138D01*
X710Y1687D02*
X738D01*
X724Y1673D02*
Y1701D01*
X1659Y1711D02*
X1687D01*
X1673Y1697D02*
Y1725D01*
X1163Y1278D02*
X1191D01*
X1177Y1264D02*
Y1292D01*
X2482Y1762D02*
X2510D01*
X2496Y1748D02*
Y1776D01*
X159Y1482D02*
X187D01*
X173Y1468D02*
Y1496D01*
X600Y1707D02*
X628D01*
X614Y1693D02*
Y1721D01*
X1065Y1278D02*
X1093D01*
X1079Y1264D02*
Y1292D01*
X1927Y1805D02*
X1955D01*
X1941Y1791D02*
Y1819D01*
X1419Y1703D02*
X1447D01*
X1433Y1689D02*
Y1717D01*
X209Y404D02*
X335D01*
X272Y341D02*
Y467D01*
X321Y1500D02*
X429D01*
X375Y1445D02*
Y1554D01*
X321Y594D02*
X429D01*
X375Y540D02*
Y648D01*
X2605Y594D02*
X2713D01*
X2659Y540D02*
Y648D01*
X2605Y1500D02*
X2713D01*
X2659Y1445D02*
Y1554D01*
X209Y1850D02*
X335D01*
X272Y1787D02*
Y1913D01*
X2858Y406D02*
X2984D01*
X2921Y343D02*
Y469D01*
X2857Y1850D02*
X2983D01*
X2920Y1787D02*
Y1913D01*
X1167Y959D02*
X1195D01*
X1181Y945D02*
Y973D01*
X1112Y1089D02*
X1140D01*
X1126Y1075D02*
Y1103D01*
X2065Y1234D02*
X2093D01*
X2079Y1220D02*
Y1248D01*
X1951Y1234D02*
X1979D01*
X1965Y1220D02*
Y1248D01*
X1541Y514D02*
X1569D01*
X1555Y500D02*
Y528D01*
X1498Y561D02*
X1526D01*
X1512Y547D02*
Y575D01*
X1328Y533D02*
X1342D01*
X1335Y526D02*
Y540D01*
X1296Y565D02*
X1310D01*
X1303Y558D02*
Y572D01*
X1359Y565D02*
X1373D01*
X1366Y558D02*
Y572D01*
X1359Y502D02*
X1373D01*
X1366Y495D02*
Y509D01*
X1296Y502D02*
X1310D01*
X1303Y495D02*
Y509D01*
X895Y880D02*
X923D01*
X909Y866D02*
Y894D01*
X1135Y537D02*
X1149D01*
X1142Y530D02*
Y544D01*
X1332Y695D02*
X1346D01*
X1339Y688D02*
Y702D01*
X1725Y415D02*
X1739D01*
X1732Y408D02*
Y422D01*
X1662Y722D02*
X1676D01*
X1669Y715D02*
Y729D01*
X1930Y856D02*
X1944D01*
X1937Y849D02*
Y863D01*
X2111Y730D02*
X2125D01*
X2118Y723D02*
Y737D01*
X2174Y703D02*
X2188D01*
X2181Y696D02*
Y710D01*
X2111Y1089D02*
X2125D01*
X2118Y1082D02*
Y1096D01*
X1902Y1089D02*
X1916D01*
X1909Y1082D02*
Y1096D01*
X1977Y1089D02*
X1991D01*
X1984Y1082D02*
Y1096D01*
X2080Y730D02*
X2094D01*
X2087Y723D02*
Y737D01*
X2454Y1148D02*
X2468D01*
X2461Y1141D02*
Y1155D01*
X1796Y1821D02*
X1810D01*
X1803Y1814D02*
Y1828D01*
X359Y1659D02*
X373D01*
X366Y1652D02*
Y1666D01*
X210Y1522D02*
X224D01*
X217Y1515D02*
Y1529D01*
X840Y687D02*
X868D01*
X854Y673D02*
Y701D01*
X364Y1167D02*
X392D01*
X378Y1153D02*
Y1181D01*
X958Y636D02*
X972D01*
X965Y629D02*
Y643D01*
X615Y522D02*
X629D01*
X622Y515D02*
Y529D01*
X702Y762D02*
X716D01*
X709Y755D02*
Y769D01*
X958Y726D02*
X972D01*
X965Y719D02*
Y733D01*
X292Y978D02*
X306D01*
X299Y971D02*
Y985D01*
X233Y904D02*
X247D01*
X240Y897D02*
Y911D01*
X1430Y813D02*
X1444D01*
X1437Y806D02*
Y820D01*
X1174Y888D02*
X1188D01*
X1181Y881D02*
Y895D01*
X1316Y1100D02*
X1330D01*
X1323Y1093D02*
Y1107D01*
X1489Y486D02*
X1503D01*
X1496Y479D02*
Y493D01*
X1347Y321D02*
X1361D01*
X1354Y314D02*
Y328D01*
X1281Y364D02*
X1309D01*
X1295Y350D02*
Y378D01*
X2250Y1683D02*
X2278D01*
X2264Y1669D02*
Y1697D01*
X2333Y1802D02*
X2361D01*
X2347Y1788D02*
Y1816D01*
X3162Y47D02*
X3176D01*
X3169Y40D02*
Y54D01*
X3879Y48D02*
X3893D01*
X3886Y41D02*
Y55D01*
X3615Y102D02*
X3629D01*
X3622Y95D02*
Y109D01*
X3297Y331D02*
X3325D01*
X3311Y317D02*
Y345D01*
X3584Y331D02*
X3612D01*
X3598Y317D02*
Y345D01*
X3872Y331D02*
X3900D01*
X3886Y317D02*
Y345D01*
X3096Y543D02*
X3124D01*
X3110Y529D02*
Y557D01*
X3384Y543D02*
X3412D01*
X3398Y529D02*
Y557D01*
X3671Y543D02*
X3699D01*
X3685Y529D02*
Y557D01*
X3293Y760D02*
X3321D01*
X3307Y746D02*
Y774D01*
X3580Y760D02*
X3608D01*
X3594Y746D02*
Y774D01*
X3868Y760D02*
X3896D01*
X3882Y746D02*
Y774D01*
X3092Y976D02*
X3120D01*
X3106Y962D02*
Y990D01*
X3380Y976D02*
X3408D01*
X3394Y962D02*
Y990D01*
X3667Y976D02*
X3695D01*
X3681Y962D02*
Y990D01*
X3293Y1197D02*
X3321D01*
X3307Y1183D02*
Y1211D01*
X3580Y1197D02*
X3608D01*
X3594Y1183D02*
Y1211D01*
X3868Y1197D02*
X3896D01*
X3882Y1183D02*
Y1211D01*
X3092Y1409D02*
X3120D01*
X3106Y1395D02*
Y1423D01*
X3380Y1409D02*
X3408D01*
X3394Y1395D02*
Y1423D01*
X3667Y1409D02*
X3695D01*
X3681Y1395D02*
Y1423D01*
X3872Y1630D02*
X3900D01*
X3886Y1616D02*
Y1644D01*
X3584Y1630D02*
X3612D01*
X3598Y1616D02*
Y1644D01*
X3297Y1630D02*
X3325D01*
X3311Y1616D02*
Y1644D01*
X3587Y1854D02*
X3601D01*
X3594Y1847D02*
Y1861D01*
X3302Y1850D02*
X3316D01*
X3309Y1843D02*
Y1857D01*
X3304Y480D02*
X3318D01*
X3311Y473D02*
Y487D01*
X3103Y610D02*
X3117D01*
X3110Y603D02*
Y617D01*
X3304Y1781D02*
X3318D01*
X3311Y1774D02*
Y1788D01*
X3589Y1781D02*
X3603D01*
X3596Y1774D02*
Y1788D01*
X3874Y1781D02*
X3888D01*
X3881Y1774D02*
Y1788D01*
X3874Y1564D02*
X3888D01*
X3881Y1557D02*
Y1571D01*
X3589Y1564D02*
X3603D01*
X3596Y1557D02*
Y1571D01*
X3304Y1564D02*
X3318D01*
X3311Y1557D02*
Y1571D01*
X3304Y1347D02*
X3318D01*
X3311Y1340D02*
Y1354D01*
X3589Y1347D02*
X3603D01*
X3596Y1340D02*
Y1354D01*
X3874Y1347D02*
X3888D01*
X3881Y1340D02*
Y1354D01*
X3874Y1131D02*
X3888D01*
X3881Y1124D02*
Y1138D01*
X3589Y1131D02*
X3603D01*
X3596Y1124D02*
Y1138D01*
X3304Y1131D02*
X3318D01*
X3311Y1124D02*
Y1138D01*
X3304Y914D02*
X3318D01*
X3311Y907D02*
Y921D01*
X3589Y914D02*
X3603D01*
X3596Y907D02*
Y921D01*
X3874Y914D02*
X3888D01*
X3881Y907D02*
Y921D01*
X3874Y698D02*
X3888D01*
X3881Y691D02*
Y705D01*
X3589Y698D02*
X3603D01*
X3596Y691D02*
Y705D01*
X3304Y698D02*
X3318D01*
X3311Y691D02*
Y705D01*
X3589Y481D02*
X3603D01*
X3596Y474D02*
Y488D01*
X3874Y481D02*
X3888D01*
X3881Y474D02*
Y488D01*
X3874Y265D02*
X3888D01*
X3881Y258D02*
Y272D01*
X3589Y265D02*
X3603D01*
X3596Y258D02*
Y272D01*
X3304Y265D02*
X3318D01*
X3311Y258D02*
Y272D01*
X3589Y48D02*
X3603D01*
X3596Y41D02*
Y55D01*
X3304Y48D02*
X3318D01*
X3311Y41D02*
Y55D01*
X3389Y178D02*
X3403D01*
X3396Y171D02*
Y185D01*
X3104Y178D02*
X3118D01*
X3111Y171D02*
Y185D01*
X3104Y395D02*
X3118D01*
X3111Y388D02*
Y402D01*
X3389Y395D02*
X3403D01*
X3396Y388D02*
Y402D01*
X3674Y178D02*
X3688D01*
X3681Y171D02*
Y185D01*
X3674Y395D02*
X3688D01*
X3681Y388D02*
Y402D01*
X3674Y611D02*
X3688D01*
X3681Y604D02*
Y618D01*
X3389Y611D02*
X3403D01*
X3396Y604D02*
Y618D01*
X3104Y828D02*
X3118D01*
X3111Y821D02*
Y835D01*
X3389Y828D02*
X3403D01*
X3396Y821D02*
Y835D01*
X3674Y828D02*
X3688D01*
X3681Y821D02*
Y835D01*
X3674Y1044D02*
X3688D01*
X3681Y1037D02*
Y1051D01*
X3389Y1044D02*
X3403D01*
X3396Y1037D02*
Y1051D01*
X3104Y1044D02*
X3118D01*
X3111Y1037D02*
Y1051D01*
X3104Y1261D02*
X3118D01*
X3111Y1254D02*
Y1268D01*
X3389Y1261D02*
X3403D01*
X3396Y1254D02*
Y1268D01*
X3674Y1261D02*
X3688D01*
X3681Y1254D02*
Y1268D01*
X3674Y1477D02*
X3688D01*
X3681Y1470D02*
Y1484D01*
X3389Y1477D02*
X3403D01*
X3396Y1470D02*
Y1484D01*
X3104Y1477D02*
X3118D01*
X3111Y1470D02*
Y1484D01*
X3104Y1694D02*
X3118D01*
X3111Y1687D02*
Y1701D01*
X3389Y1694D02*
X3403D01*
X3396Y1687D02*
Y1701D01*
X3674Y1694D02*
X3688D01*
X3681Y1687D02*
Y1701D01*
X3674Y1911D02*
X3688D01*
X3681Y1904D02*
Y1918D01*
X3389Y1911D02*
X3403D01*
X3396Y1904D02*
Y1918D01*
X3104Y1911D02*
X3118D01*
X3111Y1904D02*
Y1918D01*
X3800Y1909D02*
X3814D01*
X3807Y1902D02*
Y1916D01*
X3391Y108D02*
X3405D01*
X3398Y101D02*
Y115D01*
X162Y75D02*
X176D01*
X169Y68D02*
Y82D01*
X438Y75D02*
X452D01*
X445Y68D02*
Y82D01*
X721Y75D02*
X735D01*
X728Y68D02*
Y82D01*
X1017Y75D02*
X1031D01*
X1024Y68D02*
Y82D01*
X1304Y75D02*
X1318D01*
X1311Y68D02*
Y82D01*
X1587Y75D02*
X1601D01*
X1594Y68D02*
Y82D01*
X1875Y75D02*
X1889D01*
X1882Y68D02*
Y82D01*
X2158Y75D02*
X2172D01*
X2165Y68D02*
Y82D01*
X2446Y75D02*
X2460D01*
X2453Y68D02*
Y82D01*
X2725Y75D02*
X2739D01*
X2732Y68D02*
Y82D01*
X2721Y197D02*
X2735D01*
X2728Y190D02*
Y204D01*
X2446Y197D02*
X2460D01*
X2453Y190D02*
Y204D01*
X2158Y197D02*
X2172D01*
X2165Y190D02*
Y204D01*
X1871Y197D02*
X1885D01*
X1878Y190D02*
Y204D01*
X1584Y197D02*
X1598D01*
X1591Y190D02*
Y204D01*
X1304Y197D02*
X1318D01*
X1311Y190D02*
Y204D01*
X1017Y197D02*
X1031D01*
X1024Y190D02*
Y204D01*
X434Y197D02*
X448D01*
X441Y190D02*
Y204D01*
X158Y197D02*
X172D01*
X165Y190D02*
Y204D01*
X721Y197D02*
X735D01*
X728Y190D02*
Y204D01*
X2729Y138D02*
X2743D01*
X2736Y131D02*
Y145D01*
X150Y138D02*
X164D01*
X157Y131D02*
Y145D01*
M02*
