G04 Layer_Color=8421504*
%FSLAX23Y23*%
%MOIN*%
G70*
G01*
G75*
%ADD10R,0.067X0.043*%
%ADD11O,0.016X0.051*%
%ADD12R,0.016X0.051*%
G04:AMPARAMS|DCode=13|XSize=118mil|YSize=71mil|CornerRadius=18mil|HoleSize=0mil|Usage=FLASHONLY|Rotation=180.000|XOffset=0mil|YOffset=0mil|HoleType=Round|Shape=RoundedRectangle|*
%AMROUNDEDRECTD13*
21,1,0.118,0.035,0,0,180.0*
21,1,0.083,0.071,0,0,180.0*
1,1,0.035,-0.041,0.018*
1,1,0.035,0.041,0.018*
1,1,0.035,0.041,-0.018*
1,1,0.035,-0.041,-0.018*
%
%ADD13ROUNDEDRECTD13*%
%ADD14R,0.118X0.071*%
%ADD15R,0.039X0.024*%
G04:AMPARAMS|DCode=16|XSize=24mil|YSize=39mil|CornerRadius=6mil|HoleSize=0mil|Usage=FLASHONLY|Rotation=90.000|XOffset=0mil|YOffset=0mil|HoleType=Round|Shape=RoundedRectangle|*
%AMROUNDEDRECTD16*
21,1,0.024,0.028,0,0,90.0*
21,1,0.012,0.039,0,0,90.0*
1,1,0.012,0.014,0.006*
1,1,0.012,0.014,-0.006*
1,1,0.012,-0.014,-0.006*
1,1,0.012,-0.014,0.006*
%
%ADD16ROUNDEDRECTD16*%
%ADD17O,0.087X0.024*%
%ADD18R,0.087X0.024*%
%ADD19O,0.024X0.087*%
%ADD20R,0.024X0.087*%
%ADD21R,0.043X0.067*%
%ADD22R,0.043X0.055*%
%ADD23R,0.055X0.043*%
G04:AMPARAMS|DCode=24|XSize=12mil|YSize=51mil|CornerRadius=0mil|HoleSize=0mil|Usage=FLASHONLY|Rotation=0.000|XOffset=0mil|YOffset=0mil|HoleType=Round|Shape=Octagon|*
%AMOCTAGOND24*
4,1,8,-0.003,0.026,0.003,0.026,0.006,0.023,0.006,-0.023,0.003,-0.026,-0.003,-0.026,-0.006,-0.023,-0.006,0.023,-0.003,0.026,0.0*
%
%ADD24OCTAGOND24*%

%ADD25O,0.012X0.051*%
%ADD26O,0.051X0.012*%
%ADD27R,0.106X0.106*%
%ADD31R,0.067X0.039*%
%ADD32R,0.067X0.039*%
G04:AMPARAMS|DCode=33|XSize=67mil|YSize=39mil|CornerRadius=10mil|HoleSize=0mil|Usage=FLASHONLY|Rotation=180.000|XOffset=0mil|YOffset=0mil|HoleType=Round|Shape=RoundedRectangle|*
%AMROUNDEDRECTD33*
21,1,0.067,0.020,0,0,180.0*
21,1,0.047,0.039,0,0,180.0*
1,1,0.020,-0.024,0.010*
1,1,0.020,0.024,0.010*
1,1,0.020,0.024,-0.010*
1,1,0.020,-0.024,-0.010*
%
%ADD33ROUNDEDRECTD33*%
D10*
X2445Y980D02*
D03*
Y874D02*
D03*
D11*
X2116Y1030D02*
D03*
X2091D02*
D03*
X2065D02*
D03*
X2039D02*
D03*
X2014D02*
D03*
X1988D02*
D03*
X1963D02*
D03*
X1937D02*
D03*
X1911D02*
D03*
X1886D02*
D03*
X2116Y789D02*
D03*
X2091D02*
D03*
X2065D02*
D03*
X2039D02*
D03*
X2014D02*
D03*
X1988D02*
D03*
X1963D02*
D03*
X1937D02*
D03*
X1911D02*
D03*
D12*
X1886D02*
D03*
D13*
X614Y1856D02*
D03*
D14*
X441D02*
D03*
D15*
X506Y1291D02*
D03*
X612Y1328D02*
D03*
X690Y1291D02*
D03*
X797Y1328D02*
D03*
D16*
X612Y1253D02*
D03*
X797D02*
D03*
D17*
X2665Y1309D02*
D03*
Y1259D02*
D03*
Y1209D02*
D03*
Y1159D02*
D03*
Y1109D02*
D03*
Y1059D02*
D03*
Y1009D02*
D03*
X2870Y1309D02*
D03*
Y1259D02*
D03*
Y1209D02*
D03*
Y1159D02*
D03*
Y1109D02*
D03*
Y1059D02*
D03*
D18*
Y1009D02*
D03*
D19*
X1803Y1699D02*
D03*
X1853D02*
D03*
X1903D02*
D03*
X1953D02*
D03*
X1803Y1904D02*
D03*
X1853D02*
D03*
X1903D02*
D03*
D20*
X1953D02*
D03*
D21*
X2470Y1211D02*
D03*
X2577D02*
D03*
X2470Y1301D02*
D03*
X2577D02*
D03*
X604Y1144D02*
D03*
X498D02*
D03*
X663D02*
D03*
X770D02*
D03*
X1612Y573D02*
D03*
X1719D02*
D03*
X1612Y490D02*
D03*
X1719D02*
D03*
D22*
X494Y443D02*
D03*
X553D02*
D03*
X1671Y415D02*
D03*
X1612D02*
D03*
X1671Y648D02*
D03*
X1612D02*
D03*
X1553Y415D02*
D03*
X1494D02*
D03*
X1553Y648D02*
D03*
X1494D02*
D03*
X1951Y715D02*
D03*
X1892D02*
D03*
X1880Y644D02*
D03*
X1821D02*
D03*
D23*
X1823Y728D02*
D03*
Y787D02*
D03*
X1827Y1024D02*
D03*
Y1083D02*
D03*
X2185Y1051D02*
D03*
Y992D02*
D03*
X2181Y752D02*
D03*
Y811D02*
D03*
D24*
X1374Y619D02*
D03*
D25*
X1354D02*
D03*
X1335D02*
D03*
X1315D02*
D03*
X1295D02*
D03*
Y448D02*
D03*
X1315D02*
D03*
X1335D02*
D03*
X1354D02*
D03*
X1374D02*
D03*
D26*
X1249Y573D02*
D03*
Y553D02*
D03*
Y533D02*
D03*
Y514D02*
D03*
Y494D02*
D03*
X1420D02*
D03*
Y514D02*
D03*
Y533D02*
D03*
Y553D02*
D03*
Y573D02*
D03*
D27*
X1335Y533D02*
D03*
D31*
X3681Y1261D02*
D03*
X3881D02*
D03*
X3681Y1044D02*
D03*
X3881D02*
D03*
X3681Y828D02*
D03*
X3881D02*
D03*
X3681Y611D02*
D03*
X3881D02*
D03*
X3681Y395D02*
D03*
X3881D02*
D03*
X3681Y178D02*
D03*
X3881D02*
D03*
X3396Y1911D02*
D03*
X3596D02*
D03*
X3396Y1694D02*
D03*
X3596D02*
D03*
X3396Y1477D02*
D03*
X3596D02*
D03*
X3396Y1261D02*
D03*
X3596D02*
D03*
X3396Y1044D02*
D03*
X3596D02*
D03*
X3396Y828D02*
D03*
X3596D02*
D03*
X3396Y611D02*
D03*
X3596D02*
D03*
X3396Y395D02*
D03*
X3596D02*
D03*
X3396Y178D02*
D03*
X3596D02*
D03*
X3111Y1911D02*
D03*
X3311D02*
D03*
X3111Y1694D02*
D03*
X3311D02*
D03*
X3111Y1477D02*
D03*
X3311D02*
D03*
X3111Y1261D02*
D03*
X3311D02*
D03*
X3111Y1044D02*
D03*
X3311D02*
D03*
X3111Y828D02*
D03*
X3311D02*
D03*
X3111Y611D02*
D03*
X3311D02*
D03*
X3111Y395D02*
D03*
X3311D02*
D03*
X3111Y178D02*
D03*
X3311D02*
D03*
X3681Y1911D02*
D03*
X3881D02*
D03*
X3681Y1694D02*
D03*
X3881D02*
D03*
X3681Y1477D02*
D03*
X3881D02*
D03*
X2640Y204D02*
D03*
X2840D02*
D03*
X2353D02*
D03*
X2553D02*
D03*
X2065D02*
D03*
X2265D02*
D03*
X1778D02*
D03*
X1978D02*
D03*
X1491D02*
D03*
X1691D02*
D03*
X1203D02*
D03*
X1403D02*
D03*
X916D02*
D03*
X1116D02*
D03*
X628D02*
D03*
X828D02*
D03*
X341D02*
D03*
X541D02*
D03*
X54D02*
D03*
X254D02*
D03*
D32*
X3681Y1131D02*
D03*
Y914D02*
D03*
Y698D02*
D03*
Y481D02*
D03*
Y265D02*
D03*
Y48D02*
D03*
X3396Y1781D02*
D03*
Y1564D02*
D03*
Y1347D02*
D03*
Y1131D02*
D03*
Y914D02*
D03*
Y698D02*
D03*
Y481D02*
D03*
Y265D02*
D03*
Y48D02*
D03*
X3111Y1781D02*
D03*
Y1564D02*
D03*
Y1347D02*
D03*
Y1131D02*
D03*
Y914D02*
D03*
Y698D02*
D03*
Y481D02*
D03*
Y265D02*
D03*
Y48D02*
D03*
X3681Y1781D02*
D03*
Y1564D02*
D03*
Y1347D02*
D03*
X2640Y74D02*
D03*
X2353D02*
D03*
X2065D02*
D03*
X1778D02*
D03*
X1491D02*
D03*
X1203D02*
D03*
X916D02*
D03*
X628D02*
D03*
X341D02*
D03*
X54D02*
D03*
D33*
X3881Y1131D02*
D03*
Y914D02*
D03*
Y698D02*
D03*
Y481D02*
D03*
Y265D02*
D03*
Y48D02*
D03*
X3596Y1781D02*
D03*
Y1564D02*
D03*
Y1347D02*
D03*
Y1131D02*
D03*
Y914D02*
D03*
Y698D02*
D03*
Y481D02*
D03*
Y265D02*
D03*
Y48D02*
D03*
X3311Y1781D02*
D03*
Y1564D02*
D03*
Y1347D02*
D03*
Y1131D02*
D03*
Y914D02*
D03*
Y698D02*
D03*
Y481D02*
D03*
Y265D02*
D03*
Y48D02*
D03*
X3881Y1781D02*
D03*
Y1564D02*
D03*
Y1347D02*
D03*
X2840Y74D02*
D03*
X2553D02*
D03*
X2265D02*
D03*
X1978D02*
D03*
X1691D02*
D03*
X1403D02*
D03*
X1116D02*
D03*
X828D02*
D03*
X541D02*
D03*
X254D02*
D03*
M02*
