G04 Layer_Color=16711935*
%FSLAX23Y23*%
%MOIN*%
G70*
G01*
G75*
%ADD28C,0.010*%
%ADD104C,0.004*%
D28*
X0Y1969D02*
X3937D01*
Y0D02*
Y1969D01*
X0Y0D02*
X3937D01*
X0D02*
Y1969D01*
D104*
X1413Y593D02*
G03*
X1413Y593I-20J0D01*
G01*
X2480Y860D02*
Y994D01*
X2409Y860D02*
Y994D01*
X2480D01*
X2409Y860D02*
X2480D01*
X2457Y1246D02*
X2591D01*
X2457Y1175D02*
X2591D01*
X2457D02*
Y1246D01*
X2591Y1175D02*
Y1246D01*
X2457Y1337D02*
X2591D01*
X2457Y1266D02*
X2591D01*
X2457D02*
Y1337D01*
X2591Y1266D02*
Y1337D01*
X2776Y1305D02*
Y1439D01*
X2846Y1305D02*
Y1439D01*
X2776D02*
X2846D01*
X2776Y1305D02*
X2846D01*
X2929D02*
Y1439D01*
X2858Y1305D02*
Y1439D01*
Y1305D02*
X2929D01*
X2858Y1439D02*
X2929D01*
X2626Y1703D02*
Y1837D01*
X2697Y1703D02*
Y1837D01*
X2626D02*
X2697D01*
X2626Y1703D02*
X2697D01*
X2783D02*
Y1837D01*
X2713Y1703D02*
Y1837D01*
Y1703D02*
X2783D01*
X2713Y1837D02*
X2783D01*
X480Y471D02*
X567D01*
X480Y414D02*
X567D01*
X480D02*
Y471D01*
X567Y414D02*
Y471D01*
X484Y1108D02*
X618D01*
X484Y1179D02*
X618D01*
Y1108D02*
Y1179D01*
X484Y1108D02*
Y1179D01*
X650Y1179D02*
X783D01*
X650Y1108D02*
X783D01*
X650D02*
Y1179D01*
X783Y1108D02*
Y1179D01*
X2157Y1715D02*
Y1848D01*
X2228Y1715D02*
Y1848D01*
X2157D02*
X2228D01*
X2157Y1715D02*
X2228D01*
X1823Y1770D02*
X1957D01*
X1823Y1699D02*
X1957D01*
Y1770D01*
X1823Y1699D02*
Y1770D01*
X484Y1806D02*
X571D01*
X484Y1749D02*
X571D01*
Y1806D01*
X484Y1749D02*
Y1806D01*
X282Y1659D02*
Y1746D01*
X340Y1659D02*
Y1746D01*
X282D02*
X340D01*
X282Y1659D02*
X340D01*
X157Y1552D02*
X244D01*
X157Y1609D02*
X244D01*
X157Y1552D02*
Y1609D01*
X244Y1552D02*
Y1609D01*
X1794Y715D02*
Y801D01*
X1851Y715D02*
Y801D01*
X1794Y715D02*
X1851D01*
X1794Y801D02*
X1851D01*
X1798Y1010D02*
Y1096D01*
X1855Y1010D02*
Y1096D01*
X1798Y1010D02*
X1855D01*
X1798Y1096D02*
X1855D01*
X2214Y978D02*
Y1065D01*
X2156Y978D02*
Y1065D01*
X2214D01*
X2156Y978D02*
X2214D01*
X2153Y738D02*
Y825D01*
X2210Y738D02*
Y825D01*
X2153Y738D02*
X2210D01*
X2153Y825D02*
X2210D01*
X1598Y608D02*
X1732D01*
X1598Y537D02*
X1732D01*
X1598D02*
Y608D01*
X1732Y537D02*
Y608D01*
X1598Y526D02*
X1732D01*
X1598Y455D02*
X1732D01*
X1598D02*
Y526D01*
X1732Y455D02*
Y526D01*
X1598Y387D02*
X1685D01*
X1598Y444D02*
X1685D01*
Y387D02*
Y444D01*
X1598Y387D02*
Y444D01*
Y619D02*
X1685D01*
X1598Y676D02*
X1685D01*
Y619D02*
Y676D01*
X1598Y619D02*
Y676D01*
X1480Y387D02*
X1567D01*
X1480Y444D02*
X1567D01*
Y387D02*
Y444D01*
X1480Y387D02*
Y444D01*
Y619D02*
X1567D01*
X1480Y676D02*
X1567D01*
Y619D02*
Y676D01*
X1480Y619D02*
Y676D01*
X1878Y686D02*
X1965D01*
X1878Y743D02*
X1965D01*
Y686D02*
Y743D01*
X1878Y686D02*
Y743D01*
X1807Y615D02*
X1894D01*
X1807Y672D02*
X1894D01*
Y615D02*
Y672D01*
X1807Y615D02*
Y672D01*
X1240Y628D02*
X1429D01*
X1240Y439D02*
X1429D01*
Y628D01*
X1240Y439D02*
Y628D01*
X3717Y1720D02*
X3850D01*
X3717Y1650D02*
X3850D01*
Y1720D01*
X3717Y1650D02*
Y1720D01*
X3720Y1823D02*
X3854D01*
X3720Y1752D02*
X3854D01*
Y1823D01*
X3720Y1752D02*
Y1823D01*
Y1504D02*
X3854D01*
X3720Y1433D02*
X3854D01*
Y1504D01*
X3720Y1433D02*
Y1504D01*
X3146Y1661D02*
Y1732D01*
X3280Y1661D02*
Y1732D01*
X3146Y1661D02*
X3280D01*
X3146Y1732D02*
X3280D01*
X3146Y1445D02*
Y1516D01*
X3280Y1445D02*
Y1516D01*
X3146Y1445D02*
X3280D01*
X3146Y1516D02*
X3280D01*
X3433Y1008D02*
Y1079D01*
X3567Y1008D02*
Y1079D01*
X3433Y1008D02*
X3567D01*
X3433Y1079D02*
X3567D01*
X3146Y1004D02*
Y1075D01*
X3280Y1004D02*
Y1075D01*
X3146Y1004D02*
X3280D01*
X3146Y1075D02*
X3280D01*
X3433Y791D02*
Y862D01*
X3567Y791D02*
Y862D01*
X3433Y791D02*
X3567D01*
X3433Y862D02*
X3567D01*
X3720Y1004D02*
Y1075D01*
X3854Y1004D02*
Y1075D01*
X3720Y1004D02*
X3854D01*
X3720Y1075D02*
X3854D01*
X3437Y1437D02*
Y1508D01*
X3571Y1437D02*
Y1508D01*
X3437Y1437D02*
X3571D01*
X3437Y1508D02*
X3571D01*
X3441Y1224D02*
Y1295D01*
X3575Y1224D02*
Y1295D01*
X3441Y1224D02*
X3575D01*
X3441Y1295D02*
X3575D01*
X3146Y1228D02*
Y1299D01*
X3280Y1228D02*
Y1299D01*
X3146Y1228D02*
X3280D01*
X3146Y1299D02*
X3280D01*
X3146Y791D02*
Y862D01*
X3280Y791D02*
Y862D01*
X3146Y791D02*
X3280D01*
X3146Y862D02*
X3280D01*
X3441Y567D02*
Y638D01*
X3575Y567D02*
Y638D01*
X3441Y567D02*
X3575D01*
X3441Y638D02*
X3575D01*
X3429Y350D02*
Y421D01*
X3563Y350D02*
Y421D01*
X3429Y350D02*
X3563D01*
X3429Y421D02*
X3563D01*
X3146Y567D02*
Y638D01*
X3280Y567D02*
Y638D01*
X3146Y567D02*
X3280D01*
X3146Y638D02*
X3280D01*
X3146Y350D02*
Y421D01*
X3280Y350D02*
Y421D01*
X3146Y350D02*
X3280D01*
X3146Y421D02*
X3280D01*
X3429Y157D02*
Y228D01*
X3563Y157D02*
Y228D01*
X3429Y157D02*
X3563D01*
X3429Y228D02*
X3563D01*
X3146Y1772D02*
Y1843D01*
X3280Y1772D02*
Y1843D01*
X3146Y1772D02*
X3280D01*
X3146Y1843D02*
X3280D01*
X3720Y1228D02*
Y1299D01*
X3854Y1228D02*
Y1299D01*
X3720Y1228D02*
X3854D01*
X3720Y1299D02*
X3854D01*
X3720Y795D02*
Y866D01*
X3854Y795D02*
Y866D01*
X3720Y795D02*
X3854D01*
X3720Y866D02*
X3854D01*
X3720Y567D02*
Y638D01*
X3854Y567D02*
Y638D01*
X3720Y567D02*
X3854D01*
X3720Y638D02*
X3854D01*
X3724Y358D02*
Y429D01*
X3858Y358D02*
Y429D01*
X3724Y358D02*
X3858D01*
X3724Y429D02*
X3858D01*
X3724Y142D02*
Y213D01*
X3858Y142D02*
Y213D01*
X3724Y142D02*
X3858D01*
X3724Y213D02*
X3858D01*
X3437Y1752D02*
Y1823D01*
X3571Y1752D02*
Y1823D01*
X3437Y1752D02*
X3571D01*
X3437Y1823D02*
X3571D01*
X3433Y1646D02*
Y1717D01*
X3567Y1646D02*
Y1717D01*
X3433Y1646D02*
X3567D01*
X3433Y1717D02*
X3567D01*
X3146Y138D02*
Y209D01*
X3280Y138D02*
Y209D01*
X3146Y138D02*
X3280D01*
X3146Y209D02*
X3280D01*
X1780Y201D02*
X1850D01*
X1780Y67D02*
X1850D01*
X1780D02*
Y201D01*
X1850Y67D02*
Y201D01*
X2063D02*
X2134D01*
X2063Y67D02*
X2134D01*
X2063D02*
Y201D01*
X2134Y67D02*
Y201D01*
X2358D02*
X2429D01*
X2358Y67D02*
X2429D01*
X2358D02*
Y201D01*
X2429Y67D02*
Y201D01*
X2634Y209D02*
X2705D01*
X2634Y75D02*
X2705D01*
X2634D02*
Y209D01*
X2705Y75D02*
Y209D01*
X768D02*
X839D01*
X768Y75D02*
X839D01*
X768D02*
Y209D01*
X839Y75D02*
Y209D01*
X469D02*
X539D01*
X469Y75D02*
X539D01*
X469D02*
Y209D01*
X539Y75D02*
Y209D01*
X1055Y205D02*
X1126D01*
X1055Y71D02*
X1126D01*
X1055D02*
Y205D01*
X1126Y71D02*
Y205D01*
X209Y209D02*
X280D01*
X209Y75D02*
X280D01*
X209D02*
Y209D01*
X280Y75D02*
Y209D01*
X1657Y205D02*
X1728D01*
X1657Y71D02*
X1728D01*
X1657D02*
Y205D01*
X1728Y71D02*
Y205D01*
X1173Y201D02*
X1244D01*
X1173Y67D02*
X1244D01*
X1173D02*
Y201D01*
X1244Y67D02*
Y201D01*
M02*
