G04 Layer_Color=2752767*
%FSLAX23Y23*%
%MOIN*%
G70*
G01*
G75*
%ADD106C,0.002*%
%ADD107C,0.003*%
D106*
X570Y1848D02*
Y1864D01*
X586D01*
Y1848D01*
X570D01*
X470D02*
Y1864D01*
X486D01*
Y1848D01*
X470D01*
X2471Y1570D02*
Y1586D01*
X2487D01*
Y1570D01*
X2471D01*
Y1470D02*
Y1486D01*
X2487D01*
Y1470D01*
X2471D01*
X2371Y1570D02*
Y1586D01*
X2387D01*
Y1570D01*
X2371D01*
Y1470D02*
Y1486D01*
X2387D01*
Y1470D01*
X2371D01*
X2271Y1570D02*
Y1586D01*
X2287D01*
Y1570D01*
X2271D01*
Y1470D02*
Y1486D01*
X2287D01*
Y1470D01*
X2271D01*
X2171Y1570D02*
Y1586D01*
X2187D01*
Y1570D01*
X2171D01*
Y1470D02*
Y1486D01*
X2187D01*
Y1470D01*
X2171D01*
X2071Y1570D02*
Y1586D01*
X2087D01*
Y1570D01*
X2071D01*
Y1470D02*
Y1486D01*
X2087D01*
Y1470D01*
X2071D01*
X1971Y1570D02*
Y1586D01*
X1987D01*
Y1570D01*
X1971D01*
Y1470D02*
Y1486D01*
X1987D01*
Y1470D01*
X1971D01*
X1871Y1570D02*
Y1586D01*
X1887D01*
Y1570D01*
X1871D01*
Y1470D02*
Y1486D01*
X1887D01*
Y1470D01*
X1871D01*
X1771Y1570D02*
Y1586D01*
X1787D01*
Y1570D01*
X1771D01*
Y1470D02*
Y1486D01*
X1787D01*
Y1470D01*
X1771D01*
X1671Y1570D02*
Y1586D01*
X1687D01*
Y1570D01*
X1671D01*
Y1470D02*
Y1486D01*
X1687D01*
Y1470D01*
X1671D01*
X1571Y1570D02*
Y1586D01*
X1587D01*
Y1570D01*
X1571D01*
Y1470D02*
Y1486D01*
X1587D01*
Y1470D01*
X1571D01*
X1471Y1570D02*
Y1586D01*
X1487D01*
Y1570D01*
X1471D01*
Y1470D02*
Y1486D01*
X1487D01*
Y1470D01*
X1471D01*
X1371Y1570D02*
Y1586D01*
X1387D01*
Y1570D01*
X1371D01*
Y1470D02*
Y1486D01*
X1387D01*
Y1470D01*
X1371D01*
X1271Y1570D02*
Y1586D01*
X1287D01*
Y1570D01*
X1271D01*
Y1470D02*
Y1486D01*
X1287D01*
Y1470D01*
X1271D01*
X1171Y1570D02*
Y1586D01*
X1187D01*
Y1570D01*
X1171D01*
Y1470D02*
Y1486D01*
X1187D01*
Y1470D01*
X1171D01*
X1071Y1570D02*
Y1586D01*
X1087D01*
Y1570D01*
X1071D01*
Y1470D02*
Y1486D01*
X1087D01*
Y1470D01*
X1071D01*
X971Y1570D02*
Y1586D01*
X987D01*
Y1570D01*
X971D01*
Y1470D02*
Y1486D01*
X987D01*
Y1470D01*
X971D01*
X871Y1570D02*
Y1586D01*
X887D01*
Y1570D01*
X871D01*
Y1470D02*
Y1486D01*
X887D01*
Y1470D01*
X871D01*
X771Y1570D02*
Y1586D01*
X787D01*
Y1570D01*
X771D01*
Y1470D02*
Y1486D01*
X787D01*
Y1470D01*
X771D01*
X671Y1570D02*
Y1586D01*
X687D01*
Y1570D01*
X671D01*
Y1470D02*
Y1486D01*
X687D01*
Y1470D01*
X671D01*
X571Y1570D02*
Y1586D01*
X587D01*
Y1570D01*
X571D01*
Y1470D02*
Y1486D01*
X587D01*
Y1470D01*
X571D01*
X460Y334D02*
Y350D01*
X476D01*
Y334D01*
X460D01*
X560D02*
Y350D01*
X576D01*
Y334D01*
X560D01*
X853Y1802D02*
Y1818D01*
X869D01*
Y1802D01*
X853D01*
Y1902D02*
Y1918D01*
X869D01*
Y1902D01*
X853D01*
X2980Y1159D02*
Y1175D01*
X2996D01*
Y1159D01*
X2980D01*
Y1059D02*
Y1075D01*
X2996D01*
Y1059D01*
X2980D01*
X2980Y1640D02*
Y1656D01*
X2996D01*
Y1640D01*
X2980D01*
Y1540D02*
Y1556D01*
X2996D01*
Y1540D01*
X2980D01*
X735Y1802D02*
Y1818D01*
X751D01*
Y1802D01*
X735D01*
Y1902D02*
Y1918D01*
X751D01*
Y1902D01*
X735D01*
X2980Y1399D02*
Y1415D01*
X2996D01*
Y1399D01*
X2980D01*
Y1299D02*
Y1315D01*
X2996D01*
Y1299D01*
X2980D01*
X2039Y1844D02*
Y1860D01*
X2055D01*
Y1844D01*
X2039D01*
Y1744D02*
Y1760D01*
X2055D01*
Y1744D01*
X2039D01*
X712Y1033D02*
Y1049D01*
X728D01*
Y1033D01*
X712D01*
X612D02*
Y1049D01*
X628D01*
Y1033D01*
X612D01*
X512D02*
Y1049D01*
X528D01*
Y1033D01*
X512D01*
X901Y1018D02*
Y1034D01*
X917D01*
Y1018D01*
X901D01*
Y1118D02*
Y1134D01*
X917D01*
Y1118D01*
X901D01*
Y1218D02*
Y1234D01*
X917D01*
Y1218D01*
X901D01*
X2362Y1907D02*
Y1923D01*
X2378D01*
Y1907D01*
X2362D01*
X2262D02*
Y1923D01*
X2278D01*
Y1907D01*
X2262D01*
X2162D02*
Y1923D01*
X2178D01*
Y1907D01*
X2162D01*
X2483D02*
Y1923D01*
X2499D01*
Y1907D01*
X2483D01*
X2583D02*
Y1923D01*
X2599D01*
Y1907D01*
X2583D01*
X2683D02*
Y1923D01*
X2699D01*
Y1907D01*
X2683D01*
X2783D02*
Y1923D01*
X2799D01*
Y1907D01*
X2783D01*
X71Y470D02*
Y486D01*
X87D01*
Y470D01*
X71D01*
Y570D02*
Y586D01*
X87D01*
Y570D01*
X71D01*
Y670D02*
Y686D01*
X87D01*
Y670D01*
X71D01*
Y770D02*
Y786D01*
X87D01*
Y770D01*
X71D01*
Y870D02*
Y886D01*
X87D01*
Y870D01*
X71D01*
Y970D02*
Y986D01*
X87D01*
Y970D01*
X71D01*
Y1070D02*
Y1086D01*
X87D01*
Y1070D01*
X71D01*
Y1170D02*
Y1186D01*
X87D01*
Y1170D01*
X71D01*
Y1270D02*
Y1286D01*
X87D01*
Y1270D01*
X71D01*
Y1370D02*
Y1386D01*
X87D01*
Y1370D01*
X71D01*
Y1470D02*
Y1486D01*
X87D01*
Y1470D01*
X71D01*
Y1570D02*
Y1586D01*
X87D01*
Y1570D01*
X71D01*
Y1670D02*
Y1686D01*
X87D01*
Y1670D01*
X71D01*
Y1770D02*
Y1786D01*
X87D01*
Y1770D01*
X71D01*
X976Y1907D02*
Y1923D01*
X992D01*
Y1907D01*
X976D01*
Y1807D02*
Y1823D01*
X992D01*
Y1807D01*
X976D01*
Y1707D02*
Y1723D01*
X992D01*
Y1707D01*
X976D01*
X1736Y1023D02*
Y1039D01*
X1752D01*
Y1023D01*
X1736D01*
Y1123D02*
Y1139D01*
X1752D01*
Y1123D01*
X1736D01*
X2260Y1046D02*
Y1062D01*
X2276D01*
Y1046D01*
X2260D01*
Y1146D02*
Y1162D01*
X2276D01*
Y1146D01*
X2260D01*
Y800D02*
Y816D01*
X2276D01*
Y800D01*
X2260D01*
Y700D02*
Y716D01*
X2276D01*
Y700D01*
X2260D01*
X1736Y784D02*
Y800D01*
X1752D01*
Y784D01*
X1736D01*
Y684D02*
Y700D01*
X1752D01*
Y684D01*
X1736D01*
X693Y329D02*
Y345D01*
X709D01*
Y329D01*
X693D01*
X793D02*
Y345D01*
X809D01*
Y329D01*
X793D01*
X893D02*
Y345D01*
X909D01*
Y329D01*
X893D01*
X993D02*
Y345D01*
X1009D01*
Y329D01*
X993D01*
X2567Y951D02*
X2559Y967D01*
X2575D01*
X2567Y951D01*
X663Y1205D02*
X655Y1221D01*
X671D01*
X663Y1205D01*
X1807Y1348D02*
X1799Y1364D01*
X1815D01*
X1807Y1348D01*
X1720Y1380D02*
X1712Y1396D01*
X1728D01*
X1720Y1380D01*
X1587Y1360D02*
X1579Y1376D01*
X1595D01*
X1587Y1360D01*
X1358Y1277D02*
X1350Y1293D01*
X1366D01*
X1358Y1277D01*
X2516Y1364D02*
X2508Y1380D01*
X2524D01*
X2516Y1364D01*
X2744Y1001D02*
X2736Y1017D01*
X2752D01*
X2744Y1001D01*
X2563Y1116D02*
X2555Y1132D01*
X2571D01*
X2563Y1116D01*
X724Y1679D02*
X716Y1695D01*
X732D01*
X724Y1679D01*
X1673Y1703D02*
X1665Y1719D01*
X1681D01*
X1673Y1703D01*
X1177Y1270D02*
X1169Y1286D01*
X1185D01*
X1177Y1270D01*
X2496Y1754D02*
X2488Y1770D01*
X2504D01*
X2496Y1754D01*
X173Y1474D02*
X165Y1490D01*
X181D01*
X173Y1474D01*
X614Y1699D02*
X606Y1715D01*
X622D01*
X614Y1699D01*
X1079Y1270D02*
X1071Y1286D01*
X1087D01*
X1079Y1270D01*
X1941Y1797D02*
X1933Y1813D01*
X1949D01*
X1941Y1797D01*
X1433Y1695D02*
X1425Y1711D01*
X1441D01*
X1433Y1695D01*
X272Y396D02*
X276Y400D01*
X280D01*
X276Y404D01*
X280Y408D01*
X276D01*
X272Y412D01*
X268Y408D01*
X264D01*
X268Y404D01*
X264Y400D01*
X268D01*
X272Y396D01*
X367Y1492D02*
X371Y1500D01*
X367Y1508D01*
X375Y1504D01*
X383Y1508D01*
X379Y1500D01*
X383Y1492D01*
X375Y1496D01*
X367Y1492D01*
Y586D02*
X371Y594D01*
X367Y602D01*
X375Y598D01*
X383Y602D01*
X379Y594D01*
X383Y586D01*
X375Y590D01*
X367Y586D01*
X2651D02*
X2655Y594D01*
X2651Y602D01*
X2659Y598D01*
X2667Y602D01*
X2663Y594D01*
X2667Y586D01*
X2659Y590D01*
X2651Y586D01*
Y1492D02*
X2655Y1500D01*
X2651Y1508D01*
X2659Y1504D01*
X2667Y1508D01*
X2663Y1500D01*
X2667Y1492D01*
X2659Y1496D01*
X2651Y1492D01*
X272Y1842D02*
X276Y1846D01*
X280D01*
X276Y1850D01*
X280Y1854D01*
X276D01*
X272Y1858D01*
X268Y1854D01*
X264D01*
X268Y1850D01*
X264Y1846D01*
X268D01*
X272Y1842D01*
X2921Y398D02*
X2925Y402D01*
X2929D01*
X2925Y406D01*
X2929Y410D01*
X2925D01*
X2921Y414D01*
X2917Y410D01*
X2913D01*
X2917Y406D01*
X2913Y402D01*
X2917D01*
X2921Y398D01*
X2920Y1842D02*
X2924Y1846D01*
X2928D01*
X2924Y1850D01*
X2928Y1854D01*
X2924D01*
X2920Y1858D01*
X2916Y1854D01*
X2912D01*
X2916Y1850D01*
X2912Y1846D01*
X2916D01*
X2920Y1842D01*
X1181Y951D02*
X1173Y967D01*
X1189D01*
X1181Y951D01*
X1126Y1081D02*
X1118Y1097D01*
X1134D01*
X1126Y1081D01*
X2079Y1226D02*
X2071Y1242D01*
X2087D01*
X2079Y1226D01*
X1965D02*
X1957Y1242D01*
X1973D01*
X1965Y1226D01*
X1555Y506D02*
X1547Y522D01*
X1563D01*
X1555Y506D01*
X1512Y553D02*
X1504Y569D01*
X1520D01*
X1512Y553D01*
X1331Y529D02*
Y525D01*
X1339D01*
Y529D01*
X1343D01*
Y537D01*
X1339D01*
Y541D01*
X1331D01*
Y537D01*
X1327D01*
Y529D01*
X1331D01*
X1299Y561D02*
Y557D01*
X1307D01*
Y561D01*
X1311D01*
Y569D01*
X1307D01*
Y573D01*
X1299D01*
Y569D01*
X1295D01*
Y561D01*
X1299D01*
X1362D02*
Y557D01*
X1370D01*
Y561D01*
X1374D01*
Y569D01*
X1370D01*
Y573D01*
X1362D01*
Y569D01*
X1358D01*
Y561D01*
X1362D01*
Y498D02*
Y494D01*
X1370D01*
Y498D01*
X1374D01*
Y506D01*
X1370D01*
Y510D01*
X1362D01*
Y506D01*
X1358D01*
Y498D01*
X1362D01*
X1299D02*
Y494D01*
X1307D01*
Y498D01*
X1311D01*
Y506D01*
X1307D01*
Y510D01*
X1299D01*
Y506D01*
X1295D01*
Y498D01*
X1299D01*
X909Y872D02*
X901Y888D01*
X917D01*
X909Y872D01*
X1138Y533D02*
Y529D01*
X1146D01*
Y533D01*
X1150D01*
Y541D01*
X1146D01*
Y545D01*
X1138D01*
Y541D01*
X1134D01*
Y533D01*
X1138D01*
X1335Y691D02*
Y687D01*
X1343D01*
Y691D01*
X1347D01*
Y699D01*
X1343D01*
Y703D01*
X1335D01*
Y699D01*
X1331D01*
Y691D01*
X1335D01*
X1728Y411D02*
Y407D01*
X1736D01*
Y411D01*
X1740D01*
Y419D01*
X1736D01*
Y423D01*
X1728D01*
Y419D01*
X1724D01*
Y411D01*
X1728D01*
X1665Y718D02*
Y714D01*
X1673D01*
Y718D01*
X1677D01*
Y726D01*
X1673D01*
Y730D01*
X1665D01*
Y726D01*
X1661D01*
Y718D01*
X1665D01*
X1933Y852D02*
Y848D01*
X1941D01*
Y852D01*
X1945D01*
Y860D01*
X1941D01*
Y864D01*
X1933D01*
Y860D01*
X1929D01*
Y852D01*
X1933D01*
X2114Y726D02*
Y722D01*
X2122D01*
Y726D01*
X2126D01*
Y734D01*
X2122D01*
Y738D01*
X2114D01*
Y734D01*
X2110D01*
Y726D01*
X2114D01*
X2177Y699D02*
Y695D01*
X2185D01*
Y699D01*
X2189D01*
Y707D01*
X2185D01*
Y711D01*
X2177D01*
Y707D01*
X2173D01*
Y699D01*
X2177D01*
X2114Y1085D02*
Y1081D01*
X2122D01*
Y1085D01*
X2126D01*
Y1093D01*
X2122D01*
Y1097D01*
X2114D01*
Y1093D01*
X2110D01*
Y1085D01*
X2114D01*
X1905D02*
Y1081D01*
X1913D01*
Y1085D01*
X1917D01*
Y1093D01*
X1913D01*
Y1097D01*
X1905D01*
Y1093D01*
X1901D01*
Y1085D01*
X1905D01*
X1980D02*
Y1081D01*
X1988D01*
Y1085D01*
X1992D01*
Y1093D01*
X1988D01*
Y1097D01*
X1980D01*
Y1093D01*
X1976D01*
Y1085D01*
X1980D01*
X2083Y726D02*
Y722D01*
X2091D01*
Y726D01*
X2095D01*
Y734D01*
X2091D01*
Y738D01*
X2083D01*
Y734D01*
X2079D01*
Y726D01*
X2083D01*
X2457Y1144D02*
Y1140D01*
X2465D01*
Y1144D01*
X2469D01*
Y1152D01*
X2465D01*
Y1156D01*
X2457D01*
Y1152D01*
X2453D01*
Y1144D01*
X2457D01*
X1799Y1817D02*
Y1813D01*
X1807D01*
Y1817D01*
X1811D01*
Y1825D01*
X1807D01*
Y1829D01*
X1799D01*
Y1825D01*
X1795D01*
Y1817D01*
X1799D01*
X362Y1655D02*
Y1651D01*
X370D01*
Y1655D01*
X374D01*
Y1663D01*
X370D01*
Y1667D01*
X362D01*
Y1663D01*
X358D01*
Y1655D01*
X362D01*
X213Y1518D02*
Y1514D01*
X221D01*
Y1518D01*
X225D01*
Y1526D01*
X221D01*
Y1530D01*
X213D01*
Y1526D01*
X209D01*
Y1518D01*
X213D01*
X854Y679D02*
X846Y695D01*
X862D01*
X854Y679D01*
X378Y1159D02*
X370Y1175D01*
X386D01*
X378Y1159D01*
X961Y632D02*
Y628D01*
X969D01*
Y632D01*
X973D01*
Y640D01*
X969D01*
Y644D01*
X961D01*
Y640D01*
X957D01*
Y632D01*
X961D01*
X618Y518D02*
Y514D01*
X626D01*
Y518D01*
X630D01*
Y526D01*
X626D01*
Y530D01*
X618D01*
Y526D01*
X614D01*
Y518D01*
X618D01*
X705Y758D02*
Y754D01*
X713D01*
Y758D01*
X717D01*
Y766D01*
X713D01*
Y770D01*
X705D01*
Y766D01*
X701D01*
Y758D01*
X705D01*
X961Y722D02*
Y718D01*
X969D01*
Y722D01*
X973D01*
Y730D01*
X969D01*
Y734D01*
X961D01*
Y730D01*
X957D01*
Y722D01*
X961D01*
X295Y974D02*
Y970D01*
X303D01*
Y974D01*
X307D01*
Y982D01*
X303D01*
Y986D01*
X295D01*
Y982D01*
X291D01*
Y974D01*
X295D01*
X236Y900D02*
Y896D01*
X244D01*
Y900D01*
X248D01*
Y908D01*
X244D01*
Y912D01*
X236D01*
Y908D01*
X232D01*
Y900D01*
X236D01*
X1433Y809D02*
Y805D01*
X1441D01*
Y809D01*
X1445D01*
Y817D01*
X1441D01*
Y821D01*
X1433D01*
Y817D01*
X1429D01*
Y809D01*
X1433D01*
X1177Y884D02*
Y880D01*
X1185D01*
Y884D01*
X1189D01*
Y892D01*
X1185D01*
Y896D01*
X1177D01*
Y892D01*
X1173D01*
Y884D01*
X1177D01*
X1319Y1096D02*
Y1092D01*
X1327D01*
Y1096D01*
X1331D01*
Y1104D01*
X1327D01*
Y1108D01*
X1319D01*
Y1104D01*
X1315D01*
Y1096D01*
X1319D01*
X1492Y482D02*
Y478D01*
X1500D01*
Y482D01*
X1504D01*
Y490D01*
X1500D01*
Y494D01*
X1492D01*
Y490D01*
X1488D01*
Y482D01*
X1492D01*
X1350Y317D02*
Y313D01*
X1358D01*
Y317D01*
X1362D01*
Y325D01*
X1358D01*
Y329D01*
X1350D01*
Y325D01*
X1346D01*
Y317D01*
X1350D01*
X1295Y356D02*
X1287Y372D01*
X1303D01*
X1295Y356D01*
X2264Y1675D02*
X2256Y1691D01*
X2272D01*
X2264Y1675D01*
X2347Y1794D02*
X2339Y1810D01*
X2355D01*
X2347Y1794D01*
X3165Y43D02*
Y39D01*
X3173D01*
Y43D01*
X3177D01*
Y51D01*
X3173D01*
Y55D01*
X3165D01*
Y51D01*
X3161D01*
Y43D01*
X3165D01*
X3882Y44D02*
Y40D01*
X3890D01*
Y44D01*
X3894D01*
Y52D01*
X3890D01*
Y56D01*
X3882D01*
Y52D01*
X3878D01*
Y44D01*
X3882D01*
X3614Y94D02*
X3618D01*
X3622Y98D01*
X3626Y94D01*
X3630D01*
Y98D01*
X3626Y102D01*
X3630Y106D01*
Y110D01*
X3626D01*
X3622Y106D01*
X3618Y110D01*
X3614D01*
Y106D01*
X3618Y102D01*
X3614Y98D01*
Y94D01*
X3311Y323D02*
X3303Y339D01*
X3319D01*
X3311Y323D01*
X3598D02*
X3590Y339D01*
X3606D01*
X3598Y323D01*
X3886D02*
X3878Y339D01*
X3894D01*
X3886Y323D01*
X3110Y535D02*
X3102Y551D01*
X3118D01*
X3110Y535D01*
X3398D02*
X3390Y551D01*
X3406D01*
X3398Y535D01*
X3685D02*
X3677Y551D01*
X3693D01*
X3685Y535D01*
X3307Y752D02*
X3299Y768D01*
X3315D01*
X3307Y752D01*
X3594D02*
X3586Y768D01*
X3602D01*
X3594Y752D01*
X3882D02*
X3874Y768D01*
X3890D01*
X3882Y752D01*
X3106Y968D02*
X3098Y984D01*
X3114D01*
X3106Y968D01*
X3394D02*
X3386Y984D01*
X3402D01*
X3394Y968D01*
X3681D02*
X3673Y984D01*
X3689D01*
X3681Y968D01*
X3307Y1189D02*
X3299Y1205D01*
X3315D01*
X3307Y1189D01*
X3594D02*
X3586Y1205D01*
X3602D01*
X3594Y1189D01*
X3882D02*
X3874Y1205D01*
X3890D01*
X3882Y1189D01*
X3106Y1401D02*
X3098Y1417D01*
X3114D01*
X3106Y1401D01*
X3394D02*
X3386Y1417D01*
X3402D01*
X3394Y1401D01*
X3681D02*
X3673Y1417D01*
X3689D01*
X3681Y1401D01*
X3886Y1622D02*
X3878Y1638D01*
X3894D01*
X3886Y1622D01*
X3598D02*
X3590Y1638D01*
X3606D01*
X3598Y1622D01*
X3311D02*
X3303Y1638D01*
X3319D01*
X3311Y1622D01*
X3586Y1846D02*
X3590D01*
X3594Y1850D01*
X3598Y1846D01*
X3602D01*
Y1850D01*
X3598Y1854D01*
X3602Y1858D01*
Y1862D01*
X3598D01*
X3594Y1858D01*
X3590Y1862D01*
X3586D01*
Y1858D01*
X3590Y1854D01*
X3586Y1850D01*
Y1846D01*
X3301Y1842D02*
X3305D01*
X3309Y1846D01*
X3313Y1842D01*
X3317D01*
Y1846D01*
X3313Y1850D01*
X3317Y1854D01*
Y1858D01*
X3313D01*
X3309Y1854D01*
X3305Y1858D01*
X3301D01*
Y1854D01*
X3305Y1850D01*
X3301Y1846D01*
Y1842D01*
X3307Y476D02*
Y472D01*
X3315D01*
Y476D01*
X3319D01*
Y484D01*
X3315D01*
Y488D01*
X3307D01*
Y484D01*
X3303D01*
Y476D01*
X3307D01*
X3106Y606D02*
Y602D01*
X3114D01*
Y606D01*
X3118D01*
Y614D01*
X3114D01*
Y618D01*
X3106D01*
Y614D01*
X3102D01*
Y606D01*
X3106D01*
X3307Y1777D02*
Y1773D01*
X3315D01*
Y1777D01*
X3319D01*
Y1785D01*
X3315D01*
Y1789D01*
X3307D01*
Y1785D01*
X3303D01*
Y1777D01*
X3307D01*
X3592D02*
Y1773D01*
X3600D01*
Y1777D01*
X3604D01*
Y1785D01*
X3600D01*
Y1789D01*
X3592D01*
Y1785D01*
X3588D01*
Y1777D01*
X3592D01*
X3877D02*
Y1773D01*
X3885D01*
Y1777D01*
X3889D01*
Y1785D01*
X3885D01*
Y1789D01*
X3877D01*
Y1785D01*
X3873D01*
Y1777D01*
X3877D01*
Y1560D02*
Y1556D01*
X3885D01*
Y1560D01*
X3889D01*
Y1568D01*
X3885D01*
Y1572D01*
X3877D01*
Y1568D01*
X3873D01*
Y1560D01*
X3877D01*
X3592D02*
Y1556D01*
X3600D01*
Y1560D01*
X3604D01*
Y1568D01*
X3600D01*
Y1572D01*
X3592D01*
Y1568D01*
X3588D01*
Y1560D01*
X3592D01*
X3307D02*
Y1556D01*
X3315D01*
Y1560D01*
X3319D01*
Y1568D01*
X3315D01*
Y1572D01*
X3307D01*
Y1568D01*
X3303D01*
Y1560D01*
X3307D01*
Y1343D02*
Y1339D01*
X3315D01*
Y1343D01*
X3319D01*
Y1351D01*
X3315D01*
Y1355D01*
X3307D01*
Y1351D01*
X3303D01*
Y1343D01*
X3307D01*
X3592D02*
Y1339D01*
X3600D01*
Y1343D01*
X3604D01*
Y1351D01*
X3600D01*
Y1355D01*
X3592D01*
Y1351D01*
X3588D01*
Y1343D01*
X3592D01*
X3877D02*
Y1339D01*
X3885D01*
Y1343D01*
X3889D01*
Y1351D01*
X3885D01*
Y1355D01*
X3877D01*
Y1351D01*
X3873D01*
Y1343D01*
X3877D01*
Y1127D02*
Y1123D01*
X3885D01*
Y1127D01*
X3889D01*
Y1135D01*
X3885D01*
Y1139D01*
X3877D01*
Y1135D01*
X3873D01*
Y1127D01*
X3877D01*
X3592D02*
Y1123D01*
X3600D01*
Y1127D01*
X3604D01*
Y1135D01*
X3600D01*
Y1139D01*
X3592D01*
Y1135D01*
X3588D01*
Y1127D01*
X3592D01*
X3307D02*
Y1123D01*
X3315D01*
Y1127D01*
X3319D01*
Y1135D01*
X3315D01*
Y1139D01*
X3307D01*
Y1135D01*
X3303D01*
Y1127D01*
X3307D01*
Y910D02*
Y906D01*
X3315D01*
Y910D01*
X3319D01*
Y918D01*
X3315D01*
Y922D01*
X3307D01*
Y918D01*
X3303D01*
Y910D01*
X3307D01*
X3592D02*
Y906D01*
X3600D01*
Y910D01*
X3604D01*
Y918D01*
X3600D01*
Y922D01*
X3592D01*
Y918D01*
X3588D01*
Y910D01*
X3592D01*
X3877D02*
Y906D01*
X3885D01*
Y910D01*
X3889D01*
Y918D01*
X3885D01*
Y922D01*
X3877D01*
Y918D01*
X3873D01*
Y910D01*
X3877D01*
Y694D02*
Y690D01*
X3885D01*
Y694D01*
X3889D01*
Y702D01*
X3885D01*
Y706D01*
X3877D01*
Y702D01*
X3873D01*
Y694D01*
X3877D01*
X3592D02*
Y690D01*
X3600D01*
Y694D01*
X3604D01*
Y702D01*
X3600D01*
Y706D01*
X3592D01*
Y702D01*
X3588D01*
Y694D01*
X3592D01*
X3307D02*
Y690D01*
X3315D01*
Y694D01*
X3319D01*
Y702D01*
X3315D01*
Y706D01*
X3307D01*
Y702D01*
X3303D01*
Y694D01*
X3307D01*
X3592Y477D02*
Y473D01*
X3600D01*
Y477D01*
X3604D01*
Y485D01*
X3600D01*
Y489D01*
X3592D01*
Y485D01*
X3588D01*
Y477D01*
X3592D01*
X3877D02*
Y473D01*
X3885D01*
Y477D01*
X3889D01*
Y485D01*
X3885D01*
Y489D01*
X3877D01*
Y485D01*
X3873D01*
Y477D01*
X3877D01*
Y261D02*
Y257D01*
X3885D01*
Y261D01*
X3889D01*
Y269D01*
X3885D01*
Y273D01*
X3877D01*
Y269D01*
X3873D01*
Y261D01*
X3877D01*
X3592D02*
Y257D01*
X3600D01*
Y261D01*
X3604D01*
Y269D01*
X3600D01*
Y273D01*
X3592D01*
Y269D01*
X3588D01*
Y261D01*
X3592D01*
X3307D02*
Y257D01*
X3315D01*
Y261D01*
X3319D01*
Y269D01*
X3315D01*
Y273D01*
X3307D01*
Y269D01*
X3303D01*
Y261D01*
X3307D01*
X3592Y44D02*
Y40D01*
X3600D01*
Y44D01*
X3604D01*
Y52D01*
X3600D01*
Y56D01*
X3592D01*
Y52D01*
X3588D01*
Y44D01*
X3592D01*
X3307D02*
Y40D01*
X3315D01*
Y44D01*
X3319D01*
Y52D01*
X3315D01*
Y56D01*
X3307D01*
Y52D01*
X3303D01*
Y44D01*
X3307D01*
X3392Y174D02*
Y170D01*
X3400D01*
Y174D01*
X3404D01*
Y182D01*
X3400D01*
Y186D01*
X3392D01*
Y182D01*
X3388D01*
Y174D01*
X3392D01*
X3107D02*
Y170D01*
X3115D01*
Y174D01*
X3119D01*
Y182D01*
X3115D01*
Y186D01*
X3107D01*
Y182D01*
X3103D01*
Y174D01*
X3107D01*
Y391D02*
Y387D01*
X3115D01*
Y391D01*
X3119D01*
Y399D01*
X3115D01*
Y403D01*
X3107D01*
Y399D01*
X3103D01*
Y391D01*
X3107D01*
X3392D02*
Y387D01*
X3400D01*
Y391D01*
X3404D01*
Y399D01*
X3400D01*
Y403D01*
X3392D01*
Y399D01*
X3388D01*
Y391D01*
X3392D01*
X3677Y174D02*
Y170D01*
X3685D01*
Y174D01*
X3689D01*
Y182D01*
X3685D01*
Y186D01*
X3677D01*
Y182D01*
X3673D01*
Y174D01*
X3677D01*
Y391D02*
Y387D01*
X3685D01*
Y391D01*
X3689D01*
Y399D01*
X3685D01*
Y403D01*
X3677D01*
Y399D01*
X3673D01*
Y391D01*
X3677D01*
Y607D02*
Y603D01*
X3685D01*
Y607D01*
X3689D01*
Y615D01*
X3685D01*
Y619D01*
X3677D01*
Y615D01*
X3673D01*
Y607D01*
X3677D01*
X3392D02*
Y603D01*
X3400D01*
Y607D01*
X3404D01*
Y615D01*
X3400D01*
Y619D01*
X3392D01*
Y615D01*
X3388D01*
Y607D01*
X3392D01*
X3107Y824D02*
Y820D01*
X3115D01*
Y824D01*
X3119D01*
Y832D01*
X3115D01*
Y836D01*
X3107D01*
Y832D01*
X3103D01*
Y824D01*
X3107D01*
X3392D02*
Y820D01*
X3400D01*
Y824D01*
X3404D01*
Y832D01*
X3400D01*
Y836D01*
X3392D01*
Y832D01*
X3388D01*
Y824D01*
X3392D01*
X3677D02*
Y820D01*
X3685D01*
Y824D01*
X3689D01*
Y832D01*
X3685D01*
Y836D01*
X3677D01*
Y832D01*
X3673D01*
Y824D01*
X3677D01*
Y1040D02*
Y1036D01*
X3685D01*
Y1040D01*
X3689D01*
Y1048D01*
X3685D01*
Y1052D01*
X3677D01*
Y1048D01*
X3673D01*
Y1040D01*
X3677D01*
X3392D02*
Y1036D01*
X3400D01*
Y1040D01*
X3404D01*
Y1048D01*
X3400D01*
Y1052D01*
X3392D01*
Y1048D01*
X3388D01*
Y1040D01*
X3392D01*
X3107D02*
Y1036D01*
X3115D01*
Y1040D01*
X3119D01*
Y1048D01*
X3115D01*
Y1052D01*
X3107D01*
Y1048D01*
X3103D01*
Y1040D01*
X3107D01*
Y1257D02*
Y1253D01*
X3115D01*
Y1257D01*
X3119D01*
Y1265D01*
X3115D01*
Y1269D01*
X3107D01*
Y1265D01*
X3103D01*
Y1257D01*
X3107D01*
X3392D02*
Y1253D01*
X3400D01*
Y1257D01*
X3404D01*
Y1265D01*
X3400D01*
Y1269D01*
X3392D01*
Y1265D01*
X3388D01*
Y1257D01*
X3392D01*
X3677D02*
Y1253D01*
X3685D01*
Y1257D01*
X3689D01*
Y1265D01*
X3685D01*
Y1269D01*
X3677D01*
Y1265D01*
X3673D01*
Y1257D01*
X3677D01*
Y1473D02*
Y1469D01*
X3685D01*
Y1473D01*
X3689D01*
Y1481D01*
X3685D01*
Y1485D01*
X3677D01*
Y1481D01*
X3673D01*
Y1473D01*
X3677D01*
X3392D02*
Y1469D01*
X3400D01*
Y1473D01*
X3404D01*
Y1481D01*
X3400D01*
Y1485D01*
X3392D01*
Y1481D01*
X3388D01*
Y1473D01*
X3392D01*
X3107D02*
Y1469D01*
X3115D01*
Y1473D01*
X3119D01*
Y1481D01*
X3115D01*
Y1485D01*
X3107D01*
Y1481D01*
X3103D01*
Y1473D01*
X3107D01*
Y1690D02*
Y1686D01*
X3115D01*
Y1690D01*
X3119D01*
Y1698D01*
X3115D01*
Y1702D01*
X3107D01*
Y1698D01*
X3103D01*
Y1690D01*
X3107D01*
X3392D02*
Y1686D01*
X3400D01*
Y1690D01*
X3404D01*
Y1698D01*
X3400D01*
Y1702D01*
X3392D01*
Y1698D01*
X3388D01*
Y1690D01*
X3392D01*
X3677D02*
Y1686D01*
X3685D01*
Y1690D01*
X3689D01*
Y1698D01*
X3685D01*
Y1702D01*
X3677D01*
Y1698D01*
X3673D01*
Y1690D01*
X3677D01*
Y1907D02*
Y1903D01*
X3685D01*
Y1907D01*
X3689D01*
Y1915D01*
X3685D01*
Y1919D01*
X3677D01*
Y1915D01*
X3673D01*
Y1907D01*
X3677D01*
X3392D02*
Y1903D01*
X3400D01*
Y1907D01*
X3404D01*
Y1915D01*
X3400D01*
Y1919D01*
X3392D01*
Y1915D01*
X3388D01*
Y1907D01*
X3392D01*
X3107D02*
Y1903D01*
X3115D01*
Y1907D01*
X3119D01*
Y1915D01*
X3115D01*
Y1919D01*
X3107D01*
Y1915D01*
X3103D01*
Y1907D01*
X3107D01*
X3799Y1901D02*
X3803D01*
X3807Y1905D01*
X3811Y1901D01*
X3815D01*
Y1905D01*
X3811Y1909D01*
X3815Y1913D01*
Y1917D01*
X3811D01*
X3807Y1913D01*
X3803Y1917D01*
X3799D01*
Y1913D01*
X3803Y1909D01*
X3799Y1905D01*
Y1901D01*
X3390Y100D02*
X3394D01*
X3398Y104D01*
X3402Y100D01*
X3406D01*
Y104D01*
X3402Y108D01*
X3406Y112D01*
Y116D01*
X3402D01*
X3398Y112D01*
X3394Y116D01*
X3390D01*
Y112D01*
X3394Y108D01*
X3390Y104D01*
Y100D01*
X165Y71D02*
Y67D01*
X173D01*
Y71D01*
X177D01*
Y79D01*
X173D01*
Y83D01*
X165D01*
Y79D01*
X161D01*
Y71D01*
X165D01*
X441D02*
Y67D01*
X449D01*
Y71D01*
X453D01*
Y79D01*
X449D01*
Y83D01*
X441D01*
Y79D01*
X437D01*
Y71D01*
X441D01*
X724D02*
Y67D01*
X732D01*
Y71D01*
X736D01*
Y79D01*
X732D01*
Y83D01*
X724D01*
Y79D01*
X720D01*
Y71D01*
X724D01*
X1020D02*
Y67D01*
X1028D01*
Y71D01*
X1032D01*
Y79D01*
X1028D01*
Y83D01*
X1020D01*
Y79D01*
X1016D01*
Y71D01*
X1020D01*
X1307D02*
Y67D01*
X1315D01*
Y71D01*
X1319D01*
Y79D01*
X1315D01*
Y83D01*
X1307D01*
Y79D01*
X1303D01*
Y71D01*
X1307D01*
X1590D02*
Y67D01*
X1598D01*
Y71D01*
X1602D01*
Y79D01*
X1598D01*
Y83D01*
X1590D01*
Y79D01*
X1586D01*
Y71D01*
X1590D01*
X1878D02*
Y67D01*
X1886D01*
Y71D01*
X1890D01*
Y79D01*
X1886D01*
Y83D01*
X1878D01*
Y79D01*
X1874D01*
Y71D01*
X1878D01*
X2161D02*
Y67D01*
X2169D01*
Y71D01*
X2173D01*
Y79D01*
X2169D01*
Y83D01*
X2161D01*
Y79D01*
X2157D01*
Y71D01*
X2161D01*
X2449D02*
Y67D01*
X2457D01*
Y71D01*
X2461D01*
Y79D01*
X2457D01*
Y83D01*
X2449D01*
Y79D01*
X2445D01*
Y71D01*
X2449D01*
X2728D02*
Y67D01*
X2736D01*
Y71D01*
X2740D01*
Y79D01*
X2736D01*
Y83D01*
X2728D01*
Y79D01*
X2724D01*
Y71D01*
X2728D01*
X2724Y193D02*
Y189D01*
X2732D01*
Y193D01*
X2736D01*
Y201D01*
X2732D01*
Y205D01*
X2724D01*
Y201D01*
X2720D01*
Y193D01*
X2724D01*
X2449D02*
Y189D01*
X2457D01*
Y193D01*
X2461D01*
Y201D01*
X2457D01*
Y205D01*
X2449D01*
Y201D01*
X2445D01*
Y193D01*
X2449D01*
X2161D02*
Y189D01*
X2169D01*
Y193D01*
X2173D01*
Y201D01*
X2169D01*
Y205D01*
X2161D01*
Y201D01*
X2157D01*
Y193D01*
X2161D01*
X1874D02*
Y189D01*
X1882D01*
Y193D01*
X1886D01*
Y201D01*
X1882D01*
Y205D01*
X1874D01*
Y201D01*
X1870D01*
Y193D01*
X1874D01*
X1587D02*
Y189D01*
X1595D01*
Y193D01*
X1599D01*
Y201D01*
X1595D01*
Y205D01*
X1587D01*
Y201D01*
X1583D01*
Y193D01*
X1587D01*
X1307D02*
Y189D01*
X1315D01*
Y193D01*
X1319D01*
Y201D01*
X1315D01*
Y205D01*
X1307D01*
Y201D01*
X1303D01*
Y193D01*
X1307D01*
X1020D02*
Y189D01*
X1028D01*
Y193D01*
X1032D01*
Y201D01*
X1028D01*
Y205D01*
X1020D01*
Y201D01*
X1016D01*
Y193D01*
X1020D01*
X437D02*
Y189D01*
X445D01*
Y193D01*
X449D01*
Y201D01*
X445D01*
Y205D01*
X437D01*
Y201D01*
X433D01*
Y193D01*
X437D01*
X161D02*
Y189D01*
X169D01*
Y193D01*
X173D01*
Y201D01*
X169D01*
Y205D01*
X161D01*
Y201D01*
X157D01*
Y193D01*
X161D01*
X724D02*
Y189D01*
X732D01*
Y193D01*
X736D01*
Y201D01*
X732D01*
Y205D01*
X724D01*
Y201D01*
X720D01*
Y193D01*
X724D01*
X2732Y134D02*
Y130D01*
X2740D01*
Y134D01*
X2744D01*
Y142D01*
X2740D01*
Y146D01*
X2732D01*
Y142D01*
X2728D01*
Y134D01*
X2732D01*
X153D02*
Y130D01*
X161D01*
Y134D01*
X165D01*
Y142D01*
X161D01*
Y146D01*
X153D01*
Y142D01*
X149D01*
Y134D01*
X153D01*
D107*
X2843Y1703D02*
G03*
X2843Y1703I-8J0D01*
G01*
X2543D02*
G03*
X2543Y1703I-8J0D01*
G01*
M02*
