G04 Layer_Color=15790320*
%FSLAX23Y23*%
%MOIN*%
G70*
G01*
G75*
%ADD28C,0.010*%
%ADD57C,0.008*%
%ADD58C,0.010*%
%ADD59C,0.005*%
D28*
X421Y1750D02*
Y1963D01*
X606Y1750D02*
X634Y1778D01*
X421Y1750D02*
X606D01*
X634Y1778D02*
Y1935D01*
X606Y1963D02*
X634Y1935D01*
X421Y1963D02*
X606D01*
X580Y1234D02*
Y1352D01*
X537D02*
X580D01*
X537Y1234D02*
Y1352D01*
Y1234D02*
X580D01*
X765D02*
Y1352D01*
X722D02*
X765D01*
X722Y1234D02*
Y1352D01*
Y1234D02*
X765D01*
X520Y1419D02*
X2547D01*
Y1635D01*
X520D02*
X2547D01*
X520Y1419D02*
Y1635D01*
X409Y294D02*
X625D01*
Y389D01*
X409D02*
X625D01*
X409Y294D02*
Y389D01*
X908Y1751D02*
Y1968D01*
X814D02*
X908D01*
X814Y1751D02*
Y1968D01*
Y1751D02*
X908D01*
X2941Y1010D02*
Y1226D01*
Y1010D02*
X3035D01*
Y1226D01*
X2941D02*
X3035D01*
X2941Y1490D02*
Y1707D01*
Y1490D02*
X3035D01*
Y1707D01*
X2941D02*
X3035D01*
X790Y1751D02*
Y1968D01*
X696D02*
X790D01*
X696Y1751D02*
Y1968D01*
Y1751D02*
X790D01*
X2941Y1250D02*
Y1467D01*
Y1250D02*
X3035D01*
Y1467D01*
X2941D02*
X3035D01*
X2000Y1695D02*
Y1911D01*
Y1695D02*
X2094D01*
Y1911D01*
X2000D02*
X2094D01*
X0Y285D02*
X3039D01*
Y1970D01*
X0D02*
X3039D01*
X0Y285D02*
Y1970D01*
X3051Y2D02*
Y1967D01*
X3881Y1096D02*
Y1292D01*
X3685D02*
X3881D01*
X3685Y1096D02*
Y1292D01*
Y1096D02*
X3881D01*
X3685Y1190D02*
X3785Y1290D01*
X3881Y879D02*
Y1076D01*
X3685D02*
X3881D01*
X3685Y879D02*
Y1076D01*
Y879D02*
X3881D01*
X3685Y974D02*
X3785Y1074D01*
X3881Y662D02*
Y859D01*
X3685D02*
X3881D01*
X3685Y662D02*
Y859D01*
Y662D02*
X3881D01*
X3685Y757D02*
X3785Y857D01*
X3881Y446D02*
Y643D01*
X3685D02*
X3881D01*
X3685Y446D02*
Y643D01*
Y446D02*
X3881D01*
X3685Y541D02*
X3785Y640D01*
X3881Y229D02*
Y426D01*
X3685D02*
X3881D01*
X3685Y229D02*
Y426D01*
Y229D02*
X3881D01*
X3685Y324D02*
X3785Y424D01*
X3881Y13D02*
Y210D01*
X3685D02*
X3881D01*
X3685Y13D02*
Y210D01*
Y13D02*
X3881D01*
X3685Y108D02*
X3785Y207D01*
X3596Y1745D02*
Y1942D01*
X3399D02*
X3596D01*
X3399Y1745D02*
Y1942D01*
Y1745D02*
X3596D01*
X3400Y1840D02*
X3500Y1940D01*
X3596Y1529D02*
Y1725D01*
X3399D02*
X3596D01*
X3399Y1529D02*
Y1725D01*
Y1529D02*
X3596D01*
X3400Y1623D02*
X3500Y1723D01*
X3596Y1312D02*
Y1509D01*
X3399D02*
X3596D01*
X3399Y1312D02*
Y1509D01*
Y1312D02*
X3596D01*
X3400Y1407D02*
X3500Y1507D01*
X3596Y1096D02*
Y1292D01*
X3399D02*
X3596D01*
X3399Y1096D02*
Y1292D01*
Y1096D02*
X3596D01*
X3400Y1190D02*
X3500Y1290D01*
X3596Y879D02*
Y1076D01*
X3399D02*
X3596D01*
X3399Y879D02*
Y1076D01*
Y879D02*
X3596D01*
X3400Y974D02*
X3500Y1074D01*
X3596Y662D02*
Y859D01*
X3399D02*
X3596D01*
X3399Y662D02*
Y859D01*
Y662D02*
X3596D01*
X3400Y757D02*
X3500Y857D01*
X3596Y446D02*
Y643D01*
X3399D02*
X3596D01*
X3399Y446D02*
Y643D01*
Y446D02*
X3596D01*
X3400Y541D02*
X3500Y640D01*
X3596Y229D02*
Y426D01*
X3399D02*
X3596D01*
X3399Y229D02*
Y426D01*
Y229D02*
X3596D01*
X3400Y324D02*
X3500Y424D01*
X3596Y13D02*
Y210D01*
X3399D02*
X3596D01*
X3399Y13D02*
Y210D01*
Y13D02*
X3596D01*
X3400Y108D02*
X3500Y207D01*
X3311Y1745D02*
Y1942D01*
X3114D02*
X3311D01*
X3114Y1745D02*
Y1942D01*
Y1745D02*
X3311D01*
X3115Y1840D02*
X3214Y1940D01*
X3311Y1529D02*
Y1725D01*
X3114D02*
X3311D01*
X3114Y1529D02*
Y1725D01*
Y1529D02*
X3311D01*
X3115Y1623D02*
X3214Y1723D01*
X3311Y1312D02*
Y1509D01*
X3114D02*
X3311D01*
X3114Y1312D02*
Y1509D01*
Y1312D02*
X3311D01*
X3115Y1407D02*
X3214Y1507D01*
X3311Y1096D02*
Y1292D01*
X3114D02*
X3311D01*
X3114Y1096D02*
Y1292D01*
Y1096D02*
X3311D01*
X3115Y1190D02*
X3214Y1290D01*
X3311Y879D02*
Y1076D01*
X3114D02*
X3311D01*
X3114Y879D02*
Y1076D01*
Y879D02*
X3311D01*
X3115Y974D02*
X3214Y1074D01*
X3311Y662D02*
Y859D01*
X3114D02*
X3311D01*
X3114Y662D02*
Y859D01*
Y662D02*
X3311D01*
X3115Y757D02*
X3214Y857D01*
X3311Y446D02*
Y643D01*
X3114D02*
X3311D01*
X3114Y446D02*
Y643D01*
Y446D02*
X3311D01*
X3115Y541D02*
X3214Y640D01*
X3311Y229D02*
Y426D01*
X3114D02*
X3311D01*
X3114Y229D02*
Y426D01*
Y229D02*
X3311D01*
X3115Y324D02*
X3214Y424D01*
X3311Y13D02*
Y210D01*
X3114D02*
X3311D01*
X3114Y13D02*
Y210D01*
Y13D02*
X3311D01*
X3115Y108D02*
X3214Y207D01*
X3881Y1745D02*
Y1942D01*
X3685D02*
X3881D01*
X3685Y1745D02*
Y1942D01*
Y1745D02*
X3881D01*
X3685Y1840D02*
X3785Y1940D01*
X3881Y1529D02*
Y1725D01*
X3685D02*
X3881D01*
X3685Y1529D02*
Y1725D01*
Y1529D02*
X3881D01*
X3685Y1623D02*
X3785Y1723D01*
X3881Y1312D02*
Y1509D01*
X3685D02*
X3881D01*
X3685Y1312D02*
Y1509D01*
Y1312D02*
X3881D01*
X3685Y1407D02*
X3785Y1507D01*
X2840Y38D02*
Y235D01*
X2643D02*
X2840D01*
X2643Y38D02*
Y235D01*
Y38D02*
X2840D01*
X2644Y133D02*
X2744Y233D01*
X2553Y38D02*
Y235D01*
X2356D02*
X2553D01*
X2356Y38D02*
Y235D01*
Y38D02*
X2553D01*
X2357Y133D02*
X2457Y233D01*
X2265Y38D02*
Y235D01*
X2069D02*
X2265D01*
X2069Y38D02*
Y235D01*
Y38D02*
X2265D01*
X2069Y133D02*
X2169Y233D01*
X1978Y38D02*
Y235D01*
X1781D02*
X1978D01*
X1781Y38D02*
Y235D01*
Y38D02*
X1978D01*
X1782Y133D02*
X1882Y233D01*
X1691Y38D02*
Y235D01*
X1494D02*
X1691D01*
X1494Y38D02*
Y235D01*
Y38D02*
X1691D01*
X1494Y133D02*
X1594Y233D01*
X1403Y38D02*
Y235D01*
X1206D02*
X1403D01*
X1206Y38D02*
Y235D01*
Y38D02*
X1403D01*
X1207Y133D02*
X1307Y233D01*
X1116Y38D02*
Y235D01*
X919D02*
X1116D01*
X919Y38D02*
Y235D01*
Y38D02*
X1116D01*
X920Y133D02*
X1020Y233D01*
X828Y38D02*
Y235D01*
X631D02*
X828D01*
X631Y38D02*
Y235D01*
Y38D02*
X828D01*
X632Y133D02*
X732Y233D01*
X541Y38D02*
Y235D01*
X344D02*
X541D01*
X344Y38D02*
Y235D01*
Y38D02*
X541D01*
X345Y133D02*
X445Y233D01*
X254Y38D02*
Y235D01*
X57D02*
X254D01*
X57Y38D02*
Y235D01*
Y38D02*
X254D01*
X57Y133D02*
X157Y233D01*
D57*
X1873Y903D02*
G03*
X1873Y916I0J6D01*
G01*
X2780Y984D02*
G03*
X2755Y984I-13J0D01*
G01*
X1978Y1814D02*
G03*
X1978Y1789I0J-13D01*
G01*
X2474Y911D02*
Y943D01*
X2415Y911D02*
Y943D01*
X1873Y825D02*
X2129D01*
Y994D01*
X1873D02*
X2129D01*
X1873Y916D02*
Y994D01*
Y825D02*
Y903D01*
X2819Y984D02*
Y1334D01*
X2717D02*
X2819D01*
X2717Y984D02*
Y1334D01*
Y984D02*
X2755D01*
X2780D02*
X2819D01*
X1778Y1854D02*
X1978D01*
X1778Y1749D02*
Y1854D01*
Y1749D02*
X1978D01*
Y1789D01*
Y1814D02*
Y1854D01*
X2508Y1240D02*
X2539D01*
X2508Y1181D02*
X2539D01*
X2508Y1331D02*
X2539D01*
X2508Y1272D02*
X2539D01*
X2785Y1703D02*
Y1733D01*
X2585D02*
X2785D01*
X2585Y1673D02*
Y1733D01*
Y1673D02*
X2785D01*
Y1703D01*
X2576D02*
X2585D01*
X2785D02*
X2794D01*
X535Y1114D02*
X567D01*
X535Y1173D02*
X567D01*
X701Y1173D02*
X732D01*
X701Y1114D02*
X732D01*
X470Y1091D02*
X770D01*
X470Y991D02*
Y1091D01*
Y991D02*
X770D01*
Y1091D01*
X959Y976D02*
Y1276D01*
X859D02*
X959D01*
X859Y976D02*
Y1276D01*
Y976D02*
X959D01*
X2120Y1965D02*
X2420D01*
X2120Y1865D02*
Y1965D01*
Y1865D02*
X2420D01*
Y1965D01*
X2841Y1865D02*
Y1965D01*
X2441Y1865D02*
X2841D01*
X2441Y1965D02*
X2841D01*
X2441Y1865D02*
Y1965D01*
X129Y428D02*
Y1753D01*
Y1828D01*
X29D02*
X129D01*
X29Y428D02*
Y1828D01*
Y428D02*
X129D01*
X934Y1665D02*
Y1965D01*
Y1665D02*
X1034D01*
Y1965D01*
X934D02*
X1034D01*
X1650Y602D02*
X1681D01*
X1650Y543D02*
X1681D01*
X1650Y520D02*
X1681D01*
X1650Y461D02*
X1681D01*
X1051Y287D02*
Y387D01*
X651Y287D02*
X1051D01*
X651Y387D02*
X1051D01*
X651Y287D02*
Y387D01*
X1396Y634D02*
X1435D01*
Y594D02*
Y634D01*
Y433D02*
Y472D01*
X1396Y433D02*
X1435D01*
X1234D02*
X1274D01*
X1234D02*
Y472D01*
Y634D02*
X1274D01*
X1234Y594D02*
Y634D01*
D58*
X1434Y659D02*
G03*
X1434Y659I-5J0D01*
G01*
D59*
X2528Y900D02*
X2498D01*
Y915D01*
X2503Y920D01*
X2513D01*
X2518Y915D01*
Y900D01*
Y910D02*
X2528Y920D01*
Y930D02*
Y940D01*
Y935D01*
X2498D01*
X2503Y930D01*
X2498Y975D02*
X2503Y965D01*
X2513Y955D01*
X2523D01*
X2528Y960D01*
Y970D01*
X2523Y975D01*
X2518D01*
X2513Y970D01*
Y955D01*
X2028Y1961D02*
Y1931D01*
X2038Y1941D01*
X2048Y1931D01*
Y1961D01*
X2058Y1931D02*
Y1961D01*
X2073D01*
X2078Y1956D01*
Y1946D01*
X2073Y1941D01*
X2058D01*
X1053Y1852D02*
X1078D01*
X1083Y1857D01*
Y1867D01*
X1078Y1872D01*
X1053D01*
X1083Y1882D02*
X1063D01*
X1053Y1892D01*
X1063Y1902D01*
X1083D01*
X1068D01*
Y1882D01*
X1083Y1912D02*
X1053D01*
Y1927D01*
X1058Y1932D01*
X1068D01*
X1073Y1927D01*
Y1912D01*
Y1922D02*
X1083Y1932D01*
X1053Y1942D02*
Y1962D01*
Y1952D01*
X1083D01*
X2634Y1367D02*
Y1342D01*
X2639Y1337D01*
X2649D01*
X2654Y1342D01*
Y1367D01*
X2684D02*
X2674Y1362D01*
X2664Y1352D01*
Y1342D01*
X2669Y1337D01*
X2679D01*
X2684Y1342D01*
Y1347D01*
X2679Y1352D01*
X2664D01*
X1209Y697D02*
Y672D01*
X1214Y667D01*
X1224D01*
X1229Y672D01*
Y697D01*
X1254Y667D02*
Y697D01*
X1239Y682D01*
X1259D01*
X1820Y900D02*
X1845D01*
X1850Y905D01*
Y915D01*
X1845Y920D01*
X1820D01*
X1825Y930D02*
X1820Y935D01*
Y945D01*
X1825Y950D01*
X1830D01*
X1835Y945D01*
Y940D01*
Y945D01*
X1840Y950D01*
X1845D01*
X1850Y945D01*
Y935D01*
X1845Y930D01*
X675Y1317D02*
Y1337D01*
Y1327D01*
X705D01*
Y1347D02*
X675D01*
Y1362D01*
X680Y1367D01*
X690D01*
X695Y1362D01*
Y1347D01*
Y1357D02*
X705Y1367D01*
Y1397D02*
Y1377D01*
X685Y1397D01*
X680D01*
X675Y1392D01*
Y1382D01*
X680Y1377D01*
X490Y1321D02*
Y1341D01*
Y1331D01*
X520D01*
Y1351D02*
X490D01*
Y1366D01*
X495Y1371D01*
X505D01*
X510Y1366D01*
Y1351D01*
Y1361D02*
X520Y1371D01*
Y1381D02*
Y1391D01*
Y1386D01*
X490D01*
X495Y1381D01*
X2896Y1431D02*
X2891Y1426D01*
Y1416D01*
X2896Y1411D01*
X2901D01*
X2906Y1416D01*
Y1426D01*
X2911Y1431D01*
X2916D01*
X2921Y1426D01*
Y1416D01*
X2916Y1411D01*
X2921Y1441D02*
Y1451D01*
Y1446D01*
X2891D01*
X2896Y1441D01*
X2445Y1817D02*
Y1847D01*
X2460D01*
X2465Y1842D01*
Y1832D01*
X2460Y1827D01*
X2445D01*
X2455D02*
X2465Y1817D01*
X2495Y1847D02*
X2475D01*
Y1817D01*
X2495D01*
X2475Y1832D02*
X2485D01*
X2505Y1817D02*
X2515D01*
X2510D01*
Y1847D01*
X2505Y1842D01*
X2437Y1270D02*
X2407D01*
Y1285D01*
X2412Y1290D01*
X2422D01*
X2427Y1285D01*
Y1270D01*
Y1280D02*
X2437Y1290D01*
Y1300D02*
Y1310D01*
Y1305D01*
X2407D01*
X2412Y1300D01*
Y1325D02*
X2407Y1330D01*
Y1340D01*
X2412Y1345D01*
X2417D01*
X2422Y1340D01*
Y1335D01*
Y1340D01*
X2427Y1345D01*
X2432D01*
X2437Y1340D01*
Y1330D01*
X2432Y1325D01*
X2437Y1171D02*
X2407D01*
Y1186D01*
X2412Y1191D01*
X2422D01*
X2427Y1186D01*
Y1171D01*
Y1181D02*
X2437Y1191D01*
Y1201D02*
Y1211D01*
Y1206D01*
X2407D01*
X2412Y1201D01*
X2437Y1246D02*
Y1226D01*
X2417Y1246D01*
X2412D01*
X2407Y1241D01*
Y1231D01*
X2412Y1226D01*
X1756Y557D02*
Y587D01*
X1771D01*
X1776Y582D01*
Y572D01*
X1771Y567D01*
X1756D01*
X1766D02*
X1776Y557D01*
X1786Y562D02*
X1791Y557D01*
X1801D01*
X1806Y562D01*
Y582D01*
X1801Y587D01*
X1791D01*
X1786Y582D01*
Y577D01*
X1791Y572D01*
X1806D01*
X1756Y494D02*
Y524D01*
X1771D01*
X1776Y519D01*
Y509D01*
X1771Y504D01*
X1756D01*
X1766D02*
X1776Y494D01*
X1786Y519D02*
X1791Y524D01*
X1801D01*
X1806Y519D01*
Y514D01*
X1801Y509D01*
X1806Y504D01*
Y499D01*
X1801Y494D01*
X1791D01*
X1786Y499D01*
Y504D01*
X1791Y509D01*
X1786Y514D01*
Y519D01*
X1791Y509D02*
X1801D01*
X657Y1191D02*
Y1221D01*
X672D01*
X677Y1216D01*
Y1206D01*
X672Y1201D01*
X657D01*
X667D02*
X677Y1191D01*
X707D02*
X687D01*
X707Y1211D01*
Y1216D01*
X702Y1221D01*
X692D01*
X687Y1216D01*
X476Y1191D02*
Y1221D01*
X491D01*
X496Y1216D01*
Y1206D01*
X491Y1201D01*
X476D01*
X486D02*
X496Y1191D01*
X506D02*
X516D01*
X511D01*
Y1221D01*
X506Y1216D01*
X461Y1612D02*
Y1642D01*
X476D01*
X481Y1637D01*
Y1627D01*
X476Y1622D01*
X461D01*
X491Y1642D02*
X501D01*
X496D01*
Y1612D01*
X491D01*
X501D01*
X2118Y1847D02*
Y1817D01*
X2138D01*
X2168Y1847D02*
X2148D01*
Y1817D01*
X2168D01*
X2148Y1832D02*
X2158D01*
X2178Y1847D02*
Y1817D01*
X2193D01*
X2198Y1822D01*
Y1842D01*
X2193Y1847D01*
X2178D01*
X2208Y1817D02*
X2223D01*
X2228Y1822D01*
X2223Y1827D01*
X2213D01*
X2208Y1832D01*
X2213Y1837D01*
X2228D01*
X147Y1750D02*
X177D01*
Y1770D01*
X152Y1800D02*
X147Y1795D01*
Y1785D01*
X152Y1780D01*
X172D01*
X177Y1785D01*
Y1795D01*
X172Y1800D01*
X147Y1810D02*
X177D01*
Y1825D01*
X172Y1830D01*
X152D01*
X147Y1825D01*
Y1810D01*
X476Y973D02*
X486D01*
X481D01*
Y943D01*
X476D01*
X486D01*
X521D02*
X501D01*
X521Y963D01*
Y968D01*
X516Y973D01*
X506D01*
X501Y968D01*
X551D02*
X546Y973D01*
X536D01*
X531Y968D01*
Y948D01*
X536Y943D01*
X546D01*
X551Y948D01*
X611Y973D02*
X591D01*
Y958D01*
X601Y963D01*
X606D01*
X611Y958D01*
Y948D01*
X606Y943D01*
X596D01*
X591Y948D01*
X621Y963D02*
X631Y943D01*
X641Y963D01*
X813Y974D02*
Y984D01*
Y979D01*
X843D01*
Y974D01*
Y984D01*
Y1019D02*
Y999D01*
X823Y1019D01*
X818D01*
X813Y1014D01*
Y1004D01*
X818Y999D01*
Y1049D02*
X813Y1044D01*
Y1034D01*
X818Y1029D01*
X838D01*
X843Y1034D01*
Y1044D01*
X838Y1049D01*
X818Y1089D02*
X813Y1094D01*
Y1104D01*
X818Y1109D01*
X823D01*
X828Y1104D01*
Y1099D01*
Y1104D01*
X833Y1109D01*
X838D01*
X843Y1104D01*
Y1094D01*
X838Y1089D01*
X823Y1119D02*
X843Y1129D01*
X823Y1139D01*
X818Y1149D02*
X813Y1154D01*
Y1164D01*
X818Y1169D01*
X823D01*
X828Y1164D01*
Y1159D01*
Y1164D01*
X833Y1169D01*
X838D01*
X843Y1164D01*
Y1154D01*
X838Y1149D01*
X744Y1708D02*
X734D01*
X739D01*
Y1738D01*
X744D01*
X734D01*
X719D02*
Y1708D01*
X699Y1738D01*
Y1708D01*
X1730Y1742D02*
Y1722D01*
X1760D01*
Y1742D01*
X1745Y1722D02*
Y1732D01*
X1730Y1772D02*
Y1752D01*
X1760D01*
Y1772D01*
X1745Y1752D02*
Y1762D01*
X1760Y1782D02*
X1730D01*
Y1797D01*
X1735Y1802D01*
X1745D01*
X1750Y1797D01*
Y1782D01*
X1760Y1812D02*
X1730D01*
Y1827D01*
X1735Y1832D01*
X1745D01*
X1750Y1827D01*
Y1812D01*
Y1822D02*
X1760Y1832D01*
X1730Y1857D02*
Y1847D01*
X1735Y1842D01*
X1755D01*
X1760Y1847D01*
Y1857D01*
X1755Y1862D01*
X1735D01*
X1730Y1857D01*
X1760Y1872D02*
X1730D01*
X1740Y1882D01*
X1730Y1892D01*
X1760D01*
X2681Y1788D02*
Y1758D01*
X2696D01*
X2701Y1763D01*
Y1783D01*
X2696Y1788D01*
X2681D01*
X2711Y1758D02*
X2721D01*
X2716D01*
Y1788D01*
X2711Y1783D01*
X2896Y1510D02*
X2891Y1505D01*
Y1495D01*
X2896Y1490D01*
X2901D01*
X2906Y1495D01*
Y1505D01*
X2911Y1510D01*
X2916D01*
X2921Y1505D01*
Y1495D01*
X2916Y1490D01*
X2901Y1520D02*
X2916D01*
X2921Y1525D01*
Y1540D01*
X2901D01*
X2931Y1550D02*
X2901D01*
Y1565D01*
X2906Y1570D01*
X2916D01*
X2921Y1565D01*
Y1550D01*
Y1595D02*
Y1585D01*
X2916Y1580D01*
X2906D01*
X2901Y1585D01*
Y1595D01*
X2906Y1600D01*
X2911D01*
Y1580D01*
X2901Y1610D02*
X2921D01*
X2911D01*
X2906Y1615D01*
X2901Y1620D01*
Y1625D01*
X2896Y1660D02*
X2891Y1655D01*
Y1645D01*
X2896Y1640D01*
X2916D01*
X2921Y1645D01*
Y1655D01*
X2916Y1660D01*
X2901Y1675D02*
Y1685D01*
X2906Y1690D01*
X2921D01*
Y1675D01*
X2916Y1670D01*
X2911Y1675D01*
Y1690D01*
X2931Y1700D02*
X2901D01*
Y1715D01*
X2906Y1720D01*
X2916D01*
X2921Y1715D01*
Y1700D01*
X2004Y743D02*
X1999Y748D01*
X1989D01*
X1984Y743D01*
Y724D01*
X1989Y719D01*
X1999D01*
X2004Y724D01*
X2014Y719D02*
X2024D01*
X2019D01*
Y748D01*
X2014Y743D01*
X2039Y724D02*
X2044Y719D01*
X2054D01*
X2059Y724D01*
Y743D01*
X2054Y748D01*
X2044D01*
X2039Y743D01*
Y738D01*
X2044Y733D01*
X2059D01*
X1496Y712D02*
X1491Y717D01*
X1481D01*
X1476Y712D01*
Y692D01*
X1481Y687D01*
X1491D01*
X1496Y692D01*
X1506Y687D02*
X1516D01*
X1511D01*
Y717D01*
X1506Y712D01*
X1531D02*
X1536Y717D01*
X1546D01*
X1551Y712D01*
Y707D01*
X1546Y702D01*
X1551Y697D01*
Y692D01*
X1546Y687D01*
X1536D01*
X1531Y692D01*
Y697D01*
X1536Y702D01*
X1531Y707D01*
Y712D01*
X1536Y702D02*
X1546D01*
X1492Y369D02*
X1487Y374D01*
X1477D01*
X1472Y369D01*
Y349D01*
X1477Y344D01*
X1487D01*
X1492Y349D01*
X1502Y344D02*
X1512D01*
X1507D01*
Y374D01*
X1502Y369D01*
X1527Y374D02*
X1547D01*
Y369D01*
X1527Y349D01*
Y344D01*
X1611Y369D02*
X1606Y374D01*
X1596D01*
X1591Y369D01*
Y349D01*
X1596Y344D01*
X1606D01*
X1611Y349D01*
X1621Y344D02*
X1631D01*
X1626D01*
Y374D01*
X1621Y369D01*
X1666Y374D02*
X1656Y369D01*
X1646Y359D01*
Y349D01*
X1651Y344D01*
X1661D01*
X1666Y349D01*
Y354D01*
X1661Y359D01*
X1646D01*
X1618Y716D02*
X1613Y721D01*
X1603D01*
X1598Y716D01*
Y696D01*
X1603Y691D01*
X1613D01*
X1618Y696D01*
X1628Y691D02*
X1638D01*
X1633D01*
Y721D01*
X1628Y716D01*
X1673Y721D02*
X1653D01*
Y706D01*
X1663Y711D01*
X1668D01*
X1673Y706D01*
Y696D01*
X1668Y691D01*
X1658D01*
X1653Y696D01*
X2170Y1114D02*
X2165Y1119D01*
X2155D01*
X2150Y1114D01*
Y1094D01*
X2155Y1089D01*
X2165D01*
X2170Y1094D01*
X2180Y1089D02*
X2190D01*
X2185D01*
Y1119D01*
X2180Y1114D01*
X2205D02*
X2210Y1119D01*
X2220D01*
X2225Y1114D01*
Y1109D01*
X2220Y1104D01*
X2215D01*
X2220D01*
X2225Y1099D01*
Y1094D01*
X2220Y1089D01*
X2210D01*
X2205Y1094D01*
X1819Y1145D02*
X1814Y1150D01*
X1804D01*
X1799Y1145D01*
Y1125D01*
X1804Y1120D01*
X1814D01*
X1819Y1125D01*
X1829Y1120D02*
X1839D01*
X1834D01*
Y1150D01*
X1829Y1145D01*
X1854Y1120D02*
X1864D01*
X1859D01*
Y1150D01*
X1854Y1145D01*
X2174Y877D02*
X2169Y882D01*
X2159D01*
X2154Y877D01*
Y857D01*
X2159Y852D01*
X2169D01*
X2174Y857D01*
X2184D02*
X2189Y852D01*
X2199D01*
X2204Y857D01*
Y877D01*
X2199Y882D01*
X2189D01*
X2184Y877D01*
Y872D01*
X2189Y867D01*
X2204D01*
X1815Y850D02*
X1810Y855D01*
X1800D01*
X1795Y850D01*
Y830D01*
X1800Y825D01*
X1810D01*
X1815Y830D01*
X1825Y855D02*
X1845D01*
Y850D01*
X1825Y830D01*
Y825D01*
X1937Y665D02*
X1932Y670D01*
X1922D01*
X1917Y665D01*
Y645D01*
X1922Y640D01*
X1932D01*
X1937Y645D01*
X1967Y670D02*
X1957Y665D01*
X1947Y655D01*
Y645D01*
X1952Y640D01*
X1962D01*
X1967Y645D01*
Y650D01*
X1962Y655D01*
X1947D01*
X454Y450D02*
X459Y455D01*
Y465D01*
X454Y470D01*
X434D01*
X429Y465D01*
Y455D01*
X434Y450D01*
X459Y420D02*
Y440D01*
X444D01*
X449Y430D01*
Y425D01*
X444Y420D01*
X434D01*
X429Y425D01*
Y435D01*
X434Y440D01*
X377Y1939D02*
X372Y1934D01*
Y1924D01*
X377Y1919D01*
X397D01*
X402Y1924D01*
Y1934D01*
X397Y1939D01*
X402Y1949D02*
Y1959D01*
Y1954D01*
X372D01*
X377Y1949D01*
X2962Y825D02*
X2992D01*
Y840D01*
X2987Y845D01*
X2982D01*
X2977Y840D01*
Y825D01*
Y840D01*
X2972Y845D01*
X2967D01*
X2962Y840D01*
Y825D01*
Y855D02*
X2987D01*
X2992Y860D01*
Y870D01*
X2987Y875D01*
X2962D01*
Y885D02*
Y905D01*
X2967D01*
X2987Y885D01*
X2992D01*
Y905D01*
X2962Y915D02*
Y935D01*
X2967D01*
X2987Y915D01*
X2992D01*
Y935D01*
X2962Y965D02*
Y945D01*
X2992D01*
Y965D01*
X2977Y945D02*
Y955D01*
X2992Y975D02*
X2962D01*
Y990D01*
X2967Y995D01*
X2977D01*
X2982Y990D01*
Y975D01*
Y985D02*
X2992Y995D01*
X859Y1737D02*
X839D01*
Y1722D01*
X849Y1727D01*
X854D01*
X859Y1722D01*
Y1712D01*
X854Y1707D01*
X844D01*
X839Y1712D01*
X869Y1737D02*
Y1717D01*
X879Y1707D01*
X889Y1717D01*
Y1737D01*
X369Y301D02*
X364Y306D01*
Y316D01*
X369Y321D01*
X374D01*
X379Y316D01*
Y311D01*
Y316D01*
X384Y321D01*
X389D01*
X394Y316D01*
Y306D01*
X389Y301D01*
X364Y331D02*
X384D01*
X394Y341D01*
X384Y351D01*
X364D01*
X369Y361D02*
X364Y366D01*
Y376D01*
X369Y381D01*
X374D01*
X379Y376D01*
Y371D01*
Y376D01*
X384Y381D01*
X389D01*
X394Y376D01*
Y366D01*
X389Y361D01*
M02*
