G04 Layer_Physical_Order=2*
G04 Layer_Color=16711680*
%FSLAX23Y23*%
%MOIN*%
G70*
G01*
G75*
%ADD10R,0.067X0.043*%
%ADD19O,0.024X0.087*%
%ADD20R,0.024X0.087*%
%ADD21R,0.043X0.067*%
%ADD22R,0.043X0.055*%
%ADD23R,0.055X0.043*%
%ADD28C,0.010*%
%ADD29C,0.030*%
%ADD34C,0.060*%
%ADD35C,0.050*%
%ADD36R,0.050X0.050*%
%ADD37C,0.060*%
%ADD38R,0.060X0.060*%
%ADD39R,0.060X0.060*%
%ADD40C,0.055*%
%ADD41R,0.059X0.059*%
%ADD42C,0.059*%
%ADD43R,0.059X0.059*%
%ADD44R,0.050X0.050*%
%ADD45C,0.157*%
%ADD46C,0.236*%
%ADD47C,0.025*%
%ADD48R,0.024X0.039*%
G04:AMPARAMS|DCode=49|XSize=24mil|YSize=39mil|CornerRadius=6mil|HoleSize=0mil|Usage=FLASHONLY|Rotation=180.000|XOffset=0mil|YOffset=0mil|HoleType=Round|Shape=RoundedRectangle|*
%AMROUNDEDRECTD49*
21,1,0.024,0.028,0,0,180.0*
21,1,0.012,0.039,0,0,180.0*
1,1,0.012,-0.006,0.014*
1,1,0.012,0.006,0.014*
1,1,0.012,0.006,-0.014*
1,1,0.012,-0.006,-0.014*
%
%ADD49ROUNDEDRECTD49*%
G04:AMPARAMS|DCode=50|XSize=118mil|YSize=71mil|CornerRadius=18mil|HoleSize=0mil|Usage=FLASHONLY|Rotation=90.000|XOffset=0mil|YOffset=0mil|HoleType=Round|Shape=RoundedRectangle|*
%AMROUNDEDRECTD50*
21,1,0.118,0.035,0,0,90.0*
21,1,0.083,0.071,0,0,90.0*
1,1,0.035,0.018,0.041*
1,1,0.035,0.018,-0.041*
1,1,0.035,-0.018,-0.041*
1,1,0.035,-0.018,0.041*
%
%ADD50ROUNDEDRECTD50*%
%ADD51R,0.071X0.118*%
G04:AMPARAMS|DCode=52|XSize=118mil|YSize=60mil|CornerRadius=15mil|HoleSize=0mil|Usage=FLASHONLY|Rotation=90.000|XOffset=0mil|YOffset=0mil|HoleType=Round|Shape=RoundedRectangle|*
%AMROUNDEDRECTD52*
21,1,0.118,0.030,0,0,90.0*
21,1,0.088,0.060,0,0,90.0*
1,1,0.030,0.015,0.044*
1,1,0.030,0.015,-0.044*
1,1,0.030,-0.015,-0.044*
1,1,0.030,-0.015,0.044*
%
%ADD52ROUNDEDRECTD52*%
G04:AMPARAMS|DCode=53|XSize=118mil|YSize=60mil|CornerRadius=0mil|HoleSize=0mil|Usage=FLASHONLY|Rotation=90.000|XOffset=0mil|YOffset=0mil|HoleType=Round|Shape=Octagon|*
%AMOCTAGOND53*
4,1,8,0.015,0.059,-0.015,0.059,-0.030,0.044,-0.030,-0.044,-0.015,-0.059,0.015,-0.059,0.030,-0.044,0.030,0.044,0.015,0.059,0.0*
%
%ADD53OCTAGOND53*%

%ADD54R,0.060X0.118*%
G04:AMPARAMS|DCode=55|XSize=118mil|YSize=60mil|CornerRadius=15mil|HoleSize=0mil|Usage=FLASHONLY|Rotation=0.000|XOffset=0mil|YOffset=0mil|HoleType=Round|Shape=RoundedRectangle|*
%AMROUNDEDRECTD55*
21,1,0.118,0.030,0,0,0.0*
21,1,0.088,0.060,0,0,0.0*
1,1,0.030,0.044,-0.015*
1,1,0.030,-0.044,-0.015*
1,1,0.030,-0.044,0.015*
1,1,0.030,0.044,0.015*
%
%ADD55ROUNDEDRECTD55*%
%ADD56R,0.118X0.060*%
G36*
X2715Y129D02*
X2720Y122D01*
X2727Y117D01*
X2736Y115D01*
X2745Y117D01*
X2752Y122D01*
X2757Y119D01*
X2758Y119D01*
Y98D01*
X2878D01*
Y79D01*
X2832D01*
Y39D01*
X2827D01*
Y34D01*
X2758D01*
Y15D01*
X136D01*
Y34D01*
X67D01*
Y39D01*
X62D01*
Y79D01*
X15D01*
Y98D01*
X132D01*
Y123D01*
X141D01*
X141Y122D01*
X149Y117D01*
X157Y115D01*
X166Y117D01*
X174Y122D01*
X179Y129D01*
X180Y134D01*
X2714D01*
X2715Y129D01*
D02*
G37*
G36*
X2759Y256D02*
X2759Y255D01*
Y245D01*
X2829D01*
Y240D01*
X2834D01*
Y200D01*
X2873D01*
X2875Y200D01*
X2878Y197D01*
Y178D01*
X2758D01*
Y157D01*
X2757Y156D01*
X2752Y154D01*
X2745Y159D01*
X2736Y161D01*
X2727Y159D01*
X2720Y154D01*
X2715Y147D01*
X2715Y144D01*
X2714Y144D01*
X180D01*
X179Y144D01*
X179Y147D01*
X174Y154D01*
X166Y159D01*
X157Y161D01*
X149Y159D01*
X141Y154D01*
X141Y153D01*
X132D01*
Y178D01*
X15D01*
Y197D01*
X19Y200D01*
X58D01*
Y240D01*
X63D01*
Y245D01*
X133D01*
Y255D01*
X132Y256D01*
X135Y260D01*
X2756D01*
X2759Y256D01*
D02*
G37*
%LPC*%
G36*
X1019Y97D02*
X1015Y96D01*
X1007Y91D01*
X1002Y84D01*
X1002Y80D01*
X1019D01*
Y97D01*
D02*
G37*
G36*
X733D02*
Y80D01*
X750D01*
X750Y84D01*
X745Y91D01*
X737Y96D01*
X733Y97D01*
D02*
G37*
G36*
X1306D02*
X1302Y96D01*
X1295Y91D01*
X1290Y84D01*
X1289Y80D01*
X1306D01*
Y97D01*
D02*
G37*
G36*
X1029D02*
Y80D01*
X1046D01*
X1045Y84D01*
X1040Y91D01*
X1032Y96D01*
X1029Y97D01*
D02*
G37*
G36*
X723D02*
X720Y96D01*
X712Y91D01*
X707Y84D01*
X706Y80D01*
X723D01*
Y97D01*
D02*
G37*
G36*
X174D02*
Y80D01*
X191D01*
X190Y84D01*
X186Y91D01*
X178Y96D01*
X174Y97D01*
D02*
G37*
G36*
X164D02*
X161Y96D01*
X153Y91D01*
X148Y84D01*
X147Y80D01*
X164D01*
Y97D01*
D02*
G37*
G36*
X450D02*
Y80D01*
X467D01*
X466Y84D01*
X461Y91D01*
X454Y96D01*
X450Y97D01*
D02*
G37*
G36*
X440D02*
X436Y96D01*
X429Y91D01*
X424Y84D01*
X423Y80D01*
X440D01*
Y97D01*
D02*
G37*
G36*
X1316D02*
Y80D01*
X1333D01*
X1332Y84D01*
X1327Y91D01*
X1320Y96D01*
X1316Y97D01*
D02*
G37*
G36*
X2448D02*
X2444Y96D01*
X2437Y91D01*
X2432Y84D01*
X2431Y80D01*
X2448D01*
Y97D01*
D02*
G37*
G36*
X2170D02*
Y80D01*
X2187D01*
X2187Y84D01*
X2182Y91D01*
X2174Y96D01*
X2170Y97D01*
D02*
G37*
G36*
X2727D02*
X2724Y96D01*
X2716Y91D01*
X2711Y84D01*
X2710Y80D01*
X2727D01*
Y97D01*
D02*
G37*
G36*
X2458D02*
Y80D01*
X2475D01*
X2474Y84D01*
X2469Y91D01*
X2462Y96D01*
X2458Y97D01*
D02*
G37*
G36*
X2160D02*
X2157Y96D01*
X2149Y91D01*
X2144Y84D01*
X2143Y80D01*
X2160D01*
Y97D01*
D02*
G37*
G36*
X1599D02*
Y80D01*
X1616D01*
X1616Y84D01*
X1611Y91D01*
X1603Y96D01*
X1599Y97D01*
D02*
G37*
G36*
X1589D02*
X1586Y96D01*
X1578Y91D01*
X1573Y84D01*
X1573Y80D01*
X1589D01*
Y97D01*
D02*
G37*
G36*
X1887D02*
Y80D01*
X1904D01*
X1903Y84D01*
X1898Y91D01*
X1891Y96D01*
X1887Y97D01*
D02*
G37*
G36*
X1877D02*
X1873Y96D01*
X1866Y91D01*
X1861Y84D01*
X1860Y80D01*
X1877D01*
Y97D01*
D02*
G37*
G36*
X723Y70D02*
X706D01*
X707Y66D01*
X712Y59D01*
X720Y54D01*
X723Y53D01*
Y70D01*
D02*
G37*
G36*
X467D02*
X450D01*
Y53D01*
X454Y54D01*
X461Y59D01*
X466Y66D01*
X467Y70D01*
D02*
G37*
G36*
X750D02*
X733D01*
Y53D01*
X737Y54D01*
X745Y59D01*
X750Y66D01*
X750Y70D01*
D02*
G37*
G36*
X1046D02*
X1029D01*
Y53D01*
X1032Y54D01*
X1040Y59D01*
X1045Y66D01*
X1046Y70D01*
D02*
G37*
G36*
X1019D02*
X1002D01*
X1002Y66D01*
X1007Y59D01*
X1015Y54D01*
X1019Y53D01*
Y70D01*
D02*
G37*
G36*
X2737Y97D02*
Y75D01*
Y53D01*
X2741Y54D01*
X2749Y59D01*
X2753Y65D01*
X2758Y64D01*
Y44D01*
X2822D01*
Y79D01*
X2759D01*
X2758Y79D01*
X2754Y82D01*
X2753Y84D01*
X2749Y91D01*
X2741Y96D01*
X2737Y97D01*
D02*
G37*
G36*
X136Y79D02*
X72D01*
Y44D01*
X136D01*
Y79D01*
D02*
G37*
G36*
X164Y70D02*
X147D01*
X148Y66D01*
X153Y59D01*
X161Y54D01*
X164Y53D01*
Y70D01*
D02*
G37*
G36*
X440D02*
X423D01*
X424Y66D01*
X429Y59D01*
X436Y54D01*
X440Y53D01*
Y70D01*
D02*
G37*
G36*
X191D02*
X174D01*
Y53D01*
X178Y54D01*
X186Y59D01*
X190Y66D01*
X191Y70D01*
D02*
G37*
G36*
X1306D02*
X1289D01*
X1290Y66D01*
X1295Y59D01*
X1302Y54D01*
X1306Y53D01*
Y70D01*
D02*
G37*
G36*
X2187D02*
X2170D01*
Y53D01*
X2174Y54D01*
X2182Y59D01*
X2187Y66D01*
X2187Y70D01*
D02*
G37*
G36*
X2160D02*
X2143D01*
X2144Y66D01*
X2149Y59D01*
X2157Y54D01*
X2160Y53D01*
Y70D01*
D02*
G37*
G36*
X2448D02*
X2431D01*
X2432Y66D01*
X2437Y59D01*
X2444Y54D01*
X2448Y53D01*
Y70D01*
D02*
G37*
G36*
X2727D02*
X2710D01*
X2711Y66D01*
X2716Y59D01*
X2724Y54D01*
X2727Y53D01*
Y70D01*
D02*
G37*
G36*
X2475D02*
X2458D01*
Y53D01*
X2462Y54D01*
X2469Y59D01*
X2474Y66D01*
X2475Y70D01*
D02*
G37*
G36*
X1589D02*
X1573D01*
X1573Y66D01*
X1578Y59D01*
X1586Y54D01*
X1589Y53D01*
Y70D01*
D02*
G37*
G36*
X1333D02*
X1316D01*
Y53D01*
X1320Y54D01*
X1327Y59D01*
X1332Y66D01*
X1333Y70D01*
D02*
G37*
G36*
X1616D02*
X1599D01*
Y53D01*
X1603Y54D01*
X1611Y59D01*
X1616Y66D01*
X1616Y70D01*
D02*
G37*
G36*
X1904D02*
X1887D01*
Y53D01*
X1891Y54D01*
X1898Y59D01*
X1903Y66D01*
X1904Y70D01*
D02*
G37*
G36*
X1877D02*
X1860D01*
X1861Y66D01*
X1866Y59D01*
X1873Y54D01*
X1877Y53D01*
Y70D01*
D02*
G37*
G36*
X733Y219D02*
Y202D01*
X750D01*
X750Y206D01*
X745Y213D01*
X737Y218D01*
X733Y219D01*
D02*
G37*
G36*
X723D02*
X720Y218D01*
X712Y213D01*
X707Y206D01*
X706Y202D01*
X723D01*
Y219D01*
D02*
G37*
G36*
X1019D02*
X1015Y218D01*
X1007Y213D01*
X1002Y206D01*
X1002Y202D01*
X1019D01*
Y219D01*
D02*
G37*
G36*
X1306D02*
X1302Y218D01*
X1295Y213D01*
X1290Y206D01*
X1289Y202D01*
X1306D01*
Y219D01*
D02*
G37*
G36*
X1029D02*
Y202D01*
X1046D01*
X1045Y206D01*
X1040Y213D01*
X1032Y218D01*
X1029Y219D01*
D02*
G37*
G36*
X160D02*
X157Y218D01*
X149Y213D01*
X144Y206D01*
X143Y202D01*
X160D01*
Y219D01*
D02*
G37*
G36*
X2824Y235D02*
X2759D01*
Y225D01*
X2761Y215D01*
X2767Y207D01*
X2775Y202D01*
X2785Y200D01*
X2824D01*
Y235D01*
D02*
G37*
G36*
X170Y219D02*
Y202D01*
X187D01*
X187Y206D01*
X182Y213D01*
X174Y218D01*
X170Y219D01*
D02*
G37*
G36*
X446D02*
Y202D01*
X463D01*
X462Y206D01*
X457Y213D01*
X450Y218D01*
X446Y219D01*
D02*
G37*
G36*
X436D02*
X432Y218D01*
X425Y213D01*
X420Y206D01*
X419Y202D01*
X436D01*
Y219D01*
D02*
G37*
G36*
X1316D02*
Y202D01*
X1333D01*
X1332Y206D01*
X1327Y213D01*
X1320Y218D01*
X1316Y219D01*
D02*
G37*
G36*
X2448D02*
X2444Y218D01*
X2437Y213D01*
X2432Y206D01*
X2431Y202D01*
X2448D01*
Y219D01*
D02*
G37*
G36*
X2170D02*
Y202D01*
X2187D01*
X2187Y206D01*
X2182Y213D01*
X2174Y218D01*
X2170Y219D01*
D02*
G37*
G36*
X2458D02*
Y202D01*
X2475D01*
X2474Y206D01*
X2469Y213D01*
X2462Y218D01*
X2458Y219D01*
D02*
G37*
G36*
X2733D02*
Y202D01*
X2750D01*
X2750Y206D01*
X2745Y213D01*
X2737Y218D01*
X2733Y219D01*
D02*
G37*
G36*
X2723D02*
X2720Y218D01*
X2712Y213D01*
X2707Y206D01*
X2706Y202D01*
X2723D01*
Y219D01*
D02*
G37*
G36*
X1596D02*
Y202D01*
X1612D01*
X1612Y206D01*
X1607Y213D01*
X1599Y218D01*
X1596Y219D01*
D02*
G37*
G36*
X1586D02*
X1582Y218D01*
X1574Y213D01*
X1569Y206D01*
X1569Y202D01*
X1586D01*
Y219D01*
D02*
G37*
G36*
X1873D02*
X1869Y218D01*
X1862Y213D01*
X1857Y206D01*
X1856Y202D01*
X1873D01*
Y219D01*
D02*
G37*
G36*
X2160D02*
X2157Y218D01*
X2149Y213D01*
X2144Y206D01*
X2143Y202D01*
X2160D01*
Y219D01*
D02*
G37*
G36*
X1883D02*
Y202D01*
X1900D01*
X1899Y206D01*
X1894Y213D01*
X1887Y218D01*
X1883Y219D01*
D02*
G37*
G36*
X1019Y192D02*
X1002D01*
X1002Y188D01*
X1007Y181D01*
X1015Y176D01*
X1019Y175D01*
Y192D01*
D02*
G37*
G36*
X750D02*
X733D01*
Y175D01*
X737Y176D01*
X745Y181D01*
X750Y188D01*
X750Y192D01*
D02*
G37*
G36*
X1046D02*
X1029D01*
Y175D01*
X1032Y176D01*
X1040Y181D01*
X1045Y188D01*
X1046Y192D01*
D02*
G37*
G36*
X1333D02*
X1316D01*
Y175D01*
X1320Y176D01*
X1327Y181D01*
X1332Y188D01*
X1333Y192D01*
D02*
G37*
G36*
X1306D02*
X1289D01*
X1290Y188D01*
X1295Y181D01*
X1302Y176D01*
X1306Y175D01*
Y192D01*
D02*
G37*
G36*
X187D02*
X170D01*
Y175D01*
X174Y176D01*
X182Y181D01*
X187Y188D01*
X187Y192D01*
D02*
G37*
G36*
X160D02*
X143D01*
X144Y188D01*
X149Y181D01*
X157Y176D01*
X160Y175D01*
Y192D01*
D02*
G37*
G36*
X436D02*
X419D01*
X420Y188D01*
X425Y181D01*
X432Y176D01*
X436Y175D01*
Y192D01*
D02*
G37*
G36*
X723D02*
X706D01*
X707Y188D01*
X712Y181D01*
X720Y176D01*
X723Y175D01*
Y192D01*
D02*
G37*
G36*
X463D02*
X446D01*
Y175D01*
X450Y176D01*
X457Y181D01*
X462Y188D01*
X463Y192D01*
D02*
G37*
G36*
X1586D02*
X1569D01*
X1569Y188D01*
X1574Y181D01*
X1582Y176D01*
X1586Y175D01*
Y192D01*
D02*
G37*
G36*
X2475D02*
X2458D01*
Y175D01*
X2462Y176D01*
X2469Y181D01*
X2474Y188D01*
X2475Y192D01*
D02*
G37*
G36*
X2448D02*
X2431D01*
X2432Y188D01*
X2437Y181D01*
X2444Y176D01*
X2448Y175D01*
Y192D01*
D02*
G37*
G36*
X2723D02*
X2706D01*
X2707Y188D01*
X2712Y181D01*
X2720Y176D01*
X2723Y175D01*
Y192D01*
D02*
G37*
G36*
X133Y235D02*
X68D01*
Y200D01*
X107D01*
X117Y202D01*
X125Y207D01*
X131Y215D01*
X133Y225D01*
Y235D01*
D02*
G37*
G36*
X2750Y192D02*
X2733D01*
Y175D01*
X2737Y176D01*
X2745Y181D01*
X2750Y188D01*
X2750Y192D01*
D02*
G37*
G36*
X1873D02*
X1856D01*
X1857Y188D01*
X1862Y181D01*
X1869Y176D01*
X1873Y175D01*
Y192D01*
D02*
G37*
G36*
X1612D02*
X1596D01*
Y175D01*
X1599Y176D01*
X1607Y181D01*
X1612Y188D01*
X1612Y192D01*
D02*
G37*
G36*
X1900D02*
X1883D01*
Y175D01*
X1887Y176D01*
X1894Y181D01*
X1899Y188D01*
X1900Y192D01*
D02*
G37*
G36*
X2187D02*
X2170D01*
Y175D01*
X2174Y176D01*
X2182Y181D01*
X2187Y188D01*
X2187Y192D01*
D02*
G37*
G36*
X2160D02*
X2143D01*
X2144Y188D01*
X2149Y181D01*
X2157Y176D01*
X2160Y175D01*
Y192D01*
D02*
G37*
%LPD*%
G36*
X2148Y1948D02*
X2142Y1944D01*
X2136Y1935D01*
X2132Y1926D01*
X2130Y1915D01*
X2131Y1912D01*
X2112Y1893D01*
X2106Y1885D01*
X2104Y1875D01*
Y1791D01*
X2106Y1782D01*
X2112Y1773D01*
X2149Y1736D01*
Y1697D01*
X2171D01*
Y1661D01*
X1898D01*
X1896Y1666D01*
X1921Y1691D01*
X1975D01*
Y1778D01*
X1970D01*
X1968Y1783D01*
X1972Y1787D01*
X1975Y1796D01*
X1976Y1805D01*
X1975Y1813D01*
X1979Y1815D01*
X1980Y1816D01*
X2017Y1778D01*
X2012Y1773D01*
X2008Y1763D01*
X2007Y1752D01*
X2008Y1742D01*
X2012Y1732D01*
X2019Y1724D01*
X2027Y1717D01*
X2037Y1713D01*
X2047Y1712D01*
X2058Y1713D01*
X2067Y1717D01*
X2076Y1724D01*
X2082Y1732D01*
X2086Y1742D01*
X2088Y1752D01*
X2086Y1763D01*
X2082Y1773D01*
X2076Y1781D01*
X2067Y1787D01*
X2058Y1791D01*
X2047Y1793D01*
X2046Y1793D01*
X2031Y1808D01*
X2033Y1812D01*
X2042D01*
Y1847D01*
X2007D01*
Y1838D01*
X2003Y1836D01*
X1983Y1856D01*
X1978Y1859D01*
X1972Y1860D01*
X1875D01*
X1869Y1859D01*
X1864Y1856D01*
X1831Y1823D01*
X1825Y1825D01*
X1824Y1830D01*
X1819Y1837D01*
X1812Y1842D01*
X1808Y1843D01*
Y1821D01*
Y1799D01*
X1812Y1800D01*
X1816Y1803D01*
X1821Y1800D01*
Y1778D01*
X1805D01*
Y1691D01*
X1868D01*
Y1778D01*
X1852D01*
Y1801D01*
X1881Y1830D01*
X1910D01*
X1912Y1825D01*
X1910Y1823D01*
X1907Y1814D01*
X1906Y1805D01*
X1907Y1796D01*
X1910Y1787D01*
X1914Y1783D01*
X1912Y1778D01*
X1911D01*
Y1724D01*
X1870Y1683D01*
X1702D01*
X1700Y1688D01*
X1704Y1693D01*
X1707Y1701D01*
X1709Y1711D01*
X1707Y1720D01*
X1704Y1728D01*
X1698Y1736D01*
X1691Y1741D01*
X1682Y1745D01*
X1673Y1746D01*
X1664Y1745D01*
X1656Y1741D01*
X1648Y1736D01*
X1643Y1728D01*
X1642Y1726D01*
X1491D01*
X1463Y1754D01*
X1458Y1757D01*
X1452Y1758D01*
X1416D01*
X1411Y1757D01*
X1406Y1754D01*
X1362Y1710D01*
X1074D01*
X1008Y1777D01*
X1007Y1777D01*
X1007Y1783D01*
X1012Y1787D01*
X1019Y1795D01*
X1023Y1805D01*
X1024Y1815D01*
X1023Y1826D01*
X1019Y1835D01*
X1012Y1844D01*
X1004Y1850D01*
X995Y1854D01*
X984Y1855D01*
X974Y1854D01*
X964Y1850D01*
X956Y1844D01*
X950Y1835D01*
X946Y1826D01*
X944Y1815D01*
X946Y1805D01*
X950Y1795D01*
X956Y1787D01*
X958Y1786D01*
X957Y1780D01*
X955Y1780D01*
X950Y1777D01*
X915Y1742D01*
X744D01*
X741Y1742D01*
X708D01*
X705Y1742D01*
X634D01*
X628Y1741D01*
X626Y1739D01*
X623Y1741D01*
X614Y1742D01*
X605Y1741D01*
X597Y1737D01*
X589Y1732D01*
X588Y1730D01*
X583Y1731D01*
Y1740D01*
X589D01*
Y1815D01*
X583D01*
Y1822D01*
X587Y1822D01*
X595Y1826D01*
X603Y1831D01*
X608Y1839D01*
X612Y1847D01*
X613Y1855D01*
X647Y1890D01*
X708D01*
X715Y1882D01*
X723Y1875D01*
X733Y1871D01*
X743Y1870D01*
X753Y1871D01*
X763Y1875D01*
X772Y1882D01*
X778Y1890D01*
X826D01*
X833Y1882D01*
X841Y1875D01*
X851Y1871D01*
X861Y1870D01*
X872Y1871D01*
X881Y1875D01*
X890Y1882D01*
X896Y1890D01*
X900Y1900D01*
X901Y1910D01*
X900Y1921D01*
X896Y1931D01*
X890Y1939D01*
X881Y1945D01*
X874Y1948D01*
X875Y1953D01*
X945D01*
Y1920D01*
X984D01*
X1024D01*
Y1953D01*
X2146D01*
X2148Y1948D01*
D02*
G37*
G36*
X3023Y1691D02*
X3020Y1688D01*
X2993D01*
Y1648D01*
X2988D01*
Y1643D01*
X2948D01*
Y1630D01*
X2944Y1628D01*
X2904Y1668D01*
X2895Y1674D01*
X2886Y1676D01*
X2868D01*
X2865Y1681D01*
X2868Y1684D01*
X2872Y1693D01*
X2873Y1703D01*
X2872Y1713D01*
X2868Y1722D01*
X2862Y1730D01*
X2861Y1731D01*
Y1736D01*
X2859Y1746D01*
X2853Y1754D01*
X2791Y1815D01*
Y1854D01*
X2618D01*
Y1815D01*
X2576Y1774D01*
X2571Y1766D01*
X2569Y1756D01*
Y1728D01*
X2564Y1727D01*
X2562Y1730D01*
X2554Y1736D01*
X2545Y1739D01*
X2535Y1741D01*
X2530Y1740D01*
X2528Y1743D01*
X2527Y1745D01*
X2530Y1753D01*
X2531Y1762D01*
X2530Y1771D01*
X2527Y1779D01*
X2521Y1787D01*
X2514Y1792D01*
X2507Y1795D01*
Y1879D01*
X2511Y1881D01*
X2520Y1887D01*
X2526Y1895D01*
X2530Y1905D01*
X2531Y1915D01*
X2530Y1926D01*
X2526Y1935D01*
X2520Y1944D01*
X2513Y1948D01*
X2515Y1953D01*
X2568D01*
X2569Y1948D01*
X2563Y1944D01*
X2557Y1935D01*
X2553Y1926D01*
X2551Y1915D01*
X2553Y1905D01*
X2557Y1895D01*
X2563Y1887D01*
X2571Y1881D01*
X2581Y1877D01*
X2591Y1875D01*
X2602Y1877D01*
X2611Y1881D01*
X2620Y1887D01*
X2626Y1895D01*
X2630Y1905D01*
X2631Y1915D01*
X2630Y1926D01*
X2626Y1935D01*
X2620Y1944D01*
X2613Y1948D01*
X2615Y1953D01*
X2668D01*
X2669Y1948D01*
X2663Y1944D01*
X2657Y1935D01*
X2653Y1926D01*
X2651Y1915D01*
X2653Y1905D01*
X2657Y1895D01*
X2663Y1887D01*
X2671Y1881D01*
X2681Y1877D01*
X2691Y1875D01*
X2702Y1877D01*
X2711Y1881D01*
X2720Y1887D01*
X2726Y1895D01*
X2730Y1905D01*
X2731Y1915D01*
X2730Y1926D01*
X2726Y1935D01*
X2720Y1944D01*
X2713Y1948D01*
X2715Y1953D01*
X2752D01*
Y1920D01*
X2791D01*
X2831D01*
Y1953D01*
X3023D01*
X3023Y1691D01*
D02*
G37*
G36*
X2469Y1948D02*
X2463Y1944D01*
X2457Y1935D01*
X2453Y1926D01*
X2451Y1915D01*
X2453Y1905D01*
X2457Y1895D01*
X2463Y1887D01*
X2471Y1881D01*
X2476Y1879D01*
Y1791D01*
X2471Y1787D01*
X2465Y1779D01*
X2462Y1771D01*
X2461Y1762D01*
X2462Y1753D01*
X2465Y1744D01*
X2471Y1737D01*
X2478Y1731D01*
X2487Y1728D01*
X2496Y1727D01*
X2500Y1727D01*
X2503Y1722D01*
X2502Y1722D01*
X2498Y1713D01*
X2497Y1703D01*
X2497Y1701D01*
X2455Y1659D01*
X2295D01*
X2293Y1663D01*
X2294Y1665D01*
X2298Y1674D01*
X2299Y1683D01*
X2298Y1692D01*
X2294Y1701D01*
X2293Y1702D01*
X2291Y1707D01*
X2291D01*
X2291Y1707D01*
Y1766D01*
X2248D01*
Y1714D01*
X2246Y1714D01*
X2241Y1710D01*
X2236Y1712D01*
Y1760D01*
X2197D01*
X2159Y1798D01*
X2161Y1803D01*
X2236D01*
Y1819D01*
X2285D01*
Y1813D01*
X2309D01*
X2313Y1808D01*
X2312Y1802D01*
X2313Y1793D01*
X2317Y1784D01*
X2322Y1777D01*
X2329Y1772D01*
Y1763D01*
X2327Y1761D01*
X2324Y1756D01*
X2322Y1750D01*
Y1722D01*
X2324Y1716D01*
X2327Y1711D01*
X2332Y1707D01*
X2339Y1706D01*
X2350D01*
X2357Y1707D01*
X2362Y1711D01*
X2365Y1716D01*
X2367Y1722D01*
Y1750D01*
X2365Y1756D01*
X2362Y1761D01*
X2360Y1763D01*
Y1769D01*
X2365Y1771D01*
X2372Y1777D01*
X2378Y1784D01*
X2381Y1793D01*
X2383Y1802D01*
X2381Y1811D01*
X2378Y1819D01*
X2372Y1827D01*
X2365Y1832D01*
X2357Y1836D01*
X2347Y1837D01*
X2338Y1836D01*
X2334Y1834D01*
X2329Y1837D01*
Y1872D01*
X2329Y1873D01*
X2332Y1876D01*
X2365D01*
Y1915D01*
X2370D01*
Y1920D01*
X2410D01*
Y1953D01*
X2468D01*
X2469Y1948D01*
D02*
G37*
G36*
X2569Y1677D02*
Y1671D01*
X2571Y1662D01*
X2576Y1653D01*
X2598Y1632D01*
X2606Y1627D01*
X2614Y1625D01*
X2614Y1620D01*
X2600Y1614D01*
X2583Y1604D01*
X2568Y1590D01*
X2555Y1575D01*
X2544Y1558D01*
X2536Y1539D01*
X2532Y1520D01*
X2531Y1505D01*
X2787D01*
X2786Y1520D01*
X2781Y1539D01*
X2773Y1558D01*
X2763Y1575D01*
X2750Y1590D01*
X2734Y1604D01*
X2717Y1614D01*
X2703Y1620D01*
X2704Y1625D01*
X2875D01*
X2948Y1551D01*
X2948Y1548D01*
X2949Y1537D01*
X2953Y1527D01*
X2960Y1519D01*
X2963Y1517D01*
Y1447D01*
X2948D01*
Y1422D01*
X2946Y1422D01*
X2942Y1419D01*
X2937Y1420D01*
Y1457D01*
X2784D01*
X2781Y1462D01*
X2786Y1480D01*
X2787Y1495D01*
X2531D01*
X2532Y1480D01*
X2536Y1460D01*
X2544Y1441D01*
X2554Y1426D01*
X2550Y1423D01*
X2550Y1423D01*
X2545Y1426D01*
X2539Y1427D01*
X2499D01*
X2493Y1426D01*
X2488Y1423D01*
X2488Y1423D01*
X2036D01*
X2034Y1427D01*
X2045Y1438D01*
X2048Y1443D01*
X2048Y1444D01*
X2054Y1446D01*
X2059Y1443D01*
X2068Y1439D01*
X2079Y1437D01*
X2089Y1439D01*
X2099Y1443D01*
X2107Y1449D01*
X2114Y1457D01*
X2118Y1467D01*
X2119Y1478D01*
X2118Y1488D01*
X2114Y1498D01*
X2107Y1506D01*
X2099Y1512D01*
X2089Y1517D01*
X2084Y1517D01*
X2082Y1523D01*
X2090Y1530D01*
X2093Y1535D01*
X2094Y1541D01*
X2099Y1543D01*
X2107Y1549D01*
X2114Y1557D01*
X2118Y1567D01*
X2119Y1578D01*
X2118Y1588D01*
X2114Y1598D01*
X2108Y1605D01*
X2109Y1610D01*
X2148D01*
X2150Y1605D01*
X2144Y1598D01*
X2140Y1588D01*
X2139Y1583D01*
X2179D01*
X2218D01*
X2218Y1588D01*
X2214Y1598D01*
X2210Y1603D01*
X2212Y1608D01*
X2245D01*
X2248Y1603D01*
X2244Y1598D01*
X2240Y1588D01*
X2238Y1578D01*
X2240Y1567D01*
X2244Y1557D01*
X2250Y1549D01*
X2259Y1543D01*
X2268Y1539D01*
X2279Y1537D01*
X2289Y1539D01*
X2299Y1543D01*
X2307Y1549D01*
X2314Y1557D01*
X2318Y1567D01*
X2319Y1578D01*
X2318Y1588D01*
X2314Y1598D01*
X2310Y1603D01*
X2312Y1608D01*
X2345D01*
X2348Y1603D01*
X2344Y1598D01*
X2340Y1588D01*
X2338Y1578D01*
X2340Y1567D01*
X2344Y1557D01*
X2350Y1549D01*
X2359Y1543D01*
X2368Y1539D01*
X2379Y1537D01*
X2389Y1539D01*
X2399Y1543D01*
X2407Y1549D01*
X2414Y1557D01*
X2418Y1567D01*
X2419Y1578D01*
X2418Y1588D01*
X2414Y1598D01*
X2410Y1603D01*
X2412Y1608D01*
X2445D01*
X2448Y1603D01*
X2444Y1598D01*
X2440Y1588D01*
X2438Y1578D01*
X2440Y1567D01*
X2444Y1557D01*
X2450Y1549D01*
X2459Y1543D01*
X2468Y1539D01*
X2479Y1537D01*
X2489Y1539D01*
X2499Y1543D01*
X2507Y1549D01*
X2514Y1557D01*
X2518Y1567D01*
X2519Y1578D01*
X2518Y1588D01*
X2514Y1598D01*
X2507Y1606D01*
X2499Y1612D01*
X2491Y1616D01*
X2489Y1621D01*
X2533Y1665D01*
X2535Y1665D01*
X2545Y1666D01*
X2554Y1670D01*
X2562Y1676D01*
X2564Y1679D01*
X2569Y1677D01*
D02*
G37*
G36*
X730Y1948D02*
X723Y1945D01*
X717Y1941D01*
X637D01*
X627Y1939D01*
X619Y1933D01*
X577Y1891D01*
X568Y1890D01*
X560Y1887D01*
X553Y1881D01*
X547Y1874D01*
X543Y1865D01*
X542Y1857D01*
X539Y1854D01*
X534Y1846D01*
X532Y1836D01*
Y1815D01*
X503D01*
Y1778D01*
Y1740D01*
X532D01*
Y1652D01*
Y1625D01*
X496D01*
X370Y1750D01*
X362Y1756D01*
X352Y1758D01*
X349D01*
Y1764D01*
X309D01*
X308Y1769D01*
X322Y1776D01*
X335Y1787D01*
X347Y1801D01*
X355Y1816D01*
X360Y1833D01*
X361Y1845D01*
X184D01*
X185Y1833D01*
X190Y1816D01*
X198Y1801D01*
X207Y1791D01*
X204Y1786D01*
X183D01*
Y1768D01*
X181Y1766D01*
X179Y1756D01*
X181Y1746D01*
X183Y1743D01*
Y1726D01*
X214D01*
X226Y1714D01*
X234Y1709D01*
X244Y1707D01*
X273D01*
Y1678D01*
X311D01*
Y1673D01*
X316D01*
Y1642D01*
X349D01*
X349Y1642D01*
Y1642D01*
X353Y1641D01*
X357Y1638D01*
X361Y1638D01*
Y1659D01*
X371D01*
Y1638D01*
X375Y1638D01*
X382Y1643D01*
X387Y1651D01*
X388Y1654D01*
X393Y1655D01*
X426Y1623D01*
X423Y1618D01*
X415Y1622D01*
X395Y1627D01*
X380Y1628D01*
Y1500D01*
X375D01*
Y1495D01*
X247D01*
X248Y1480D01*
X253Y1460D01*
X261Y1441D01*
X271Y1424D01*
X284Y1409D01*
X300Y1396D01*
X314Y1387D01*
X313Y1382D01*
X197D01*
X116Y1463D01*
X117Y1467D01*
X119Y1478D01*
X117Y1488D01*
X113Y1497D01*
X107Y1506D01*
X99Y1512D01*
X89Y1516D01*
X79Y1517D01*
X68Y1516D01*
X59Y1512D01*
X51Y1506D01*
X44Y1497D01*
X40Y1488D01*
X39Y1478D01*
X40Y1467D01*
X44Y1458D01*
X51Y1449D01*
X59Y1443D01*
X68Y1439D01*
X79Y1438D01*
X89Y1439D01*
X94Y1441D01*
X169Y1366D01*
X167Y1362D01*
X120D01*
X117Y1366D01*
X117Y1367D01*
X119Y1378D01*
X117Y1388D01*
X113Y1397D01*
X107Y1406D01*
X99Y1412D01*
X89Y1416D01*
X79Y1417D01*
X68Y1416D01*
X59Y1412D01*
X51Y1406D01*
X44Y1397D01*
X40Y1388D01*
X39Y1378D01*
X40Y1367D01*
X44Y1358D01*
X51Y1349D01*
X59Y1343D01*
X68Y1339D01*
X79Y1338D01*
X89Y1339D01*
X95Y1342D01*
X101Y1336D01*
X105Y1333D01*
X107Y1328D01*
X94Y1314D01*
X89Y1316D01*
X79Y1317D01*
X68Y1316D01*
X59Y1312D01*
X51Y1306D01*
X44Y1297D01*
X40Y1288D01*
X39Y1278D01*
X40Y1267D01*
X44Y1258D01*
X51Y1249D01*
X59Y1243D01*
X68Y1239D01*
X79Y1238D01*
X89Y1239D01*
X99Y1243D01*
X107Y1249D01*
X113Y1258D01*
X117Y1267D01*
X119Y1278D01*
X117Y1288D01*
X115Y1293D01*
X134Y1311D01*
X184D01*
X186Y1307D01*
X94Y1214D01*
X89Y1216D01*
X79Y1217D01*
X68Y1216D01*
X59Y1212D01*
X51Y1206D01*
X44Y1197D01*
X40Y1188D01*
X39Y1178D01*
X40Y1167D01*
X44Y1158D01*
X51Y1149D01*
X59Y1143D01*
X68Y1139D01*
X79Y1138D01*
X89Y1139D01*
X99Y1143D01*
X103Y1146D01*
X108Y1144D01*
Y1128D01*
X94Y1114D01*
X89Y1116D01*
X79Y1117D01*
X68Y1116D01*
X59Y1112D01*
X51Y1106D01*
X44Y1097D01*
X40Y1088D01*
X39Y1078D01*
X40Y1067D01*
X44Y1058D01*
X51Y1049D01*
X59Y1043D01*
X68Y1039D01*
X79Y1038D01*
X89Y1039D01*
X99Y1043D01*
X103Y1046D01*
X108Y1044D01*
Y1025D01*
X96Y1013D01*
X89Y1016D01*
X79Y1017D01*
X68Y1016D01*
X59Y1012D01*
X51Y1006D01*
X44Y997D01*
X40Y988D01*
X39Y978D01*
X40Y967D01*
X42Y963D01*
X23Y944D01*
X20Y939D01*
X20Y939D01*
X15Y942D01*
Y1953D01*
X729D01*
X730Y1948D01*
D02*
G37*
G36*
X2050Y1605D02*
X2044Y1598D01*
X2040Y1588D01*
X2038Y1578D01*
X2040Y1567D01*
X2044Y1557D01*
X2050Y1549D01*
X2056Y1545D01*
X2056Y1540D01*
X2023Y1507D01*
X2020Y1502D01*
X2019Y1498D01*
X2014Y1498D01*
X2014Y1498D01*
X2007Y1506D01*
X1999Y1512D01*
X1989Y1517D01*
X1979Y1518D01*
X1968Y1517D01*
X1959Y1512D01*
X1950Y1506D01*
X1944Y1498D01*
X1940Y1488D01*
X1938Y1478D01*
X1940Y1467D01*
X1944Y1457D01*
X1950Y1449D01*
X1952Y1448D01*
X1950Y1443D01*
X1907D01*
X1906Y1448D01*
X1907Y1449D01*
X1914Y1457D01*
X1918Y1467D01*
X1919Y1478D01*
X1918Y1488D01*
X1914Y1498D01*
X1907Y1506D01*
X1899Y1512D01*
X1889Y1517D01*
X1879Y1518D01*
X1868Y1517D01*
X1859Y1512D01*
X1850Y1506D01*
X1844Y1498D01*
X1840Y1488D01*
X1838Y1478D01*
X1840Y1467D01*
X1844Y1457D01*
X1850Y1449D01*
X1852Y1448D01*
X1850Y1443D01*
X1807D01*
X1806Y1448D01*
X1807Y1449D01*
X1814Y1457D01*
X1818Y1467D01*
X1818Y1473D01*
X1779D01*
X1739D01*
X1740Y1467D01*
X1744Y1457D01*
X1750Y1449D01*
X1752Y1448D01*
X1750Y1443D01*
X1707D01*
X1706Y1448D01*
X1707Y1449D01*
X1714Y1457D01*
X1718Y1467D01*
X1719Y1478D01*
X1718Y1488D01*
X1714Y1498D01*
X1707Y1506D01*
X1699Y1512D01*
X1689Y1517D01*
X1679Y1518D01*
X1668Y1517D01*
X1659Y1512D01*
X1650Y1506D01*
X1644Y1498D01*
X1640Y1488D01*
X1638Y1478D01*
X1640Y1467D01*
X1640Y1467D01*
X1619Y1446D01*
X1612D01*
X1609Y1451D01*
X1614Y1457D01*
X1618Y1467D01*
X1619Y1478D01*
X1618Y1488D01*
X1614Y1498D01*
X1607Y1506D01*
X1599Y1512D01*
X1589Y1517D01*
X1579Y1518D01*
X1568Y1517D01*
X1559Y1512D01*
X1550Y1506D01*
X1544Y1498D01*
X1540Y1488D01*
X1538Y1478D01*
X1540Y1467D01*
X1544Y1457D01*
X1548Y1451D01*
X1546Y1446D01*
X1512D01*
X1509Y1451D01*
X1514Y1457D01*
X1518Y1467D01*
X1519Y1478D01*
X1518Y1488D01*
X1514Y1498D01*
X1507Y1506D01*
X1499Y1512D01*
X1489Y1517D01*
X1479Y1518D01*
X1468Y1517D01*
X1459Y1512D01*
X1450Y1506D01*
X1444Y1498D01*
X1440Y1488D01*
X1438Y1478D01*
X1439Y1471D01*
X1435Y1466D01*
X1424D01*
X1422Y1466D01*
X1418Y1470D01*
X1419Y1478D01*
X1418Y1488D01*
X1414Y1498D01*
X1407Y1506D01*
X1399Y1512D01*
X1389Y1517D01*
X1379Y1518D01*
X1368Y1517D01*
X1359Y1512D01*
X1350Y1506D01*
X1344Y1498D01*
X1340Y1488D01*
X1338Y1478D01*
X1340Y1467D01*
X1344Y1457D01*
X1350Y1449D01*
X1355Y1446D01*
X1353Y1441D01*
X1305D01*
X1303Y1446D01*
X1307Y1449D01*
X1314Y1457D01*
X1318Y1467D01*
X1319Y1478D01*
X1318Y1488D01*
X1314Y1498D01*
X1307Y1506D01*
X1299Y1512D01*
X1289Y1517D01*
X1279Y1518D01*
X1268Y1517D01*
X1259Y1512D01*
X1250Y1506D01*
X1244Y1498D01*
X1240Y1488D01*
X1238Y1478D01*
X1240Y1467D01*
X1242Y1462D01*
X1215Y1436D01*
X1195D01*
X1194Y1441D01*
X1199Y1443D01*
X1207Y1449D01*
X1214Y1457D01*
X1218Y1467D01*
X1219Y1478D01*
X1218Y1488D01*
X1214Y1498D01*
X1208Y1505D01*
X1209Y1510D01*
X1228D01*
X1234Y1511D01*
X1239Y1515D01*
X1265Y1540D01*
X1268Y1539D01*
X1279Y1537D01*
X1289Y1539D01*
X1299Y1543D01*
X1307Y1549D01*
X1314Y1557D01*
X1318Y1567D01*
X1319Y1578D01*
X1318Y1588D01*
X1314Y1598D01*
X1308Y1605D01*
X1309Y1610D01*
X1348D01*
X1350Y1605D01*
X1344Y1598D01*
X1340Y1588D01*
X1338Y1578D01*
X1340Y1567D01*
X1344Y1557D01*
X1350Y1549D01*
X1359Y1543D01*
X1368Y1539D01*
X1379Y1537D01*
X1389Y1539D01*
X1399Y1543D01*
X1407Y1549D01*
X1414Y1557D01*
X1418Y1567D01*
X1419Y1578D01*
X1418Y1588D01*
X1414Y1598D01*
X1408Y1605D01*
X1409Y1610D01*
X1448D01*
X1450Y1605D01*
X1444Y1598D01*
X1440Y1588D01*
X1439Y1583D01*
X1479D01*
X1518D01*
X1518Y1588D01*
X1514Y1598D01*
X1508Y1605D01*
X1509Y1610D01*
X1548D01*
X1550Y1605D01*
X1544Y1598D01*
X1540Y1588D01*
X1538Y1578D01*
X1540Y1567D01*
X1544Y1557D01*
X1550Y1549D01*
X1559Y1543D01*
X1568Y1539D01*
X1579Y1537D01*
X1589Y1539D01*
X1599Y1543D01*
X1607Y1549D01*
X1614Y1557D01*
X1618Y1567D01*
X1619Y1578D01*
X1618Y1588D01*
X1614Y1598D01*
X1608Y1605D01*
X1609Y1610D01*
X1648D01*
X1650Y1605D01*
X1644Y1598D01*
X1640Y1588D01*
X1638Y1578D01*
X1640Y1567D01*
X1644Y1557D01*
X1650Y1549D01*
X1659Y1543D01*
X1668Y1539D01*
X1679Y1537D01*
X1689Y1539D01*
X1699Y1543D01*
X1707Y1549D01*
X1714Y1557D01*
X1718Y1567D01*
X1719Y1578D01*
X1718Y1588D01*
X1714Y1598D01*
X1708Y1605D01*
X1709Y1610D01*
X1748D01*
X1750Y1605D01*
X1744Y1598D01*
X1740Y1588D01*
X1738Y1578D01*
X1740Y1567D01*
X1744Y1557D01*
X1750Y1549D01*
X1759Y1543D01*
X1768Y1539D01*
X1779Y1537D01*
X1789Y1539D01*
X1799Y1543D01*
X1807Y1549D01*
X1814Y1557D01*
X1818Y1567D01*
X1819Y1578D01*
X1818Y1588D01*
X1814Y1598D01*
X1808Y1605D01*
X1809Y1610D01*
X1848D01*
X1850Y1605D01*
X1844Y1598D01*
X1840Y1588D01*
X1838Y1578D01*
X1840Y1567D01*
X1844Y1557D01*
X1850Y1549D01*
X1859Y1543D01*
X1868Y1539D01*
X1879Y1537D01*
X1889Y1539D01*
X1899Y1543D01*
X1907Y1549D01*
X1914Y1557D01*
X1918Y1567D01*
X1919Y1578D01*
X1918Y1588D01*
X1914Y1598D01*
X1908Y1605D01*
X1909Y1610D01*
X1948D01*
X1950Y1605D01*
X1944Y1598D01*
X1940Y1588D01*
X1939Y1583D01*
X1979D01*
X2018D01*
X2018Y1588D01*
X2014Y1598D01*
X2008Y1605D01*
X2009Y1610D01*
X2048D01*
X2050Y1605D01*
D02*
G37*
G36*
X1050Y1505D02*
X1044Y1498D01*
X1040Y1488D01*
X1038Y1478D01*
X1040Y1467D01*
X1044Y1457D01*
X1050Y1449D01*
X1059Y1443D01*
X1064Y1441D01*
X1063Y1436D01*
X995D01*
X994Y1441D01*
X999Y1443D01*
X1007Y1449D01*
X1014Y1457D01*
X1018Y1467D01*
X1018Y1473D01*
X979D01*
X939D01*
X940Y1467D01*
X944Y1457D01*
X950Y1449D01*
X959Y1443D01*
X964Y1441D01*
X963Y1436D01*
X895D01*
X894Y1441D01*
X899Y1443D01*
X907Y1449D01*
X914Y1457D01*
X918Y1467D01*
X919Y1478D01*
X918Y1488D01*
X914Y1498D01*
X908Y1505D01*
X909Y1510D01*
X948D01*
X950Y1505D01*
X944Y1498D01*
X940Y1488D01*
X939Y1483D01*
X979D01*
X1018D01*
X1018Y1488D01*
X1014Y1498D01*
X1008Y1505D01*
X1009Y1510D01*
X1048D01*
X1050Y1505D01*
D02*
G37*
G36*
X2948Y1375D02*
Y1367D01*
X3024D01*
X3024Y1335D01*
X3019Y1334D01*
X3017Y1336D01*
X3008Y1342D01*
X2999Y1346D01*
X2988Y1348D01*
X2978Y1346D01*
X2968Y1342D01*
X2960Y1336D01*
X2953Y1328D01*
X2951Y1323D01*
X2937D01*
Y1351D01*
X2816D01*
Y1319D01*
Y1287D01*
X2937D01*
Y1292D01*
X2951D01*
X2953Y1287D01*
X2960Y1279D01*
X2968Y1273D01*
X2978Y1269D01*
X2988Y1267D01*
X2999Y1269D01*
X3008Y1273D01*
X3017Y1279D01*
X3019Y1281D01*
X3024Y1280D01*
X3024Y1211D01*
X3020Y1207D01*
X2993D01*
Y1167D01*
Y1127D01*
X3024D01*
X3024Y1095D01*
X3019Y1093D01*
X3017Y1096D01*
X3008Y1102D01*
X2999Y1106D01*
X2988Y1108D01*
X2978Y1106D01*
X2968Y1102D01*
X2960Y1096D01*
X2953Y1087D01*
X2949Y1078D01*
X2948Y1067D01*
X2949Y1057D01*
X2951Y1052D01*
X2873Y974D01*
X2763D01*
X2761Y979D01*
X2761Y979D01*
X2769Y984D01*
X2774Y992D01*
X2778Y1000D01*
X2779Y1009D01*
X2778Y1019D01*
X2774Y1027D01*
X2769Y1034D01*
X2761Y1040D01*
X2759Y1041D01*
Y1334D01*
X2763Y1338D01*
X2768Y1336D01*
Y1324D01*
X2806D01*
Y1351D01*
X2787D01*
X2784Y1356D01*
X2785Y1357D01*
X2917D01*
X2923Y1358D01*
X2928Y1361D01*
X2944Y1377D01*
X2948Y1375D01*
D02*
G37*
G36*
X2485Y1297D02*
Y1161D01*
X2480Y1160D01*
X2477Y1164D01*
X2469Y1169D01*
X2466Y1170D01*
Y1148D01*
Y1126D01*
X2469Y1126D01*
X2477Y1131D01*
X2480Y1136D01*
X2485Y1134D01*
Y1120D01*
X2486Y1114D01*
X2489Y1109D01*
X2552Y1047D01*
Y990D01*
X2549Y989D01*
X2542Y984D01*
X2536Y976D01*
X2533Y968D01*
X2532Y959D01*
X2533Y950D01*
X2536Y941D01*
X2542Y934D01*
X2549Y928D01*
X2558Y925D01*
X2567Y923D01*
X2576Y925D01*
X2585Y928D01*
X2592Y934D01*
X2598Y941D01*
X2601Y950D01*
X2602Y959D01*
X2601Y968D01*
X2598Y976D01*
X2592Y984D01*
X2585Y989D01*
X2582Y990D01*
Y1053D01*
X2581Y1059D01*
X2578Y1064D01*
X2557Y1084D01*
X2560Y1089D01*
X2563Y1089D01*
X2572Y1090D01*
X2581Y1093D01*
X2583Y1095D01*
X2588Y1093D01*
Y1001D01*
X2589Y995D01*
X2592Y991D01*
X2635Y948D01*
X2640Y945D01*
X2646Y943D01*
X2880D01*
X2885Y945D01*
X2890Y948D01*
X2973Y1030D01*
X2978Y1028D01*
X2988Y1027D01*
X2999Y1028D01*
X3008Y1032D01*
X3017Y1039D01*
X3019Y1041D01*
X3024Y1040D01*
X3024Y305D01*
X3021Y302D01*
X1375Y302D01*
X1372Y307D01*
X1376Y312D01*
X1376Y316D01*
X1332D01*
X1333Y312D01*
X1336Y307D01*
X1334Y302D01*
X1029Y302D01*
X1027Y307D01*
X1029Y308D01*
X1035Y317D01*
X1039Y326D01*
X1041Y337D01*
X1039Y347D01*
X1035Y357D01*
X1029Y365D01*
X1021Y371D01*
X1011Y375D01*
X1001Y376D01*
X990Y375D01*
X981Y371D01*
X973Y365D01*
X966Y357D01*
X962Y347D01*
X961Y337D01*
X962Y326D01*
X966Y317D01*
X973Y308D01*
X974Y307D01*
X973Y302D01*
X929Y302D01*
X927Y307D01*
X929Y308D01*
X935Y317D01*
X939Y326D01*
X941Y337D01*
X939Y347D01*
X935Y357D01*
X929Y365D01*
X921Y371D01*
X911Y375D01*
X901Y376D01*
X890Y375D01*
X881Y371D01*
X873Y365D01*
X866Y357D01*
X862Y347D01*
X861Y337D01*
X862Y326D01*
X866Y317D01*
X873Y308D01*
X874Y307D01*
X873Y302D01*
X829Y302D01*
X827Y307D01*
X829Y308D01*
X835Y317D01*
X839Y326D01*
X841Y337D01*
X839Y347D01*
X835Y357D01*
X829Y365D01*
X821Y371D01*
X811Y375D01*
X801Y376D01*
X790Y375D01*
X781Y371D01*
X773Y365D01*
X766Y357D01*
X762Y347D01*
X761Y337D01*
X762Y326D01*
X766Y317D01*
X773Y308D01*
X774Y307D01*
X773Y302D01*
X740Y303D01*
Y376D01*
X661D01*
Y306D01*
X658Y303D01*
X591Y303D01*
X589Y308D01*
X597Y313D01*
X603Y321D01*
X607Y331D01*
X608Y342D01*
X607Y352D01*
X603Y362D01*
X597Y370D01*
X588Y377D01*
X578Y381D01*
X568Y382D01*
X558Y381D01*
X548Y377D01*
X539Y370D01*
X533Y362D01*
X529Y352D01*
X528Y342D01*
X529Y331D01*
X533Y321D01*
X539Y313D01*
X547Y308D01*
X545Y303D01*
X508Y303D01*
Y337D01*
X428D01*
Y306D01*
X424Y303D01*
X15Y303D01*
Y613D01*
X20Y616D01*
X20Y616D01*
X23Y611D01*
X42Y593D01*
X40Y588D01*
X39Y578D01*
X40Y567D01*
X44Y558D01*
X51Y549D01*
X59Y543D01*
X68Y539D01*
X79Y538D01*
X89Y539D01*
X99Y543D01*
X103Y546D01*
X108Y544D01*
Y528D01*
X94Y514D01*
X89Y516D01*
X79Y517D01*
X68Y516D01*
X59Y512D01*
X51Y506D01*
X44Y497D01*
X40Y488D01*
X39Y478D01*
X40Y467D01*
X44Y458D01*
X51Y449D01*
X59Y443D01*
X68Y439D01*
X79Y438D01*
X89Y439D01*
X99Y443D01*
X107Y449D01*
X113Y458D01*
X117Y467D01*
X119Y478D01*
X117Y488D01*
X115Y493D01*
X134Y511D01*
X137Y516D01*
X139Y522D01*
Y787D01*
X157Y806D01*
X160Y811D01*
X161Y817D01*
Y979D01*
X174Y992D01*
X177Y997D01*
X179Y1002D01*
Y1070D01*
X194Y1086D01*
X197Y1091D01*
X199Y1096D01*
Y1162D01*
X247Y1211D01*
X488D01*
X494Y1212D01*
X499Y1216D01*
X565Y1282D01*
X1040D01*
X1044Y1278D01*
X1043Y1278D01*
X1045Y1268D01*
X1047Y1262D01*
X1044Y1257D01*
X1044Y1257D01*
X996D01*
X990Y1256D01*
X985Y1253D01*
X954Y1221D01*
X949Y1223D01*
X949Y1226D01*
X948Y1236D01*
X944Y1246D01*
X938Y1254D01*
X929Y1260D01*
X920Y1264D01*
X909Y1265D01*
X899Y1264D01*
X890Y1260D01*
X881Y1254D01*
X875Y1246D01*
X871Y1236D01*
X870Y1230D01*
X866Y1227D01*
X865Y1227D01*
X859Y1228D01*
X695D01*
X694Y1230D01*
X688Y1238D01*
X681Y1243D01*
X673Y1247D01*
X663Y1248D01*
X654Y1247D01*
X646Y1243D01*
X638Y1238D01*
X633Y1230D01*
X629Y1222D01*
X628Y1213D01*
X629Y1203D01*
X633Y1195D01*
X638Y1188D01*
X646Y1182D01*
X654Y1178D01*
X663Y1177D01*
X673Y1178D01*
X681Y1182D01*
X688Y1188D01*
X694Y1195D01*
X695Y1197D01*
X853D01*
X880Y1170D01*
X885Y1167D01*
X886Y1167D01*
X890Y1161D01*
X890Y1160D01*
X881Y1154D01*
X875Y1146D01*
X871Y1136D01*
X870Y1126D01*
X871Y1115D01*
X875Y1106D01*
X881Y1097D01*
X890Y1091D01*
X899Y1087D01*
X909Y1086D01*
X920Y1087D01*
X929Y1091D01*
X938Y1097D01*
X944Y1106D01*
X948Y1115D01*
X949Y1126D01*
X948Y1136D01*
X944Y1146D01*
X938Y1154D01*
X929Y1160D01*
X928Y1161D01*
X929Y1166D01*
X935D01*
X941Y1167D01*
X946Y1170D01*
X999Y1223D01*
X1004Y1221D01*
Y1129D01*
X1048D01*
Y1209D01*
X1053Y1211D01*
X1054Y1211D01*
Y1151D01*
X1055Y1142D01*
X1060Y1135D01*
X1067Y1130D01*
X1076Y1129D01*
X1084Y1130D01*
X1092Y1135D01*
X1096Y1142D01*
X1098Y1151D01*
Y1214D01*
X1096Y1222D01*
X1092Y1230D01*
X1084Y1235D01*
X1078Y1236D01*
X1076Y1238D01*
X1078Y1241D01*
X1079Y1242D01*
X1079Y1242D01*
X1088Y1243D01*
X1096Y1247D01*
X1104Y1253D01*
X1109Y1260D01*
X1113Y1268D01*
X1114Y1278D01*
X1113Y1287D01*
X1109Y1295D01*
X1107Y1298D01*
X1110Y1302D01*
X1146D01*
X1149Y1298D01*
X1147Y1295D01*
X1143Y1287D01*
X1142Y1278D01*
X1143Y1268D01*
X1147Y1260D01*
X1152Y1253D01*
X1160Y1247D01*
X1168Y1243D01*
X1177Y1242D01*
X1186Y1243D01*
X1195Y1247D01*
X1202Y1253D01*
X1208Y1260D01*
X1208Y1261D01*
X1293D01*
X1299Y1262D01*
X1304Y1266D01*
X1319Y1281D01*
X1324Y1280D01*
X1324Y1276D01*
X1328Y1268D01*
X1333Y1260D01*
X1341Y1255D01*
X1349Y1251D01*
X1358Y1250D01*
X1367Y1251D01*
X1376Y1255D01*
X1383Y1260D01*
X1389Y1268D01*
X1391Y1273D01*
X1798D01*
X1804Y1274D01*
X1809Y1277D01*
X1884Y1352D01*
X2429D01*
X2485Y1297D01*
D02*
G37*
%LPC*%
G36*
X1024Y1910D02*
X989D01*
Y1876D01*
X1024D01*
Y1910D01*
D02*
G37*
G36*
X979D02*
X945D01*
Y1876D01*
X979D01*
Y1910D01*
D02*
G37*
G36*
X2087Y1892D02*
X2052D01*
Y1857D01*
X2087D01*
Y1892D01*
D02*
G37*
G36*
X2042D02*
X2007D01*
Y1857D01*
X2042D01*
Y1892D01*
D02*
G37*
G36*
X1798Y1843D02*
X1794Y1842D01*
X1787Y1837D01*
X1782Y1830D01*
X1781Y1826D01*
X1798D01*
Y1843D01*
D02*
G37*
G36*
X901Y1850D02*
X866D01*
Y1815D01*
X901D01*
Y1850D01*
D02*
G37*
G36*
X783Y1850D02*
X748D01*
Y1815D01*
X783D01*
Y1850D01*
D02*
G37*
G36*
X738D02*
X703D01*
Y1815D01*
X738D01*
Y1850D01*
D02*
G37*
G36*
X856Y1850D02*
X821D01*
Y1815D01*
X856D01*
Y1850D01*
D02*
G37*
G36*
X2087Y1847D02*
X2052D01*
Y1812D01*
X2087D01*
Y1847D01*
D02*
G37*
G36*
X1798Y1816D02*
X1781D01*
X1782Y1812D01*
X1787Y1805D01*
X1794Y1800D01*
X1798Y1799D01*
Y1816D01*
D02*
G37*
G36*
X783Y1805D02*
X748D01*
Y1770D01*
X783D01*
Y1805D01*
D02*
G37*
G36*
X738D02*
X703D01*
Y1770D01*
X738D01*
Y1805D01*
D02*
G37*
G36*
X901D02*
X866D01*
Y1770D01*
X901D01*
Y1805D01*
D02*
G37*
G36*
X856D02*
X821D01*
Y1770D01*
X856D01*
Y1805D01*
D02*
G37*
G36*
X2915Y1939D02*
X2903Y1938D01*
X2886Y1933D01*
X2871Y1925D01*
X2857Y1913D01*
X2846Y1900D01*
X2838Y1885D01*
X2836Y1877D01*
X2831Y1878D01*
X2831Y1880D01*
X2831Y1880D01*
X2831Y1881D01*
Y1910D01*
X2796D01*
Y1876D01*
X2827D01*
X2830Y1876D01*
X2834Y1872D01*
X2834Y1872D01*
X2834Y1872D01*
X2833Y1868D01*
X2832Y1855D01*
X2915D01*
Y1939D01*
D02*
G37*
G36*
X2786Y1910D02*
X2752D01*
Y1876D01*
X2786D01*
Y1910D01*
D02*
G37*
G36*
X2925Y1939D02*
Y1855D01*
X3009D01*
X3008Y1868D01*
X3003Y1885D01*
X2995Y1900D01*
X2984Y1913D01*
X2970Y1925D01*
X2955Y1933D01*
X2938Y1938D01*
X2925Y1939D01*
D02*
G37*
G36*
X3009Y1845D02*
X2925D01*
Y1762D01*
X2938Y1763D01*
X2955Y1768D01*
X2970Y1776D01*
X2984Y1787D01*
X2995Y1801D01*
X3003Y1816D01*
X3008Y1833D01*
X3009Y1845D01*
D02*
G37*
G36*
X2915D02*
X2832D01*
X2833Y1833D01*
X2838Y1816D01*
X2846Y1801D01*
X2857Y1787D01*
X2871Y1776D01*
X2886Y1768D01*
X2903Y1763D01*
X2915Y1762D01*
Y1845D01*
D02*
G37*
G36*
X2983Y1688D02*
X2948D01*
Y1653D01*
X2983D01*
Y1688D01*
D02*
G37*
G36*
X2410Y1910D02*
X2375D01*
Y1876D01*
X2410D01*
Y1910D01*
D02*
G37*
G36*
X2218Y1573D02*
X2184D01*
Y1538D01*
X2189Y1539D01*
X2199Y1543D01*
X2207Y1549D01*
X2214Y1557D01*
X2218Y1567D01*
X2218Y1573D01*
D02*
G37*
G36*
X2174D02*
X2139D01*
X2140Y1567D01*
X2144Y1557D01*
X2150Y1549D01*
X2159Y1543D01*
X2168Y1539D01*
X2174Y1538D01*
Y1573D01*
D02*
G37*
G36*
X2484Y1517D02*
Y1483D01*
X2518D01*
X2518Y1488D01*
X2514Y1498D01*
X2507Y1506D01*
X2499Y1512D01*
X2489Y1517D01*
X2484Y1517D01*
D02*
G37*
G36*
X2474Y1517D02*
X2468Y1517D01*
X2459Y1512D01*
X2450Y1506D01*
X2444Y1498D01*
X2440Y1488D01*
X2439Y1483D01*
X2474D01*
Y1517D01*
D02*
G37*
G36*
Y1473D02*
X2439D01*
X2440Y1467D01*
X2444Y1457D01*
X2450Y1449D01*
X2459Y1443D01*
X2468Y1439D01*
X2474Y1438D01*
Y1473D01*
D02*
G37*
G36*
X2518D02*
X2484D01*
Y1438D01*
X2489Y1439D01*
X2499Y1443D01*
X2507Y1449D01*
X2514Y1457D01*
X2518Y1467D01*
X2518Y1473D01*
D02*
G37*
G36*
X2379Y1518D02*
X2368Y1517D01*
X2359Y1512D01*
X2350Y1506D01*
X2344Y1498D01*
X2340Y1488D01*
X2338Y1478D01*
X2340Y1467D01*
X2344Y1457D01*
X2350Y1449D01*
X2359Y1443D01*
X2368Y1439D01*
X2379Y1437D01*
X2389Y1439D01*
X2399Y1443D01*
X2407Y1449D01*
X2414Y1457D01*
X2418Y1467D01*
X2419Y1478D01*
X2418Y1488D01*
X2414Y1498D01*
X2407Y1506D01*
X2399Y1512D01*
X2389Y1517D01*
X2379Y1518D01*
D02*
G37*
G36*
X2279D02*
X2268Y1517D01*
X2259Y1512D01*
X2250Y1506D01*
X2244Y1498D01*
X2240Y1488D01*
X2238Y1478D01*
X2240Y1467D01*
X2244Y1457D01*
X2250Y1449D01*
X2259Y1443D01*
X2268Y1439D01*
X2279Y1437D01*
X2289Y1439D01*
X2299Y1443D01*
X2307Y1449D01*
X2314Y1457D01*
X2318Y1467D01*
X2319Y1478D01*
X2318Y1488D01*
X2314Y1498D01*
X2307Y1506D01*
X2299Y1512D01*
X2289Y1517D01*
X2279Y1518D01*
D02*
G37*
G36*
X2179D02*
X2168Y1517D01*
X2159Y1512D01*
X2150Y1506D01*
X2144Y1498D01*
X2140Y1488D01*
X2138Y1478D01*
X2140Y1467D01*
X2144Y1457D01*
X2150Y1449D01*
X2159Y1443D01*
X2168Y1439D01*
X2179Y1437D01*
X2189Y1439D01*
X2199Y1443D01*
X2207Y1449D01*
X2214Y1457D01*
X2218Y1467D01*
X2219Y1478D01*
X2218Y1488D01*
X2214Y1498D01*
X2207Y1506D01*
X2199Y1512D01*
X2189Y1517D01*
X2179Y1518D01*
D02*
G37*
G36*
X513Y1891D02*
X483D01*
Y1861D01*
X513D01*
Y1891D01*
D02*
G37*
G36*
X473D02*
X443D01*
Y1861D01*
X473D01*
Y1891D01*
D02*
G37*
G36*
X277Y1939D02*
Y1855D01*
X361D01*
X360Y1868D01*
X355Y1885D01*
X347Y1900D01*
X335Y1913D01*
X322Y1925D01*
X307Y1933D01*
X290Y1938D01*
X277Y1939D01*
D02*
G37*
G36*
X267D02*
X255Y1938D01*
X238Y1933D01*
X223Y1925D01*
X209Y1913D01*
X198Y1900D01*
X190Y1885D01*
X185Y1868D01*
X184Y1855D01*
X267D01*
Y1939D01*
D02*
G37*
G36*
X513Y1851D02*
X483D01*
Y1821D01*
X513D01*
Y1851D01*
D02*
G37*
G36*
X473D02*
X443D01*
Y1821D01*
X473D01*
Y1851D01*
D02*
G37*
G36*
X493Y1815D02*
X466D01*
Y1783D01*
X493D01*
Y1815D01*
D02*
G37*
G36*
Y1773D02*
X466D01*
Y1740D01*
X493D01*
Y1773D01*
D02*
G37*
G36*
X84Y1717D02*
Y1683D01*
X118D01*
X117Y1688D01*
X113Y1697D01*
X107Y1706D01*
X99Y1712D01*
X89Y1716D01*
X84Y1717D01*
D02*
G37*
G36*
X74D02*
X68Y1716D01*
X59Y1712D01*
X51Y1706D01*
X44Y1697D01*
X40Y1688D01*
X40Y1683D01*
X74D01*
Y1717D01*
D02*
G37*
G36*
X248Y1680D02*
X247D01*
Y1655D01*
X264D01*
Y1663D01*
X263Y1670D01*
X259Y1675D01*
X254Y1678D01*
X248Y1680D01*
D02*
G37*
G36*
X237D02*
X236D01*
X230Y1678D01*
X225Y1675D01*
X221Y1670D01*
X220Y1663D01*
Y1655D01*
X237D01*
Y1680D01*
D02*
G37*
G36*
X306Y1668D02*
X273D01*
Y1642D01*
X306D01*
Y1668D01*
D02*
G37*
G36*
X74Y1673D02*
X40D01*
X40Y1667D01*
X44Y1658D01*
X51Y1649D01*
X59Y1643D01*
X68Y1639D01*
X74Y1638D01*
Y1673D01*
D02*
G37*
G36*
X118D02*
X84D01*
Y1638D01*
X89Y1639D01*
X99Y1643D01*
X107Y1649D01*
X113Y1658D01*
X117Y1667D01*
X118Y1673D01*
D02*
G37*
G36*
X79Y1617D02*
X68Y1616D01*
X59Y1612D01*
X51Y1606D01*
X44Y1597D01*
X40Y1588D01*
X39Y1578D01*
X40Y1567D01*
X44Y1558D01*
X51Y1549D01*
X59Y1543D01*
X68Y1539D01*
X79Y1538D01*
X89Y1539D01*
X99Y1543D01*
X107Y1549D01*
X113Y1558D01*
X117Y1567D01*
X119Y1578D01*
X117Y1588D01*
X113Y1597D01*
X107Y1606D01*
X99Y1612D01*
X89Y1616D01*
X79Y1617D01*
D02*
G37*
G36*
X118Y1817D02*
X39D01*
Y1738D01*
X82D01*
X142Y1678D01*
Y1618D01*
X140D01*
Y1543D01*
X148D01*
Y1507D01*
X143Y1500D01*
X139Y1491D01*
X138Y1482D01*
X139Y1473D01*
X143Y1465D01*
X148Y1457D01*
X156Y1452D01*
X164Y1448D01*
X173Y1447D01*
X182Y1448D01*
X191Y1452D01*
X198Y1457D01*
X204Y1465D01*
X207Y1473D01*
X209Y1482D01*
X207Y1491D01*
X205Y1496D01*
X206Y1497D01*
X209Y1500D01*
X212Y1500D01*
Y1522D01*
X217D01*
Y1527D01*
X238D01*
X238Y1530D01*
X233Y1538D01*
X232Y1538D01*
X234Y1543D01*
X250D01*
X253Y1538D01*
X248Y1520D01*
X247Y1505D01*
X370D01*
Y1628D01*
X355Y1627D01*
X335Y1622D01*
X317Y1614D01*
X300Y1604D01*
X284Y1590D01*
X271Y1575D01*
X267Y1568D01*
X262Y1569D01*
Y1576D01*
X230D01*
Y1586D01*
X262D01*
Y1618D01*
X259D01*
X258Y1623D01*
X259Y1624D01*
X263Y1630D01*
X264Y1636D01*
Y1645D01*
X242D01*
X220D01*
Y1636D01*
X221Y1630D01*
X225Y1624D01*
X226Y1623D01*
X225Y1618D01*
X193D01*
Y1689D01*
X191Y1699D01*
X185Y1707D01*
X118Y1774D01*
Y1817D01*
D02*
G37*
G36*
X238Y1517D02*
X222D01*
Y1500D01*
X225Y1500D01*
X233Y1505D01*
X238Y1513D01*
X238Y1517D01*
D02*
G37*
G36*
X2018Y1573D02*
X1984D01*
Y1538D01*
X1989Y1539D01*
X1999Y1543D01*
X2007Y1549D01*
X2014Y1557D01*
X2018Y1567D01*
X2018Y1573D01*
D02*
G37*
G36*
X1518D02*
X1484D01*
Y1538D01*
X1489Y1539D01*
X1499Y1543D01*
X1507Y1549D01*
X1514Y1557D01*
X1518Y1567D01*
X1518Y1573D01*
D02*
G37*
G36*
X1974D02*
X1939D01*
X1940Y1567D01*
X1944Y1557D01*
X1950Y1549D01*
X1959Y1543D01*
X1968Y1539D01*
X1974Y1538D01*
Y1573D01*
D02*
G37*
G36*
X1474D02*
X1439D01*
X1440Y1567D01*
X1444Y1557D01*
X1450Y1549D01*
X1459Y1543D01*
X1468Y1539D01*
X1474Y1538D01*
Y1573D01*
D02*
G37*
G36*
X1784Y1517D02*
Y1483D01*
X1818D01*
X1818Y1488D01*
X1814Y1498D01*
X1807Y1506D01*
X1799Y1512D01*
X1789Y1517D01*
X1784Y1517D01*
D02*
G37*
G36*
X1774Y1517D02*
X1768Y1517D01*
X1759Y1512D01*
X1750Y1506D01*
X1744Y1498D01*
X1740Y1488D01*
X1739Y1483D01*
X1774D01*
Y1517D01*
D02*
G37*
G36*
X2806Y1314D02*
X2768D01*
Y1287D01*
X2806D01*
Y1314D01*
D02*
G37*
G36*
X2983Y1207D02*
X2948D01*
Y1172D01*
X2983D01*
Y1207D01*
D02*
G37*
G36*
Y1162D02*
X2948D01*
Y1127D01*
X2983D01*
Y1162D01*
D02*
G37*
G36*
X2079Y1270D02*
X2070Y1268D01*
X2061Y1265D01*
X2054Y1259D01*
X2048Y1252D01*
X2047Y1250D01*
X1996D01*
X1995Y1252D01*
X1990Y1259D01*
X1982Y1265D01*
X1974Y1268D01*
X1965Y1270D01*
X1955Y1268D01*
X1947Y1265D01*
X1940Y1259D01*
X1934Y1252D01*
X1930Y1243D01*
X1929Y1234D01*
X1930Y1225D01*
X1934Y1217D01*
X1940Y1209D01*
X1947Y1204D01*
X1955Y1200D01*
X1965Y1199D01*
X1974Y1200D01*
X1982Y1204D01*
X1990Y1209D01*
X1995Y1217D01*
X1996Y1219D01*
X2047D01*
X2048Y1217D01*
X2054Y1209D01*
X2061Y1204D01*
X2070Y1200D01*
X2079Y1199D01*
X2088Y1200D01*
X2096Y1204D01*
X2104Y1209D01*
X2109Y1217D01*
X2113Y1225D01*
X2114Y1234D01*
X2113Y1243D01*
X2109Y1252D01*
X2104Y1259D01*
X2096Y1265D01*
X2088Y1268D01*
X2079Y1270D01*
D02*
G37*
G36*
X2313Y1260D02*
X2273D01*
Y1196D01*
X2313D01*
Y1260D01*
D02*
G37*
G36*
X2263D02*
X2222D01*
Y1196D01*
X2263D01*
Y1260D01*
D02*
G37*
G36*
X1381Y1235D02*
Y1187D01*
X1398D01*
Y1214D01*
X1396Y1222D01*
X1392Y1230D01*
X1384Y1235D01*
X1381Y1235D01*
D02*
G37*
G36*
X1331D02*
Y1187D01*
X1348D01*
Y1214D01*
X1346Y1222D01*
X1342Y1230D01*
X1334Y1235D01*
X1331Y1235D01*
D02*
G37*
G36*
X1281D02*
Y1187D01*
X1298D01*
Y1214D01*
X1296Y1222D01*
X1292Y1230D01*
X1284Y1235D01*
X1281Y1235D01*
D02*
G37*
G36*
X1231D02*
Y1187D01*
X1248D01*
Y1214D01*
X1246Y1222D01*
X1242Y1230D01*
X1234Y1235D01*
X1231Y1235D01*
D02*
G37*
G36*
X1371D02*
X1367Y1235D01*
X1360Y1230D01*
X1355Y1222D01*
X1354Y1214D01*
Y1187D01*
X1371D01*
Y1235D01*
D02*
G37*
G36*
X1321D02*
X1317Y1235D01*
X1310Y1230D01*
X1305Y1222D01*
X1304Y1214D01*
Y1187D01*
X1321D01*
Y1235D01*
D02*
G37*
G36*
X1271D02*
X1267Y1235D01*
X1260Y1230D01*
X1255Y1222D01*
X1254Y1214D01*
Y1187D01*
X1271D01*
Y1235D01*
D02*
G37*
G36*
X1221D02*
X1217Y1235D01*
X1210Y1230D01*
X1205Y1222D01*
X1204Y1214D01*
Y1187D01*
X1221D01*
Y1235D01*
D02*
G37*
G36*
X1790Y1236D02*
X1749D01*
Y1172D01*
X1790D01*
Y1236D01*
D02*
G37*
G36*
X1739D02*
X1699D01*
Y1172D01*
X1739D01*
Y1236D01*
D02*
G37*
G36*
X2456Y1170D02*
X2452Y1169D01*
X2444Y1164D01*
X2439Y1156D01*
X2439Y1153D01*
X2456D01*
Y1170D01*
D02*
G37*
G36*
X1371Y1177D02*
X1354D01*
Y1151D01*
X1355Y1142D01*
X1360Y1135D01*
X1367Y1130D01*
X1371Y1130D01*
Y1177D01*
D02*
G37*
G36*
X1321D02*
X1304D01*
Y1151D01*
X1305Y1142D01*
X1310Y1135D01*
X1317Y1130D01*
X1321Y1130D01*
Y1177D01*
D02*
G37*
G36*
X1271D02*
X1254D01*
Y1151D01*
X1255Y1142D01*
X1260Y1135D01*
X1267Y1130D01*
X1271Y1130D01*
Y1177D01*
D02*
G37*
G36*
X1221D02*
X1204D01*
Y1151D01*
X1205Y1142D01*
X1210Y1135D01*
X1217Y1130D01*
X1221Y1130D01*
Y1177D01*
D02*
G37*
G36*
X1398D02*
X1381D01*
Y1130D01*
X1384Y1130D01*
X1392Y1135D01*
X1396Y1142D01*
X1398Y1151D01*
Y1177D01*
D02*
G37*
G36*
X1348D02*
X1331D01*
Y1130D01*
X1334Y1130D01*
X1342Y1135D01*
X1346Y1142D01*
X1348Y1151D01*
Y1177D01*
D02*
G37*
G36*
X1298D02*
X1281D01*
Y1130D01*
X1284Y1130D01*
X1292Y1135D01*
X1296Y1142D01*
X1298Y1151D01*
Y1177D01*
D02*
G37*
G36*
X1248D02*
X1231D01*
Y1130D01*
X1234Y1130D01*
X1242Y1135D01*
X1246Y1142D01*
X1248Y1151D01*
Y1177D01*
D02*
G37*
G36*
X1176Y1236D02*
X1167Y1235D01*
X1160Y1230D01*
X1155Y1222D01*
X1154Y1214D01*
Y1151D01*
X1155Y1142D01*
X1160Y1135D01*
X1167Y1130D01*
X1176Y1129D01*
X1184Y1130D01*
X1192Y1135D01*
X1196Y1142D01*
X1198Y1151D01*
Y1214D01*
X1196Y1222D01*
X1192Y1230D01*
X1184Y1235D01*
X1176Y1236D01*
D02*
G37*
G36*
X2456Y1143D02*
X2439D01*
X2439Y1139D01*
X2444Y1131D01*
X2452Y1126D01*
X2456Y1126D01*
Y1143D01*
D02*
G37*
G36*
X2313Y1186D02*
X2268D01*
X2222D01*
Y1122D01*
X2233D01*
Y1119D01*
X2263D01*
Y1154D01*
X2273D01*
Y1119D01*
X2303D01*
Y1122D01*
X2313D01*
Y1186D01*
D02*
G37*
G36*
X1328Y1122D02*
Y1105D01*
X1345D01*
X1344Y1109D01*
X1339Y1117D01*
X1332Y1122D01*
X1328Y1122D01*
D02*
G37*
G36*
X1318D02*
X1314Y1122D01*
X1307Y1117D01*
X1302Y1109D01*
X1301Y1105D01*
X1318D01*
Y1122D01*
D02*
G37*
G36*
X1744Y1167D02*
D01*
Y1162D01*
X1699D01*
Y1098D01*
X1709D01*
Y1096D01*
X1739D01*
Y1131D01*
X1749D01*
Y1096D01*
X1779D01*
Y1098D01*
X1790D01*
Y1162D01*
X1744D01*
Y1167D01*
D02*
G37*
G36*
X2123Y1111D02*
Y1094D01*
X2140D01*
X2139Y1097D01*
X2134Y1105D01*
X2127Y1110D01*
X2123Y1111D01*
D02*
G37*
G36*
X2113D02*
X2109Y1110D01*
X2102Y1105D01*
X2097Y1097D01*
X2096Y1094D01*
X2113D01*
Y1111D01*
D02*
G37*
G36*
X1989D02*
Y1094D01*
X2006D01*
X2005Y1097D01*
X2000Y1105D01*
X1993Y1110D01*
X1989Y1111D01*
D02*
G37*
G36*
X1979D02*
X1975Y1110D01*
X1968Y1105D01*
X1963Y1097D01*
X1962Y1094D01*
X1979D01*
Y1111D01*
D02*
G37*
G36*
X1914D02*
Y1094D01*
X1931D01*
X1931Y1097D01*
X1926Y1105D01*
X1918Y1110D01*
X1914Y1111D01*
D02*
G37*
G36*
X1904D02*
X1901Y1110D01*
X1893Y1105D01*
X1888Y1097D01*
X1888Y1094D01*
X1904D01*
Y1111D01*
D02*
G37*
G36*
X1345Y1095D02*
X1328D01*
Y1078D01*
X1332Y1079D01*
X1339Y1084D01*
X1344Y1092D01*
X1345Y1095D01*
D02*
G37*
G36*
X1318D02*
X1301D01*
X1302Y1092D01*
X1307Y1084D01*
X1314Y1079D01*
X1318Y1078D01*
Y1095D01*
D02*
G37*
G36*
X2140Y1084D02*
X2123D01*
Y1067D01*
X2127Y1067D01*
X2134Y1072D01*
X2139Y1080D01*
X2140Y1084D01*
D02*
G37*
G36*
X2113D02*
X2096D01*
X2097Y1080D01*
X2102Y1072D01*
X2109Y1067D01*
X2113Y1067D01*
Y1084D01*
D02*
G37*
G36*
X2006D02*
X1989D01*
Y1067D01*
X1993Y1067D01*
X2000Y1072D01*
X2005Y1080D01*
X2006Y1084D01*
D02*
G37*
G36*
X1979D02*
X1962D01*
X1963Y1080D01*
X1968Y1072D01*
X1975Y1067D01*
X1979Y1067D01*
Y1084D01*
D02*
G37*
G36*
X1931D02*
X1914D01*
Y1067D01*
X1918Y1067D01*
X1926Y1072D01*
X1931Y1080D01*
X1931Y1084D01*
D02*
G37*
G36*
X1904D02*
X1888D01*
X1888Y1080D01*
X1893Y1072D01*
X1901Y1067D01*
X1904Y1067D01*
Y1084D01*
D02*
G37*
G36*
X760Y1081D02*
X725D01*
Y1046D01*
X760D01*
Y1081D01*
D02*
G37*
G36*
X715D02*
X681D01*
Y1046D01*
X715D01*
Y1081D01*
D02*
G37*
G36*
X949Y1065D02*
X914D01*
Y1031D01*
X949D01*
Y1065D01*
D02*
G37*
G36*
X904D02*
X870D01*
Y1031D01*
X904D01*
Y1065D01*
D02*
G37*
G36*
X760Y1036D02*
X725D01*
Y1002D01*
X760D01*
Y1036D01*
D02*
G37*
G36*
X715D02*
X681D01*
Y1002D01*
X715D01*
Y1036D01*
D02*
G37*
G36*
X949Y1021D02*
X914D01*
Y986D01*
X949D01*
Y1021D01*
D02*
G37*
G36*
X904D02*
X870D01*
Y986D01*
X904D01*
Y1021D01*
D02*
G37*
G36*
X304Y1000D02*
Y983D01*
X321D01*
X320Y987D01*
X315Y995D01*
X308Y1000D01*
X304Y1000D01*
D02*
G37*
G36*
X294D02*
X290Y1000D01*
X283Y995D01*
X278Y987D01*
X277Y983D01*
X294D01*
Y1000D01*
D02*
G37*
G36*
X321Y973D02*
X304D01*
Y956D01*
X308Y957D01*
X315Y962D01*
X320Y970D01*
X321Y973D01*
D02*
G37*
G36*
X294D02*
X277D01*
X278Y970D01*
X283Y962D01*
X290Y957D01*
X294Y956D01*
Y973D01*
D02*
G37*
G36*
X245Y925D02*
Y909D01*
X262D01*
X261Y912D01*
X256Y920D01*
X249Y925D01*
X245Y925D01*
D02*
G37*
G36*
X235D02*
X231Y925D01*
X224Y920D01*
X219Y912D01*
X218Y909D01*
X235D01*
Y925D01*
D02*
G37*
G36*
X262Y899D02*
X245D01*
Y882D01*
X249Y882D01*
X256Y887D01*
X261Y895D01*
X262Y899D01*
D02*
G37*
G36*
X235D02*
X218D01*
X219Y895D01*
X224Y887D01*
X231Y882D01*
X235Y882D01*
Y899D01*
D02*
G37*
G36*
X1942Y878D02*
Y861D01*
X1959D01*
X1958Y865D01*
X1953Y873D01*
X1946Y877D01*
X1942Y878D01*
D02*
G37*
G36*
X1932D02*
X1928Y877D01*
X1921Y873D01*
X1916Y865D01*
X1915Y861D01*
X1932D01*
Y878D01*
D02*
G37*
G36*
X1126Y1236D02*
X1117Y1235D01*
X1110Y1230D01*
X1105Y1222D01*
X1104Y1214D01*
Y1151D01*
X1105Y1142D01*
X1110Y1135D01*
X1111Y1135D01*
Y1120D01*
X1108Y1119D01*
X1101Y1114D01*
X1095Y1106D01*
X1092Y1098D01*
X1091Y1089D01*
X1092Y1079D01*
X1095Y1071D01*
X1101Y1064D01*
X1104Y1061D01*
X1102Y1056D01*
X1060D01*
X1050Y1054D01*
X1042Y1049D01*
X909Y915D01*
X900Y914D01*
X892Y910D01*
X884Y905D01*
X879Y898D01*
X875Y889D01*
X874Y880D01*
X875Y871D01*
X879Y862D01*
X884Y855D01*
X892Y849D01*
X900Y846D01*
X909Y845D01*
X919Y846D01*
X927Y849D01*
X934Y855D01*
X940Y862D01*
X944Y871D01*
X945Y879D01*
X1071Y1005D01*
X1113D01*
X1115Y1001D01*
X1015Y901D01*
X1012Y896D01*
X1010Y890D01*
Y861D01*
X1010Y861D01*
X1005Y854D01*
X1004Y845D01*
Y813D01*
X991Y801D01*
X837D01*
X640Y998D01*
Y1007D01*
X640Y1007D01*
X649Y1013D01*
X655Y1021D01*
X659Y1031D01*
X660Y1041D01*
X659Y1052D01*
X655Y1061D01*
X649Y1070D01*
X640Y1076D01*
X631Y1080D01*
X620Y1081D01*
X610Y1080D01*
X601Y1076D01*
X592Y1070D01*
X586Y1061D01*
X582Y1052D01*
X581Y1041D01*
X581Y1035D01*
X577Y1033D01*
X559Y1050D01*
X559Y1052D01*
X555Y1061D01*
X549Y1070D01*
X540Y1076D01*
X531Y1080D01*
X520Y1081D01*
X510Y1080D01*
X501Y1076D01*
X492Y1070D01*
X486Y1061D01*
X482Y1052D01*
X481Y1041D01*
X482Y1031D01*
X486Y1021D01*
X492Y1013D01*
X501Y1007D01*
X510Y1003D01*
X520Y1001D01*
X531Y1003D01*
X540Y1007D01*
X549Y1013D01*
X553Y1013D01*
X822Y744D01*
X827Y741D01*
X833Y740D01*
X941D01*
X943Y736D01*
X943Y735D01*
X943Y731D01*
X987D01*
X986Y735D01*
X986Y736D01*
X988Y740D01*
X1429D01*
X1497Y673D01*
Y593D01*
X1494Y592D01*
X1487Y586D01*
X1484Y582D01*
X1479Y584D01*
Y667D01*
X1478Y671D01*
X1476Y675D01*
X1472Y677D01*
X1469Y678D01*
X1360D01*
X1357Y683D01*
X1360Y686D01*
X1361Y690D01*
X1317D01*
X1317Y686D01*
X1320Y683D01*
X1317Y678D01*
X1201D01*
X1197Y677D01*
X1194Y675D01*
X1191Y671D01*
X1191Y667D01*
Y400D01*
X1191Y398D01*
X1188Y393D01*
X1187Y393D01*
X1185Y392D01*
X969Y609D01*
X970Y614D01*
X973Y615D01*
X981Y620D01*
X986Y627D01*
X987Y631D01*
X965D01*
Y636D01*
X960D01*
Y658D01*
X956Y657D01*
X948Y652D01*
X943Y645D01*
X943Y642D01*
X937Y640D01*
X890Y688D01*
X888Y696D01*
X885Y705D01*
X879Y712D01*
X872Y718D01*
X863Y721D01*
X854Y722D01*
X845Y721D01*
X837Y718D01*
X830Y712D01*
X625D01*
X403Y934D01*
Y1143D01*
X409Y1150D01*
X412Y1158D01*
X413Y1167D01*
X412Y1176D01*
X409Y1185D01*
X403Y1192D01*
X396Y1198D01*
X387Y1201D01*
X378Y1203D01*
X369Y1201D01*
X360Y1198D01*
X353Y1192D01*
X347Y1185D01*
X344Y1176D01*
X343Y1167D01*
X344Y1158D01*
X347Y1150D01*
X352Y1143D01*
Y923D01*
X354Y913D01*
X360Y905D01*
X596Y669D01*
X604Y663D01*
X614Y662D01*
X830D01*
X837Y656D01*
X845Y653D01*
X853Y652D01*
X1159Y346D01*
X1167Y341D01*
X1177Y339D01*
X1271D01*
X1278Y334D01*
X1286Y330D01*
X1295Y329D01*
X1304Y330D01*
X1313Y334D01*
X1320Y339D01*
X1333D01*
X1336Y334D01*
X1333Y330D01*
X1332Y326D01*
X1376D01*
X1376Y330D01*
X1373Y334D01*
X1375Y339D01*
X1472D01*
X1482Y341D01*
X1490Y346D01*
X1514Y370D01*
X1520Y378D01*
X1522Y388D01*
Y486D01*
X1520Y494D01*
X1525Y496D01*
X1530Y489D01*
X1537Y483D01*
X1546Y480D01*
X1555Y478D01*
X1564Y480D01*
X1573Y483D01*
X1580Y489D01*
X1586Y496D01*
X1589Y505D01*
X1590Y514D01*
X1589Y523D01*
X1586Y531D01*
X1580Y539D01*
X1573Y544D01*
X1570Y545D01*
Y872D01*
X1569Y878D01*
X1566Y883D01*
X1498Y951D01*
X1448Y1001D01*
X1450Y1005D01*
X1698D01*
Y953D01*
X1699Y946D01*
X1702Y939D01*
X1707Y933D01*
X1712Y929D01*
X1719Y926D01*
Y897D01*
X1712Y894D01*
X1707Y890D01*
X1702Y884D01*
X1699Y877D01*
X1698Y870D01*
Y787D01*
X1699Y780D01*
X1702Y773D01*
X1707Y768D01*
X1712Y763D01*
X1719Y760D01*
X1726Y759D01*
X1732D01*
X1735Y758D01*
X1744Y757D01*
X1753Y758D01*
X1757Y759D01*
X1762D01*
X1769Y760D01*
X1776Y763D01*
X1782Y768D01*
X1786Y773D01*
X1789Y780D01*
X1789Y782D01*
X2232D01*
X2236Y779D01*
X2243Y776D01*
X2250Y775D01*
X2255D01*
X2259Y774D01*
X2268Y773D01*
X2277Y774D01*
X2280Y775D01*
X2285D01*
X2293Y776D01*
X2299Y779D01*
X2305Y783D01*
X2310Y789D01*
X2312Y796D01*
X2313Y803D01*
Y886D01*
X2312Y893D01*
X2310Y900D01*
X2305Y906D01*
X2299Y910D01*
X2293Y913D01*
X2285Y914D01*
X2250D01*
X2243Y913D01*
X2236Y910D01*
X2230Y906D01*
X2226Y900D01*
X2223Y893D01*
X2222Y886D01*
Y833D01*
X1952D01*
X1951Y838D01*
X1953Y840D01*
X1958Y848D01*
X1959Y851D01*
X1915D01*
X1916Y848D01*
X1921Y840D01*
X1923Y838D01*
X1922Y833D01*
X1790D01*
Y870D01*
X1789Y877D01*
X1786Y884D01*
X1782Y890D01*
X1776Y894D01*
X1770Y897D01*
Y926D01*
X1776Y929D01*
X1782Y933D01*
X1786Y939D01*
X1789Y946D01*
X1790Y953D01*
Y1005D01*
X2222D01*
Y976D01*
X2223Y969D01*
X2226Y962D01*
X2230Y957D01*
X2236Y952D01*
X2243Y949D01*
X2250Y948D01*
X2285D01*
X2293Y949D01*
X2299Y952D01*
X2305Y957D01*
X2310Y962D01*
X2312Y969D01*
X2313Y976D01*
Y1059D01*
X2312Y1066D01*
X2310Y1073D01*
X2305Y1079D01*
X2299Y1083D01*
X2293Y1086D01*
X2285Y1087D01*
X2280D01*
X2277Y1088D01*
X2268Y1090D01*
X2259Y1088D01*
X2255Y1087D01*
X2250D01*
X2243Y1086D01*
X2236Y1083D01*
X2230Y1079D01*
X2226Y1073D01*
X2223Y1066D01*
X2222Y1059D01*
Y1056D01*
X1780D01*
X1776Y1060D01*
X1769Y1062D01*
X1762Y1063D01*
X1757D01*
X1753Y1065D01*
X1744Y1066D01*
X1735Y1065D01*
X1732Y1063D01*
X1726D01*
X1719Y1062D01*
X1712Y1060D01*
X1708Y1056D01*
X1149D01*
X1148Y1061D01*
X1151Y1064D01*
X1157Y1071D01*
X1160Y1079D01*
X1161Y1089D01*
X1160Y1098D01*
X1157Y1106D01*
X1151Y1114D01*
X1144Y1119D01*
X1141Y1120D01*
Y1135D01*
X1142Y1135D01*
X1146Y1142D01*
X1148Y1151D01*
Y1214D01*
X1146Y1222D01*
X1142Y1230D01*
X1134Y1235D01*
X1126Y1236D01*
D02*
G37*
G36*
X714Y784D02*
Y767D01*
X731D01*
X730Y771D01*
X725Y778D01*
X717Y783D01*
X714Y784D01*
D02*
G37*
G36*
X704D02*
X700Y783D01*
X692Y778D01*
X687Y771D01*
X687Y767D01*
X704D01*
Y784D01*
D02*
G37*
G36*
X2113Y752D02*
X2109Y752D01*
X2102Y747D01*
X2095Y752D01*
X2092Y752D01*
Y730D01*
Y708D01*
X2095Y709D01*
X2102Y714D01*
X2109Y709D01*
X2113Y708D01*
Y730D01*
Y752D01*
D02*
G37*
G36*
X731Y757D02*
X714D01*
Y740D01*
X717Y741D01*
X725Y746D01*
X730Y753D01*
X731Y757D01*
D02*
G37*
G36*
X704D02*
X687D01*
X687Y753D01*
X692Y746D01*
X700Y741D01*
X704Y740D01*
Y757D01*
D02*
G37*
G36*
X2123Y752D02*
Y735D01*
X2140D01*
X2139Y739D01*
X2134Y747D01*
X2127Y752D01*
X2123Y752D01*
D02*
G37*
G36*
X2082D02*
X2078Y752D01*
X2070Y747D01*
X2065Y739D01*
X2065Y735D01*
X2082D01*
Y752D01*
D02*
G37*
G36*
X1674Y744D02*
Y727D01*
X1691D01*
X1690Y731D01*
X1686Y739D01*
X1678Y744D01*
X1674Y744D01*
D02*
G37*
G36*
X1664D02*
X1661Y744D01*
X1653Y739D01*
X1648Y731D01*
X1647Y727D01*
X1664D01*
Y744D01*
D02*
G37*
G36*
X2140Y725D02*
X2123D01*
Y708D01*
X2127Y709D01*
X2134Y714D01*
X2139Y722D01*
X2140Y725D01*
D02*
G37*
G36*
X2082D02*
X2065D01*
X2065Y722D01*
X2070Y714D01*
X2078Y709D01*
X2082Y708D01*
Y725D01*
D02*
G37*
G36*
X2303Y743D02*
X2273D01*
Y708D01*
X2263D01*
Y743D01*
X2233D01*
Y740D01*
X2222D01*
Y676D01*
X2268D01*
X2313D01*
Y740D01*
X2303D01*
Y743D01*
D02*
G37*
G36*
X2186Y725D02*
Y708D01*
X2203D01*
X2202Y712D01*
X2197Y719D01*
X2190Y724D01*
X2186Y725D01*
D02*
G37*
G36*
X2176D02*
X2172Y724D01*
X2165Y719D01*
X2160Y712D01*
X2159Y708D01*
X2176D01*
Y725D01*
D02*
G37*
G36*
X987Y721D02*
X970D01*
Y704D01*
X973Y705D01*
X981Y710D01*
X986Y718D01*
X987Y721D01*
D02*
G37*
G36*
X960D02*
X943D01*
X943Y718D01*
X948Y710D01*
X956Y705D01*
X960Y704D01*
Y721D01*
D02*
G37*
G36*
X1691Y717D02*
X1674D01*
Y700D01*
X1678Y701D01*
X1686Y706D01*
X1690Y714D01*
X1691Y717D01*
D02*
G37*
G36*
X1664D02*
X1647D01*
X1648Y714D01*
X1653Y706D01*
X1661Y701D01*
X1664Y700D01*
Y717D01*
D02*
G37*
G36*
X1344Y717D02*
Y700D01*
X1361D01*
X1360Y704D01*
X1355Y711D01*
X1347Y716D01*
X1344Y717D01*
D02*
G37*
G36*
X1334D02*
X1330Y716D01*
X1322Y711D01*
X1317Y704D01*
X1317Y700D01*
X1334D01*
Y717D01*
D02*
G37*
G36*
X1779Y727D02*
X1749D01*
Y692D01*
X1739D01*
Y727D01*
X1709D01*
Y725D01*
X1699D01*
Y661D01*
X1744D01*
X1790D01*
Y725D01*
X1779D01*
Y727D01*
D02*
G37*
G36*
X2203Y698D02*
X2186D01*
Y681D01*
X2190Y682D01*
X2197Y687D01*
X2202Y694D01*
X2203Y698D01*
D02*
G37*
G36*
X2176D02*
X2159D01*
X2160Y694D01*
X2165Y687D01*
X2172Y682D01*
X2176Y681D01*
Y698D01*
D02*
G37*
G36*
X970Y658D02*
Y641D01*
X987D01*
X986Y645D01*
X981Y652D01*
X973Y657D01*
X970Y658D01*
D02*
G37*
G36*
X2313Y666D02*
X2273D01*
Y602D01*
X2313D01*
Y666D01*
D02*
G37*
G36*
X2263D02*
X2222D01*
Y602D01*
X2263D01*
Y666D01*
D02*
G37*
G36*
X2664Y722D02*
Y599D01*
X2787D01*
X2786Y614D01*
X2781Y634D01*
X2773Y652D01*
X2763Y670D01*
X2750Y685D01*
X2734Y698D01*
X2717Y709D01*
X2698Y716D01*
X2679Y721D01*
X2664Y722D01*
D02*
G37*
G36*
X2654D02*
X2639Y721D01*
X2619Y716D01*
X2600Y709D01*
X2583Y698D01*
X2568Y685D01*
X2555Y670D01*
X2544Y652D01*
X2536Y634D01*
X2532Y614D01*
X2531Y599D01*
X2654D01*
Y722D01*
D02*
G37*
G36*
X380D02*
Y599D01*
X503D01*
X502Y614D01*
X497Y634D01*
X490Y652D01*
X479Y670D01*
X466Y685D01*
X451Y698D01*
X434Y709D01*
X415Y716D01*
X395Y721D01*
X380Y722D01*
D02*
G37*
G36*
X370D02*
X355Y721D01*
X335Y716D01*
X317Y709D01*
X300Y698D01*
X284Y685D01*
X271Y670D01*
X261Y652D01*
X253Y634D01*
X248Y614D01*
X247Y599D01*
X370D01*
Y722D01*
D02*
G37*
G36*
X1790Y651D02*
X1749D01*
Y586D01*
X1790D01*
Y651D01*
D02*
G37*
G36*
X1739D02*
X1699D01*
Y586D01*
X1739D01*
Y651D01*
D02*
G37*
G36*
X1147Y559D02*
Y542D01*
X1164D01*
X1163Y546D01*
X1158Y554D01*
X1151Y559D01*
X1147Y559D01*
D02*
G37*
G36*
X1137D02*
X1133Y559D01*
X1126Y554D01*
X1121Y546D01*
X1120Y542D01*
X1137D01*
Y559D01*
D02*
G37*
G36*
X627Y544D02*
Y527D01*
X644D01*
X643Y530D01*
X638Y538D01*
X631Y543D01*
X627Y544D01*
D02*
G37*
G36*
X617D02*
X613Y543D01*
X606Y538D01*
X601Y530D01*
X600Y527D01*
X617D01*
Y544D01*
D02*
G37*
G36*
X1164Y532D02*
X1147D01*
Y515D01*
X1151Y516D01*
X1158Y521D01*
X1163Y529D01*
X1164Y532D01*
D02*
G37*
G36*
X1137D02*
X1120D01*
X1121Y529D01*
X1126Y521D01*
X1133Y516D01*
X1137Y515D01*
Y532D01*
D02*
G37*
G36*
X644Y517D02*
X627D01*
Y500D01*
X631Y500D01*
X638Y505D01*
X643Y513D01*
X644Y517D01*
D02*
G37*
G36*
X617D02*
X600D01*
X601Y513D01*
X606Y505D01*
X613Y500D01*
X617Y500D01*
Y517D01*
D02*
G37*
G36*
X370Y589D02*
X247D01*
X248Y574D01*
X253Y554D01*
X261Y536D01*
X271Y519D01*
X284Y503D01*
X293Y496D01*
X290Y492D01*
X290Y492D01*
X277Y493D01*
Y409D01*
X361D01*
X360Y422D01*
X355Y438D01*
X347Y454D01*
X336Y467D01*
X337Y469D01*
X339Y471D01*
X355Y467D01*
X370Y466D01*
Y589D01*
D02*
G37*
G36*
X2787D02*
X2664D01*
Y466D01*
X2679Y467D01*
X2698Y472D01*
X2717Y480D01*
X2734Y490D01*
X2750Y503D01*
X2763Y519D01*
X2773Y536D01*
X2781Y554D01*
X2786Y574D01*
X2787Y589D01*
D02*
G37*
G36*
X2654D02*
X2531D01*
X2532Y574D01*
X2536Y554D01*
X2544Y536D01*
X2555Y519D01*
X2568Y503D01*
X2583Y490D01*
X2600Y480D01*
X2619Y472D01*
X2639Y467D01*
X2654Y466D01*
Y589D01*
D02*
G37*
G36*
X503D02*
X380D01*
Y466D01*
X395Y467D01*
X415Y472D01*
X434Y480D01*
X451Y490D01*
X466Y503D01*
X479Y519D01*
X490Y536D01*
X497Y554D01*
X502Y574D01*
X503Y589D01*
D02*
G37*
G36*
X1737Y437D02*
Y420D01*
X1754D01*
X1753Y424D01*
X1749Y432D01*
X1741Y437D01*
X1737Y437D01*
D02*
G37*
G36*
X1727D02*
X1724Y437D01*
X1716Y432D01*
X1711Y424D01*
X1710Y420D01*
X1727D01*
Y437D01*
D02*
G37*
G36*
X2926Y494D02*
Y411D01*
X3010D01*
X3009Y423D01*
X3004Y440D01*
X2995Y455D01*
X2984Y469D01*
X2971Y480D01*
X2955Y488D01*
X2939Y493D01*
X2926Y494D01*
D02*
G37*
G36*
X2916D02*
X2904Y493D01*
X2887Y488D01*
X2872Y480D01*
X2858Y469D01*
X2847Y455D01*
X2839Y440D01*
X2834Y423D01*
X2833Y411D01*
X2916D01*
Y494D01*
D02*
G37*
G36*
X267Y493D02*
X255Y492D01*
X238Y487D01*
X223Y478D01*
X209Y467D01*
X198Y454D01*
X190Y438D01*
X185Y422D01*
X184Y409D01*
X267D01*
Y493D01*
D02*
G37*
G36*
X1754Y410D02*
X1737D01*
Y393D01*
X1741Y394D01*
X1749Y399D01*
X1753Y407D01*
X1754Y410D01*
D02*
G37*
G36*
X1727D02*
X1710D01*
X1711Y407D01*
X1716Y399D01*
X1724Y394D01*
X1727Y393D01*
Y410D01*
D02*
G37*
G36*
X508Y382D02*
X473D01*
Y347D01*
X508D01*
Y382D01*
D02*
G37*
G36*
X463D02*
X428D01*
Y347D01*
X463D01*
Y382D01*
D02*
G37*
G36*
X3010Y401D02*
X2926D01*
Y317D01*
X2939Y318D01*
X2955Y323D01*
X2971Y331D01*
X2984Y342D01*
X2995Y356D01*
X3004Y371D01*
X3009Y388D01*
X3010Y401D01*
D02*
G37*
G36*
X2916D02*
X2833D01*
X2834Y388D01*
X2839Y371D01*
X2847Y356D01*
X2858Y342D01*
X2872Y331D01*
X2887Y323D01*
X2904Y318D01*
X2916Y317D01*
Y401D01*
D02*
G37*
G36*
X361Y399D02*
X277D01*
Y316D01*
X290Y317D01*
X307Y322D01*
X322Y330D01*
X335Y341D01*
X347Y355D01*
X355Y370D01*
X360Y387D01*
X361Y399D01*
D02*
G37*
G36*
X267D02*
X184D01*
X185Y387D01*
X190Y370D01*
X198Y355D01*
X209Y341D01*
X223Y330D01*
X238Y322D01*
X255Y317D01*
X267Y316D01*
Y399D01*
D02*
G37*
%LPD*%
G36*
X1476Y930D02*
X1540Y866D01*
Y590D01*
X1535Y587D01*
X1529Y592D01*
X1527Y593D01*
Y679D01*
X1526Y685D01*
X1523Y690D01*
X1446Y766D01*
X1442Y769D01*
X1436Y771D01*
X1400D01*
X1397Y776D01*
X1398Y782D01*
Y809D01*
X1376D01*
X1354D01*
Y782D01*
X1354Y779D01*
X1351Y774D01*
X1347Y779D01*
X1348Y782D01*
Y809D01*
X1326D01*
X1304D01*
Y782D01*
X1304Y779D01*
X1301Y774D01*
X1297Y779D01*
X1298Y782D01*
Y809D01*
X1276D01*
X1254D01*
Y782D01*
X1254Y779D01*
X1251Y774D01*
X1247Y779D01*
X1248Y782D01*
Y809D01*
X1226D01*
X1204D01*
Y782D01*
X1204Y779D01*
X1201Y774D01*
X1197Y779D01*
X1198Y782D01*
Y809D01*
X1176D01*
X1154D01*
Y782D01*
X1154Y779D01*
X1151Y774D01*
X1147Y779D01*
X1148Y782D01*
Y845D01*
X1146Y854D01*
X1142Y861D01*
X1141Y861D01*
Y897D01*
X1170Y926D01*
X1172Y925D01*
X1181Y923D01*
X1190Y925D01*
X1199Y928D01*
X1206Y934D01*
X1212Y941D01*
X1215Y950D01*
X1216Y959D01*
X1215Y968D01*
X1212Y976D01*
X1210Y979D01*
X1212Y983D01*
X1422D01*
X1476Y930D01*
D02*
G37*
G36*
X1469Y400D02*
X1201D01*
Y667D01*
X1469D01*
Y400D01*
D02*
G37*
%LPC*%
G36*
X1186Y910D02*
Y893D01*
X1203D01*
X1202Y897D01*
X1197Y904D01*
X1190Y909D01*
X1186Y910D01*
D02*
G37*
G36*
X1176D02*
X1172Y909D01*
X1165Y904D01*
X1160Y897D01*
X1159Y893D01*
X1176D01*
Y910D01*
D02*
G37*
G36*
X1381Y866D02*
Y819D01*
X1398D01*
Y845D01*
X1396Y854D01*
X1392Y861D01*
X1384Y866D01*
X1381Y866D01*
D02*
G37*
G36*
X1331D02*
Y819D01*
X1348D01*
Y845D01*
X1346Y854D01*
X1342Y861D01*
X1334Y866D01*
X1331Y866D01*
D02*
G37*
G36*
X1281D02*
Y819D01*
X1298D01*
Y845D01*
X1296Y854D01*
X1292Y861D01*
X1284Y866D01*
X1281Y866D01*
D02*
G37*
G36*
X1231D02*
Y819D01*
X1248D01*
Y845D01*
X1246Y854D01*
X1242Y861D01*
X1234Y866D01*
X1231Y866D01*
D02*
G37*
G36*
X1371D02*
X1367Y866D01*
X1360Y861D01*
X1355Y854D01*
X1354Y845D01*
Y819D01*
X1371D01*
Y866D01*
D02*
G37*
G36*
X1321D02*
X1317Y866D01*
X1310Y861D01*
X1305Y854D01*
X1304Y845D01*
Y819D01*
X1321D01*
Y866D01*
D02*
G37*
G36*
X1271D02*
X1267Y866D01*
X1260Y861D01*
X1255Y854D01*
X1254Y845D01*
Y819D01*
X1271D01*
Y866D01*
D02*
G37*
G36*
X1221D02*
X1217Y866D01*
X1210Y861D01*
X1205Y854D01*
X1204Y845D01*
Y819D01*
X1221D01*
Y866D01*
D02*
G37*
G36*
X1203Y883D02*
X1159D01*
X1160Y879D01*
X1165Y872D01*
X1167Y870D01*
X1166Y865D01*
X1160Y861D01*
X1155Y854D01*
X1154Y845D01*
Y819D01*
X1176D01*
X1198D01*
Y845D01*
X1196Y854D01*
X1192Y861D01*
X1190Y862D01*
X1191Y867D01*
X1197Y872D01*
X1202Y879D01*
X1203Y883D01*
D02*
G37*
G36*
X1442Y835D02*
Y818D01*
X1459D01*
X1458Y822D01*
X1453Y829D01*
X1446Y834D01*
X1442Y835D01*
D02*
G37*
G36*
X1432D02*
X1428Y834D01*
X1421Y829D01*
X1416Y822D01*
X1415Y818D01*
X1432D01*
Y835D01*
D02*
G37*
G36*
X1459Y808D02*
X1442D01*
Y791D01*
X1446Y792D01*
X1453Y797D01*
X1458Y804D01*
X1459Y808D01*
D02*
G37*
G36*
X1432D02*
X1415D01*
X1416Y804D01*
X1421Y797D01*
X1428Y792D01*
X1432Y791D01*
Y808D01*
D02*
G37*
%LPD*%
D10*
X2811Y1425D02*
D03*
Y1319D02*
D03*
X2894D02*
D03*
Y1425D02*
D03*
X2661Y1823D02*
D03*
Y1717D02*
D03*
X2748D02*
D03*
Y1823D02*
D03*
X2193Y1835D02*
D03*
Y1728D02*
D03*
X1815Y187D02*
D03*
Y81D02*
D03*
X2098Y187D02*
D03*
Y81D02*
D03*
X2394Y187D02*
D03*
Y81D02*
D03*
X2669Y195D02*
D03*
Y89D02*
D03*
X803Y195D02*
D03*
Y89D02*
D03*
X504Y195D02*
D03*
Y89D02*
D03*
X1091Y191D02*
D03*
Y85D02*
D03*
X244Y195D02*
D03*
Y89D02*
D03*
X1693Y191D02*
D03*
Y85D02*
D03*
X1209Y187D02*
D03*
Y81D02*
D03*
D19*
X1376Y814D02*
D03*
X1326D02*
D03*
X1276D02*
D03*
X1226D02*
D03*
X1176D02*
D03*
X1126D02*
D03*
X1076D02*
D03*
X1026D02*
D03*
X1376Y1182D02*
D03*
X1326D02*
D03*
X1276D02*
D03*
X1226D02*
D03*
X1176D02*
D03*
X1126D02*
D03*
X1076D02*
D03*
D20*
X1026D02*
D03*
D21*
X1943Y1734D02*
D03*
X1837D02*
D03*
X3837Y1685D02*
D03*
X3730D02*
D03*
X3841Y1787D02*
D03*
X3734D02*
D03*
X3841Y1469D02*
D03*
X3734D02*
D03*
X3159Y1697D02*
D03*
X3266D02*
D03*
X3159Y1480D02*
D03*
X3266D02*
D03*
X3447Y1043D02*
D03*
X3553D02*
D03*
X3159Y1039D02*
D03*
X3266D02*
D03*
X3447Y827D02*
D03*
X3553D02*
D03*
X3734Y1039D02*
D03*
X3841D02*
D03*
X3451Y1472D02*
D03*
X3557D02*
D03*
X3455Y1260D02*
D03*
X3561D02*
D03*
X3159Y1264D02*
D03*
X3266D02*
D03*
X3159Y827D02*
D03*
X3266D02*
D03*
X3455Y602D02*
D03*
X3561D02*
D03*
X3443Y386D02*
D03*
X3549D02*
D03*
X3159Y602D02*
D03*
X3266D02*
D03*
X3159Y386D02*
D03*
X3266D02*
D03*
X3443Y193D02*
D03*
X3549D02*
D03*
X3159Y1807D02*
D03*
X3266D02*
D03*
X3734Y1264D02*
D03*
X3841D02*
D03*
X3734Y831D02*
D03*
X3841D02*
D03*
X3734Y602D02*
D03*
X3841D02*
D03*
X3738Y394D02*
D03*
X3844D02*
D03*
X3738Y177D02*
D03*
X3844D02*
D03*
X3451Y1787D02*
D03*
X3557D02*
D03*
X3447Y1681D02*
D03*
X3553D02*
D03*
X3159Y173D02*
D03*
X3266D02*
D03*
D22*
X557Y1778D02*
D03*
X498D02*
D03*
X171Y1581D02*
D03*
X230D02*
D03*
D23*
X311Y1732D02*
D03*
Y1673D02*
D03*
D28*
X2567Y959D02*
Y1053D01*
X2500Y1120D02*
X2567Y1053D01*
X2500Y1120D02*
Y1303D01*
X2603Y1001D02*
Y1293D01*
Y1001D02*
X2646Y959D01*
X2516Y1380D02*
X2603Y1293D01*
X1076Y1182D02*
Y1214D01*
X1047Y1242D02*
X1076Y1214D01*
X996Y1242D02*
X1047D01*
X935Y1181D02*
X996Y1242D01*
X891Y1181D02*
X935D01*
X859Y1213D02*
X891Y1181D01*
X663Y1213D02*
X859D01*
X1075Y755D02*
Y814D01*
X1076D01*
X1333Y1345D02*
X1383D01*
X1392Y1308D02*
X1702D01*
X1400Y1328D02*
X1665D01*
X1342Y1325D02*
X1375D01*
X1383Y1345D02*
X1400Y1328D01*
X1375Y1325D02*
X1392Y1308D01*
X1720Y1384D02*
Y1388D01*
X1665Y1328D02*
X1720Y1384D01*
X1424Y1451D02*
X1452D01*
X1432Y1431D02*
X1625D01*
X1407Y1405D02*
X1432Y1431D01*
X1398Y1425D02*
X1424Y1451D01*
X1300Y1425D02*
X1398D01*
X1309Y1405D02*
X1407D01*
X1438Y1408D02*
X1634D01*
X1415Y1385D02*
X1438Y1408D01*
X1317Y1385D02*
X1415D01*
X1877Y1367D02*
X2435D01*
X1798Y1288D02*
X1877Y1367D01*
X1373Y1288D02*
X1798D01*
X1838Y1387D02*
X2444D01*
X1807Y1356D02*
X1838Y1387D01*
X1802Y1407D02*
X2495D01*
X1654Y1428D02*
X2012D01*
X1702Y1308D02*
X1802Y1407D01*
X1634Y1408D02*
X1654Y1428D01*
X1358Y1274D02*
X1373Y1288D01*
X1325Y1365D02*
X1589D01*
X1297Y1338D02*
X1325Y1365D01*
X1292Y1360D02*
X1317Y1385D01*
X1283Y1380D02*
X1309Y1405D01*
X1275Y1400D02*
X1300Y1425D01*
X1587Y1368D02*
X1589Y1365D01*
X1625Y1431D02*
X1672Y1478D01*
X1452Y1451D02*
X1479Y1478D01*
X1293Y1277D02*
X1342Y1325D01*
X1178Y1277D02*
X1293D01*
X521Y1400D02*
X1275D01*
X529Y1380D02*
X1283D01*
X537Y1360D02*
X1292D01*
X543Y1338D02*
X1297D01*
X1306Y1318D02*
X1333Y1345D01*
X551Y1318D02*
X1306D01*
X1358Y1274D02*
Y1285D01*
X472Y1266D02*
X543Y1338D01*
X480Y1246D02*
X551Y1318D01*
X2435Y1367D02*
X2500Y1303D01*
X2012Y1428D02*
X2034Y1449D01*
X2539Y1412D02*
X2594Y1357D01*
X2499Y1412D02*
X2539D01*
X2495Y1407D02*
X2499Y1412D01*
X2444Y1387D02*
X2524Y1308D01*
Y1163D02*
Y1308D01*
X2594Y1357D02*
X2725D01*
X2516Y1372D02*
Y1380D01*
X2725Y1357D02*
X2793Y1425D01*
X2646Y959D02*
X2880D01*
X2988Y1067D01*
X2524Y1163D02*
X2563Y1124D01*
X2917Y1372D02*
X2952Y1407D01*
X2776Y1372D02*
X2917D01*
X2744Y1340D02*
X2776Y1372D01*
X2744Y1009D02*
Y1340D01*
X2793Y1425D02*
X2811D01*
X2952Y1407D02*
X2988D01*
X1484Y1711D02*
X1673D01*
X1452Y1743D02*
X1484Y1711D01*
X1416Y1743D02*
X1452D01*
X1068Y1695D02*
X1369D01*
X997Y1766D02*
X1068Y1695D01*
X961Y1766D02*
X997D01*
X921Y1726D02*
X961Y1766D01*
X742Y1726D02*
X921D01*
X741Y1727D02*
X742Y1726D01*
X708Y1727D02*
X741D01*
X707Y1726D02*
X708Y1727D01*
X634Y1726D02*
X707D01*
X614Y1707D02*
X634Y1726D01*
X894Y1671D02*
X1401D01*
X878Y1687D02*
X894Y1671D01*
X724Y1687D02*
X878D01*
X1369Y1695D02*
X1416Y1743D01*
X1469Y1667D02*
X1876D01*
X1433Y1703D02*
X1469Y1667D01*
X1876D02*
X1943Y1734D01*
X1401Y1671D02*
X1433Y1703D01*
X1177Y1278D02*
X1178Y1277D01*
X2811Y1425D02*
X2894D01*
Y1319D02*
X2905Y1307D01*
X2988D01*
X2268Y1687D02*
Y1734D01*
X2491Y1767D02*
X2496Y1762D01*
X80Y1478D02*
X191Y1366D01*
X80Y1478D02*
Y1478D01*
X191Y1366D02*
X430D01*
X546Y1526D02*
X1228D01*
X508Y1488D02*
X546Y1526D01*
X1228D02*
X1279Y1576D01*
X123Y794D02*
X146Y817D01*
X123Y522D02*
Y794D01*
X126Y825D02*
Y993D01*
X79Y778D02*
X126Y825D01*
X146Y817D02*
Y985D01*
X163Y1002D01*
X126Y993D02*
X143Y1011D01*
X163Y1002D02*
Y1076D01*
X143Y1011D02*
Y1085D01*
X123Y1019D02*
Y1093D01*
X86Y982D02*
X123Y1019D01*
X83Y982D02*
X86D01*
X183Y1096D02*
Y1169D01*
X163Y1105D02*
Y1177D01*
X143Y1113D02*
Y1185D01*
X163Y1076D02*
X183Y1096D01*
X143Y1085D02*
X163Y1105D01*
X123Y1093D02*
X143Y1113D01*
X123Y1121D02*
Y1194D01*
X80Y1078D02*
X123Y1121D01*
X79Y1078D02*
X80D01*
X112Y1346D02*
X439D01*
X128Y1326D02*
X447D01*
X455Y1306D02*
X529Y1380D01*
X208Y1306D02*
X455D01*
X447Y1326D02*
X521Y1400D01*
X439Y1346D02*
X512Y1420D01*
X430Y1366D02*
X508Y1444D01*
X559Y1297D02*
X1059D01*
X488Y1226D02*
X559Y1297D01*
X241Y1226D02*
X488D01*
X183Y1169D02*
X241Y1226D01*
X233Y1246D02*
X480D01*
X163Y1177D02*
X233Y1246D01*
X224Y1266D02*
X472D01*
X143Y1185D02*
X224Y1266D01*
X79Y978D02*
X83Y982D01*
X463Y1286D02*
X537Y1360D01*
X216Y1286D02*
X463D01*
X123Y1194D02*
X216Y1286D01*
X79Y1078D02*
X79Y1078D01*
X34Y933D02*
X79Y978D01*
X34Y622D02*
Y933D01*
Y622D02*
X79Y578D01*
Y478D02*
X123Y522D01*
X1059Y1297D02*
X1079Y1278D01*
X512Y1420D02*
X1221D01*
X1672Y1478D02*
X1679D01*
X1221Y1420D02*
X1279Y1478D01*
X508Y1444D02*
Y1488D01*
X81Y1378D02*
X112Y1346D01*
X79Y1378D02*
X81D01*
X79Y1178D02*
X208Y1306D01*
X79Y1278D02*
X128Y1326D01*
X2079Y1541D02*
Y1578D01*
X2034Y1496D02*
X2079Y1541D01*
X2034Y1449D02*
Y1496D01*
X79Y1478D02*
X80Y1478D01*
X1279Y1576D02*
Y1578D01*
X2491Y1767D02*
Y1915D01*
X2279Y1578D02*
X2300D01*
X2270Y1915D02*
X2307Y1878D01*
Y1835D02*
Y1878D01*
X2193Y1835D02*
X2307D01*
X1943Y1734D02*
Y1803D01*
X1972Y1845D02*
X2047Y1770D01*
X1837Y1807D02*
X1875Y1845D01*
X1941Y1805D02*
X1943Y1803D01*
X1875Y1845D02*
X1972D01*
X2047Y1752D02*
Y1770D01*
X1837Y1722D02*
Y1807D01*
X1122Y1179D02*
X1126Y1175D01*
Y1089D02*
Y1175D01*
X1126Y814D02*
Y903D01*
X1181Y959D01*
X1965Y1234D02*
X2079D01*
X998Y785D02*
X1026Y814D01*
X624Y992D02*
Y1065D01*
Y992D02*
X831Y785D01*
X998D01*
X524Y1063D02*
Y1065D01*
Y1063D02*
X833Y755D01*
X1026Y814D02*
Y890D01*
X1134Y999D01*
X1512Y561D02*
Y679D01*
X1134Y999D02*
X1429D01*
X1487Y940D01*
X1555Y514D02*
Y872D01*
X1487Y940D02*
X1555Y872D01*
X1075Y755D02*
X1436D01*
X1512Y679D01*
X833Y755D02*
X1075D01*
X2264Y1683D02*
X2268Y1687D01*
X2344Y1736D02*
Y1799D01*
X2347Y1802D01*
X3807Y55D02*
Y1909D01*
X3801Y49D02*
X3807Y55D01*
X3169Y47D02*
X3201D01*
X3201Y47D01*
X3205Y51D01*
X3205Y51D01*
X3217Y63D01*
X3622Y102D02*
Y126D01*
X3594Y1860D02*
X3644Y1811D01*
X3594Y1854D02*
Y1860D01*
X3309Y1850D02*
X3358Y1801D01*
X3622Y126D02*
X3644Y148D01*
Y1811D01*
X3358Y148D02*
Y1801D01*
Y148D02*
X3398Y108D01*
X2736Y138D02*
X2827D01*
X63D02*
X157D01*
D29*
X573Y1636D02*
X2193D01*
X557Y1652D02*
X573Y1636D01*
X2465Y1633D02*
X2535Y1703D01*
X2196Y1633D02*
X2465D01*
X2193Y1636D02*
X2196Y1633D01*
X2197Y1640D02*
Y1728D01*
X2988Y1407D02*
Y1548D01*
X2616Y1650D02*
X2886D01*
X2594Y1671D02*
X2616Y1650D01*
X2594Y1671D02*
Y1756D01*
X2886Y1650D02*
X2988Y1548D01*
X2594Y1756D02*
X2661Y1823D01*
Y1717D02*
X2748D01*
Y1823D02*
X2835Y1736D01*
Y1703D02*
Y1736D01*
X205Y1756D02*
X220D01*
X173Y1482D02*
Y1602D01*
X171Y1604D02*
X173Y1602D01*
X220Y1756D02*
X244Y1732D01*
X311D01*
X352D01*
X485Y1599D01*
X557Y1652D02*
Y1778D01*
X485Y1599D02*
X557D01*
X2130Y1791D02*
X2193Y1728D01*
X2130Y1875D02*
X2170Y1915D01*
X2130Y1791D02*
Y1875D01*
X557Y1599D02*
Y1652D01*
Y1599D02*
X579Y1578D01*
X167Y1608D02*
Y1689D01*
X79Y1778D02*
X167Y1689D01*
X77Y1778D02*
X79D01*
X637Y1915D02*
X866D01*
X578Y1856D02*
X637Y1915D01*
X557Y1836D02*
X578Y1856D01*
X579Y1578D02*
X679D01*
X557Y1778D02*
Y1836D01*
X2244Y1031D02*
X2268Y1054D01*
X1744Y792D02*
X1760Y808D01*
X1744Y792D02*
Y829D01*
Y994D01*
Y1031D01*
X1760Y808D02*
X2268D01*
X909Y880D02*
X1060Y1031D01*
X1744D01*
X2244D01*
X854Y687D02*
X854D01*
X614D02*
X854D01*
X378Y923D02*
X614Y687D01*
X378Y923D02*
Y1167D01*
X1177Y364D02*
X1295D01*
X854Y687D02*
X1177Y364D01*
X1295D02*
X1472D01*
X1496Y388D01*
Y486D01*
X2768Y39D02*
X2827D01*
X2732Y75D02*
X2768Y39D01*
X2728Y197D02*
X2772Y240D01*
X2829D01*
X67Y39D02*
X134D01*
X169Y75D01*
X122Y240D02*
X165Y197D01*
X63Y240D02*
X122D01*
D34*
X3886Y48D02*
Y1776D01*
X3596Y1564D02*
Y1781D01*
X3311Y1630D02*
Y1781D01*
Y1564D02*
Y1630D01*
X3596Y1347D02*
Y1564D01*
Y1131D02*
Y1347D01*
Y914D02*
Y1131D01*
Y698D02*
Y914D01*
Y481D02*
Y698D01*
Y265D02*
Y481D01*
Y164D02*
Y265D01*
X3570Y75D02*
X3596Y48D01*
X3570Y75D02*
Y137D01*
X3596Y164D01*
X3311Y1347D02*
Y1564D01*
Y1131D02*
Y1347D01*
Y914D02*
Y1131D01*
Y698D02*
Y914D01*
Y265D02*
Y698D01*
Y48D02*
Y265D01*
X3689Y73D02*
Y1830D01*
X3403Y178D02*
Y1903D01*
X3681Y1837D02*
X3689Y1830D01*
X3681Y1837D02*
Y1911D01*
X3396D02*
X3681D01*
X3110Y395D02*
Y1910D01*
X3396Y1911D02*
X3403Y1903D01*
X3111Y1911D02*
X3396D01*
X3111Y395D02*
X3113Y392D01*
X3110Y395D02*
X3111Y395D01*
X3113Y64D02*
Y392D01*
D35*
X578Y1856D02*
D03*
X1744Y1031D02*
D03*
X2268Y1054D02*
D03*
Y808D02*
D03*
X1744Y792D02*
D03*
X2567Y959D02*
D03*
X663Y1213D02*
D03*
X1807Y1356D02*
D03*
X1720Y1388D02*
D03*
X1587Y1368D02*
D03*
X1358Y1285D02*
D03*
X2516Y1372D02*
D03*
X2744Y1009D02*
D03*
X2563Y1124D02*
D03*
X724Y1687D02*
D03*
X1673Y1711D02*
D03*
X1177Y1278D02*
D03*
X2496Y1762D02*
D03*
X173Y1482D02*
D03*
X614Y1707D02*
D03*
X1079Y1278D02*
D03*
X1941Y1805D02*
D03*
X1433Y1703D02*
D03*
X1181Y959D02*
D03*
X1126Y1089D02*
D03*
X2079Y1234D02*
D03*
X1965D02*
D03*
X1555Y514D02*
D03*
X1512Y561D02*
D03*
X909Y880D02*
D03*
X854Y687D02*
D03*
X378Y1167D02*
D03*
X1295Y364D02*
D03*
X2264Y1683D02*
D03*
X2347Y1802D02*
D03*
X3311Y331D02*
D03*
X3598D02*
D03*
X3886D02*
D03*
X3110Y543D02*
D03*
X3398D02*
D03*
X3685D02*
D03*
X3307Y760D02*
D03*
X3594D02*
D03*
X3882D02*
D03*
X3106Y976D02*
D03*
X3394D02*
D03*
X3681D02*
D03*
X3307Y1197D02*
D03*
X3594D02*
D03*
X3882D02*
D03*
X3106Y1409D02*
D03*
X3394D02*
D03*
X3681D02*
D03*
X3886Y1630D02*
D03*
X3598D02*
D03*
X3311D02*
D03*
D36*
X478Y1856D02*
D03*
D37*
X2479Y1578D02*
D03*
Y1478D02*
D03*
X2379Y1578D02*
D03*
Y1478D02*
D03*
X2279Y1578D02*
D03*
Y1478D02*
D03*
X2179Y1578D02*
D03*
Y1478D02*
D03*
X2079Y1578D02*
D03*
Y1478D02*
D03*
X1979Y1578D02*
D03*
Y1478D02*
D03*
X1879Y1578D02*
D03*
Y1478D02*
D03*
X1779Y1578D02*
D03*
Y1478D02*
D03*
X1679Y1578D02*
D03*
Y1478D02*
D03*
X1579Y1578D02*
D03*
Y1478D02*
D03*
X1479Y1578D02*
D03*
Y1478D02*
D03*
X1379Y1578D02*
D03*
Y1478D02*
D03*
X1279Y1578D02*
D03*
Y1478D02*
D03*
X1179Y1578D02*
D03*
Y1478D02*
D03*
X1079Y1578D02*
D03*
Y1478D02*
D03*
X979Y1578D02*
D03*
Y1478D02*
D03*
X879Y1578D02*
D03*
Y1478D02*
D03*
X779Y1578D02*
D03*
Y1478D02*
D03*
X679Y1578D02*
D03*
Y1478D02*
D03*
X579Y1578D02*
D03*
X568Y342D02*
D03*
X861Y1910D02*
D03*
X2988Y1067D02*
D03*
X2988Y1548D02*
D03*
X743Y1910D02*
D03*
X2988Y1307D02*
D03*
X2047Y1752D02*
D03*
D38*
X579Y1478D02*
D03*
X861Y1810D02*
D03*
X2988Y1167D02*
D03*
X2988Y1648D02*
D03*
X743Y1810D02*
D03*
X2988Y1407D02*
D03*
X2047Y1852D02*
D03*
D39*
X468Y342D02*
D03*
D40*
X2835Y1703D02*
D03*
X2535D02*
D03*
D41*
X720Y1041D02*
D03*
X2370Y1915D02*
D03*
X2791D02*
D03*
X701Y337D02*
D03*
D42*
X620Y1041D02*
D03*
X520D02*
D03*
X909Y1126D02*
D03*
Y1226D02*
D03*
X2270Y1915D02*
D03*
X2170D02*
D03*
X2491D02*
D03*
X2591D02*
D03*
X2691D02*
D03*
X79Y478D02*
D03*
Y578D02*
D03*
Y678D02*
D03*
Y778D02*
D03*
Y878D02*
D03*
Y978D02*
D03*
Y1078D02*
D03*
Y1178D02*
D03*
Y1278D02*
D03*
Y1378D02*
D03*
Y1478D02*
D03*
Y1578D02*
D03*
Y1678D02*
D03*
X984Y1815D02*
D03*
Y1715D02*
D03*
X801Y337D02*
D03*
X901D02*
D03*
X1001D02*
D03*
D43*
X909Y1026D02*
D03*
X79Y1778D02*
D03*
X984Y1915D02*
D03*
D44*
X1744Y1131D02*
D03*
X2268Y1154D02*
D03*
Y708D02*
D03*
X1744Y692D02*
D03*
D45*
X272Y404D02*
D03*
Y1850D02*
D03*
X2921Y406D02*
D03*
X2920Y1850D02*
D03*
D46*
X375Y1500D02*
D03*
Y594D02*
D03*
X2659D02*
D03*
Y1500D02*
D03*
D47*
X1335Y533D02*
D03*
X1303Y565D02*
D03*
X1366D02*
D03*
Y502D02*
D03*
X1303D02*
D03*
X1142Y537D02*
D03*
X1339Y695D02*
D03*
X1732Y415D02*
D03*
X1669Y722D02*
D03*
X1937Y856D02*
D03*
X2118Y730D02*
D03*
X2181Y703D02*
D03*
X2118Y1089D02*
D03*
X1909D02*
D03*
X1984D02*
D03*
X2087Y730D02*
D03*
X2461Y1148D02*
D03*
X1803Y1821D02*
D03*
X366Y1659D02*
D03*
X217Y1522D02*
D03*
X965Y636D02*
D03*
X622Y522D02*
D03*
X709Y762D02*
D03*
X965Y726D02*
D03*
X299Y978D02*
D03*
X240Y904D02*
D03*
X1437Y813D02*
D03*
X1181Y888D02*
D03*
X1323Y1100D02*
D03*
X1496Y486D02*
D03*
X1354Y321D02*
D03*
X3169Y47D02*
D03*
X3886Y48D02*
D03*
X3622Y102D02*
D03*
X3594Y1854D02*
D03*
X3309Y1850D02*
D03*
X3311Y480D02*
D03*
X3110Y610D02*
D03*
X3311Y1781D02*
D03*
X3596D02*
D03*
X3881D02*
D03*
Y1564D02*
D03*
X3596D02*
D03*
X3311D02*
D03*
Y1347D02*
D03*
X3596D02*
D03*
X3881D02*
D03*
Y1131D02*
D03*
X3596D02*
D03*
X3311D02*
D03*
Y914D02*
D03*
X3596D02*
D03*
X3881D02*
D03*
Y698D02*
D03*
X3596D02*
D03*
X3311D02*
D03*
X3596Y481D02*
D03*
X3881D02*
D03*
Y265D02*
D03*
X3596D02*
D03*
X3311D02*
D03*
X3596Y48D02*
D03*
X3311D02*
D03*
X3396Y178D02*
D03*
X3111D02*
D03*
Y395D02*
D03*
X3396D02*
D03*
X3681Y178D02*
D03*
Y395D02*
D03*
Y611D02*
D03*
X3396D02*
D03*
X3111Y828D02*
D03*
X3396D02*
D03*
X3681D02*
D03*
Y1044D02*
D03*
X3396D02*
D03*
X3111D02*
D03*
Y1261D02*
D03*
X3396D02*
D03*
X3681D02*
D03*
Y1477D02*
D03*
X3396D02*
D03*
X3111D02*
D03*
Y1694D02*
D03*
X3396D02*
D03*
X3681D02*
D03*
Y1911D02*
D03*
X3396D02*
D03*
X3111D02*
D03*
X3807Y1909D02*
D03*
X3398Y108D02*
D03*
X169Y75D02*
D03*
X445D02*
D03*
X728D02*
D03*
X1024D02*
D03*
X1311D02*
D03*
X1594D02*
D03*
X1882D02*
D03*
X2165D02*
D03*
X2453D02*
D03*
X2732D02*
D03*
X2728Y197D02*
D03*
X2453D02*
D03*
X2165D02*
D03*
X1878D02*
D03*
X1591D02*
D03*
X1311D02*
D03*
X1024D02*
D03*
X441D02*
D03*
X165D02*
D03*
X728D02*
D03*
X2736Y138D02*
D03*
X157D02*
D03*
D48*
X205Y1756D02*
D03*
X167Y1650D02*
D03*
X2307Y1843D02*
D03*
X2270Y1736D02*
D03*
D49*
X242Y1650D02*
D03*
X2344Y1736D02*
D03*
D50*
X1744Y994D02*
D03*
X2268Y1018D02*
D03*
Y844D02*
D03*
X1744Y829D02*
D03*
D51*
Y1167D02*
D03*
X2268Y1191D02*
D03*
Y671D02*
D03*
X1744Y656D02*
D03*
D52*
X3885Y64D02*
D03*
X3311Y63D02*
D03*
D53*
X3783Y63D02*
D03*
X3216D02*
D03*
D54*
X3680Y64D02*
D03*
X3113D02*
D03*
D55*
X63Y240D02*
D03*
X2829D02*
D03*
D56*
X63Y138D02*
D03*
X67Y39D02*
D03*
X2827Y138D02*
D03*
Y39D02*
D03*
M02*
