G04 Layer_Color=32896*
%FSLAX23Y23*%
%MOIN*%
G70*
G01*
G75*
%ADD28C,0.010*%
%ADD57C,0.008*%
%ADD59C,0.005*%
%ADD103C,0.007*%
D28*
X144Y1681D02*
X262D01*
X144D02*
Y1724D01*
X262D01*
Y1681D02*
Y1724D01*
X2246Y1768D02*
X2364D01*
X2246D02*
Y1811D01*
X2364D01*
Y1768D02*
Y1811D01*
X1638Y1187D02*
X1850D01*
X1823Y974D02*
X1850Y1002D01*
Y1187D01*
X1665Y974D02*
X1823D01*
X1638Y1002D02*
X1665Y974D01*
X1638Y1002D02*
Y1187D01*
X2161Y1211D02*
X2374D01*
X2346Y998D02*
X2374Y1026D01*
Y1211D01*
X2189Y998D02*
X2346D01*
X2161Y1026D02*
X2189Y998D01*
X2161Y1026D02*
Y1211D01*
Y652D02*
X2374D01*
X2161Y837D02*
X2189Y864D01*
X2161Y652D02*
Y837D01*
X2189Y864D02*
X2346D01*
X2374Y837D01*
Y652D02*
Y837D01*
X1638Y636D02*
X1850D01*
X1638Y821D02*
X1665Y848D01*
X1638Y636D02*
Y821D01*
X1665Y848D02*
X1823D01*
X1850Y821D01*
Y636D02*
Y821D01*
X0Y285D02*
X3039D01*
Y1970D01*
X0D02*
X3039D01*
X0Y285D02*
Y1970D01*
X3051Y0D02*
Y1965D01*
D57*
X1001Y986D02*
G03*
X1001Y1011I0J13D01*
G01*
Y1131D02*
X1401D01*
Y864D02*
Y1131D01*
X1001Y864D02*
X1401D01*
X1001D02*
Y986D01*
Y1011D02*
Y1131D01*
X2781Y1356D02*
Y1388D01*
X2841Y1356D02*
Y1388D01*
X2923Y1356D02*
Y1388D01*
X2864Y1356D02*
Y1388D01*
X2632Y1754D02*
Y1785D01*
X2691Y1754D02*
Y1785D01*
X2778Y1754D02*
Y1785D01*
X2719Y1754D02*
Y1785D01*
X2163Y1766D02*
Y1797D01*
X2222Y1766D02*
Y1797D01*
X1874Y1764D02*
X1906D01*
X1874Y1705D02*
X1906D01*
X3768Y1715D02*
X3799D01*
X3768Y1656D02*
X3799D01*
X3772Y1817D02*
X3803D01*
X3772Y1758D02*
X3803D01*
X3772Y1498D02*
X3803D01*
X3772Y1439D02*
X3803D01*
X3197Y1667D02*
X3228D01*
X3197Y1726D02*
X3228D01*
X3197Y1451D02*
X3228D01*
X3197Y1510D02*
X3228D01*
X3484Y1014D02*
X3516D01*
X3484Y1073D02*
X3516D01*
X3197Y1010D02*
X3228D01*
X3197Y1069D02*
X3228D01*
X3484Y797D02*
X3516D01*
X3484Y856D02*
X3516D01*
X3772Y1010D02*
X3803D01*
X3772Y1069D02*
X3803D01*
X3488Y1443D02*
X3520D01*
X3488Y1502D02*
X3520D01*
X3492Y1230D02*
X3524D01*
X3492Y1289D02*
X3524D01*
X3197Y1234D02*
X3228D01*
X3197Y1293D02*
X3228D01*
X3197Y797D02*
X3228D01*
X3197Y856D02*
X3228D01*
X3492Y573D02*
X3524D01*
X3492Y632D02*
X3524D01*
X3480Y356D02*
X3512D01*
X3480Y415D02*
X3512D01*
X3197Y573D02*
X3228D01*
X3197Y632D02*
X3228D01*
X3197Y356D02*
X3228D01*
X3197Y415D02*
X3228D01*
X3480Y163D02*
X3512D01*
X3480Y222D02*
X3512D01*
X3197Y1778D02*
X3228D01*
X3197Y1837D02*
X3228D01*
X3772Y1234D02*
X3803D01*
X3772Y1293D02*
X3803D01*
X3772Y801D02*
X3803D01*
X3772Y860D02*
X3803D01*
X3772Y573D02*
X3803D01*
X3772Y632D02*
X3803D01*
X3776Y364D02*
X3807D01*
X3776Y423D02*
X3807D01*
X3776Y148D02*
X3807D01*
X3776Y207D02*
X3807D01*
X3488Y1758D02*
X3520D01*
X3488Y1817D02*
X3520D01*
X3484Y1652D02*
X3516D01*
X3484Y1711D02*
X3516D01*
X3197Y144D02*
X3228D01*
X3197Y203D02*
X3228D01*
X1785Y118D02*
Y150D01*
X1844Y118D02*
Y150D01*
X2069Y118D02*
Y150D01*
X2128Y118D02*
Y150D01*
X2364Y118D02*
Y150D01*
X2423Y118D02*
Y150D01*
X2640Y126D02*
Y157D01*
X2699Y126D02*
Y157D01*
X774Y126D02*
Y157D01*
X833Y126D02*
Y157D01*
X474Y126D02*
Y157D01*
X533Y126D02*
Y157D01*
X1061Y122D02*
Y154D01*
X1120Y122D02*
Y154D01*
X215Y126D02*
Y157D01*
X274Y126D02*
Y157D01*
X1663Y122D02*
Y154D01*
X1722Y122D02*
Y154D01*
X1179Y118D02*
Y150D01*
X1238Y118D02*
Y150D01*
D59*
X962Y817D02*
X987D01*
X992Y812D01*
Y802D01*
X987Y797D01*
X962D01*
Y767D02*
Y787D01*
X977D01*
X972Y777D01*
Y772D01*
X977Y767D01*
X987D01*
X992Y772D01*
Y782D01*
X987Y787D01*
X2417Y1859D02*
X2397D01*
X2407D01*
Y1829D01*
X2387D02*
Y1859D01*
X2372D01*
X2367Y1854D01*
Y1844D01*
X2372Y1839D01*
X2387D01*
X2377D02*
X2367Y1829D01*
X2357Y1854D02*
X2352Y1859D01*
X2342D01*
X2337Y1854D01*
Y1849D01*
X2342Y1844D01*
X2347D01*
X2342D01*
X2337Y1839D01*
Y1834D01*
X2342Y1829D01*
X2352D01*
X2357Y1834D01*
X2693Y1652D02*
Y1682D01*
X2678D01*
X2673Y1677D01*
Y1667D01*
X2678Y1662D01*
X2693D01*
X2683D02*
X2673Y1652D01*
X2663D02*
X2653D01*
X2658D01*
Y1682D01*
X2663Y1677D01*
X2618Y1682D02*
X2638D01*
Y1667D01*
X2628Y1672D01*
X2623D01*
X2618Y1667D01*
Y1657D01*
X2623Y1652D01*
X2633D01*
X2638Y1657D01*
X2787Y1652D02*
Y1682D01*
X2772D01*
X2767Y1677D01*
Y1667D01*
X2772Y1662D01*
X2787D01*
X2777D02*
X2767Y1652D01*
X2757D02*
X2747D01*
X2752D01*
Y1682D01*
X2757Y1677D01*
X2717Y1652D02*
Y1682D01*
X2732Y1667D01*
X2712D01*
X2843Y1258D02*
Y1288D01*
X2828D01*
X2823Y1283D01*
Y1273D01*
X2828Y1268D01*
X2843D01*
X2833D02*
X2823Y1258D01*
X2813D02*
X2803D01*
X2808D01*
Y1288D01*
X2813Y1283D01*
X2788Y1258D02*
X2778D01*
X2783D01*
Y1288D01*
X2788Y1283D01*
X2929Y1258D02*
Y1288D01*
X2914D01*
X2909Y1283D01*
Y1273D01*
X2914Y1268D01*
X2929D01*
X2919D02*
X2909Y1258D01*
X2899D02*
X2889D01*
X2894D01*
Y1288D01*
X2899Y1283D01*
X2874D02*
X2869Y1288D01*
X2859D01*
X2854Y1283D01*
Y1263D01*
X2859Y1258D01*
X2869D01*
X2874Y1263D01*
Y1283D01*
X1776Y1711D02*
X1806D01*
Y1726D01*
X1801Y1731D01*
X1791D01*
X1786Y1726D01*
Y1711D01*
Y1721D02*
X1776Y1731D01*
X1806Y1741D02*
Y1761D01*
X1801D01*
X1781Y1741D01*
X1776D01*
X2213Y1659D02*
Y1689D01*
X2198D01*
X2193Y1684D01*
Y1674D01*
X2198Y1669D01*
X2213D01*
X2203D02*
X2193Y1659D01*
X2183Y1684D02*
X2178Y1689D01*
X2168D01*
X2163Y1684D01*
Y1679D01*
X2168Y1674D01*
X2173D01*
X2168D01*
X2163Y1669D01*
Y1664D01*
X2168Y1659D01*
X2178D01*
X2183Y1664D01*
X176Y1742D02*
Y1752D01*
Y1747D01*
X146D01*
Y1742D01*
Y1752D01*
X171Y1787D02*
X176Y1782D01*
Y1772D01*
X171Y1767D01*
X151D01*
X146Y1772D01*
Y1782D01*
X151Y1787D01*
X146Y1797D02*
Y1807D01*
Y1802D01*
X176D01*
X171Y1797D01*
X2189Y984D02*
X2194Y989D01*
X2204D01*
X2209Y984D01*
Y964D01*
X2204Y959D01*
X2194D01*
X2189Y964D01*
X2179Y959D02*
X2169D01*
X2174D01*
Y989D01*
X2179Y984D01*
X2139Y959D02*
Y989D01*
X2154Y974D01*
X2134D01*
X1834Y956D02*
X1839Y961D01*
X1849D01*
X1854Y956D01*
Y936D01*
X1849Y931D01*
X1839D01*
X1834Y936D01*
X1824Y931D02*
X1814D01*
X1819D01*
Y961D01*
X1824Y956D01*
X1779Y931D02*
X1799D01*
X1779Y951D01*
Y956D01*
X1784Y961D01*
X1794D01*
X1799Y956D01*
X2189Y909D02*
X2194Y914D01*
X2204D01*
X2209Y909D01*
Y889D01*
X2204Y884D01*
X2194D01*
X2189Y889D01*
X2179Y884D02*
X2169D01*
X2174D01*
Y914D01*
X2179Y909D01*
X2154D02*
X2149Y914D01*
X2139D01*
X2134Y909D01*
Y889D01*
X2139Y884D01*
X2149D01*
X2154Y889D01*
Y909D01*
X1830Y893D02*
X1835Y898D01*
X1845D01*
X1850Y893D01*
Y873D01*
X1845Y868D01*
X1835D01*
X1830Y873D01*
X1820Y893D02*
X1815Y898D01*
X1805D01*
X1800Y893D01*
Y888D01*
X1805Y883D01*
X1800Y878D01*
Y873D01*
X1805Y868D01*
X1815D01*
X1820Y873D01*
Y878D01*
X1815Y883D01*
X1820Y888D01*
Y893D01*
X1815Y883D02*
X1805D01*
X623Y1774D02*
X628Y1769D01*
Y1759D01*
X623Y1754D01*
X603D01*
X598Y1759D01*
Y1769D01*
X603Y1774D01*
X598Y1799D02*
X628D01*
X613Y1784D01*
Y1804D01*
X177Y1535D02*
X182Y1540D01*
X192D01*
X197Y1535D01*
Y1515D01*
X192Y1510D01*
X182D01*
X177Y1515D01*
X167Y1535D02*
X162Y1540D01*
X152D01*
X147Y1535D01*
Y1530D01*
X152Y1525D01*
X157D01*
X152D01*
X147Y1520D01*
Y1515D01*
X152Y1510D01*
X162D01*
X167Y1515D01*
X315Y1633D02*
X320Y1638D01*
X330D01*
X335Y1633D01*
Y1613D01*
X330Y1608D01*
X320D01*
X315Y1613D01*
X285Y1608D02*
X305D01*
X285Y1628D01*
Y1633D01*
X290Y1638D01*
X300D01*
X305Y1633D01*
D103*
X3180Y1874D02*
X3150D01*
X3180Y1904D01*
Y1912D01*
X3172Y1919D01*
X3157D01*
X3150Y1912D01*
X3195D02*
X3202Y1919D01*
X3217D01*
X3225Y1912D01*
Y1882D01*
X3217Y1874D01*
X3202D01*
X3195Y1882D01*
Y1912D01*
X3240Y1874D02*
X3255D01*
X3247D01*
Y1919D01*
X3240Y1912D01*
X3307Y1919D02*
X3292Y1912D01*
X3277Y1897D01*
Y1882D01*
X3285Y1874D01*
X3300D01*
X3307Y1882D01*
Y1889D01*
X3300Y1897D01*
X3277D01*
X3367D02*
X3397D01*
X3457Y1919D02*
Y1874D01*
X3480D01*
X3487Y1882D01*
Y1912D01*
X3480Y1919D01*
X3457D01*
X3502Y1904D02*
Y1874D01*
Y1889D01*
X3509Y1897D01*
X3517Y1904D01*
X3524D01*
X3547Y1874D02*
X3562D01*
X3554D01*
Y1904D01*
X3547D01*
X3607Y1874D02*
X3592D01*
X3584Y1882D01*
Y1897D01*
X3592Y1904D01*
X3607D01*
X3614Y1897D01*
Y1889D01*
X3584D01*
X3629Y1874D02*
X3652D01*
X3659Y1882D01*
X3652Y1889D01*
X3637D01*
X3629Y1897D01*
X3637Y1904D01*
X3659D01*
X3674Y1912D02*
X3682Y1919D01*
X3697D01*
X3704Y1912D01*
Y1882D01*
X3697Y1874D01*
X3682D01*
X3674Y1882D01*
Y1912D01*
X3719D02*
X3727Y1919D01*
X3742D01*
X3749Y1912D01*
Y1882D01*
X3742Y1874D01*
X3727D01*
X3719Y1882D01*
Y1912D01*
X3764Y1919D02*
X3794D01*
Y1912D01*
X3764Y1882D01*
Y1874D01*
X307Y93D02*
Y63D01*
X337Y93D01*
X345D01*
X352Y85D01*
Y70D01*
X345Y63D01*
Y108D02*
X352Y115D01*
Y130D01*
X345Y138D01*
X315D01*
X307Y130D01*
Y115D01*
X315Y108D01*
X345D01*
X307Y153D02*
Y168D01*
Y160D01*
X352D01*
X345Y153D01*
X352Y220D02*
X345Y205D01*
X330Y190D01*
X315D01*
X307Y198D01*
Y213D01*
X315Y220D01*
X322D01*
X330Y213D01*
Y190D01*
X423Y16D02*
X378D01*
X393Y31D01*
X378Y46D01*
X423D01*
X415Y91D02*
X423Y83D01*
Y68D01*
X415Y61D01*
X408D01*
X400Y68D01*
Y83D01*
X393Y91D01*
X385D01*
X378Y83D01*
Y68D01*
X385Y61D01*
X378Y136D02*
Y106D01*
X408Y136D01*
X415D01*
X423Y128D01*
Y113D01*
X415Y106D01*
Y151D02*
X423Y158D01*
Y173D01*
X415Y181D01*
X408D01*
X400Y173D01*
X393Y181D01*
X385D01*
X378Y173D01*
Y158D01*
X385Y151D01*
X393D01*
X400Y158D01*
X408Y151D01*
X415D01*
X400Y158D02*
Y173D01*
X378Y196D02*
Y211D01*
Y203D01*
X423D01*
X415Y196D01*
X378Y263D02*
Y233D01*
X408Y263D01*
X415D01*
X423Y256D01*
Y241D01*
X415Y233D01*
X1618Y163D02*
Y118D01*
X1596D01*
X1588Y126D01*
Y156D01*
X1596Y163D01*
X1618D01*
X1573Y148D02*
Y118D01*
Y133D01*
X1566Y141D01*
X1558Y148D01*
X1551D01*
X1528Y118D02*
X1513D01*
X1521D01*
Y148D01*
X1528D01*
X1468Y118D02*
X1483D01*
X1491Y126D01*
Y141D01*
X1483Y148D01*
X1468D01*
X1461Y141D01*
Y133D01*
X1491D01*
X1446Y118D02*
X1423D01*
X1416Y126D01*
X1423Y133D01*
X1438D01*
X1446Y141D01*
X1438Y148D01*
X1416D01*
X1401Y156D02*
X1393Y163D01*
X1378D01*
X1371Y156D01*
Y126D01*
X1378Y118D01*
X1393D01*
X1401Y126D01*
Y156D01*
X1356D02*
X1348Y163D01*
X1333D01*
X1326Y156D01*
Y126D01*
X1333Y118D01*
X1348D01*
X1356Y126D01*
Y156D01*
X1311Y163D02*
X1281D01*
Y156D01*
X1311Y126D01*
Y118D01*
X567Y135D02*
X597D01*
X612Y157D02*
X634Y135D01*
X612Y112D01*
X2268Y139D02*
X2298D01*
X2313Y161D02*
X2335Y139D01*
X2313Y116D01*
X2592Y61D02*
X2622D01*
Y38D01*
X2607Y46D01*
X2600D01*
X2592Y38D01*
Y23D01*
X2600Y16D01*
X2615D01*
X2622Y23D01*
X2577Y61D02*
Y31D01*
X2562Y16D01*
X2547Y31D01*
Y61D01*
X2596Y246D02*
X2603Y254D01*
X2618D01*
X2626Y246D01*
Y216D01*
X2618Y209D01*
X2603D01*
X2596Y216D01*
Y231D01*
X2611D01*
X2581Y209D02*
Y254D01*
X2551Y209D01*
Y254D01*
X2536D02*
Y209D01*
X2514D01*
X2506Y216D01*
Y246D01*
X2514Y254D01*
X2536D01*
X616Y250D02*
X623Y258D01*
X638D01*
X646Y250D01*
Y220D01*
X638Y213D01*
X623D01*
X616Y220D01*
Y235D01*
X631D01*
X601Y213D02*
Y258D01*
X571Y213D01*
Y258D01*
X556D02*
Y213D01*
X533D01*
X526Y220D01*
Y250D01*
X533Y258D01*
X556D01*
X588Y57D02*
X618D01*
Y34D01*
X603Y42D01*
X596D01*
X588Y34D01*
Y19D01*
X596Y12D01*
X611D01*
X618Y19D01*
X573Y57D02*
Y27D01*
X558Y12D01*
X543Y27D01*
Y57D01*
M02*
